<?xml version="1.0" encoding="UTF-8"?>
<svg xmlns="http://www.w3.org/2000/svg" width="171" height="48" viewBox="0 0 171 48" fill="none">
  <g clip-path="url(#clip0_4116_489)">
    <path d="M95.5271 24.9026C95.5271 21.9409 94.2637 19.3306 89.9973 19.3306C87.8057 19.3306 86.066 19.9472 85.1158 20.4976L85.8103 22.8802C86.6768 22.3321 88.0592 21.8768 89.3689 21.8768C91.5341 21.8724 91.8891 23.1057 91.8891 23.8969V24.0848C87.1685 24.076 84.1875 25.7138 84.1875 29.0512C84.1875 31.0891 85.7067 33.001 88.3481 33.001C89.9709 33.001 91.3313 32.3512 92.1426 31.3101H92.2242C92.2242 31.3101 92.7622 33.5712 95.7344 32.707C95.5778 31.7654 95.5271 30.762 95.5271 29.5552M92.0015 28.0345C92.0015 28.2754 91.9817 28.523 91.9133 28.744C91.6399 29.648 90.7029 30.415 89.5343 30.415C88.5575 30.415 87.7836 29.8602 87.7836 28.6843C87.7836 26.8896 89.757 26.3923 92.0015 26.4034V28.0345Z" fill="#007DC3"></path>
    <path d="M22 15.2969C22 15.2969 25.0824 27.9638 25.5763 30.0216C26.1495 32.4219 27.1858 33.3038 30.169 32.7092L32.0939 24.8562C32.5833 22.9046 32.9097 21.5143 33.2227 19.5317H33.2779C33.5006 21.5342 33.8136 22.9112 34.2149 24.8628C34.2149 24.8628 34.9977 28.428 35.3989 30.3001C35.8002 32.1721 36.9225 33.3524 39.8439 32.7092L44.4323 15.2991H40.7281L39.1626 22.8272C38.7415 25.0176 38.3601 26.7327 38.0646 28.7352H38.0117C37.7449 26.7526 37.4032 25.106 36.9754 22.9731L35.3438 15.3013H31.4853L29.7413 22.7808C29.2474 25.0551 28.7844 26.8874 28.4911 28.8258H28.4382C28.1361 27.0024 27.7348 24.6971 27.3005 22.4957C27.3005 22.4957 26.2642 17.1491 25.9004 15.3035" fill="#007DC3"></path>
    <path d="M54.9624 24.9026C54.9624 21.9409 53.699 19.3306 49.4326 19.3306C47.241 19.3306 45.5013 19.9472 44.5532 20.4976L45.2478 22.8802C46.1143 22.3321 47.4967 21.8768 48.8064 21.8768C50.9738 21.8724 51.3266 23.1057 51.3266 23.8969V24.0848C46.606 24.076 43.625 25.7138 43.625 29.0512C43.625 31.0891 45.1441 33.001 47.7834 33.001C49.4084 33.001 50.7665 32.3512 51.5801 31.3101H51.6595C51.6595 31.3101 52.1997 33.5712 55.1697 32.707C55.0131 31.7654 54.9624 30.762 54.9624 29.5552M51.439 28.0345C51.439 28.2754 51.417 28.523 51.3508 28.744C51.0774 29.648 50.1426 30.415 48.9718 30.415C47.995 30.415 47.2211 29.8602 47.2211 28.6843C47.2211 26.8896 49.1945 26.3923 51.439 26.4034V28.0345Z" fill="#007DC3"></path>
    <path d="M60.8403 29.0093V15.2969H57.3125V32.707H60.8403" fill="#007DC3"></path>
    <path d="M106.984 15.2969V28.1406C106.984 29.911 107.317 31.1532 108.027 31.9091C108.647 32.5722 109.67 33.001 110.898 33.001C111.941 33.001 112.966 32.8021 113.451 32.623L113.405 29.8624C113.046 29.9508 112.631 30.0194 112.064 30.0194C110.863 30.0194 110.461 29.248 110.461 27.6588V22.7432H113.531V19.4146H110.461V15.2969" fill="#007DC3"></path>
    <path d="M97.8789 19.6314V32.7094H101.517V26.0124C101.517 25.6521 101.539 25.3383 101.596 25.0487C101.865 23.6452 102.937 22.7478 104.471 22.7478C104.895 22.7478 105.197 22.7943 105.523 22.8407V19.4148C105.248 19.3595 105.06 19.333 104.718 19.333C103.36 19.333 101.819 20.2127 101.169 22.0958H101.067V19.6314" fill="#007DC3"></path>
    <path d="M63.3086 19.6311V32.7092H66.854V25.0396C66.854 24.6793 66.8959 24.2992 67.0216 23.9676C67.3148 23.1941 68.0314 22.2923 69.1757 22.2923C70.6045 22.2923 71.2748 23.5057 71.2748 25.254V32.7092H74.8158V24.9468C74.8158 24.6042 74.8643 24.1909 74.9635 23.8859C75.2545 23.0084 76.0262 22.2923 77.0912 22.2923C78.542 22.2923 79.2387 23.4836 79.2387 25.5413V32.7092H82.7819V25.0065C82.7819 20.944 80.7248 19.335 78.4009 19.335C77.3712 19.335 76.5598 19.5936 75.8256 20.0444C75.2082 20.4246 74.6548 20.9661 74.1742 21.6756H74.1212C73.5612 20.2655 72.2427 19.335 70.5251 19.335C68.318 19.335 67.3259 20.4578 66.7239 21.4082H66.671V19.6311" fill="#007DC3"></path>
    <path d="M132.599 19.1031C133.3 19.1031 133.875 18.7362 133.952 18.2632L134.645 10.4124C134.645 9.63656 133.741 9 132.599 9C131.459 9 130.555 9.63656 130.555 10.4124L131.247 18.2632C131.322 18.7362 131.9 19.1031 132.599 19.1031Z" fill="#FDBB30"></path>
    <path d="M128.365 21.5541C128.716 20.9485 128.69 20.2611 128.319 19.9583L121.883 15.4339C121.215 15.0449 120.21 15.5135 119.641 16.5015C119.072 17.4917 119.171 18.5946 119.839 18.9814L126.963 22.3056C127.411 22.4714 128.015 22.1553 128.368 21.5453" fill="#FDBB30"></path>
    <path d="M136.834 21.5475C137.184 22.1576 137.791 22.4736 138.234 22.3078L145.362 18.9836C146.033 18.5946 146.132 17.4917 145.561 16.5037C144.992 15.5135 143.984 15.0472 143.318 15.4362L136.882 19.9606C136.514 20.2634 136.488 20.9508 136.836 21.5564" fill="#FDBB30"></path>
    <path d="M132.599 28.9077C133.3 28.9077 133.875 29.2702 133.952 29.741L134.645 37.5896C134.645 38.3676 133.741 39.0041 132.599 39.0041C131.459 39.0041 130.555 38.3676 130.555 37.5896L131.247 29.741C131.322 29.2702 131.9 28.9077 132.599 28.9077Z" fill="#FDBB30"></path>
    <path d="M136.834 26.4565C137.184 25.8464 137.791 25.5304 138.234 25.6961L145.362 29.0181C146.033 29.4093 146.132 30.5123 145.561 31.5024C144.992 32.4904 143.984 32.959 143.318 32.57L136.882 28.05C136.514 27.745 136.488 27.0598 136.836 26.452" fill="#FDBB30"></path>
    <path d="M128.365 26.4521C128.716 27.0621 128.69 27.7451 128.319 28.0501L121.883 32.5723C121.215 32.9591 120.21 32.4905 119.641 31.5047C119.072 30.5146 119.171 29.4094 119.839 29.0182L126.963 25.6984C127.411 25.5282 128.015 25.8465 128.368 26.4543" fill="#FDBB30"></path>
    <path d="M147.87 30.9722C148.5 30.9722 148.999 31.4628 148.999 32.0883C148.999 32.7293 148.5 33.22 147.861 33.22C147.224 33.22 146.719 32.7271 146.719 32.0883C146.719 31.4628 147.224 30.9722 147.861 30.9722M147.856 31.1689C147.349 31.1689 146.966 31.5822 146.966 32.0883C146.966 32.61 147.349 33.0166 147.87 33.0166C148.375 33.0255 148.745 32.6122 148.745 32.0972C148.745 31.5844 148.375 31.1689 147.861 31.1689H147.856ZM147.658 32.7072H147.442V31.5336C147.559 31.5115 147.684 31.4982 147.848 31.4982C148.044 31.4982 148.143 31.5336 148.218 31.591C148.289 31.6397 148.337 31.7325 148.337 31.8386C148.337 31.9867 148.231 32.0773 148.106 32.1193V32.1325C148.211 32.1745 148.267 32.2652 148.302 32.4132C148.337 32.5945 148.359 32.6652 148.386 32.7072H148.159C148.125 32.6652 148.099 32.5591 148.068 32.3978C148.042 32.2718 147.964 32.2143 147.795 32.2143H147.654V32.7072H147.658ZM147.658 32.0463H147.806C147.969 32.0463 148.108 31.9977 148.108 31.8563C148.108 31.7435 148.037 31.6662 147.828 31.6662C147.746 31.6662 147.698 31.6728 147.658 31.6817V32.0463Z" fill="#FDBB30"></path>
  </g>
  <defs>
    <clipPath id="clip0_4116_489">
      <rect width="127" height="30" fill="white" transform="translate(22 9)"></rect>
    </clipPath>
  </defs>
</svg>
