<?xml version="1.0" encoding="UTF-8"?>
<svg xmlns="http://www.w3.org/2000/svg" width="203" height="48" viewBox="0 0 203 48" fill="none">
  <g clip-path="url(#clip0_4120_638)">
    <path d="M87.04 18.5933C87.04 19.4065 87.1282 20.0659 87.2824 20.5494C87.4588 21.0329 87.6792 21.5604 87.9877 22.1318C88.0979 22.3076 88.142 22.4835 88.142 22.6373C88.142 22.8571 88.0097 23.0769 87.7232 23.2966L86.3347 24.2197C86.1364 24.3516 85.938 24.4175 85.7617 24.4175C85.5413 24.4175 85.3209 24.3076 85.1005 24.1098C84.792 23.7802 84.5275 23.4285 84.3071 23.0769C84.0867 22.7032 83.8663 22.2857 83.6239 21.7802C81.9048 23.8021 79.7449 24.8131 77.1443 24.8131C75.293 24.8131 73.8163 24.2857 72.7364 23.2307C71.6565 22.1758 71.1055 20.7692 71.1055 19.0109C71.1055 17.1428 71.7667 15.6263 73.1111 14.4835C74.4555 13.3406 76.2407 12.7692 78.5107 12.7692C79.2601 12.7692 80.0315 12.8351 80.8469 12.945C81.6624 13.0549 82.4999 13.2307 83.3815 13.4285V11.8241C83.3815 10.1538 83.0288 8.98895 82.3456 8.30763C81.6403 7.62631 80.4502 7.29664 78.7532 7.29664C77.9818 7.29664 77.1884 7.38456 76.3729 7.58236C75.5574 7.78016 74.764 8.02192 73.9926 8.32961C73.64 8.48346 73.3755 8.57137 73.2213 8.61533C73.067 8.65928 72.9568 8.68126 72.8686 8.68126C72.5601 8.68126 72.4058 8.46148 72.4058 7.99994V6.92302C72.4058 6.57137 72.4499 6.30763 72.5601 6.15379C72.6703 5.99994 72.8686 5.84609 73.1772 5.69225C73.9486 5.29664 74.8742 4.96697 75.9542 4.70324C77.0341 4.41752 78.1801 4.28566 79.3923 4.28566C82.015 4.28566 83.9324 4.87906 85.1667 6.06588C86.3788 7.25269 86.9959 9.05489 86.9959 11.4725V18.5933H87.04ZM78.092 21.934C78.8193 21.934 79.5686 21.8021 80.362 21.5384C81.1555 21.2747 81.8607 20.7912 82.4558 20.1318C82.8084 19.7142 83.0729 19.2527 83.2051 18.7252C83.3374 18.1977 83.4255 17.5604 83.4255 16.8131V15.8901C82.7864 15.7362 82.1032 15.6043 81.3979 15.5164C80.6926 15.4285 80.0094 15.3846 79.3262 15.3846C77.8495 15.3846 76.7696 15.6703 76.0423 16.2637C75.315 16.8571 74.9624 17.6923 74.9624 18.7912C74.9624 19.8241 75.2269 20.5933 75.7778 21.1208C76.3068 21.6703 77.0782 21.934 78.092 21.934ZM95.7897 24.3076C95.393 24.3076 95.1285 24.2417 94.9522 24.0879C94.7759 23.956 94.6216 23.6483 94.4894 23.2307L89.3101 6.2417C89.1778 5.80214 89.1117 5.51642 89.1117 5.36258C89.1117 5.01093 89.288 4.81313 89.6407 4.81313H91.8005C92.2193 4.81313 92.5058 4.87906 92.6601 5.03291C92.8364 5.16478 92.9686 5.47247 93.1009 5.89005L96.8035 20.4395L100.242 5.89005C100.352 5.45049 100.484 5.16478 100.66 5.03291C100.837 4.90104 101.145 4.81313 101.542 4.81313H103.305C103.724 4.81313 104.01 4.87906 104.187 5.03291C104.363 5.16478 104.517 5.47247 104.605 5.89005L108.088 20.6153L111.901 5.89005C112.033 5.45049 112.187 5.16478 112.341 5.03291C112.518 4.90104 112.804 4.81313 113.201 4.81313H115.251C115.603 4.81313 115.802 4.98895 115.802 5.36258C115.802 5.47247 115.779 5.58236 115.757 5.71423C115.735 5.8461 115.691 6.02192 115.603 6.26368L110.292 23.2527C110.159 23.6923 110.005 23.978 109.829 24.1098C109.653 24.2417 109.366 24.3296 108.991 24.3296H107.096C106.677 24.3296 106.391 24.2637 106.214 24.1098C106.038 23.956 105.884 23.6703 105.796 23.2307L102.379 9.05489L98.9854 23.2087C98.8752 23.6483 98.743 23.934 98.5667 24.0879C98.3903 24.2417 98.0818 24.3076 97.6851 24.3076H95.7897ZM124.11 24.901C122.964 24.901 121.818 24.7692 120.716 24.5054C119.614 24.2417 118.755 23.956 118.182 23.6263C117.829 23.4285 117.587 23.2087 117.499 23.0109C117.41 22.8131 117.366 22.5933 117.366 22.3955V21.2747C117.366 20.8131 117.543 20.5933 117.873 20.5933C118.005 20.5933 118.138 20.6153 118.27 20.6593C118.402 20.7032 118.601 20.7912 118.821 20.8791C119.57 21.2087 120.386 21.4725 121.245 21.6483C122.127 21.8241 122.986 21.912 123.868 21.912C125.256 21.912 126.336 21.6703 127.086 21.1868C127.835 20.7032 128.232 19.9999 128.232 19.0988C128.232 18.4835 128.033 17.978 127.637 17.5604C127.24 17.1428 126.491 16.7692 125.411 16.4175L122.215 15.4285C120.606 14.923 119.416 14.1758 118.689 13.1868C117.961 12.2197 117.587 11.1428 117.587 9.99994C117.587 9.07686 117.785 8.26368 118.182 7.56038C118.578 6.85708 119.107 6.2417 119.769 5.75818C120.43 5.25269 121.179 4.87906 122.061 4.61533C122.942 4.35159 123.868 4.2417 124.838 4.2417C125.323 4.2417 125.829 4.26368 126.314 4.32961C126.821 4.39555 127.284 4.48346 127.747 4.57137C128.188 4.68126 128.606 4.79115 129.003 4.92302C129.4 5.05489 129.708 5.18675 129.929 5.31862C130.237 5.49445 130.458 5.67027 130.59 5.86807C130.722 6.0439 130.788 6.28566 130.788 6.59335V7.62631C130.788 8.08785 130.612 8.32961 130.281 8.32961C130.105 8.32961 129.819 8.2417 129.444 8.06588C128.188 7.49445 126.777 7.20873 125.212 7.20873C123.956 7.20873 122.964 7.40653 122.281 7.82412C121.598 8.2417 121.245 8.87906 121.245 9.78016C121.245 10.3955 121.466 10.923 121.906 11.3406C122.347 11.7582 123.163 12.1758 124.331 12.5494L127.46 13.5384C129.047 14.0439 130.193 14.7472 130.877 15.6483C131.56 16.5494 131.89 17.5824 131.89 18.7252C131.89 19.6703 131.692 20.5274 131.317 21.2747C130.921 22.0219 130.392 22.6813 129.708 23.2087C129.025 23.7582 128.21 24.1538 127.262 24.4395C126.27 24.7472 125.234 24.901 124.11 24.901Z" fill="#252F3E"></path>
    <path fill-rule="evenodd" clip-rule="evenodd" d="M128.278 35.5822C121.027 40.9229 110.492 43.758 101.433 43.758C88.7387 43.758 77.3002 39.0767 68.6608 31.2965C67.9775 30.6811 68.5946 29.8459 69.4101 30.3295C78.7548 35.7361 90.2815 39.0108 102.205 39.0108C110.249 39.0108 119.087 37.3405 127.22 33.9119C128.432 33.3624 129.468 34.7031 128.278 35.5822Z" fill="#FF9900"></path>
    <path fill-rule="evenodd" clip-rule="evenodd" d="M131.298 32.1539C130.372 30.9671 125.171 31.5824 122.813 31.8682C122.108 31.9561 121.997 31.3407 122.637 30.8791C126.78 27.978 133.59 28.8132 134.384 29.7802C135.177 30.7693 134.163 37.5605 130.284 40.8132C129.689 41.3187 129.116 41.055 129.381 40.3956C130.262 38.2198 132.224 33.3187 131.298 32.1539Z" fill="#FF9900"></path>
  </g>
  <defs>
    <clipPath id="clip0_4120_638">
      <rect width="67" height="40" fill="white" transform="translate(68 4)"></rect>
    </clipPath>
  </defs>
</svg>
