<?xml version="1.0" encoding="UTF-8"?>
<svg xmlns="http://www.w3.org/2000/svg" width="203" height="48" viewBox="0 0 203 48" fill="none">
  <g clip-path="url(#clip0_4120_641)">
    <path d="M37.0838 18.0513H38.0444L40.782 15.31L40.9165 14.1462C39.3482 12.7601 37.4529 11.7972 35.4097 11.3485C33.3665 10.8998 31.2428 10.9801 29.2392 11.5818C27.2356 12.1835 25.4183 13.2868 23.9588 14.7874C22.4994 16.2879 21.4461 18.1363 20.8984 20.1578C21.2034 20.0327 21.5413 20.0124 21.859 20.1001L27.3342 19.196C27.3342 19.196 27.6127 18.7343 27.7568 18.7631C28.93 17.4729 30.5513 16.6806 32.2887 16.5483C34.0262 16.4159 35.7485 16.9537 37.1031 18.0513H37.0838Z" fill="#EA4335"></path>
    <path d="M44.6831 20.1578C44.0538 17.8374 42.7619 15.7514 40.9657 14.1558L37.1235 18.0032C37.9242 18.6584 38.566 19.4871 39.0003 20.4269C39.4346 21.3666 39.6501 22.3928 39.6305 23.4282V24.1111C40.0796 24.1111 40.5243 24.1996 40.9392 24.3717C41.354 24.5438 41.731 24.796 42.0486 25.114C42.3661 25.432 42.618 25.8095 42.7898 26.2249C42.9617 26.6404 43.0501 27.0856 43.0501 27.5353C43.0501 27.985 42.9617 28.4303 42.7898 28.8457C42.618 29.2612 42.3661 29.6387 42.0486 29.9566C41.731 30.2746 41.354 30.5268 40.9392 30.6989C40.5243 30.871 40.0796 30.9596 39.6305 30.9596H32.7914L32.1094 31.6521V35.7593L32.7914 36.4422H39.6305C41.5404 36.4571 43.4042 35.856 44.9465 34.7279C46.4887 33.5998 47.6274 32.0046 48.194 30.1783C48.7607 28.3519 48.7253 26.3914 48.093 24.5868C47.4607 22.7822 46.2651 21.2293 44.6831 20.1578Z" fill="#4285F4"></path>
    <path d="M25.9437 36.4037H32.7829V30.9211H25.9437C25.4565 30.921 24.9749 30.816 24.5317 30.6133L23.5712 30.9115L20.8144 33.6528L20.5742 34.6146C22.1202 35.7836 24.0066 36.4121 25.9437 36.4037Z" fill="#34A853"></path>
    <path d="M25.9432 18.6187C24.0901 18.6298 22.2868 19.2202 20.785 20.3074C19.2832 21.3946 18.1581 22.9243 17.5667 24.6829C16.9753 26.4415 16.9472 28.3412 17.4863 30.1166C18.0254 31.892 19.1048 33.4544 20.5737 34.5857L24.5408 30.6132C24.0366 30.3851 23.5953 30.038 23.2546 29.6015C22.9139 29.1651 22.684 28.6524 22.5847 28.1075C22.4854 27.5625 22.5196 27.0016 22.6843 26.4727C22.8491 25.9439 23.1395 25.463 23.5307 25.0713C23.9219 24.6796 24.4021 24.3888 24.9302 24.2238C25.4583 24.0588 26.0185 24.0246 26.5627 24.124C27.1069 24.2235 27.6189 24.4537 28.0547 24.7949C28.4906 25.136 28.8372 25.578 29.065 26.0828L33.0321 22.1103C32.1995 21.0203 31.1263 20.1379 29.8965 19.5322C28.6667 18.9265 27.3137 18.6138 25.9432 18.6187Z" fill="#FBBC05"></path>
    <path d="M66.8058 32.5754C65.6283 32.5904 64.4599 32.3673 63.3705 31.9194C62.2812 31.4715 61.2933 30.808 60.4661 29.9687C59.6129 29.1651 58.9357 28.1926 58.4777 27.113C58.0197 26.0334 57.7907 24.8703 57.8053 23.6974C57.7913 22.5246 58.0205 21.3616 58.4785 20.2821C58.9365 19.2026 59.6133 18.23 60.4661 17.426C61.2892 16.578 62.2753 15.9057 63.3648 15.4494C64.4544 14.9932 65.6248 14.7625 66.8058 14.7713C67.931 14.7562 69.048 14.9654 70.0918 15.3864C71.1357 15.8075 72.0855 16.4321 72.8861 17.224L71.1763 18.965C70.0054 17.8319 68.4339 17.2093 66.8058 17.2336C65.9612 17.2233 65.1237 17.3889 64.3464 17.7201C63.5692 18.0513 62.8693 18.5407 62.2912 19.1574C61.6903 19.7543 61.2163 20.4668 60.8977 21.252C60.5791 22.0372 60.4225 22.8788 60.4373 23.7262C60.4302 24.564 60.5906 25.3947 60.909 26.1694C61.2274 26.9441 61.6973 27.6473 62.2912 28.2374C63.4807 29.4244 65.0859 30.0997 66.7651 30.1195C68.4443 30.1392 70.0649 29.5019 71.282 28.3432C72.0354 27.5169 72.4977 26.4662 72.5979 25.3518H66.8346V22.8894H74.9897C75.0699 23.3853 75.102 23.8878 75.0858 24.3899C75.1365 25.4291 74.9762 26.4678 74.6147 27.4433C74.2531 28.4187 73.6977 29.3106 72.9822 30.0649C72.1866 30.8944 71.2253 31.5467 70.1611 31.9792C69.0969 32.4118 67.9536 32.6149 66.8058 32.5754ZM85.7672 30.9402C84.6727 31.9908 83.2153 32.5773 81.6992 32.5773C80.1832 32.5773 78.7257 31.9908 77.6313 30.9402C77.0865 30.4113 76.6575 29.7748 76.3715 29.0711C76.0854 28.3674 75.9485 27.6118 75.9695 26.8523C75.9491 26.0929 76.0862 25.3375 76.3723 24.6338C76.6583 23.9302 77.087 23.2936 77.6313 22.7644C78.7269 21.716 80.1839 21.131 81.6992 21.131C83.2146 21.131 84.6716 21.716 85.7672 22.7644C86.3115 23.2936 86.7402 23.9302 87.0262 24.6338C87.3122 25.3375 87.4494 26.0929 87.429 26.8523C87.4487 27.6125 87.3103 28.3685 87.0226 29.0723C86.7349 29.776 86.3041 30.4122 85.7576 30.9402H85.7672ZM79.4275 29.3339C79.7186 29.6452 80.0705 29.8934 80.4612 30.063C80.852 30.2327 81.2733 30.3202 81.6992 30.3202C82.1251 30.3202 82.5465 30.2327 82.9373 30.063C83.328 29.8934 83.6798 29.6452 83.971 29.3339C84.2884 29.0054 84.5369 28.6166 84.7019 28.1904C84.8668 27.7642 84.9449 27.3092 84.9315 26.8523C84.9457 26.3939 84.868 25.9372 84.703 25.5094C84.538 25.0815 84.2891 24.691 83.971 24.3611C83.676 24.053 83.3218 23.8078 82.9298 23.6403C82.5377 23.4728 82.1159 23.3864 81.6896 23.3864C81.2634 23.3864 80.8415 23.4728 80.4495 23.6403C80.0574 23.8078 79.7033 24.053 79.4083 24.3611C79.0902 24.691 78.8413 25.0815 78.6763 25.5094C78.5113 25.9372 78.4336 26.3939 78.4478 26.8523C78.4356 27.3099 78.5152 27.7653 78.6818 28.1915C78.8485 28.6177 79.0988 29.0062 79.4179 29.3339H79.4275ZM98.2737 30.9402C97.1792 31.9908 95.7218 32.5773 94.2057 32.5773C92.6896 32.5773 91.2322 31.9908 90.1377 30.9402C89.593 30.4113 89.164 29.7748 88.8779 29.0711C88.5918 28.3674 88.455 27.6118 88.476 26.8523C88.4556 26.0929 88.5927 25.3375 88.8787 24.6338C89.1648 23.9302 89.5935 23.2936 90.1377 22.7644C91.2322 21.7138 92.6896 21.1273 94.2057 21.1273C95.7218 21.1273 97.1792 21.7138 98.2737 22.7644C98.8179 23.2936 99.2466 23.9302 99.5327 24.6338C99.8187 25.3375 99.9558 26.0929 99.9354 26.8523C99.9564 27.6118 99.8196 28.3674 99.5335 29.0711C99.2474 29.7748 98.8184 30.4113 98.2737 30.9402ZM91.934 29.3339C92.2251 29.6452 92.5769 29.8934 92.9677 30.063C93.3584 30.2327 93.7798 30.3202 94.2057 30.3202C94.6316 30.3202 95.053 30.2327 95.4437 30.063C95.8345 29.8934 96.1863 29.6452 96.4774 29.3339C96.7948 29.0054 97.0434 28.6166 97.2083 28.1904C97.3733 27.7642 97.4514 27.3092 97.438 26.8523C97.4521 26.3939 97.3744 25.9372 97.2095 25.5094C97.0445 25.0815 96.7956 24.691 96.4774 24.3611C96.1825 24.053 95.8283 23.8078 95.4362 23.6403C95.0442 23.4728 94.6223 23.3864 94.1961 23.3864C93.7699 23.3864 93.348 23.4728 92.956 23.6403C92.5639 23.8078 92.2097 24.053 91.9148 24.3611C91.5966 24.691 91.3477 25.0815 91.1827 25.5094C91.0178 25.9372 90.9401 26.3939 90.9542 26.8523C90.9421 27.3099 91.0217 27.7653 91.1883 28.1915C91.3549 28.6177 91.6052 29.0062 91.9244 29.3339H91.934ZM106.496 37.7118C105.345 37.7484 104.216 37.3886 103.297 36.6922C102.482 36.0784 101.84 35.2631 101.434 34.326L103.624 33.4122C103.862 33.9722 104.235 34.4646 104.709 34.8454C105.217 35.2551 105.854 35.47 106.506 35.4514C106.919 35.4766 107.333 35.4123 107.719 35.2629C108.105 35.1135 108.455 34.8825 108.744 34.5857C109.322 33.8867 109.608 32.9903 109.541 32.0849V31.2577H109.455C109.089 31.693 108.626 32.037 108.104 32.2624C107.583 32.4878 107.015 32.5884 106.448 32.5562C105.727 32.5584 105.013 32.4107 104.352 32.1227C103.69 31.8346 103.096 31.4123 102.606 30.8825C102.074 30.3569 101.654 29.7288 101.372 29.036C101.09 28.3433 100.951 27.6004 100.963 26.8523C100.95 26.0998 101.089 25.3524 101.371 24.6549C101.653 23.9574 102.073 23.3242 102.606 22.7932C103.095 22.2612 103.689 21.8368 104.35 21.547C105.012 21.2573 105.726 21.1084 106.448 21.11C107.059 21.1089 107.663 21.2436 108.215 21.5043C108.694 21.7134 109.12 22.0254 109.464 22.4181H109.551V21.5043H111.933V31.7482C111.996 32.5586 111.892 33.3732 111.63 34.1423C111.367 34.9113 110.951 35.6186 110.406 36.2209C109.886 36.7182 109.273 37.1064 108.601 37.3625C107.93 37.6186 107.214 37.7373 106.496 37.7118ZM106.669 30.3246C107.079 30.3337 107.486 30.2522 107.861 30.0859C108.237 29.9197 108.571 29.6728 108.84 29.3628C109.432 28.6827 109.745 27.8025 109.714 26.9004C109.749 25.9831 109.437 25.0862 108.84 24.3899C108.571 24.0794 108.237 23.8321 107.862 23.6658C107.487 23.4996 107.079 23.4184 106.669 23.4281C106.248 23.4194 105.829 23.5007 105.442 23.6665C105.054 23.8324 104.706 24.079 104.421 24.3899C103.786 25.0612 103.441 25.9565 103.461 26.8812C103.451 27.3347 103.531 27.7858 103.696 28.2083C103.86 28.6309 104.107 29.0167 104.421 29.3435C104.705 29.6575 105.052 29.9073 105.44 30.0765C105.827 30.2457 106.246 30.3303 106.669 30.3246ZM116.169 15.4157V32.2291H113.662V15.4157H116.169ZM123.046 32.5754C122.296 32.5947 121.549 32.4586 120.853 32.1756C120.157 31.8926 119.527 31.4687 119.003 30.9306C118.47 30.3964 118.052 29.7595 117.773 29.0584C117.494 28.3573 117.36 27.6068 117.379 26.8523C117.351 26.096 117.475 25.3417 117.744 24.6344C118.013 23.9271 118.421 23.2813 118.945 22.7355C119.438 22.2146 120.035 21.8027 120.697 21.5261C121.358 21.2495 122.07 21.1143 122.787 21.1292C123.446 21.1222 124.1 21.2499 124.708 21.5043C125.256 21.7258 125.755 22.0525 126.178 22.4662C126.541 22.8169 126.863 23.2073 127.138 23.6301C127.361 23.987 127.551 24.3637 127.705 24.7554L127.965 25.4095L120.28 28.574C120.512 29.1087 120.901 29.5604 121.395 29.8695C121.889 30.1785 122.465 30.3305 123.046 30.3054C123.613 30.3069 124.169 30.1616 124.663 29.8834C125.156 29.6053 125.569 29.2038 125.861 28.7183L127.782 30.0168C127.292 30.7192 126.664 31.3147 125.938 31.7674C125.074 32.3141 124.068 32.595 123.046 32.5754ZM119.838 26.6792L124.948 24.5534C124.791 24.1786 124.509 23.8695 124.151 23.6781C123.75 23.4513 123.296 23.3351 122.835 23.3415C122.053 23.3618 121.311 23.6901 120.77 24.2553C120.446 24.5657 120.195 24.9439 120.033 25.3629C119.872 25.7819 119.806 26.2314 119.838 26.6792ZM141.095 32.5754C140.029 32.5938 138.97 32.3963 137.982 31.9948C136.994 31.5932 136.097 30.9958 135.345 30.2385C134.594 29.4812 134.002 28.5796 133.607 27.5878C133.212 26.5959 133.021 25.5344 133.046 24.4669C133.021 23.3993 133.212 22.3378 133.607 21.346C134.002 20.3542 134.594 19.4526 135.345 18.6953C136.097 17.938 136.994 17.3406 137.982 16.939C138.97 16.5374 140.029 16.3399 141.095 16.3583C142.175 16.3246 143.247 16.5354 144.234 16.9751C145.22 17.4148 146.094 18.072 146.791 18.8977L145.408 20.2443C144.896 19.5997 144.24 19.0852 143.492 18.7426C142.745 18.4 141.927 18.2389 141.105 18.2725C140.314 18.2546 139.528 18.3971 138.793 18.6913C138.059 18.9855 137.391 19.4254 136.83 19.9846C136.248 20.5713 135.793 21.2724 135.493 22.0438C135.194 22.8151 135.057 23.6401 135.092 24.4669C135.057 25.2937 135.194 26.1186 135.493 26.89C135.793 27.6613 136.248 28.3624 136.83 28.9492C137.391 29.5083 138.059 29.9482 138.793 30.2424C139.528 30.5367 140.314 30.6791 141.105 30.6613C142.023 30.6716 142.931 30.4746 143.763 30.0849C144.594 29.6953 145.328 29.1229 145.908 28.4105L147.291 29.7956C146.567 30.6628 145.657 31.3563 144.63 31.8252C143.523 32.3371 142.315 32.5935 141.095 32.5754ZM151.008 32.2291H149.02V16.695H151.008V32.2291ZM154.255 22.8798C155.297 21.8437 156.706 21.2622 158.174 21.2622C159.642 21.2622 161.051 21.8437 162.093 22.8798C162.603 23.4185 163.001 24.0527 163.265 24.746C163.528 25.4393 163.652 26.178 163.63 26.9196C163.652 27.6612 163.528 28.3999 163.265 29.0932C163.001 29.7866 162.603 30.4208 162.093 30.9595C161.051 31.9956 159.642 32.5771 158.174 32.5771C156.706 32.5771 155.297 31.9956 154.255 30.9595C153.746 30.4208 153.347 29.7866 153.084 29.0932C152.82 28.3999 152.696 27.6612 152.718 26.9196C152.696 26.178 152.82 25.4393 153.084 24.746C153.347 24.0527 153.746 23.4185 154.255 22.8798ZM155.734 29.709C156.048 30.0406 156.425 30.3047 156.844 30.4851C157.262 30.6656 157.713 30.7587 158.169 30.7587C158.625 30.7587 159.076 30.6656 159.495 30.4851C159.913 30.3047 160.291 30.0406 160.604 29.709C160.952 29.3356 161.222 28.8967 161.398 28.4178C161.575 27.9389 161.654 27.4296 161.632 26.9196C161.654 26.4097 161.575 25.9004 161.398 25.4215C161.222 24.9426 160.952 24.5037 160.604 24.1302C160.291 23.7987 159.913 23.5346 159.495 23.3541C159.076 23.1736 158.625 23.0806 158.169 23.0806C157.713 23.0806 157.262 23.1736 156.844 23.3541C156.425 23.5346 156.048 23.7987 155.734 24.1302C155.387 24.5037 155.117 24.9426 154.94 25.4215C154.764 25.9004 154.684 26.4097 154.706 26.9196C154.687 27.4287 154.769 27.9365 154.947 28.4137C155.125 28.8909 155.396 29.3279 155.744 29.6994L155.734 29.709ZM174.648 32.2291H172.727V30.7575H172.669C172.327 31.3164 171.843 31.7745 171.266 32.0849C170.668 32.4321 169.989 32.6146 169.297 32.6139C168.736 32.6523 168.173 32.5633 167.651 32.3535C167.129 32.1436 166.66 31.8183 166.281 31.4019C165.554 30.4803 165.188 29.3239 165.253 28.1508V21.6101H167.242V27.7853C167.242 29.7668 168.116 30.7575 169.864 30.7575C170.253 30.7696 170.638 30.6887 170.989 30.5213C171.34 30.354 171.646 30.1052 171.881 29.7956C172.397 29.1416 172.671 28.3298 172.659 27.4968V21.6101H174.648V32.2291ZM181.4 32.5754C180.726 32.5777 180.059 32.4335 179.445 32.1529C178.832 31.8723 178.286 31.4618 177.846 30.9499C176.85 29.8484 176.317 28.4049 176.357 26.9196C176.317 25.4344 176.85 23.9908 177.846 22.8894C178.286 22.3774 178.832 21.967 179.445 21.6864C180.059 21.4058 180.726 21.2616 181.4 21.2639C182.156 21.2519 182.903 21.4305 183.571 21.7833C184.159 22.0793 184.656 22.5278 185.012 23.0818H185.099L185.012 21.6101V16.695H187V32.2291H185.079V30.7575H184.993C184.637 31.3115 184.14 31.7599 183.552 32.056C182.889 32.4056 182.15 32.5841 181.4 32.5754ZM181.727 30.7575C182.176 30.764 182.622 30.6748 183.034 30.4957C183.447 30.3166 183.816 30.0517 184.119 29.7187C184.794 28.9485 185.139 27.9429 185.079 26.9196C185.139 25.8964 184.794 24.8907 184.119 24.1206C183.814 23.7857 183.444 23.5182 183.03 23.3351C182.617 23.152 182.169 23.0575 181.717 23.0575C181.265 23.0575 180.818 23.152 180.405 23.3351C179.991 23.5182 179.62 23.7857 179.316 24.1206C178.98 24.4994 178.723 24.9408 178.558 25.4194C178.393 25.8981 178.324 26.4046 178.355 26.91C178.324 27.4154 178.393 27.9219 178.558 28.4006C178.723 28.8793 178.98 29.3206 179.316 29.6994C179.619 30.0384 179.991 30.3084 180.407 30.4909C180.823 30.6735 181.273 30.7644 181.727 30.7575Z" fill="#5F6368"></path>
  </g>
  <defs>
    <clipPath id="clip0_4120_641">
      <rect width="171" height="30" fill="white" transform="translate(16 9)"></rect>
    </clipPath>
  </defs>
</svg>
