<?xml version="1.0" encoding="UTF-8"?>
<svg xmlns="http://www.w3.org/2000/svg" width="203" height="48" viewBox="0 0 203 48" fill="none">
  <path d="M80.5625 23.4227C80.5625 28.3277 83.7232 31.7477 88.103 31.7477C92.4828 31.7477 95.6434 28.3277 95.6434 23.4227C95.6434 18.5177 92.4828 15.0977 88.103 15.0977C83.7232 15.0977 80.5625 18.5177 80.5625 23.4227ZM92.7537 23.4227C92.7537 26.9327 90.8347 29.2052 88.103 29.2052C85.3712 29.2052 83.4523 26.9327 83.4523 23.4227C83.4523 19.9127 85.3712 17.6402 88.103 17.6402C90.8347 17.6402 92.7537 19.9127 92.7537 23.4227Z" fill="black"></path>
  <path d="M103.782 31.7474C107.101 31.7474 108.997 28.9574 108.997 25.6049C108.997 22.2524 107.101 19.4624 103.782 19.4624C102.247 19.4624 101.118 20.0699 100.373 20.9474V19.6874H97.6641V35.5499H100.373V30.2624C101.118 31.1399 102.247 31.7474 103.782 31.7474ZM100.305 25.2674C100.305 23.0399 101.57 21.8249 103.24 21.8249C105.205 21.8249 106.266 23.3549 106.266 25.6049C106.266 27.8549 105.205 29.3849 103.24 29.3849C101.57 29.3849 100.305 28.1474 100.305 25.9649V25.2674Z" fill="black"></path>
  <path d="M116.331 31.7474C118.702 31.7474 120.576 30.5099 121.411 28.4399L119.085 27.5624C118.724 28.7774 117.663 29.4524 116.331 29.4524C114.593 29.4524 113.374 28.2149 113.17 26.1899H121.479V25.2899C121.479 22.0499 119.65 19.4624 116.218 19.4624C112.787 19.4624 110.574 22.1399 110.574 25.6049C110.574 29.2499 112.945 31.7474 116.331 31.7474ZM116.196 21.7349C117.912 21.7349 118.724 22.8599 118.747 24.1649H113.306C113.712 22.5674 114.796 21.7349 116.196 21.7349Z" fill="black"></path>
  <path d="M123.512 31.4999H126.221V24.5699C126.221 22.8824 127.463 21.9824 128.682 21.9824C130.172 21.9824 130.759 23.0399 130.759 24.5024V31.4999H133.468V23.7149C133.468 21.1724 131.978 19.4624 129.494 19.4624C127.959 19.4624 126.898 20.1599 126.221 20.9474V19.6874H123.512V31.4999Z" fill="black"></path>
  <path d="M141.402 15.3452L135.262 31.5002H138.129L139.506 27.8102H146.505L147.904 31.5002H150.817L144.676 15.3452H141.402ZM142.983 18.5402L145.556 25.2902H140.454L142.983 18.5402Z" fill="black"></path>
  <path d="M155.464 15.3921H152.574V31.5471H155.464V15.3921Z" fill="black"></path>
  <path d="M73.9427 21.2786C74.6256 19.2358 74.3904 16.998 73.2983 15.1398C71.6559 12.2898 68.3541 10.8236 65.1294 11.5136C63.6949 9.90295 61.6339 8.98701 59.4731 9.00014C56.177 8.99264 53.2524 11.1076 52.2384 14.2333C50.1209 14.6655 48.2932 15.9864 47.2236 17.8586C45.569 20.7011 45.9462 24.2842 48.1568 26.7217C47.4739 28.7645 47.709 31.0023 48.8012 32.8605C50.4436 35.7105 53.7454 37.1767 56.97 36.4867C58.4036 38.0973 60.4656 39.0133 62.6263 38.9992C65.9243 39.0076 68.8498 36.8908 69.8639 33.7623C71.9813 33.3301 73.8091 32.0092 74.8786 30.137C76.5314 27.2945 76.1533 23.7142 73.9436 21.2767L73.9427 21.2786ZM62.6282 37.0389C61.3084 37.0408 60.03 36.5805 59.0169 35.7376C59.063 35.7133 59.143 35.6692 59.1947 35.6373L65.1887 32.1873C65.4954 32.0139 65.6835 31.6886 65.6816 31.337V22.9155L68.2149 24.3733C68.2421 24.3864 68.26 24.4126 68.2638 24.4426V31.4167C68.26 34.518 65.7399 37.0323 62.6282 37.0389ZM50.5085 31.8798C49.8472 30.7417 49.6092 29.4076 49.8359 28.113C49.8801 28.1392 49.9582 28.187 50.0137 28.2189L56.0077 31.6689C56.3115 31.8461 56.6878 31.8461 56.9926 31.6689L64.3101 27.4576V30.3733C64.312 30.4033 64.2979 30.4323 64.2744 30.4511L58.2155 33.9376C55.5167 35.4864 52.07 34.5658 50.5094 31.8798H50.5085ZM48.931 18.8401C49.5894 17.7001 50.6289 16.8283 51.8668 16.3755C51.8668 16.427 51.864 16.518 51.864 16.5817V23.4826C51.8621 23.8333 52.0503 24.1586 52.356 24.332L59.6735 28.5423L57.1403 30.0001C57.1149 30.017 57.0829 30.0198 57.0547 30.0076L50.9948 26.5183C48.3017 24.9639 47.3779 21.5298 48.93 18.8411L48.931 18.8401ZM69.7444 23.6673L62.4269 19.4561L64.9601 17.9992C64.9855 17.9823 65.0175 17.9795 65.0457 17.9917L71.1056 21.4783C73.8034 23.0317 74.7281 26.4714 73.1694 29.1601C72.51 30.2983 71.4715 31.1701 70.2345 31.6239V24.5167C70.2373 24.1661 70.0501 23.8417 69.7454 23.6673H69.7444ZM72.2654 19.8855C72.2212 19.8583 72.1431 19.8114 72.0876 19.7795L66.0936 16.3295C65.7898 16.1523 65.4135 16.1523 65.1087 16.3295L57.7912 20.5408V17.6251C57.7893 17.5951 57.8034 17.5661 57.827 17.5473L63.8859 14.0636C66.5847 12.512 70.0351 13.4355 71.591 16.1261C72.2485 17.2623 72.4865 18.5926 72.2635 19.8855H72.2654ZM56.4141 25.082L53.8799 23.6242C53.8526 23.6111 53.8347 23.5848 53.831 23.5548V16.5808C53.8328 13.4758 56.3604 10.9595 59.476 10.9614C60.7939 10.9614 62.0694 11.4226 63.0825 12.2626C63.0364 12.287 62.9574 12.3311 62.9047 12.363L56.9107 15.813C56.6041 15.9864 56.4159 16.3108 56.4178 16.6623L56.4141 25.0801V25.082ZM57.7903 22.1251L61.0497 20.2492L64.3092 22.1242V25.8751L61.0497 27.7501L57.7903 25.8751V22.1251Z" fill="black"></path>
</svg>
