<?xml version="1.0" encoding="UTF-8"?>
<svg xmlns="http://www.w3.org/2000/svg" width="171" height="48" viewBox="0 0 171 48" fill="none">
  <path d="M65.1046 24.1823C65.0941 23.5683 64.8773 22.9758 64.4893 22.5006C64.1013 22.0255 63.5648 21.6954 62.9665 21.5637C59.9191 25.022 59.627 30.6735 59.4176 32.5739C59.3129 34.8169 61.5502 34.8776 61.5502 34.8776C64.1292 34.2423 63.7545 32.248 63.7545 32.248C63.6607 32.1613 63.5887 32.0535 63.5446 31.9334C63.5006 31.8133 63.4856 31.6844 63.501 31.5574C63.5286 31.0381 65.1046 24.7071 65.1046 24.1823ZM99.3037 21.7626C99.8548 21.7626 101.029 20.8455 101.029 20.1052C101.029 19.7627 99.7336 16.9618 97.9812 16.9618C97.6824 17.0001 97.4034 17.1325 97.1845 17.34C96.9656 17.5476 96.8181 17.8194 96.7633 18.1164C96.7633 18.9561 97.4963 21.7626 99.3037 21.7626ZM65.8155 19.7572C66.3666 19.7572 67.3309 19.3981 67.3309 18.6523C67.3309 18.3098 65.9478 14.9785 64.1954 14.9785C63.8965 15.0168 63.6175 15.1492 63.3987 15.3568C63.1798 15.5643 63.0323 15.8361 62.9775 16.1331C62.9775 16.9839 63.1704 19.7572 65.8155 19.7572Z" fill="#F41C5E"></path>
  <path d="M71.2383 4.46532C70.5164 3.6477 61.2805 2.60358 53.3121 27.7841C53.3008 27.8199 53.2784 27.8511 53.2482 27.8733C53.218 27.8954 53.1815 27.9074 53.1441 27.9074C53.1066 27.9074 53.0702 27.8954 53.0399 27.8733C53.0097 27.8511 52.9873 27.8199 52.976 27.7841C51.7251 21.0995 52.2761 13.5475 52.1163 12.3156C51.7196 9.25503 49.1571 10.2329 49.1571 10.2329C47.9999 12.6305 48.7383 32.0766 50.6725 34.6123C51.8243 35.104 55.1196 34.9327 55.8195 34.1483C55.8195 34.1483 60.4374 9.55888 71.2383 4.46532ZM120.796 22.453C120.713 22.4676 120.635 22.5024 120.568 22.5544C120.502 22.6065 120.449 22.6741 120.415 22.7513C117.621 27.8062 115.092 31.8335 112.943 31.9993C112.75 32.0194 112.557 31.9621 112.406 31.8399C112.256 31.7177 112.159 31.5406 112.138 31.3474V31.2811C111.874 29.3365 113.692 24.5357 113.566 23.1656C113.516 22.6574 113.263 22.7126 112.937 22.5082C112.811 22.6155 112.697 22.7359 112.596 22.8673C112.571 22.8971 112.537 22.9184 112.5 22.9283C112.462 22.9382 112.423 22.9362 112.386 22.9226C111.133 22.4875 109.842 22.173 108.529 21.9834C109.521 19.2212 111.587 13.3376 111.587 12.8128C111.587 11.5035 110.628 11.0615 109.008 10.603C106.396 15.2159 104.738 21.4917 104.6 21.9613C103.757 22.7237 102.478 22.0221 102.23 23.5137C102.864 24.1877 104.054 24.7401 104.054 25.2649C104.054 25.7898 103.162 27.9112 103.514 34.8775C103.972 35.0543 105.851 33.0434 105.911 32.4412C106.429 27.0383 107.796 25.0992 107.796 25.0992C108.936 25.1379 110.077 25.0769 111.207 24.9169C111.216 24.9143 111.225 24.9145 111.233 24.9173C111.242 24.9201 111.249 24.9255 111.255 24.9327C111.26 24.94 111.263 24.9487 111.264 24.9577C111.264 24.9667 111.262 24.9756 111.257 24.9832C110.954 25.6019 109.119 29.4028 109.108 31.1374C109.108 33.408 109.829 34.6897 111.714 34.8609C112.113 34.9058 112.516 34.9058 112.915 34.8609C115.121 34.5299 117.125 33.3877 118.536 31.6567C118.56 31.6284 118.593 31.6092 118.629 31.6022C118.665 31.5953 118.702 31.601 118.735 31.6186C118.767 31.6361 118.792 31.6644 118.807 31.6985C118.821 31.7326 118.822 31.7706 118.812 31.8059C116.056 41.6947 110.711 44.1641 108.463 44.7055C108.54 45.3961 112.425 45.1972 115.136 42.8935C118.133 40.2267 120.344 36.7875 121.529 32.9495C121.826 31.9385 122.113 30.8944 122.333 29.8281C122.736 27.9048 122.959 25.9481 123 23.9833C123 23.6518 121.181 22.453 120.796 22.453ZM102.318 33.5406H102.219C99.3261 33.5406 102.726 23.3093 98.6483 23.8617C97.9126 24.0363 97.2056 24.3153 96.5487 24.6904C96.4736 24.7297 96.4107 24.789 96.3669 24.8616C94.911 27.2389 93.2159 29.4603 91.3081 31.491C91.2528 31.5508 91.1828 31.5952 91.1052 31.6197C91.0276 31.6442 90.9449 31.648 90.8654 31.6307C90.7858 31.6134 90.7122 31.5756 90.6516 31.5211C90.5911 31.4666 90.5457 31.3972 90.5201 31.3197C89.0322 26.519 95.5733 12.3874 95.667 12.078C96.163 10.487 94.0138 9.73014 92.9117 9.61412C90.5476 12.9951 86.5745 23.6297 86.9712 32.1097C86.9741 32.1635 86.9603 32.2168 86.9317 32.2623C86.9031 32.3079 86.861 32.3433 86.8114 32.3639C86.1446 32.6401 83.7254 33.524 84.012 31.5407C84.0836 31.0214 85.2298 27.9774 85.2298 27.4526C85.2298 27.1101 83.7805 25.1489 82.6894 25.1489C82.221 25.1489 78.1376 30.3474 76.7545 31.5628C76.6994 31.6106 76.634 31.6449 76.5635 31.6629C76.4929 31.681 76.4191 31.6822 76.348 31.6667C76.2769 31.6511 76.2103 31.6192 76.1536 31.5733C76.097 31.5275 76.0517 31.469 76.0215 31.4026C75.2941 29.7342 77.0961 25.2097 82.221 23.4916C82.6899 23.0864 83.13 22.6489 83.5381 22.1823C83.5767 22.1235 83.6021 22.057 83.6126 21.9873C83.6231 21.9177 83.6183 21.8466 83.5987 21.779C83.5215 21.6001 83.3826 21.455 83.2074 21.3702C80.3474 20.0443 73.9826 20.2321 72.897 20.083C73.6961 16.4258 76.2034 10.5643 76.2695 9.99531C76.3742 9.11692 75.5146 8.26063 73.7456 7.78553C71.6359 11.7122 69.8624 15.8113 68.4444 20.0388C67.9705 20.536 67.2596 20.3371 66.7912 21.7403C66.7912 22.3756 67.8217 23.0828 67.8217 23.6573C67.8217 24.2319 66.8463 27.2869 67.221 34.8941C68.6318 34.9769 70.1527 32.7395 70.2519 32.0876C70.6416 29.1837 71.2364 26.3111 72.0318 23.4916C73.9205 23.4915 75.8072 23.3697 77.6803 23.127C77.6928 23.1238 77.7061 23.1252 77.7178 23.1309C77.7294 23.1366 77.7387 23.1463 77.7439 23.1581C77.7492 23.17 77.7501 23.1834 77.7465 23.1958C77.743 23.2083 77.7351 23.2192 77.7243 23.2264C74.969 25.5467 72.39 27.7951 72.4506 32.1318C72.4506 33.8886 74.3298 34.8941 75.3988 34.8941C77.2339 34.8941 79.1185 33.2367 80.0168 32.2313C80.0521 32.18 80.1023 32.1409 80.1605 32.1192C80.2188 32.0975 80.2823 32.0942 80.3424 32.1099C80.4026 32.1256 80.4564 32.1594 80.4968 32.2068C80.5371 32.2542 80.5619 32.3129 80.5678 32.3749C80.676 33.0852 81.0381 33.7318 81.5866 34.1943C82.135 34.6567 82.8326 34.9035 83.5491 34.8886C84.778 34.8886 86.591 33.7284 87.2853 33.3472C87.3147 33.3303 87.349 33.3244 87.3823 33.3305C87.4156 33.3365 87.4456 33.3542 87.4672 33.3804C87.9301 33.9328 88.8614 34.8941 89.7486 34.8941C92.4047 34.8941 95.0994 31.027 96.5983 28.6293C96.6276 28.5832 96.6698 28.5469 96.7197 28.5248C96.7696 28.5028 96.8248 28.4961 96.8785 28.5055C96.9322 28.515 96.9819 28.5402 97.0213 28.578C97.0607 28.6157 97.088 28.6644 97.0998 28.7177C97.6509 31.2811 97.6509 34.8996 100.224 34.8996C101.024 34.8724 101.814 34.7195 102.566 34.4466C102.686 34.4136 102.788 34.3343 102.85 34.226C102.911 34.1178 102.927 33.9894 102.894 33.8693C102.861 33.7491 102.782 33.647 102.674 33.5854C102.566 33.5237 102.438 33.5076 102.318 33.5406Z" fill="#F41C5E"></path>
</svg>
