<?xml version="1.0" encoding="UTF-8"?>
<svg xmlns="http://www.w3.org/2000/svg" width="203" height="48" viewBox="0 0 203 48" fill="none">
  <g clip-path="url(#clip0_4120_642)">
    <path d="M106.915 8.15625C100.92 8.15625 96.043 13.0394 96.043 19.0424C96.043 25.0454 100.92 29.9279 106.915 29.9279C112.91 29.9279 117.787 25.0448 117.787 19.0424C117.787 13.04 112.909 8.15625 106.915 8.15625ZM106.915 25.846C103.168 25.846 100.12 22.7934 100.12 19.0424C100.12 15.2913 103.168 12.2387 106.915 12.2387C110.662 12.2387 113.71 15.2907 113.71 19.0424C113.71 22.794 110.662 25.846 106.915 25.846Z" fill="black"></path>
    <path d="M91.9016 8.19849C91.5302 8.15683 91.1569 8.13477 90.7837 8.13232C90.5977 8.13232 90.4197 8.13784 90.2373 8.1409C90.055 8.14396 89.8739 8.16112 89.6922 8.17214C88.9598 8.22973 88.2348 8.35531 87.5257 8.54645C86.1007 8.93178 84.7271 9.60198 83.5395 10.554C82.3342 11.5158 81.3687 12.7441 80.7183 14.1433C80.394 14.8404 80.1548 15.5743 80.0055 16.3285C79.9315 16.7009 79.877 17.0771 79.8428 17.4557C79.8305 17.6438 79.8091 17.8324 79.8067 18.0199L79.7999 18.3011L79.7969 18.442V18.5584L79.8061 22.204L79.8152 25.8497L79.8403 29.4947H83.9176L83.9433 25.8497L83.9525 22.2034L83.9617 18.5578V18.4463L83.9647 18.3593L83.9696 18.1847C83.9696 18.0677 83.9868 17.955 83.9935 17.8392C84.0155 17.6125 84.0492 17.3871 84.0945 17.1641C84.1838 16.7254 84.3233 16.2985 84.5093 15.8917C84.8843 15.0757 85.4442 14.3589 86.1447 13.7972C86.852 13.2262 87.6994 12.7998 88.6154 12.5462C89.0785 12.4194 89.5527 12.3355 90.0312 12.2963C90.1523 12.2895 90.2728 12.2779 90.3946 12.2736C90.5163 12.2693 90.6406 12.2656 90.7586 12.2662C90.993 12.2662 91.2236 12.2815 91.4574 12.303C92.3861 12.3967 93.2862 12.6822 94.0993 13.141L96.1343 9.6026C94.8341 8.84602 93.3932 8.36879 91.9016 8.19849Z" fill="black"></path>
    <path d="M65.8724 8.10156C59.877 8.10156 55 12.9847 55 18.9871C55 24.9895 59.877 29.8732 65.8724 29.8732H69.448V25.7908H65.8724C62.1255 25.7908 59.0773 22.7387 59.0773 18.9871C59.0773 15.2354 62.1255 12.1834 65.8724 12.1834C69.6194 12.1834 72.6835 15.2354 72.6835 18.9871V29.0125C72.6835 32.7396 69.6524 35.7751 65.9391 35.8143C64.1623 35.7996 62.4633 35.0847 61.2102 33.8233L58.3272 36.71C60.3255 38.7212 63.0329 39.8655 65.8657 39.8962V39.898C65.8902 39.898 65.9147 39.898 65.9385 39.898H66.015V39.8962C71.9248 39.8159 76.71 34.9922 76.7375 29.0615L76.7412 18.72C76.5993 12.8413 71.7779 8.10156 65.8724 8.10156Z" fill="black"></path>
    <path d="M130.919 8.15625C124.924 8.15625 120.047 13.0394 120.047 19.0424C120.047 25.0454 124.924 29.9279 130.919 29.9279H134.639V25.8461H130.919C127.172 25.8461 124.124 22.7934 124.124 19.0424C124.124 15.2914 127.172 12.2387 130.919 12.2387C134.467 12.2387 137.387 14.9759 137.687 18.4524H137.681V39.3548H141.758V19.0424C141.757 13.0394 136.914 8.15625 130.919 8.15625Z" fill="black"></path>
    <path d="M147.991 8.70947H147.409L146.616 9.94266L145.798 8.70947H145.211V10.9051H145.866V9.83668L146.447 10.6992H146.764L147.335 9.80972L147.346 10.9051H148.001L147.991 8.70947Z" fill="black"></path>
    <path d="M142.812 9.23387H143.526V10.9051H144.245V9.23387H144.963V8.70947H142.812V9.23387Z" fill="black"></path>
  </g>
  <defs>
    <clipPath id="clip0_4120_642">
      <rect width="93" height="34" fill="white" transform="translate(55 7)"></rect>
    </clipPath>
  </defs>
</svg>
