<?xml version="1.0" encoding="UTF-8"?>
<svg xmlns="http://www.w3.org/2000/svg" width="203" height="48" viewBox="0 0 203 48" fill="none">
  <g clip-path="url(#clip0_4120_644)">
    <path d="M56.5798 33.5399L49.0497 29.2029C47.9918 28.5956 46.639 28.9568 46.0267 30.0115C45.7895 30.427 45.6965 30.884 45.7414 31.3282V39.8041C45.7414 41.0154 46.7287 41.9998 47.9469 41.9998C49.1619 41.9998 50.1492 41.0154 50.1492 39.8041V34.9302L54.3679 37.3591C55.4257 37.9696 56.7817 37.6052 57.3908 36.5505C58.0031 35.4958 57.6409 34.1471 56.5798 33.5399Z" fill="#29B5E8"></path>
    <path d="M37.853 24.246C37.8659 23.463 37.4523 22.7343 36.7727 22.3412L29.2426 18.0074C28.9156 17.8188 28.5406 17.7197 28.1655 17.7197C27.3929 17.7197 26.6749 18.132 26.2902 18.7968C25.6939 19.8259 26.0497 21.1459 27.082 21.7403L31.4225 24.2364L27.082 26.7357C26.5819 27.0233 26.2229 27.4868 26.0754 28.0429C25.9247 28.599 26.0017 29.1807 26.2902 29.6792C26.6749 30.344 27.3929 30.7563 28.1623 30.7563C28.5406 30.7563 28.9156 30.6572 29.2426 30.4687L36.7727 26.1349C37.4459 25.7449 37.8594 25.0226 37.853 24.246Z" fill="#29B5E8"></path>
    <path d="M30.9518 14.936L38.4819 19.2698C39.3603 19.778 40.4438 19.6118 41.1362 18.9374C41.5754 18.5347 41.8479 17.9594 41.8479 17.3202V8.63343C41.8479 7.41895 40.8605 6.43457 39.6456 6.43457C38.4274 6.43457 37.4401 7.41895 37.4401 8.63343V13.5777L33.1637 11.1167C32.1058 10.5063 30.753 10.8675 30.1407 11.9221C29.5285 12.9768 29.8939 14.3256 30.9518 14.936Z" fill="#29B5E8"></path>
    <path d="M47.8837 24.5974C47.8837 24.7636 47.7875 24.9937 47.6689 25.1152L44.6844 28.0907C44.5658 28.2089 44.3318 28.3048 44.1651 28.3048H43.4054C43.2387 28.3048 43.0047 28.2089 42.8861 28.0907L39.8984 25.1152C39.7798 24.9937 39.6836 24.7636 39.6836 24.5974V23.84C39.6836 23.6706 39.7798 23.4405 39.8984 23.3222L42.8861 20.3435C43.0047 20.2253 43.2387 20.1294 43.4054 20.1294H44.1651C44.3318 20.1294 44.5658 20.2253 44.6844 20.3435L47.6689 23.3222C47.7875 23.4405 47.8837 23.6706 47.8837 23.84V24.5974ZM45.2198 24.2331V24.2011C45.2198 24.0797 45.1493 23.9103 45.0627 23.8208L44.1812 22.9451C44.0946 22.8556 43.9247 22.7853 43.7997 22.7853H43.7676C43.6458 22.7853 43.4759 22.8556 43.3861 22.9451L42.5078 23.8208C42.4212 23.9071 42.3507 24.0765 42.3507 24.2011V24.2331C42.3507 24.3577 42.4212 24.5271 42.5078 24.6134L43.3861 25.4923C43.4759 25.5786 43.6458 25.6489 43.7676 25.6489H43.7997C43.9247 25.6489 44.0946 25.5786 44.1812 25.4923L45.0627 24.6134C45.1493 24.5271 45.2198 24.3577 45.2198 24.2331Z" fill="#29B5E8"></path>
    <path d="M49.0488 19.2698L56.5789 14.936C57.6368 14.3287 58.0022 12.9768 57.3899 11.9221C56.7776 10.8675 55.4249 10.5063 54.367 11.1167L50.1483 13.5457V8.63343C50.1483 7.41895 49.161 6.43457 47.946 6.43457C46.7279 6.43457 45.7405 7.41895 45.7405 8.63343V17.1476C45.6988 17.5887 45.7854 18.0489 46.0258 18.4644C46.6381 19.5191 47.9909 19.8802 49.0488 19.2698Z" fill="#29B5E8"></path>
    <path d="M39.9918 28.9476C39.4917 28.8517 38.9563 28.9316 38.4819 29.2033L30.9518 33.5403C29.8939 34.1475 29.5285 35.4962 30.1407 36.5509C30.753 37.6088 32.1058 37.97 33.1637 37.3595L37.4401 34.8986V39.8045C37.4401 41.0158 38.4274 42.0002 39.6456 42.0002C40.8605 42.0002 41.8479 41.0158 41.8479 39.8045V31.1177C41.8479 30.0215 41.0432 29.1138 39.9918 28.9476Z" fill="#29B5E8"></path>
    <path d="M61.2882 18.7714C60.6792 17.7135 59.3232 17.3524 58.2653 17.9628L50.7352 22.2966C50.0139 22.7121 49.6164 23.4728 49.6292 24.2462C49.6228 25.0164 50.0203 25.7675 50.7352 26.1766L58.2653 30.5136C59.3232 31.1208 60.676 30.7597 61.2882 29.705C61.9005 28.6503 61.5351 27.3016 60.4772 26.6911L56.2137 24.2366L60.4772 21.7821C61.5383 21.1748 61.9005 19.8261 61.2882 18.7714Z" fill="#29B5E8"></path>
    <path d="M176.999 23.7282V23.7314V23.8113C176.999 24.2203 176.656 24.524 176.233 24.524H165.655C165.674 24.7733 165.706 25.0162 165.757 25.2559C166.248 27.541 168.209 29.2413 170.54 29.2605C170.546 29.2605 170.665 29.2605 170.848 29.2605C170.877 29.2605 170.905 29.2605 170.934 29.2605H171.155C171.204 29.2605 171.252 29.2605 171.303 29.2573C171.348 29.2573 171.393 29.2541 171.438 29.2509C171.441 29.2509 171.444 29.2509 171.447 29.2477C172.22 29.187 172.999 28.877 173.694 28.3784C173.694 28.3784 173.694 28.3784 173.698 28.3784C173.733 28.3528 173.771 28.324 173.807 28.2953C173.813 28.2921 173.819 28.2857 173.829 28.2793C173.858 28.2569 173.89 28.2314 173.922 28.2058C173.935 28.1962 173.944 28.1866 173.957 28.177C173.983 28.1578 174.008 28.1355 174.034 28.1131C174.05 28.1003 174.069 28.0843 174.085 28.0716C174.105 28.0524 174.124 28.0332 174.146 28.0172C174.166 27.998 174.188 27.9789 174.207 27.9597C174.223 27.9469 174.239 27.9309 174.255 27.9149C174.281 27.8926 174.303 27.8702 174.329 27.8478C174.342 27.835 174.355 27.8191 174.368 27.8063C174.393 27.7807 174.419 27.7551 174.444 27.7296C174.457 27.7168 174.467 27.7072 174.48 27.6944C174.505 27.6657 174.531 27.6369 174.557 27.6081C174.569 27.5985 174.579 27.5858 174.589 27.573C174.618 27.5442 174.643 27.5154 174.669 27.4867C174.678 27.4739 174.691 27.4611 174.701 27.4483C174.727 27.4164 174.749 27.3876 174.775 27.3588C174.787 27.3429 174.8 27.3269 174.813 27.3109C174.836 27.2821 174.858 27.2566 174.877 27.231C174.896 27.2054 174.912 27.1831 174.929 27.1607C174.945 27.1383 174.961 27.1191 174.977 27.0968C175.002 27.0616 175.028 27.0265 175.05 26.9913C175.06 26.9785 175.066 26.9689 175.073 26.9593C175.137 26.8667 175.198 26.7708 175.259 26.6717C175.259 26.6717 175.259 26.6685 175.262 26.6653C175.275 26.6429 175.291 26.6238 175.307 26.6014C175.313 26.5918 175.32 26.5822 175.329 26.5758C175.339 26.5598 175.352 26.5502 175.361 26.5375C175.371 26.5279 175.381 26.5183 175.39 26.5087C175.403 26.4991 175.413 26.4895 175.425 26.4799C175.435 26.4703 175.445 26.4608 175.457 26.4544C175.473 26.4416 175.493 26.4288 175.512 26.4192C175.525 26.4096 175.541 26.4 175.554 26.3936C175.57 26.3873 175.582 26.3809 175.595 26.3745C175.608 26.3681 175.621 26.3649 175.631 26.3585C175.65 26.3521 175.666 26.3489 175.685 26.3425C175.695 26.3393 175.701 26.3361 175.711 26.3329C175.772 26.3201 175.836 26.3105 175.897 26.3105C175.964 26.3105 176.034 26.3201 176.099 26.3393C176.102 26.3393 176.102 26.3393 176.105 26.3393C176.131 26.3489 176.159 26.3553 176.185 26.3681C176.192 26.3713 176.198 26.3713 176.204 26.3745C176.233 26.3873 176.259 26.4 176.285 26.416L176.297 26.4224C176.65 26.6781 176.759 27.1255 176.544 27.4931L176.541 27.4963C176.515 27.5378 176.49 27.5794 176.464 27.6177C176.458 27.6273 176.451 27.6369 176.445 27.6465C175.695 28.7843 174.675 29.6919 173.537 30.2353C173.512 30.2448 173.489 30.2576 173.464 30.2704C173.46 30.2704 173.454 30.2736 173.451 30.2736C172.925 30.5165 172.361 30.6859 171.758 30.7562C171.745 30.7562 171.732 30.7594 171.72 30.7594C171.668 30.7658 171.617 30.7722 171.566 30.7754C171.537 30.7754 171.508 30.7786 171.476 30.7818C171.441 30.7818 171.402 30.785 171.367 30.7882C171.296 30.7882 171.226 30.7914 171.155 30.7914C171.146 30.7914 170.88 30.7914 170.7 30.7914C170.598 30.7914 170.54 30.7914 170.534 30.7914C166.975 30.7658 164.109 27.8063 164.109 24.182C164.109 20.497 166.994 17.5215 170.582 17.5215C170.687 17.5215 170.793 17.5247 170.899 17.5279C172.149 17.5918 173.303 18.0169 174.262 18.7136C174.265 18.7168 174.268 18.72 174.271 18.72C174.326 18.7583 174.377 18.7999 174.428 18.8382C174.454 18.8606 174.483 18.883 174.512 18.9054C174.537 18.9245 174.563 18.9469 174.589 18.9661C175.938 20.0879 176.849 21.7722 176.999 23.7218V23.7282ZM165.757 23.0186H175.332C174.858 20.7175 172.874 19.0524 170.582 19.0524C168.248 19.0524 166.28 20.6855 165.757 23.0186Z" fill="#29B5E8"></path>
    <path d="M149.954 17.7452C150.072 17.8635 150.152 18.0233 150.172 18.2086C150.172 18.2342 150.175 18.2598 150.175 18.2853V30.0243C150.175 30.443 149.822 30.7914 149.405 30.7914C148.989 30.7914 148.639 30.443 148.639 30.0243V28.4647C148.347 28.8162 148.027 29.1358 147.678 29.4139C147.668 29.4235 147.658 29.4299 147.649 29.4395C147.617 29.465 147.581 29.4906 147.549 29.513C146.491 30.3248 145.206 30.7914 143.863 30.7914C141.699 30.7914 139.795 29.644 138.66 27.9054C138.65 27.8926 138.638 27.8766 138.628 27.8638C138.596 27.8095 138.564 27.7551 138.529 27.6976C138.506 27.6625 138.487 27.6273 138.464 27.5922C138.442 27.557 138.423 27.5186 138.403 27.4803C138.371 27.426 138.339 27.3684 138.311 27.3141C138.301 27.2949 138.294 27.2757 138.285 27.2566C137.865 26.4256 137.605 25.4892 137.56 24.4952C137.554 24.3833 137.551 24.2715 137.551 24.1564C137.551 24.0414 137.554 23.9295 137.56 23.8176C137.605 22.8237 137.865 21.8873 138.285 21.0531C138.294 21.0371 138.301 21.0179 138.311 20.9988C138.339 20.9444 138.371 20.8869 138.403 20.8326C138.423 20.7942 138.442 20.7559 138.464 20.7207C138.484 20.6855 138.506 20.6504 138.529 20.6152C138.561 20.5609 138.596 20.5034 138.628 20.449C138.638 20.4363 138.65 20.4203 138.66 20.4075C139.795 18.6689 141.699 17.5215 143.863 17.5215C145.325 17.5215 146.706 18.0552 147.806 18.9853C148.107 19.2377 148.386 19.5158 148.639 19.8226V18.2853C148.639 18.2598 148.639 18.2342 148.642 18.2086C148.662 18.0233 148.742 17.8635 148.86 17.7452C148.86 17.7452 148.86 17.7452 148.86 17.742C148.873 17.7292 148.889 17.7196 148.902 17.7069C148.905 17.7037 148.912 17.6973 148.915 17.6941C148.925 17.6845 148.937 17.6781 148.947 17.6717C148.957 17.6653 148.966 17.6557 148.976 17.6493C148.982 17.6461 148.989 17.6429 148.995 17.6365C149.011 17.6301 149.024 17.6206 149.04 17.611C149.043 17.611 149.046 17.6078 149.05 17.6078C149.069 17.5982 149.088 17.5886 149.107 17.579C149.107 17.579 149.107 17.579 149.11 17.579C149.155 17.5598 149.203 17.5471 149.251 17.5375C149.255 17.5375 149.261 17.5343 149.264 17.5343C149.284 17.5311 149.306 17.5279 149.328 17.5247C149.354 17.5247 149.38 17.5215 149.405 17.5215C149.434 17.5215 149.46 17.5247 149.486 17.5247C149.508 17.5279 149.527 17.5311 149.55 17.5343C149.553 17.5343 149.556 17.5375 149.562 17.5375C149.611 17.5471 149.659 17.5598 149.703 17.579H149.707C149.726 17.5886 149.745 17.5982 149.761 17.6078C149.768 17.6078 149.771 17.611 149.774 17.611C149.787 17.6206 149.803 17.6301 149.816 17.6365C149.822 17.6429 149.832 17.6461 149.838 17.6493C149.848 17.6557 149.857 17.6653 149.867 17.6717C149.877 17.6781 149.886 17.6845 149.896 17.6941C149.902 17.6973 149.905 17.7037 149.912 17.7069C149.925 17.7196 149.941 17.7292 149.95 17.742C149.954 17.7452 149.954 17.7452 149.954 17.7452ZM143.863 29.2605C146.495 29.2605 148.639 26.9721 148.639 24.1564C148.639 21.3279 146.495 19.0268 143.863 19.0268C141.25 19.0268 139.086 21.3248 139.086 24.1564C139.086 24.2459 139.09 24.3322 139.093 24.4185C139.093 24.4569 139.099 24.492 139.099 24.5272C139.102 24.5783 139.106 24.6294 139.112 24.6774C139.115 24.7189 139.122 24.7573 139.125 24.7956C139.131 24.8404 139.134 24.8883 139.141 24.9331C139.147 24.9682 139.154 25.0002 139.157 25.0321C139.166 25.0833 139.173 25.1344 139.182 25.1855C139.189 25.2111 139.195 25.2335 139.198 25.2559C139.211 25.3166 139.224 25.3741 139.237 25.4348C139.24 25.4476 139.243 25.4604 139.25 25.4732C139.795 27.6593 141.667 29.2605 143.863 29.2605Z" fill="#29B5E8"></path>
    <path d="M130.681 11.9858H130.473C130.447 11.9858 130.418 11.9858 130.392 11.989C130.364 11.9858 130.338 11.9858 130.309 11.9858C130.235 11.9858 130.162 11.9858 130.088 11.989C130.075 11.989 130.059 11.9922 130.046 11.9922C129.989 11.9922 129.931 11.9954 129.873 12.0018C129.864 12.0018 129.851 12.0018 129.841 12.0018C129.78 12.0082 129.722 12.0114 129.665 12.0178C129.658 12.021 129.652 12.021 129.646 12.021C129.581 12.0306 129.521 12.037 129.463 12.0466C129.46 12.0466 129.456 12.0466 129.456 12.0466C129.069 12.1073 128.719 12.216 128.408 12.3694C128.408 12.3726 128.405 12.3726 128.402 12.3726C128.357 12.3981 128.309 12.4237 128.264 12.4493C128.254 12.4525 128.248 12.4589 128.238 12.4652C128.2 12.4876 128.161 12.51 128.123 12.5356C128.107 12.5451 128.094 12.5579 128.081 12.5675C128.049 12.5867 128.02 12.6091 127.988 12.6314C127.966 12.6506 127.943 12.6698 127.921 12.6858C127.902 12.7017 127.882 12.7177 127.863 12.7337C127.828 12.7657 127.796 12.7944 127.764 12.8264C127.757 12.8328 127.751 12.8392 127.745 12.8456C127.706 12.8871 127.668 12.9255 127.629 12.967C127.623 12.9766 127.616 12.9862 127.61 12.9926C127.578 13.0277 127.546 13.0629 127.517 13.0981C127.507 13.114 127.495 13.13 127.485 13.146C127.459 13.178 127.437 13.2067 127.414 13.2387C127.408 13.2515 127.402 13.2611 127.392 13.2706C127.366 13.309 127.341 13.3473 127.318 13.3857C127.315 13.3921 127.312 13.3953 127.309 13.4017C127.1 13.7437 126.953 14.1464 126.86 14.6321C126.86 14.6385 126.86 14.6481 126.857 14.6545C126.844 14.7152 126.834 14.7792 126.825 14.8431C126.821 14.8623 126.818 14.8814 126.818 14.9006C126.809 14.9549 126.802 15.0093 126.796 15.0668C126.792 15.0988 126.789 15.1307 126.786 15.1659C126.78 15.2106 126.773 15.2522 126.77 15.3001C126.767 15.3481 126.764 15.396 126.76 15.4471C126.757 15.4791 126.757 15.5111 126.754 15.5462C126.751 15.6133 126.748 15.6836 126.744 15.754C126.744 15.7731 126.741 15.7859 126.741 15.8019C126.738 15.8914 126.738 15.9841 126.738 16.0736V17.336H125.142C125.042 17.3328 124.943 17.352 124.853 17.3839C124.565 17.4894 124.359 17.7611 124.359 18.0775C124.359 18.3747 124.507 18.6272 124.738 18.7742C124.853 18.8477 124.988 18.8924 125.135 18.8988H125.142V18.902H126.738V30.0498C126.735 30.0657 126.738 30.0785 126.738 30.0945C126.738 30.1041 126.738 30.1137 126.738 30.1233C126.748 30.3022 126.821 30.4652 126.94 30.5899L126.943 30.5931C126.959 30.6091 126.978 30.625 126.994 30.641C126.998 30.6442 127.001 30.6442 127.004 30.6474C127.017 30.6602 127.033 30.6698 127.046 30.6794C127.052 30.6858 127.062 30.6922 127.068 30.6954C127.075 30.7018 127.081 30.7049 127.091 30.7081C127.216 30.788 127.363 30.8328 127.52 30.8328C127.546 30.8328 127.571 30.8296 127.594 30.8264C127.745 30.8136 127.882 30.7497 127.995 30.657L127.998 30.6538C128.014 30.641 128.027 30.6282 128.039 30.6123C128.043 30.6091 128.049 30.6059 128.052 30.6027C128.065 30.5899 128.075 30.5771 128.084 30.5675C128.206 30.4205 128.274 30.2383 128.264 30.0498V18.902H129.982V18.8988H129.989C130.444 18.8765 130.777 18.5217 130.764 18.0807C130.764 18.0775 130.764 18.0775 130.764 18.0743C130.768 18.0583 130.764 18.0423 130.764 18.0263C130.764 18.0199 130.764 18.0135 130.764 18.0103C130.751 17.841 130.678 17.6875 130.562 17.5693C130.562 17.5693 130.562 17.5693 130.562 17.5661C130.559 17.5661 130.559 17.5661 130.559 17.5661C130.543 17.5501 130.53 17.5373 130.514 17.5245C130.508 17.5182 130.501 17.515 130.498 17.5086C130.485 17.499 130.476 17.4926 130.463 17.483C130.453 17.4766 130.441 17.467 130.431 17.4606C130.425 17.4574 130.415 17.451 130.408 17.4478C130.392 17.4383 130.376 17.4287 130.36 17.4223C130.357 17.4191 130.351 17.4159 130.348 17.4159C130.328 17.4063 130.309 17.3967 130.29 17.3903C130.287 17.3871 130.283 17.3871 130.277 17.3839C130.258 17.3775 130.239 17.3711 130.219 17.3647C130.213 17.3647 130.207 17.3616 130.2 17.3616C130.181 17.3584 130.165 17.352 130.146 17.3488C130.136 17.3488 130.126 17.3488 130.117 17.3456C130.104 17.3424 130.088 17.3424 130.072 17.3392C130.059 17.3392 130.046 17.3392 130.037 17.3392C130.027 17.3392 130.017 17.336 130.008 17.336C129.998 17.336 129.985 17.336 129.982 17.336H128.264V16.0767C128.264 16.0672 128.264 16.0576 128.264 16.0512C128.267 15.9873 128.267 15.9233 128.27 15.8626C128.27 15.8466 128.27 15.8275 128.274 15.8115C128.274 15.7571 128.277 15.7028 128.28 15.6517C128.28 15.6421 128.283 15.6293 128.283 15.6197C128.286 15.559 128.293 15.4983 128.299 15.4407C128.36 14.8175 128.495 14.4244 128.636 14.1847C128.639 14.1783 128.639 14.1751 128.642 14.1687C128.652 14.1527 128.665 14.1368 128.674 14.1208C128.681 14.108 128.69 14.0952 128.7 14.0824C128.703 14.076 128.709 14.0633 128.716 14.0569C128.732 14.0345 128.748 14.0153 128.767 13.9961C128.969 13.7692 129.283 13.6318 129.738 13.5775C129.745 13.5775 129.748 13.5743 129.758 13.5743C129.783 13.5711 129.812 13.5679 129.838 13.5679C129.851 13.5647 129.867 13.5647 129.88 13.5615C129.905 13.5615 129.928 13.5583 129.953 13.5583C129.973 13.5583 129.989 13.5551 130.011 13.5551C130.033 13.5519 130.056 13.5519 130.078 13.5519C130.101 13.5519 130.123 13.5487 130.146 13.5487C130.168 13.5487 130.19 13.5487 130.213 13.5487C130.245 13.5487 130.277 13.5487 130.309 13.5487H130.312C130.338 13.5487 130.36 13.5455 130.386 13.5423C130.415 13.5455 130.444 13.5487 130.473 13.5487H130.681C131.111 13.5487 131.463 13.1971 131.463 12.7657C131.463 12.3342 131.111 11.9858 130.681 11.9858Z" fill="#29B5E8"></path>
    <path d="M134.818 12.0083C134.818 12.0083 134.815 12.0051 134.811 12.0051C134.795 11.9987 134.783 11.9923 134.763 11.9891C134.757 11.9859 134.747 11.9827 134.738 11.9795C134.725 11.9763 134.712 11.9731 134.699 11.9699C134.686 11.9667 134.674 11.9603 134.664 11.9603C134.648 11.9571 134.635 11.9539 134.619 11.9539C134.606 11.9507 134.597 11.9507 134.584 11.9475C134.558 11.9443 134.529 11.9443 134.504 11.9443C134.087 11.9443 133.734 12.2927 133.734 12.7082V30.0242C133.734 30.4429 134.087 30.7913 134.504 30.7913C134.529 30.7913 134.558 30.7913 134.584 30.7881C134.587 30.7881 134.593 30.7849 134.597 30.7849C134.619 30.7817 134.642 30.7785 134.664 30.7753C134.667 30.7753 134.674 30.7721 134.68 30.7721C134.699 30.7657 134.719 30.7625 134.738 30.7561C134.741 30.7561 134.744 30.7561 134.747 30.7529C135.042 30.6602 135.26 30.411 135.292 30.1041C135.296 30.0786 135.299 30.053 135.299 30.0242V12.7082C135.299 12.6826 135.296 12.657 135.292 12.6315C135.263 12.3502 135.078 12.1169 134.818 12.0083Z" fill="#29B5E8"></path>
    <path d="M75.9574 26.7164C75.951 26.6717 75.951 26.6301 75.9446 26.5886C75.9414 26.5566 75.9382 26.5279 75.935 26.4991C75.9286 26.464 75.9254 26.432 75.9189 26.3968C75.9125 26.3649 75.9061 26.3329 75.8997 26.2978C75.8965 26.2722 75.8901 26.2434 75.8837 26.2179C75.8741 26.1795 75.8677 26.1444 75.858 26.106C75.8516 26.0868 75.8452 26.0645 75.8388 26.0453C75.8292 26.0037 75.8164 25.9654 75.8003 25.927C75.7971 25.911 75.7907 25.8951 75.7875 25.8823C75.7715 25.8375 75.7555 25.796 75.7362 25.7512C75.733 25.7448 75.7298 25.7353 75.7266 25.7257C75.7042 25.6809 75.6849 25.633 75.6625 25.5882C75.6593 25.585 75.6593 25.5819 75.6561 25.5787C75.4734 25.2111 75.2137 24.9043 74.8963 24.6454C74.8963 24.6422 74.8963 24.6422 74.8931 24.6422C74.8483 24.6071 74.8034 24.5687 74.7553 24.5336C74.7553 24.5336 74.7521 24.5304 74.7489 24.5272C74.7457 24.5272 74.7425 24.524 74.7393 24.5208C74.7104 24.5016 74.6816 24.4792 74.6559 24.46C74.2616 24.182 73.8256 23.9615 73.1909 23.7186C73.1813 23.7154 73.1717 23.7122 73.1621 23.709C73.1525 23.7026 73.1396 23.6994 73.13 23.693C72.771 23.5588 72.3991 23.4309 72.0176 23.3063C72.0176 23.3063 72.0176 23.3063 72.0144 23.3063C72.0144 23.3063 72.0112 23.3063 72.0112 23.3031C72.0048 23.3031 71.9984 23.2999 71.9888 23.2967C71.9535 23.2839 71.9151 23.2711 71.8638 23.2551C71.8381 23.2488 71.8189 23.2424 71.7997 23.236C71.6714 23.1912 71.54 23.1497 71.4086 23.1049C71.3156 23.073 71.2162 23.041 71.0976 23.0027C71.0656 22.9931 70.9886 22.9675 70.9245 22.9483C70.9213 22.9483 70.9213 22.9451 70.9181 22.9451C70.8796 22.9323 70.8412 22.9196 70.7995 22.9068C70.4789 22.8045 70.2161 22.715 69.9917 22.6319C69.6262 22.4977 69.2928 22.3539 69.0203 22.1813C69.0139 22.1781 69.0075 22.1749 69.0043 22.1717C68.6325 21.9352 68.376 21.6444 68.3151 21.264L68.3119 21.2608C68.3087 21.2353 68.3055 21.2065 68.3055 21.1809C68.3023 21.1745 68.3023 21.1713 68.3023 21.1681C68.2991 21.1362 68.2991 21.1074 68.2991 21.0755C68.2991 21.0307 68.3023 20.986 68.3055 20.9444C68.3055 20.9316 68.3055 20.9221 68.3087 20.9125C68.3119 20.8773 68.3151 20.8453 68.3183 20.8134C68.3215 20.8038 68.3215 20.7942 68.3247 20.7846C68.3311 20.7495 68.3375 20.7175 68.3439 20.6824C68.3471 20.6792 68.3471 20.6728 68.3504 20.6664C68.36 20.628 68.3696 20.5929 68.3824 20.5577C68.3824 20.5545 68.3824 20.5545 68.3824 20.5545C68.5491 20.0591 68.9434 19.6916 69.4082 19.4327C69.4403 19.4167 69.4723 19.4007 69.5012 19.3848C69.5332 19.3688 69.5621 19.3528 69.591 19.34C69.639 19.3176 69.6871 19.2953 69.7352 19.2761C69.7641 19.2633 69.7897 19.2505 69.8186 19.2409C69.8698 19.2218 69.9211 19.2026 69.9724 19.1834C69.9981 19.1738 70.0269 19.1642 70.0558 19.1547C70.1071 19.1387 70.1551 19.1227 70.2064 19.1099C70.2385 19.1003 70.2673 19.0907 70.2994 19.0843C70.3475 19.0716 70.3956 19.062 70.4405 19.0492C70.4725 19.0428 70.5046 19.0364 70.5366 19.03C70.5879 19.0204 70.636 19.0108 70.6809 19.0044C70.7097 19.0012 70.7354 18.998 70.7642 18.9917C70.8187 18.9853 70.8764 18.9789 70.9341 18.9757C70.9469 18.9725 70.9598 18.9725 70.9758 18.9693C71.0463 18.9661 71.1169 18.9629 71.1842 18.9629C71.2643 18.9629 71.3445 18.9661 71.4214 18.9693C71.4342 18.9693 71.447 18.9693 71.4566 18.9693C72.0241 19.0044 72.4825 19.1419 72.8607 19.324C72.8896 19.3368 72.9184 19.3528 72.9473 19.3656C72.9633 19.3752 72.9793 19.3848 72.9954 19.3912C73.0306 19.4103 73.0659 19.4295 73.1044 19.4519C73.1108 19.4551 73.1172 19.4583 73.1236 19.4615C73.1621 19.4838 73.2005 19.5094 73.239 19.5318C73.2422 19.535 73.2454 19.535 73.2454 19.535C73.2871 19.5605 73.3288 19.5893 73.3704 19.6149C73.3704 19.6181 73.3736 19.6181 73.3736 19.6213C73.4153 19.6468 73.4538 19.6724 73.4923 19.7012C73.5083 19.714 73.5211 19.7235 73.5371 19.7331C73.6269 19.8002 73.7679 19.9089 73.8962 20.0144C73.9122 20.024 73.925 20.0336 73.9346 20.0431C74.0308 20.123 74.1206 20.1934 74.2071 20.2573C74.2231 20.2701 74.236 20.2797 74.2456 20.286C74.2488 20.2892 74.252 20.2924 74.2552 20.2924C74.2648 20.2988 74.2744 20.3052 74.2841 20.3116C74.3065 20.3276 74.3321 20.3436 74.3546 20.3596C74.3642 20.3659 74.3738 20.3691 74.3834 20.3755C74.4059 20.3883 74.4283 20.4011 74.4507 20.4139C74.4604 20.4171 74.4668 20.4203 74.4764 20.4235C74.502 20.4363 74.5245 20.4458 74.5501 20.4554C74.5565 20.4586 74.5597 20.4586 74.5662 20.4618C74.595 20.4714 74.6239 20.481 74.6527 20.4842C74.6527 20.4842 74.6527 20.4842 74.6559 20.4874C74.72 20.497 74.7809 20.5002 74.845 20.4842C74.8515 20.4842 74.8579 20.481 74.8643 20.481C74.8803 20.4778 74.8995 20.4714 74.9156 20.4682C74.922 20.465 74.9252 20.4618 74.9316 20.4586C74.938 20.4586 74.9444 20.4554 74.9508 20.4522C74.9765 20.4395 75.0021 20.4267 75.0278 20.4107C75.0342 20.4107 75.0374 20.4075 75.0406 20.4043C75.0694 20.3851 75.0951 20.3659 75.1207 20.3436C75.1239 20.3404 75.1239 20.3404 75.1239 20.3404C75.1464 20.3212 75.1656 20.2988 75.1849 20.2765C75.1977 20.2605 75.2105 20.2413 75.2201 20.2221C75.2233 20.2189 75.2265 20.2157 75.2265 20.2125C75.3612 19.9888 75.2842 19.6948 75.047 19.3752C75.0438 19.3688 75.0406 19.3624 75.0342 19.356C75.0246 19.3432 75.0182 19.3336 75.0085 19.3208C74.4636 18.6177 73.223 17.8475 72.0721 17.6014C72.0657 17.6014 72.0593 17.6014 72.0529 17.5982C72.0048 17.5886 71.9535 17.579 71.9054 17.5694C71.8926 17.5694 71.8766 17.5662 71.8638 17.563C71.8221 17.5566 71.7804 17.5502 71.7387 17.5471C71.7227 17.5439 71.7067 17.5407 71.6907 17.5407C71.6522 17.5375 71.6105 17.5343 71.5721 17.5311C71.556 17.5279 71.54 17.5279 71.5272 17.5247C71.4727 17.5247 71.4214 17.5215 71.3701 17.5215C71.2867 17.5215 71.2034 17.5215 71.1233 17.5247C71.0784 17.5247 71.0335 17.5279 70.9854 17.5311C70.9534 17.5343 70.9149 17.5343 70.8828 17.5343C70.8187 17.5407 70.7578 17.5439 70.6969 17.5502C70.6809 17.5502 70.6616 17.5502 70.6456 17.5534C70.5751 17.5598 70.5046 17.5662 70.4372 17.5758C70.4276 17.5758 70.4212 17.5758 70.4148 17.5758C70.3411 17.5854 70.2706 17.595 70.2 17.6078C70.1968 17.6078 70.1904 17.6078 70.1872 17.6078C70.1167 17.6174 70.0462 17.6301 69.9788 17.6429C69.9756 17.6429 69.9724 17.6461 69.966 17.6461C69.8218 17.6717 69.6807 17.7037 69.5461 17.7388C69.5429 17.7388 69.5429 17.742 69.5429 17.742C69.4755 17.758 69.4082 17.7772 69.3409 17.7963C69.2768 17.8155 69.2159 17.8379 69.1582 17.8571C69.1518 17.8571 69.1486 17.8603 69.1422 17.8603C69.0845 17.8826 69.0267 17.9018 68.969 17.9242C68.9626 17.9274 68.9562 17.9306 68.953 17.9306C68.8953 17.9529 68.844 17.9753 68.7895 18.0009C68.7831 18.0041 68.7735 18.0041 68.7671 18.0105C68.719 18.0297 68.6677 18.0552 68.6228 18.0776C68.61 18.084 68.6004 18.0872 68.5908 18.0936C68.5427 18.1159 68.4978 18.1383 68.4529 18.1639C68.4401 18.1703 68.4305 18.1767 68.4177 18.1831C68.376 18.2054 68.3343 18.231 68.2927 18.2566C68.2798 18.263 68.267 18.2694 68.2542 18.2789C68.1997 18.3109 68.1484 18.3461 68.0971 18.378C68.0362 18.4228 67.9753 18.4643 67.9208 18.5091C67.9144 18.5091 67.9112 18.5123 67.9112 18.5154C67.6387 18.7168 67.4047 18.9309 67.2123 19.1802C67.2059 19.1898 67.1963 19.1994 67.1899 19.209C67.1675 19.2441 67.1418 19.2761 67.1194 19.3081C67.1033 19.3336 67.0873 19.3592 67.0713 19.3848C67.0585 19.4039 67.0456 19.4231 67.036 19.4423C67.0104 19.4838 66.9879 19.5254 66.9655 19.5701C66.9623 19.5765 66.9591 19.5797 66.9559 19.5861C66.7828 19.9281 66.6834 20.3212 66.6449 20.7974C66.6449 20.8038 66.6449 20.8102 66.6417 20.8166C66.6385 20.8997 66.6321 20.9828 66.6289 21.0723C66.6289 21.1394 66.6289 21.2065 66.6321 21.2736C66.6321 21.2832 66.6321 21.2928 66.6321 21.3024C66.6674 22.2164 67.0841 22.9036 67.8374 23.4373C67.8439 23.4405 67.8503 23.4469 67.8567 23.4501C67.8887 23.4725 67.9208 23.4949 67.9529 23.5172C67.9753 23.5332 68.0009 23.546 68.0234 23.562C68.0298 23.5684 68.0394 23.5716 68.0458 23.5748C68.7895 24.0446 69.6999 24.313 70.4597 24.5272C70.8315 24.6358 71.1649 24.7285 71.2643 24.7573C71.2867 24.7637 71.3092 24.7701 71.3284 24.7797C71.7836 24.9299 72.133 25.0513 72.4216 25.1664C72.444 25.1728 72.4632 25.1823 72.4857 25.1887C72.4921 25.1919 72.5017 25.1951 72.5113 25.2015C72.6748 25.2686 72.8351 25.339 72.989 25.4157C73.1172 25.4796 73.2358 25.5467 73.3544 25.617C73.6589 25.8056 73.893 26.0101 74.05 26.2338C74.0565 26.2402 74.0597 26.2466 74.0629 26.253C74.0789 26.2722 74.0917 26.2914 74.1013 26.3137C74.1109 26.3265 74.1174 26.3361 74.1238 26.3489C74.1334 26.3649 74.143 26.3809 74.1494 26.3968C74.159 26.4128 74.1654 26.432 74.1751 26.448C74.1815 26.4608 74.1879 26.4735 74.1943 26.4863C74.2007 26.5055 74.2103 26.5247 74.2167 26.5471C74.2199 26.5566 74.2264 26.5694 74.2296 26.5822C74.236 26.6046 74.2424 26.627 74.2488 26.6493C74.252 26.6589 74.2552 26.6685 74.2584 26.6813C74.2648 26.7037 74.2712 26.7292 74.2744 26.7516C74.2776 26.7612 74.2808 26.774 74.2808 26.7836C74.2841 26.8091 74.2873 26.8347 74.2905 26.8603C74.2937 26.8698 74.2937 26.8794 74.2937 26.889C74.2969 26.9274 74.3001 26.9625 74.3001 27.0009C74.3001 27.0584 74.2969 27.1127 74.2937 27.1671C74.2937 27.1831 74.2905 27.199 74.2905 27.215C74.2873 27.2566 74.2808 27.2981 74.2712 27.3397C74.2712 27.3524 74.268 27.3652 74.2648 27.378C74.2456 27.4899 74.2135 27.5953 74.1719 27.7008C74.1687 27.704 74.1686 27.7072 74.1686 27.7104C74.1462 27.7583 74.1238 27.8095 74.0981 27.8542C74.0949 27.8606 74.0949 27.8638 74.0917 27.867C74.0372 27.9693 73.9731 28.0684 73.893 28.161C73.8545 28.209 73.8128 28.2537 73.7711 28.2985C73.7679 28.2985 73.7679 28.2985 73.7679 28.3017C73.6814 28.388 73.5852 28.4679 73.4858 28.5414C73.4826 28.5446 73.4794 28.5446 73.4794 28.5478C73.4313 28.5797 73.3833 28.6149 73.3352 28.6436C73.3288 28.65 73.3224 28.6532 73.3159 28.6564C73.2326 28.7076 73.1428 28.7587 73.0531 28.8034C73.021 28.8194 72.989 28.8354 72.9537 28.8514C72.9184 28.8674 72.88 28.8865 72.8415 28.9025C72.8094 28.9153 72.7806 28.9281 72.7485 28.9409C72.662 28.9728 72.5786 29.0048 72.4921 29.0336C72.4793 29.0368 72.4664 29.0399 72.4536 29.0463C72.4023 29.0623 72.351 29.0751 72.2997 29.0911C72.2869 29.0943 72.2709 29.1007 72.2581 29.1039C72.0882 29.1486 71.9215 29.1838 71.7644 29.2093C71.7612 29.2093 71.758 29.2093 71.7548 29.2093C71.6746 29.2221 71.5977 29.2317 71.524 29.2413C71.4951 29.2445 71.4695 29.2477 71.4406 29.2477C71.415 29.2509 71.3893 29.2509 71.3605 29.2541C71.2996 29.2573 71.2355 29.2605 71.1778 29.2605C71.0591 29.2605 70.9437 29.2573 70.8315 29.2509C70.7867 29.2509 70.7418 29.2477 70.6969 29.2445C70.636 29.2381 70.5719 29.2349 70.5142 29.2285C70.4597 29.2253 70.402 29.2189 70.3507 29.2125C70.3026 29.2061 70.2577 29.1998 70.2128 29.1934C70.1135 29.1774 70.0205 29.1646 69.9275 29.1454C69.8859 29.1358 69.841 29.1294 69.7993 29.1198C69.7512 29.1071 69.7031 29.0975 69.6551 29.0847C69.6006 29.0719 69.5493 29.0591 69.498 29.0431C69.4627 29.0336 69.4243 29.024 69.3922 29.0144C69.3056 28.9888 69.2191 28.96 69.1357 28.9281C69.1165 28.9217 69.0973 28.9153 69.078 28.9089C68.8921 28.8386 68.7094 28.7619 68.5299 28.6724C68.5235 28.6692 68.5138 28.6628 68.5042 28.6596C68.3888 28.6021 68.1933 28.4934 68.0073 28.388C67.9913 28.3784 67.9721 28.3688 67.9561 28.3592C67.8246 28.2825 67.7124 28.2186 67.6066 28.1674C67.597 28.161 67.5906 28.1578 67.5842 28.1547C67.5778 28.1515 67.5714 28.1483 67.5682 28.1483C67.5393 28.1355 67.5169 28.1227 67.4912 28.1131C67.4816 28.1099 67.4752 28.1067 67.4688 28.1035C67.4015 28.0779 67.3406 28.0588 67.2797 28.0524C67.2604 28.0492 67.2412 28.0492 67.222 28.0492C67.2155 28.046 67.2091 28.046 67.2027 28.046C67.0809 28.046 66.9751 28.0875 66.8757 28.1802C66.8533 28.1994 66.8341 28.2186 66.8148 28.2409C66.8116 28.2473 66.8052 28.2537 66.7988 28.2601C66.786 28.2761 66.7764 28.2889 66.7668 28.3017C66.7603 28.3113 66.7539 28.3208 66.7507 28.3272C66.7411 28.34 66.7315 28.3528 66.7251 28.3656C66.7187 28.3752 66.7155 28.3848 66.7123 28.3944C66.7058 28.4071 66.6994 28.4199 66.693 28.4327C66.6898 28.4423 66.6866 28.4487 66.6834 28.4583C66.677 28.4743 66.6738 28.487 66.6706 28.4998C66.6674 28.5094 66.6642 28.5158 66.6642 28.5254C66.661 28.5414 66.6578 28.5573 66.6546 28.5733C66.6546 28.5797 66.6513 28.5861 66.6513 28.5925C66.6481 28.6149 66.6481 28.6341 66.6481 28.6532C66.6481 28.6564 66.6481 28.6596 66.6481 28.6628C66.6481 28.6884 66.6513 28.7108 66.6578 28.7363C66.6578 28.7395 66.6578 28.7459 66.6578 28.7491C66.6642 28.7683 66.6674 28.7907 66.6738 28.8098C66.677 28.8194 66.6802 28.829 66.6834 28.8386C66.6898 28.8546 66.693 28.8738 66.7026 28.8897C66.7058 28.8993 66.709 28.9057 66.7123 28.9121C66.7539 29.008 66.8212 29.1071 66.9078 29.2029C67.0008 29.3052 67.1194 29.4075 67.2572 29.513C67.2604 29.513 67.2604 29.513 67.2604 29.5162C67.2989 29.5417 67.3374 29.5705 67.379 29.5993C67.3887 29.6056 67.3951 29.612 67.4047 29.6152C67.5169 29.6919 67.6355 29.7654 67.7701 29.8422C67.8022 29.8613 67.8342 29.8805 67.8663 29.8965C67.8984 29.9157 67.9304 29.9316 67.9625 29.9476C68.0009 29.97 68.0458 29.9924 68.0875 30.0147C68.1163 30.0275 68.142 30.0435 68.1708 30.0563C68.235 30.0882 68.3023 30.1202 68.3696 30.1522C68.3792 30.1586 68.3856 30.1618 68.3952 30.1649C68.469 30.2001 68.5427 30.2321 68.6164 30.2608C68.6485 30.2736 68.6773 30.2864 68.7094 30.2992C68.7158 30.3024 68.7222 30.3056 68.7286 30.3056C69.4146 30.574 70.2609 30.753 71.0079 30.785C71.0624 30.7882 71.1201 30.7914 71.1746 30.7914H71.1778C71.2034 30.7914 71.2258 30.7914 71.2515 30.7882C71.3092 30.7882 71.3669 30.7882 71.4246 30.7882C71.431 30.7882 71.4374 30.7882 71.4438 30.785C72.6588 30.7466 73.6557 30.4334 74.5052 29.8134C74.5052 29.8102 74.5052 29.8102 74.5052 29.8102C75.4477 29.1007 75.967 28.1003 75.967 26.9977C75.967 26.9274 75.9638 26.8571 75.9606 26.7899C75.9606 26.7644 75.9574 26.7388 75.9574 26.7164Z" fill="#29B5E8"></path>
    <path d="M83.7966 17.5474C83.7934 17.5474 83.7902 17.5474 83.787 17.5474C82.2931 17.5474 80.8826 18.1546 79.8632 19.2285V18.3144C79.8632 17.8925 79.5363 17.5474 79.1227 17.5474C79.0939 17.5474 79.0682 17.5506 79.0426 17.5506C78.8599 17.5697 78.6996 17.6496 78.581 17.7679C78.5778 17.7679 78.5778 17.7679 78.5746 17.7711C78.5649 17.7839 78.5521 17.7967 78.5425 17.8094C78.5361 17.8126 78.5297 17.819 78.5265 17.8254C78.5169 17.835 78.5104 17.8446 78.504 17.8542C78.4976 17.8638 78.4912 17.8734 78.4816 17.8829C78.4784 17.8893 78.4752 17.8957 78.472 17.9021C78.4624 17.9181 78.4527 17.9341 78.4431 17.9469C78.4431 17.9501 78.4431 17.9533 78.4399 17.9565C78.4303 17.9756 78.4207 17.9948 78.4111 18.014C78.395 18.0619 78.379 18.1099 78.3694 18.1578C78.3694 18.161 78.3694 18.1642 78.3662 18.1642C78.363 18.1898 78.3598 18.2121 78.3566 18.2345C78.3566 18.2601 78.3534 18.2856 78.3534 18.3144V30.1844L78.3438 30.2356L78.3822 30.2675C78.3822 30.2835 78.3854 30.3059 78.395 30.3283C78.395 30.3315 78.3982 30.3378 78.3982 30.341C78.4047 30.357 78.4143 30.3762 78.4303 30.3922C78.5297 30.5807 78.7124 30.7246 78.9272 30.7885L78.9432 30.7917H79.1227C79.1516 30.7917 79.1804 30.7917 79.2093 30.7885C79.2285 30.7853 79.2478 30.7789 79.267 30.7757C79.2766 30.7757 79.283 30.7757 79.2926 30.7725C79.3183 30.7661 79.3439 30.7597 79.3696 30.7501C79.3696 30.7501 79.3696 30.7501 79.3728 30.7501C79.5074 30.7022 79.6228 30.6191 79.6998 30.5072C79.703 30.504 79.7062 30.5008 79.7094 30.4976C79.7607 30.4433 79.7895 30.3858 79.8184 30.3059C79.8216 30.2963 79.8248 30.2899 79.8248 30.2835C79.828 30.2803 79.828 30.2803 79.828 30.2771C79.8408 30.2388 79.8504 30.2004 79.86 30.1621L79.8632 30.1493V22.9646C79.9145 20.8233 81.6712 19.0815 83.7806 19.0783C83.7838 19.0783 83.7838 19.0783 83.787 19.0783C85.9348 19.0783 87.6819 20.8201 87.6819 22.9614V30.0246C87.6819 30.0534 87.6851 30.079 87.6883 30.1045C87.7043 30.2899 87.7845 30.4497 87.9031 30.568C87.9031 30.568 87.9063 30.568 87.9063 30.5712C87.9191 30.5839 87.9319 30.5935 87.9447 30.6063C87.9512 30.6127 87.9544 30.6159 87.9608 30.6191C87.9704 30.6287 87.98 30.6351 87.9896 30.6415C87.9992 30.6511 88.0089 30.6574 88.0185 30.6638C88.0281 30.667 88.0345 30.6702 88.0409 30.6766C88.0537 30.6862 88.0698 30.6926 88.0826 30.7022C88.0858 30.7022 88.089 30.7054 88.0954 30.7054C88.1114 30.715 88.1307 30.7246 88.1499 30.7342H88.1531C88.198 30.7533 88.2461 30.7661 88.2942 30.7757C88.3006 30.7757 88.3038 30.7789 88.307 30.7789C88.3294 30.7821 88.3487 30.7853 88.3711 30.7885C88.3967 30.7917 88.4224 30.7917 88.4512 30.7917C88.4769 30.7917 88.5025 30.7917 88.5282 30.7885C88.5506 30.7853 88.5731 30.7821 88.5923 30.7789C88.5955 30.7789 88.6019 30.7757 88.6051 30.7757C88.6564 30.7661 88.7013 30.7533 88.7494 30.7342C88.7686 30.7246 88.7878 30.715 88.8071 30.7054C88.8103 30.7054 88.8135 30.7022 88.8167 30.7022C88.8327 30.6926 88.8455 30.6862 88.8616 30.6766C88.868 30.6702 88.8744 30.667 88.8808 30.6638C88.8904 30.6574 88.9 30.6511 88.9097 30.6415C88.9193 30.6351 88.9321 30.6287 88.9417 30.6191C88.9449 30.6159 88.9513 30.6127 88.9545 30.6063C88.9674 30.5935 88.9834 30.5839 88.9962 30.5712C88.9962 30.568 88.9962 30.568 88.9962 30.568C89.118 30.4497 89.1982 30.2899 89.2142 30.1045C89.2174 30.079 89.2174 30.0534 89.2174 30.0246V22.9614C89.2174 19.9795 86.7875 17.5538 83.7966 17.5474Z" fill="#29B5E8"></path>
    <path d="M97.6245 17.5215C101.106 17.5215 103.936 20.497 103.936 24.1564C103.936 27.8159 101.106 30.7914 97.6245 30.7914C97.5155 30.7914 97.4097 30.7882 97.3039 30.7818C97.2879 30.7818 97.2751 30.7818 97.259 30.7786C97.1661 30.7754 97.0731 30.7658 96.9833 30.7562C96.9801 30.7562 96.9769 30.7562 96.9737 30.7562C95.5985 30.606 94.313 29.9796 93.2904 28.9537C93.2487 28.9121 93.2038 28.8706 93.1654 28.8258C93.1622 28.8258 93.1622 28.8226 93.159 28.8226C93.1365 28.8002 93.1173 28.7747 93.0949 28.7491C93.0468 28.698 92.9987 28.6436 92.9506 28.5893C92.9121 28.5478 92.8769 28.4998 92.8384 28.4551C92.8128 28.4199 92.7839 28.3848 92.7551 28.3496C92.6974 28.2793 92.6429 28.2058 92.5916 28.1323C92.5852 28.1227 92.5787 28.1131 92.5723 28.1035C91.9472 27.231 91.5401 26.2243 91.3862 25.1568C91.3702 25.0577 91.3606 24.9586 91.351 24.8596C91.3478 24.85 91.3478 24.8372 91.3446 24.8244C91.3349 24.7317 91.3285 24.6422 91.3253 24.5495C91.3221 24.5304 91.3221 24.5112 91.3221 24.4888C91.3157 24.3801 91.3125 24.2683 91.3125 24.1564C91.3125 24.0446 91.3157 23.9327 91.3221 23.824C91.3221 23.8017 91.3221 23.7825 91.3253 23.7633C91.3285 23.6706 91.3349 23.5779 91.3446 23.4885C91.3478 23.4757 91.3478 23.4629 91.351 23.4533C91.3606 23.3542 91.3702 23.2551 91.3862 23.1561C91.5401 22.0886 91.9472 21.0819 92.5723 20.2093C92.5755 20.1998 92.5819 20.1902 92.5884 20.1838C92.6429 20.1071 92.6974 20.0336 92.7551 19.96C92.7807 19.9281 92.8095 19.8961 92.8352 19.861C92.8737 19.813 92.9121 19.7683 92.9506 19.7203C92.9955 19.6692 93.0404 19.6213 93.0884 19.5701C93.1109 19.5446 93.1365 19.5158 93.159 19.4902C93.1622 19.4902 93.1622 19.487 93.1654 19.487C93.2006 19.4455 93.2423 19.4071 93.2808 19.3688C94.3034 18.3397 95.5921 17.7069 96.9737 17.5566C96.9769 17.5566 96.9801 17.5566 96.9833 17.5566C97.0731 17.5471 97.1661 17.5407 97.259 17.5343C97.2751 17.5343 97.2879 17.5311 97.3039 17.5311C97.4097 17.5247 97.5155 17.5215 97.6245 17.5215ZM102.375 23.6355C102.375 23.6323 102.375 23.6323 102.375 23.6291C102.263 22.4785 101.789 21.4398 101.08 20.6376C101.048 20.6024 101.019 20.5673 100.987 20.5321C100.968 20.513 100.949 20.4938 100.93 20.4746C100.891 20.4363 100.856 20.3979 100.817 20.3596C100.782 20.3244 100.744 20.2924 100.708 20.2605C100.686 20.2413 100.667 20.2189 100.644 20.1998C100.587 20.1486 100.529 20.1007 100.471 20.0527C100.471 20.0527 100.468 20.0527 100.468 20.0495C99.7979 19.5094 98.9933 19.1547 98.1278 19.0556C98.1181 19.0556 98.1117 19.0524 98.1053 19.0524C98.038 19.0428 97.9739 19.0396 97.9066 19.0364C97.8905 19.0332 97.8777 19.0332 97.8649 19.0332C97.7848 19.0268 97.7046 19.0268 97.6245 19.0268C97.5443 19.0268 97.4642 19.0268 97.384 19.0332C97.3712 19.0332 97.3584 19.0332 97.3424 19.0364C97.2751 19.0396 97.2109 19.0428 97.1436 19.0524C97.1372 19.0524 97.1308 19.0556 97.1212 19.0556C96.2556 19.1547 95.451 19.5094 94.781 20.0495C94.781 20.0527 94.7778 20.0527 94.7778 20.0527C94.7201 20.1007 94.6624 20.1486 94.6047 20.1998C94.5823 20.2189 94.5631 20.2381 94.5406 20.2573C94.5053 20.2924 94.4669 20.3244 94.4316 20.3596C94.3964 20.3947 94.3611 20.4331 94.3226 20.4714C94.3034 20.4906 94.2842 20.5098 94.2617 20.5321C94.2329 20.5641 94.204 20.5993 94.172 20.6344C93.4635 21.4366 92.9859 22.4785 92.8737 23.6291C92.8737 23.6323 92.8737 23.6323 92.8737 23.6355C92.8673 23.709 92.8608 23.7825 92.8576 23.8592C92.8576 23.872 92.8544 23.8848 92.8544 23.8975C92.8512 23.9838 92.848 24.0701 92.848 24.1564C92.848 26.9657 95.0151 29.2605 97.6245 29.2605C100.234 29.2605 102.401 26.9657 102.401 24.1564C102.401 24.0701 102.398 23.9838 102.395 23.8975C102.395 23.8848 102.391 23.872 102.391 23.8592C102.388 23.7825 102.382 23.709 102.375 23.6355Z" fill="#29B5E8"></path>
    <path d="M122.491 17.8509C122.484 17.8445 122.481 17.8381 122.475 17.8317C122.398 17.7358 122.295 17.6591 122.18 17.6112C122.18 17.6112 122.18 17.6112 122.177 17.6112C122.164 17.6016 122.148 17.5984 122.135 17.592C122.129 17.592 122.122 17.5888 122.113 17.5856C122.01 17.5505 121.898 17.5441 121.789 17.56H121.786C121.564 17.5952 121.353 17.7294 121.234 17.9276C121.234 17.9276 121.234 17.9276 121.231 17.9276C121.215 17.9596 121.196 17.9915 121.183 18.0235L121.18 18.0267V18.0299L117.506 28.0558L114.621 21.2099C114.592 21.146 114.554 21.0885 114.509 21.0341C114.352 20.852 114.111 20.7369 113.864 20.7369C113.826 20.7369 113.791 20.7369 113.752 20.7465C113.749 20.7465 113.746 20.7465 113.739 20.7465C113.483 20.7912 113.243 20.9702 113.134 21.2099C113.134 21.2131 113.134 21.2131 113.134 21.2131L110.248 28.059L108.851 24.2717L106.549 18.0299C106.536 17.9947 106.523 17.9659 106.507 17.934C106.504 17.9308 106.504 17.9308 106.501 17.9276C106.43 17.7966 106.318 17.6943 106.184 17.6304C106.184 17.6304 106.18 17.6304 106.18 17.6272C106.113 17.5984 106.043 17.576 105.969 17.5632C105.962 17.5632 105.959 17.5632 105.953 17.56C105.918 17.5569 105.879 17.5537 105.844 17.5537H105.841C105.831 17.5537 105.825 17.5537 105.818 17.5537C105.802 17.5537 105.786 17.5537 105.77 17.5569C105.76 17.5569 105.748 17.56 105.738 17.56C105.722 17.5632 105.709 17.5632 105.696 17.5664C105.687 17.5696 105.677 17.5696 105.667 17.5728C105.651 17.576 105.635 17.5792 105.619 17.5856C105.613 17.5888 105.607 17.5888 105.6 17.592C105.584 17.5984 105.568 17.6016 105.552 17.6112C105.552 17.6112 105.552 17.6112 105.549 17.6112C105.417 17.6687 105.312 17.7678 105.235 17.8828C105.232 17.8892 105.228 17.8924 105.225 17.8988C105.222 17.9052 105.219 17.9116 105.215 17.918C105.158 18.0139 105.123 18.1257 105.11 18.2376C105.097 18.3559 105.113 18.4805 105.161 18.5956L107.825 25.7323L109.534 30.309C109.534 30.309 109.534 30.309 109.534 30.3122C109.604 30.4848 109.707 30.603 109.848 30.6669C109.851 30.6701 109.857 30.6733 109.861 30.6765C109.864 30.6797 109.867 30.6829 109.873 30.6861C109.873 30.6893 109.877 30.6893 109.88 30.6925C109.886 30.6957 109.889 30.6989 109.896 30.7053C109.899 30.7053 109.899 30.7053 109.902 30.7053C109.928 30.7213 109.96 30.7341 110.002 30.7373C110.005 30.7373 110.008 30.7404 110.011 30.7404C110.024 30.7436 110.037 30.75 110.05 30.7532C110.056 30.7532 110.062 30.7564 110.069 30.7564C110.149 30.782 110.2 30.7916 110.264 30.7916C110.3 30.7916 110.332 30.7884 110.367 30.782C110.393 30.7788 110.422 30.7724 110.447 30.7628C110.454 30.7596 110.46 30.7596 110.466 30.7564C110.492 30.75 110.518 30.7404 110.543 30.7277C110.553 30.7245 110.563 30.7213 110.572 30.7149C110.588 30.7053 110.607 30.6957 110.627 30.6861C110.639 30.6765 110.656 30.6669 110.672 30.6573C110.681 30.651 110.691 30.6414 110.7 30.635C110.723 30.619 110.742 30.603 110.765 30.5838C110.768 30.5806 110.771 30.5774 110.774 30.5711C110.797 30.5487 110.819 30.5263 110.841 30.5007C110.841 30.4975 110.845 30.4944 110.848 30.4912C110.867 30.4656 110.886 30.4368 110.902 30.4081C110.918 30.3761 110.934 30.3409 110.947 30.3058L110.95 30.2962L110.96 30.2834L110.97 30.261L113.864 23.3704L116.785 30.2866C116.807 30.3569 116.842 30.4208 116.891 30.4816C116.897 30.4912 116.903 30.4975 116.91 30.5071C116.926 30.5263 116.942 30.5455 116.961 30.5647C116.971 30.5711 116.98 30.5806 116.99 30.587C117.006 30.603 117.025 30.619 117.044 30.635C117.054 30.6414 117.06 30.6478 117.07 30.651C117.093 30.6669 117.115 30.6829 117.137 30.6957C117.144 30.6989 117.15 30.7021 117.157 30.7053C117.182 30.7181 117.205 30.7309 117.234 30.7404C117.24 30.7436 117.246 30.7468 117.256 30.7468C117.278 30.7564 117.301 30.766 117.327 30.7724C117.359 30.7788 117.391 30.7852 117.419 30.7916H117.516C117.554 30.7916 117.589 30.7884 117.625 30.782C117.634 30.782 117.641 30.782 117.65 30.7788C117.682 30.7724 117.711 30.766 117.74 30.7564C117.75 30.7532 117.756 30.75 117.762 30.7468C117.795 30.7372 117.827 30.7213 117.855 30.7053C117.859 30.7053 117.862 30.7021 117.865 30.7021C117.9 30.6797 117.936 30.6573 117.964 30.635C118.093 30.5391 118.186 30.4145 118.25 30.261V30.2578L120.055 25.4127L122.593 18.5956C122.693 18.3559 122.654 18.0938 122.517 17.8892C122.51 17.8765 122.5 17.8637 122.491 17.8509Z" fill="#29B5E8"></path>
    <path d="M163.256 18.0647C163.256 18.0519 163.253 18.036 163.25 18.0232C163.25 18.0136 163.246 18.004 163.243 17.9944C163.24 17.9784 163.237 17.9624 163.234 17.9497C163.23 17.9401 163.227 17.9305 163.224 17.9241C163.221 17.9049 163.214 17.8889 163.205 17.873C163.205 17.8666 163.202 17.8634 163.198 17.857C163.189 17.8346 163.179 17.8154 163.166 17.7963C163.166 17.7931 163.166 17.7931 163.166 17.7931C163.128 17.7259 163.08 17.6684 163.025 17.6173C163.022 17.6141 163.022 17.6141 163.022 17.6141C163.019 17.6109 163.019 17.6109 163.019 17.6109C162.746 17.3392 162.362 17.3041 162.06 17.515C162.051 17.5214 162.044 17.5278 162.035 17.531C162.022 17.5406 162.009 17.5502 161.996 17.5597C161.977 17.5789 161.958 17.5949 161.939 17.6141C161.939 17.6141 161.935 17.6141 161.935 17.6173L154.424 24.917V12.7082C154.424 12.6826 154.424 12.657 154.421 12.6315C154.392 12.3502 154.203 12.1169 153.947 12.0083C153.944 12.0083 153.944 12.0051 153.94 12.0051C153.924 11.9987 153.908 11.9923 153.892 11.9891C153.886 11.9859 153.876 11.9827 153.867 11.9795C153.854 11.9763 153.841 11.9731 153.825 11.9699C153.815 11.9667 153.803 11.9635 153.79 11.9603C153.777 11.9571 153.761 11.9539 153.748 11.9539C153.735 11.9507 153.726 11.9507 153.713 11.9475C153.684 11.9443 153.658 11.9443 153.633 11.9443C153.213 11.9443 152.863 12.2927 152.863 12.7082V30.0242C152.863 30.4429 153.213 30.7913 153.633 30.7913C153.658 30.7913 153.687 30.7913 153.713 30.7881C153.716 30.7881 153.719 30.7849 153.726 30.7849C153.748 30.7817 153.77 30.7817 153.79 30.7753C153.796 30.7753 153.803 30.7721 153.809 30.7721C153.828 30.7657 153.847 30.7625 153.867 30.7561C153.87 30.7561 153.873 30.7529 153.876 30.7529C154.171 30.6602 154.389 30.4078 154.421 30.1041C154.424 30.0786 154.424 30.053 154.424 30.0242V27.1031L156.954 24.5846L161.868 30.4973C161.9 30.5484 161.935 30.5931 161.98 30.6283C161.99 30.6379 161.996 30.6443 162.006 30.6507C162.019 30.6602 162.032 30.6698 162.044 30.6762C162.06 30.689 162.076 30.6954 162.092 30.705C162.099 30.7082 162.108 30.7146 162.115 30.7178C162.137 30.7274 162.157 30.7338 162.179 30.7433C162.185 30.7465 162.192 30.7465 162.195 30.7497C162.221 30.7561 162.243 30.7625 162.269 30.7689C162.272 30.7689 162.278 30.7721 162.285 30.7721C162.31 30.7785 162.333 30.7817 162.362 30.7849C162.368 30.7849 162.375 30.7849 162.381 30.7881C162.413 30.7881 162.445 30.7913 162.48 30.7913C162.532 30.7913 162.58 30.7881 162.625 30.7817C162.628 30.7817 162.628 30.7817 162.628 30.7817C162.718 30.7689 162.801 30.7401 162.878 30.7018C162.881 30.7018 162.881 30.6986 162.881 30.6986C162.916 30.6794 162.952 30.6571 162.987 30.6315L162.996 30.6219C163.288 30.3311 163.333 29.9348 163.121 29.6056C163.102 29.5768 163.083 29.548 163.061 29.5193L158.069 23.4756L163.025 18.7007C163.157 18.5665 163.237 18.4035 163.256 18.2277C163.256 18.2245 163.256 18.2213 163.259 18.2181C163.259 18.2021 163.259 18.183 163.259 18.167C163.259 18.1574 163.262 18.1478 163.262 18.1414C163.262 18.135 163.262 18.1318 163.262 18.1286C163.262 18.1159 163.259 18.1063 163.259 18.0935C163.259 18.0839 163.256 18.0743 163.256 18.0647Z" fill="#29B5E8"></path>
  </g>
  <defs>
    <clipPath id="clip0_4120_644">
      <rect width="151" height="36" fill="white" transform="translate(26 6)"></rect>
    </clipPath>
  </defs>
</svg>
