<?xml version="1.0" encoding="UTF-8"?>
<svg xmlns="http://www.w3.org/2000/svg" width="203" height="48" viewBox="0 0 203 48" fill="none">
  <g clip-path="url(#clip0_4120_637)">
    <path d="M65.75 19.2486H70.9253V31.7348H74.2285V19.2486H79.4039V16.2651H65.75V19.2486Z" fill="#1F1F1E"></path>
    <path d="M59.9153 27.0939L52.9782 16.2651H49.2344V31.7348H52.4276V20.906L59.3647 31.7348H63.1084V16.2651H59.9153V27.0939Z" fill="#1F1F1E"></path>
    <path d="M92.6176 22.4309H85.3502V16.2651H82.0469V31.7348H85.3502V25.4143H92.6176V31.7348H95.9209V16.2651H92.6176V22.4309Z" fill="#1F1F1E"></path>
    <path d="M37.1442 16.2651L31 31.7348H34.4355L35.6921 28.4861H42.1202L43.3765 31.7348H46.812L40.6678 16.2651H37.1442ZM36.8033 25.6132L38.906 20.1767L41.0088 25.6132H36.8033Z" fill="#1F1F1E"></path>
    <path d="M123.297 16C118.848 16 115.699 19.3149 115.699 24.0221C115.699 28.6851 118.848 32 123.297 32C127.723 32 130.851 28.6851 130.851 24.0221C130.851 19.3149 127.723 16 123.297 16ZM123.297 28.9061C120.698 28.9061 119.113 27.0497 119.113 24.0221C119.113 20.9503 120.698 19.0939 123.297 19.0939C125.874 19.0939 127.437 20.9503 127.437 24.0221C127.437 27.0497 125.874 28.9061 123.297 28.9061Z" fill="#1F1F1E"></path>
    <path d="M169.477 26.5414C168.904 28.0442 167.759 28.9061 166.195 28.9061C163.597 28.9061 162.011 27.0497 162.011 24.0221C162.011 20.9503 163.597 19.0939 166.195 19.0939C167.759 19.0939 168.904 19.9558 169.477 21.4586H172.978C172.12 18.1437 169.543 16 166.195 16C161.747 16 158.598 19.3149 158.598 24.0221C158.598 28.6851 161.747 32 166.195 32C169.565 32 172.141 29.8343 173 26.5414H169.477Z" fill="#1F1F1E"></path>
    <path d="M148.422 16.2651L154.566 31.7348H157.935L151.791 16.2651H148.422Z" fill="#1F1F1E"></path>
    <path d="M141.465 16.2651H133.934V31.7348H137.237V26.1215H141.465C144.967 26.1215 147.103 24.2651 147.103 21.1933C147.103 18.1215 144.967 16.2651 141.465 16.2651ZM141.311 23.1381H137.237V19.2486H141.311C142.941 19.2486 143.8 19.9115 143.8 21.1933C143.8 22.4751 142.941 23.1381 141.311 23.1381Z" fill="#1F1F1E"></path>
    <path d="M113.165 20.9723C113.165 18.0552 111.029 16.2651 107.528 16.2651H99.9961V31.7348H103.299V25.6795H106.977L110.28 31.7348H113.936L110.278 25.2183C112.114 24.51 113.165 23.0185 113.165 20.9723ZM103.299 19.2485H107.374C109.003 19.2485 109.862 19.8452 109.862 20.9723C109.862 22.0994 109.003 22.6961 107.374 22.6961H103.299V19.2485Z" fill="#1F1F1E"></path>
  </g>
  <defs>
    <clipPath id="clip0_4120_637">
      <rect width="142" height="16" fill="white" transform="translate(31 16)"></rect>
    </clipPath>
  </defs>
</svg>
