<?xml version="1.0" encoding="UTF-8"?>
<svg xmlns="http://www.w3.org/2000/svg" width="203" height="48" viewBox="0 0 203 48" fill="none">
  <path d="M110.556 31.6613H108.22L106.327 26.6213H98.6976L96.9025 31.6613H94.5664L101.427 13.6367H103.616L110.556 31.6613ZM105.638 24.7075L102.81 17.0459C102.688 16.6423 102.591 16.2312 102.521 15.8152H102.472C102.425 16.2343 102.332 16.6469 102.196 17.0459L99.3861 24.7075H105.638Z" fill="#0072C6"></path>
  <path d="M121.907 19.3784L114.29 29.9138H121.821V31.6614H111.266V31.003L118.87 20.5414H111.979V18.7876H121.907V19.3784Z" fill="#0072C6"></path>
  <path d="M134.968 31.6614H132.878V29.6245H132.829C132.469 30.3577 131.903 30.9702 131.202 31.3876C130.5 31.805 129.692 32.0091 128.876 31.9753C125.803 31.9753 124.266 30.1435 124.266 26.4799V18.7876H126.325V26.1722C126.325 28.8799 127.364 30.2338 129.442 30.2338C129.909 30.2453 130.373 30.1512 130.799 29.9583C131.224 29.7655 131.601 29.4789 131.901 29.1199C132.565 28.3045 132.904 27.2722 132.854 26.2214V18.8368H134.968V31.6614Z" fill="#0072C6"></path>
  <path d="M145.812 20.874C145.347 20.5736 144.798 20.4293 144.245 20.4616C143.792 20.4654 143.347 20.5885 142.957 20.8186C142.566 21.0486 142.243 21.3776 142.019 21.7724C141.411 22.7819 141.114 23.9485 141.165 25.1263V31.6616H139.105V18.7878H141.165V21.4401H141.214C141.448 20.6212 141.906 19.8839 142.536 19.3109C143.099 18.8084 143.829 18.5341 144.583 18.5416C145 18.5225 145.417 18.5809 145.812 18.7139V20.874Z" fill="#0072C6"></path>
  <path d="M158.293 25.7416H149.213C149.165 26.9547 149.575 28.1412 150.362 29.0647C150.765 29.4624 151.247 29.7706 151.777 29.9689C152.306 30.1672 152.872 30.2512 153.436 30.2155C154.885 30.2177 156.289 29.72 157.414 28.8062V30.7324C156.095 31.6127 154.528 32.0443 152.944 31.9632C152.14 32.0057 151.337 31.8681 150.592 31.5604C149.848 31.2528 149.181 30.7828 148.641 30.1847C147.615 28.997 147.098 27.3601 147.098 25.2616C147.085 24.0537 147.352 22.8593 147.879 21.7724C148.346 20.77 149.082 19.9176 150.006 19.3109C150.904 18.7337 151.951 18.4321 153.018 18.4432C153.748 18.405 154.478 18.5317 155.153 18.814C155.827 19.0963 156.43 19.5269 156.916 20.0739C157.85 21.157 158.317 22.675 158.317 24.6278L158.293 25.7416ZM156.184 23.9939C156.231 22.9983 155.927 22.0178 155.324 21.2247C155.032 20.8918 154.668 20.6296 154.26 20.458C153.852 20.2863 153.411 20.2097 152.969 20.2339C152.51 20.2259 152.054 20.3137 151.631 20.4917C151.207 20.6697 150.826 20.934 150.51 21.2678C149.802 22.0149 149.353 22.9711 149.231 23.9939H156.184Z" fill="#0072C6"></path>
  <path d="M54.3438 39.8523H85.1798L68.5692 11.04L63.5159 24.9539L73.229 36.517L54.3438 39.8523Z" fill="#0072C6"></path>
  <path d="M67.2476 8.84912L55.3767 18.8184L45.2148 36.443H54.3808V36.4676L67.2476 8.84912Z" fill="#0072C6"></path>
</svg>
