<?xml version="1.0" encoding="UTF-8"?>
<svg xmlns="http://www.w3.org/2000/svg" width="203" height="48" viewBox="0 0 203 48" fill="none">
  <g clip-path="url(#clip0_4120_640)">
    <path d="M47.0923 21.8935L37.154 27.4892L26.5118 21.509L26 21.7861V26.1263L37.154 32.3808L47.0923 26.8077V29.1065L37.154 34.7022L26.5118 28.722L26 28.9991V29.7427L37.154 35.9972L48.2882 29.7427V25.4025L47.7765 25.1254L37.1568 31.0829L27.1932 25.5099V23.2111L37.154 28.7842L48.2882 22.5297V18.2516L47.7341 17.9321L37.1568 23.8699L27.7077 18.5938L37.154 13.2978L44.9152 17.6579L45.5994 17.2762V16.7446L37.154 12L26 18.2545V18.9359L37.154 25.1904L47.0923 19.5947V21.8935Z" fill="#EE3D2C"></path>
    <path d="M69.1233 32.4513V13.3457H66.18V20.4937C66.18 20.6011 66.115 20.6859 66.0103 20.7284C65.9142 20.7623 65.8068 20.7368 65.7333 20.6633C64.7295 19.4927 63.1745 18.8339 61.4667 18.8339C57.8194 18.8339 54.9609 21.8961 54.9609 25.8122C54.9609 27.7265 55.6225 29.4937 56.8383 30.7915C58.0343 32.078 59.7138 32.8019 61.4667 32.7906C63.1519 32.7906 64.7069 32.0893 65.7333 30.8763C65.7983 30.7915 65.9255 30.7689 66.0103 30.7915C66.1178 30.8339 66.1828 30.9187 66.1828 31.0262V32.4513H69.1261H69.1233ZM62.1086 30.1327C59.7618 30.1327 57.9297 28.2383 57.9297 25.8151C57.9297 23.3919 59.7618 21.4946 62.1086 21.4946C64.4553 21.4946 66.2874 23.3891 66.2874 25.8122C66.2874 28.2354 64.4525 30.1299 62.1086 30.1299M84.8633 32.4513V19.1534H81.9426V20.4937C81.9426 20.6011 81.8776 20.6859 81.7702 20.7284C81.6684 20.7679 81.5553 20.734 81.4931 20.6435C80.512 19.4729 78.9767 18.8113 77.2266 18.8113C73.5792 18.8113 70.7208 21.8763 70.7208 25.7896C70.7208 29.7029 73.5792 32.7679 77.2266 32.7679C78.9117 32.7679 80.4667 32.0667 81.4931 30.8339C81.5553 30.7463 81.6853 30.7265 81.7702 30.7463C81.8776 30.7887 81.9426 30.8735 81.9426 30.981V32.4286H84.8633V32.4513ZM77.891 30.1327C75.5443 30.1327 73.7121 28.2383 73.7121 25.8151C73.7121 23.3919 75.5443 21.4946 77.891 21.4946C80.2377 21.4946 82.0699 23.3891 82.0699 25.8122C82.0699 28.2354 80.2349 30.1299 77.891 30.1299M109.88 32.4513V19.1534H106.956V20.4937C106.956 20.6011 106.894 20.6859 106.787 20.7284C106.679 20.7708 106.575 20.7284 106.51 20.6435C105.529 19.4729 103.993 18.8113 102.243 18.8113C98.5733 18.8113 95.7374 21.8763 95.7374 25.8122C95.7374 29.7482 98.5959 32.7906 102.243 32.7906C103.928 32.7906 105.483 32.0893 106.51 30.8537C106.575 30.7689 106.702 30.7463 106.787 30.7689C106.894 30.8113 106.956 30.8961 106.956 31.0036V32.4513H109.88ZM102.905 30.1327C100.558 30.1327 98.726 28.2383 98.726 25.8151C98.726 23.3919 100.561 21.4946 102.905 21.4946C105.249 21.4946 107.084 23.3891 107.084 25.8122C107.084 28.2354 105.249 30.1299 102.905 30.1299M115.235 30.8763C115.258 30.8763 115.3 30.8537 115.32 30.8537C115.385 30.8537 115.47 30.8961 115.512 30.9385C116.513 32.1091 118.071 32.7679 119.779 32.7679C123.426 32.7679 126.284 29.7057 126.284 25.7896C126.284 23.8754 125.623 22.1082 124.407 20.8104C123.211 19.5238 121.534 18.8 119.779 18.8113C118.094 18.8113 116.538 19.5125 115.512 20.7255C115.447 20.8104 115.342 20.8302 115.235 20.8104C115.128 20.7679 115.063 20.6831 115.063 20.5757V13.3457H112.119V32.4513H115.063V31.1138C115.063 31.0064 115.128 30.9216 115.232 30.8792M114.935 25.8122C114.935 23.3862 116.77 21.4946 119.117 21.4946C121.464 21.4946 123.296 23.3891 123.296 25.8122C123.296 28.2354 121.461 30.1299 119.117 30.1299C116.773 30.1299 114.938 28.2156 114.938 25.8122M134.792 21.8792C135.069 21.8792 135.326 21.9018 135.493 21.9442V18.9216C135.332 18.8933 135.168 18.8792 135.004 18.8792C133.469 18.8792 132.061 19.668 131.314 20.9235C131.249 21.0281 131.142 21.0733 131.037 21.0281C130.93 21.0026 130.851 20.9065 130.845 20.7934V19.1534H127.924V32.4739H130.868V26.6011C130.868 23.6888 132.36 21.8792 134.792 21.8792ZM140.337 19.1534H137.351V32.4739H140.337V19.1534ZM138.801 13.3655C137.803 13.34 136.972 14.1289 136.947 15.127C136.921 16.1252 137.71 16.9564 138.708 16.9819C138.739 16.9819 138.77 16.9819 138.798 16.9819C139.797 17.0187 140.636 16.2383 140.67 15.2373C140.707 14.2392 139.927 13.3994 138.926 13.3655C138.883 13.3655 138.841 13.3655 138.796 13.3655M149.082 18.8113C144.988 18.8113 142.022 21.7491 142.022 25.8122C142.022 27.7887 142.726 29.5559 143.984 30.8339C145.265 32.1091 147.054 32.8132 149.059 32.8132C150.724 32.8132 152.002 32.4937 154.434 30.7067L152.749 28.9423C151.553 29.7312 150.444 30.1129 149.359 30.1129C146.885 30.1129 145.03 28.2637 145.03 25.8151C145.03 23.3664 146.885 21.5172 149.359 21.5172C150.532 21.5172 151.618 21.9018 152.706 22.6878L154.581 20.9235C152.384 19.0516 150.402 18.817 149.079 18.817M159.616 26.5983C159.662 26.5531 159.724 26.5304 159.789 26.5361H159.809C159.874 26.5361 159.936 26.5785 160.001 26.6209L164.714 32.4513H168.342L162.243 25.0884C162.155 24.9838 162.155 24.8339 162.263 24.7491L167.872 19.1534H164.267L159.427 24.0055C159.362 24.0677 159.257 24.0903 159.15 24.0677C159.059 24.0253 159.003 23.9348 159 23.833V13.3655H156.037V32.4711H158.98V27.2797C158.98 27.2175 159 27.1299 159.065 27.0875L159.619 26.5983H159.616Z" fill="black"></path>
    <path d="M173.138 32.7909C175.547 32.7909 178.001 31.3235 178.001 28.5355C178.001 26.7061 176.851 25.4507 174.504 24.6844L172.904 24.1529C171.818 23.7909 171.303 23.2792 171.303 22.5779C171.303 21.7693 172.03 21.2151 173.053 21.2151C174.077 21.2151 174.908 21.8541 175.462 22.9596L177.829 21.6844C176.955 19.8974 175.14 18.7919 173.051 18.7919C170.404 18.7919 168.487 20.494 168.487 22.8126C168.487 24.6618 169.596 25.8974 171.877 26.6213L173.52 27.1529C174.671 27.5148 175.163 27.9813 175.163 28.7278C175.163 29.856 174.116 30.2603 173.22 30.2603C172.027 30.2603 170.961 29.494 170.449 28.2386L168.04 29.5167C168.829 31.5383 170.769 32.7938 173.138 32.7938M93.0555 32.6637C93.9942 32.6637 94.8254 32.5789 95.2948 32.5138V29.9606C94.8056 30.0115 94.3137 30.0398 93.8245 30.0454C92.6314 30.0454 91.7125 29.8333 91.7125 27.2575V21.789C91.7125 21.6392 91.8171 21.5346 91.9669 21.5346H94.8452V19.1312H91.9669C91.8312 19.1368 91.7153 19.0294 91.7125 18.8937C91.7125 18.888 91.7125 18.8824 91.7125 18.8767V15.0454H88.7692V18.8965C88.7692 19.0464 88.6617 19.151 88.5119 19.151H86.4648V21.5544H88.5119C88.6617 21.5544 88.7692 21.659 88.7692 21.8088V28.0011C88.7692 32.6609 91.8821 32.6609 93.0555 32.6609" fill="black"></path>
  </g>
  <defs>
    <clipPath id="clip0_4120_640">
      <rect width="152" height="24" fill="white" transform="translate(26 12)"></rect>
    </clipPath>
  </defs>
</svg>
