<svg width="38" height="37" viewBox="0 0 38 37" fill="none" xmlns="http://www.w3.org/2000/svg" class="location">
            <circle cx="19" cy="18.5" r="18.5" fill="#4994FF"></circle>
            <path fill-rule="evenodd" clip-rule="evenodd" d="M24.8618 19.0147C24.8475 19.0355 24.8337 19.0566 24.8202 19.078L19.0421 28.2493L12.9871 18.6479C12.9725 18.6196 12.9571 18.5915 12.9411 18.5638C12.343 17.5298 12 16.3297 12 15.0435C12 11.1535 15.1535 8 19.0435 8C22.9335 8 26.087 11.1535 26.087 15.0435C26.087 16.5199 25.6349 17.8847 24.8618 19.0147ZM19.043 32L20.2246 30.1244L26.5124 20.144C27.5059 18.6921 28.087 16.9356 28.087 15.0435C28.087 10.0489 24.0381 6 19.0435 6C14.0489 6 10 10.0489 10 15.0435C10 15.979 10.1421 16.8814 10.4058 17.7301C10.6046 18.3701 10.8726 18.9797 11.2011 19.55L11.2075 19.5612L11.2099 19.5652H11.2011L11.2034 19.5689L11.2099 19.5791L12.2704 21.2609L17.8605 30.1249L19.043 32ZM21 15C21 16.1046 20.1046 17 19 17C17.8954 17 17 16.1046 17 15C17 13.8954 17.8954 13 19 13C20.1046 13 21 13.8954 21 15ZM23 15C23 17.2091 21.2091 19 19 19C16.7909 19 15 17.2091 15 15C15 12.7909 16.7909 11 19 11C21.2091 11 23 12.7909 23 15Z" fill="white"></path>
          </svg>