<svg width="32" height="32" viewBox="0 0 32 32" fill="none" xmlns="http://www.w3.org/2000/svg" class="mailbox">
            <circle cx="16" cy="16" r="16" fill="#4994FF"></circle>
            <path d="M22.0658 6.40039H9.93245C8.78361 6.40177 7.6822 6.85901 6.86985 7.67182C6.05749 8.48464 5.6005 9.58665 5.59912 10.7361L5.59912 21.1419C5.6005 22.2914 6.05749 23.3934 6.86985 24.2063C7.6822 25.0191 8.78361 25.4763 9.93245 25.4777H22.0658C23.2146 25.4763 24.316 25.0191 25.1284 24.2063C25.9408 23.3934 26.3977 22.2914 26.3991 21.1419V10.7361C26.3977 9.58665 25.9408 8.48464 25.1284 7.67182C24.316 6.85901 23.2146 6.40177 22.0658 6.40039V6.40039ZM9.93245 8.13469H22.0658C22.5847 8.13571 23.0915 8.29209 23.5209 8.5837C23.9503 8.87532 24.2826 9.28882 24.4751 9.771L17.8382 16.4125C17.3498 16.8992 16.6885 17.1725 15.9991 17.1725C15.3098 17.1725 14.6485 16.8992 14.1601 16.4125L7.52312 9.771C7.71565 9.28882 8.04799 8.87532 8.47736 8.5837C8.90674 8.29209 9.41351 8.13571 9.93245 8.13469V8.13469ZM22.0658 23.7434H9.93245C9.24289 23.7434 8.58157 23.4693 8.09398 22.9814C7.60638 22.4936 7.33245 21.8319 7.33245 21.1419V12.0369L12.9346 17.6387C13.7481 18.4505 14.8501 18.9065 15.9991 18.9065C17.1481 18.9065 18.2502 18.4505 19.0637 17.6387L24.6658 12.0369V21.1419C24.6658 21.8319 24.3919 22.4936 23.9043 22.9814C23.4167 23.4693 22.7554 23.7434 22.0658 23.7434Z" fill="white"></path>
          </svg>