<svg width="37" height="37" viewBox="0 0 37 37" fill="none" xmlns="http://www.w3.org/2000/svg" class="mail">
            <circle cx="18.5" cy="18.5" r="18.5" fill="#4994FF"></circle>
            <path d="M19.0005 8.4375C16.2002 8.44053 13.5154 9.554 11.5353 11.5336C9.55521 13.5132 8.44145 16.1972 8.43842 18.9968C8.32752 27.4205 18.2602 32.5734 25.0736 27.6352C25.1715 27.5701 25.2554 27.486 25.3203 27.388C25.3852 27.2899 25.4297 27.1799 25.4513 27.0643C25.4729 26.9487 25.4712 26.83 25.4461 26.7152C25.4211 26.6003 25.3733 26.4916 25.3055 26.3955C25.2378 26.2994 25.1514 26.2179 25.0516 26.1557C24.9518 26.0935 24.8406 26.052 24.7244 26.0335C24.6083 26.0151 24.4896 26.02 24.3755 26.0482C24.2613 26.0763 24.1539 26.1271 24.0597 26.1974C18.3843 30.3094 10.1107 26.017 10.1988 18.9968C10.682 7.32349 27.3207 7.32613 27.8022 18.9968V20.7567C27.8022 21.2234 27.6167 21.6711 27.2866 22.0011C26.9564 22.3312 26.5087 22.5166 26.0418 22.5166C25.5749 22.5166 25.1272 22.3312 24.7971 22.0011C24.4669 21.6711 24.2815 21.2234 24.2815 20.7567V18.9968C24.0597 12.0197 13.9404 12.0206 13.7194 18.9968C13.7297 20.0668 14.064 21.1086 14.6783 21.9849C15.2926 22.8612 16.158 23.5308 17.1606 23.9055C18.1632 24.2802 19.2558 24.3424 20.2944 24.084C21.333 23.8255 22.269 23.2585 22.9788 22.4576C23.3607 23.1313 23.954 23.6604 24.6671 23.9628C25.3801 24.2652 26.173 24.324 26.9229 24.1303C27.6728 23.9366 28.3378 23.501 28.815 22.8911C29.2923 22.2812 29.555 21.531 29.5625 20.7567V18.9968C29.5595 16.1972 28.4457 13.5132 26.4656 11.5336C24.4855 9.554 21.8008 8.44053 19.0005 8.4375V8.4375ZM19.0005 22.5166C18.0667 22.5166 17.1712 22.1457 16.511 21.4857C15.8507 20.8256 15.4798 19.9303 15.4798 18.9968C15.4798 18.0633 15.8507 17.168 16.511 16.508C17.1712 15.8479 18.0667 15.477 19.0005 15.477C19.9342 15.477 20.8297 15.8479 21.49 16.508C22.1502 17.168 22.5211 18.0633 22.5211 18.9968C22.5211 19.9303 22.1502 20.8256 21.49 21.4857C20.8297 22.1457 19.9342 22.5166 19.0005 22.5166Z" fill="white"></path>
          </svg>