<svg width="32" height="32" viewBox="0 0 32 32" fill="none" xmlns="http://www.w3.org/2000/svg" class="phone">
            <circle cx="16" cy="16" r="16" fill="#4994FF"></circle>
            <path d="M16.8502 6.47006C16.8502 6.23983 16.9417 6.01903 17.1045 5.85623C17.2673 5.69343 17.4881 5.60197 17.7183 5.60197C20.0198 5.6045 22.2264 6.51991 23.8538 8.14735C25.4812 9.77479 26.3966 11.9813 26.3991 14.2829C26.3991 14.5131 26.3077 14.7339 26.1449 14.8967C25.9821 15.0595 25.7613 15.151 25.531 15.151C25.3008 15.151 25.08 15.0595 24.9172 14.8967C24.7544 14.7339 24.663 14.5131 24.663 14.2829C24.6609 12.4417 23.9286 10.6765 22.6266 9.37451C21.3247 8.07257 19.5595 7.34023 17.7183 7.33816C17.4881 7.33816 17.2673 7.2467 17.1045 7.0839C16.9417 6.9211 16.8502 6.7003 16.8502 6.47006ZM17.7183 10.8105C18.6392 10.8105 19.5224 11.1764 20.1736 11.8276C20.8248 12.4788 21.1906 13.362 21.1906 14.2829C21.1906 14.5131 21.2821 14.7339 21.4449 14.8967C21.6077 15.0595 21.8285 15.151 22.0587 15.151C22.2889 15.151 22.5098 15.0595 22.6725 14.8967C22.8353 14.7339 22.9268 14.5131 22.9268 14.2829C22.9254 12.9019 22.3762 11.5779 21.3997 10.6014C20.4233 9.62492 19.0993 9.07572 17.7183 9.07434C17.4881 9.07434 17.2673 9.1658 17.1045 9.3286C16.9417 9.4914 16.8502 9.7122 16.8502 9.94244C16.8502 10.1727 16.9417 10.3935 17.1045 10.5563C17.2673 10.7191 17.4881 10.8105 17.7183 10.8105ZM25.6118 20.133C26.1148 20.6374 26.3973 21.3208 26.3973 22.0332C26.3973 22.7457 26.1148 23.429 25.6118 23.9335L24.8218 24.8441C17.7122 31.6508 0.411407 14.3541 7.11299 7.22183L8.11128 6.35374C8.6163 5.86472 9.29354 5.5942 9.99649 5.6007C10.6994 5.6072 11.3716 5.89019 11.8675 6.38846C11.8944 6.41538 13.5029 8.50487 13.5029 8.50487C13.9802 9.00631 14.2459 9.6724 14.2448 10.3647C14.2437 11.057 13.9758 11.7222 13.4968 12.222L12.4916 13.486C13.0479 14.8377 13.8658 16.0662 14.8984 17.1008C15.9309 18.1354 17.1577 18.9559 18.5083 19.5149L19.78 18.5036C20.2799 18.025 20.945 17.7574 21.6371 17.7565C22.3292 17.7555 22.995 18.0212 23.4963 18.4984C23.4963 18.4984 25.5849 20.1061 25.6118 20.133ZM24.4173 21.3952C24.4173 21.3952 22.34 19.797 22.3131 19.7701C22.1342 19.5928 21.8926 19.4933 21.6407 19.4933C21.3889 19.4933 21.1472 19.5928 20.9684 19.7701C20.945 19.7944 19.1941 21.1894 19.1941 21.1894C19.0761 21.2834 18.9356 21.3449 18.7866 21.3681C18.6376 21.3912 18.4851 21.3751 18.3442 21.3214C16.5946 20.67 15.0053 19.6501 13.6842 18.3309C12.3631 17.0117 11.3409 15.4239 10.6869 13.6752C10.6289 13.5324 10.61 13.3767 10.6321 13.2241C10.6542 13.0716 10.7166 12.9276 10.8127 12.8071C10.8127 12.8071 12.2077 11.0553 12.2312 11.0328C12.4085 10.8539 12.508 10.6123 12.508 10.3604C12.508 10.1086 12.4085 9.86692 12.2312 9.68808C12.2043 9.66204 10.6061 7.58296 10.6061 7.58296C10.4246 7.4202 10.1877 7.33303 9.94401 7.33933C9.70029 7.34562 9.46821 7.4449 9.29534 7.61682L8.29705 8.48491C3.39934 14.374 18.392 28.5352 23.5527 23.6583L24.3435 22.7468C24.5288 22.5751 24.6401 22.3382 24.6539 22.0859C24.6677 21.8337 24.5828 21.586 24.4173 21.3952Z" fill="white"></path>
          </svg>