<svg width="32" height="32" viewBox="0 0 32 32" fill="none" xmlns="http://www.w3.org/2000/svg" class="star">
                        <g clip-path="url(#clip0_133_2395)">
                            <path d="M31.7816 11.7253C31.5089 10.8572 30.964 10.0999 30.2275 9.56536C29.4911 9.03085 28.6022 8.74754 27.6923 8.75731H21.8669L20.0976 3.24265C19.8194 2.37459 19.2726 1.61733 18.5362 1.08007C17.7998 0.542802 16.9118 0.253296 16.0003 0.253296C15.0887 0.253296 14.2007 0.542802 13.4643 1.08007C12.7279 1.61733 12.1812 2.37459 11.9029 3.24265L10.1336 8.75731H4.30826C3.40125 8.7586 2.51785 9.04649 1.78423 9.57985C1.05061 10.1132 0.504312 10.8648 0.223352 11.7272C-0.0576067 12.5896 -0.0588503 13.5187 0.219799 14.3818C0.498449 15.245 1.04274 15.998 1.77492 16.5333L6.51626 20L4.71359 25.5826C4.42227 26.4485 4.41858 27.3853 4.70307 28.2534C4.98756 29.1215 5.54499 29.8745 6.29226 30.4C7.02673 30.9424 7.91678 31.2329 8.8298 31.2283C9.74281 31.2238 10.6299 30.9243 11.3589 30.3746L16.0003 26.9586L20.6429 30.3706C21.3761 30.9099 22.2613 31.2028 23.1714 31.2073C24.0815 31.2117 24.9696 30.9274 25.7079 30.3953C26.4463 29.8632 26.9969 29.1107 27.2806 28.2459C27.5644 27.3812 27.5666 26.4487 27.2869 25.5826L25.4843 20L30.2309 16.5333C30.9715 16.0047 31.5222 15.2517 31.8014 14.3858C32.0807 13.5198 32.0738 12.587 31.7816 11.7253ZM28.6576 14.38L23.1323 18.4186C22.9053 18.5842 22.7365 18.8172 22.6498 19.0844C22.5631 19.3516 22.563 19.6394 22.6496 19.9066L24.7496 26.4C24.8559 26.7293 24.855 27.0839 24.747 27.4127C24.6391 27.7415 24.4296 28.0275 24.1488 28.2298C23.868 28.4321 23.5303 28.5401 23.1843 28.5383C22.8382 28.5366 22.5016 28.4251 22.2229 28.22L16.7896 24.22C16.5607 24.0519 16.2842 23.9612 16.0003 23.9612C15.7163 23.9612 15.4398 24.0519 15.2109 24.22L9.77759 28.22C9.49904 28.4279 9.16151 28.5416 8.81394 28.5448C8.46638 28.5479 8.12685 28.4403 7.84456 28.2375C7.56228 28.0347 7.35192 27.7473 7.24399 27.4169C7.13605 27.0865 7.13615 26.7303 7.24426 26.4L9.35093 19.9066C9.43748 19.6394 9.43742 19.3516 9.35074 19.0844C9.26406 18.8172 9.09521 18.5842 8.86826 18.4186L3.34292 14.38C3.06466 14.1762 2.8579 13.8898 2.75218 13.5615C2.64646 13.2332 2.64718 12.8799 2.75424 12.5521C2.8613 12.2243 3.06922 11.9387 3.34831 11.736C3.6274 11.5334 3.96338 11.4242 4.30826 11.424H11.1083C11.3905 11.424 11.6655 11.3344 11.8937 11.1681C12.1218 11.0018 12.2912 10.7674 12.3776 10.4986L14.4443 4.05731C14.5503 3.72769 14.7583 3.44023 15.0381 3.23631C15.318 3.03239 15.6553 2.92252 16.0016 2.92252C16.3479 2.92252 16.6852 3.03239 16.9651 3.23631C17.2449 3.44023 17.4528 3.72769 17.5589 4.05731L19.6256 10.4986C19.712 10.7674 19.8814 11.0018 20.1095 11.1681C20.3376 11.3344 20.6126 11.424 20.8949 11.424H27.6949C28.0398 11.4242 28.3758 11.5334 28.6549 11.736C28.934 11.9387 29.1419 12.2243 29.249 12.5521C29.356 12.8799 29.3567 13.2332 29.251 13.5615C29.1453 13.8898 28.9385 14.1762 28.6603 14.38H28.6576Z" fill="#0E0D26"></path>
                        </g>
                        <defs>
                            <clipPath id="clip0_133_2395">
                                <rect width="32" height="32" fill="white"></rect>
                            </clipPath>
                        </defs>
                    </svg>