<?xml version="1.0" encoding="utf-8"?>
<!-- Generator: Adobe Illustrator 16.0.0, SVG Export Plug-In . SVG Version: 6.00 Build 0)  -->
<!DOCTYPE svg PUBLIC "-//W3C//DTD SVG 1.1//EN" "http://www.w3.org/Graphics/SVG/1.1/DTD/svg11.dtd">
<svg version="1.1" id="Layer_1" xmlns="http://www.w3.org/2000/svg" xmlns:xlink="http://www.w3.org/1999/xlink" x="0px" y="0px"
	 width="168.699px" height="140.165px" viewBox="0 0 168.699 140.165" enable-background="new 0 0 168.699 140.165"
	 xml:space="preserve">
<g>
	<defs>
		<rect id="SVGID_1_" width="168.699" height="140.165"/>
	</defs>
	<clipPath id="SVGID_2_">
		<use xlink:href="#SVGID_1_"  overflow="visible"/>
	</clipPath>
	<path clip-path="url(#SVGID_2_)" fill="#FFFFFF" d="M69.765,0c-6.285,0.007-12.289,3.354-15.528,9.086L35.699,41.845
		c-0.692-9.265-8.408-16.566-17.822-16.566C8.004,25.278,0,33.308,0,43.209v66.471c0,8.142,5.467,15.261,13.313,17.337
		c7.847,2.08,16.104-1.407,20.11-8.487l7.447-13.162l-1.828,14.642c-1.037,8.344,3.841,16.291,11.738,19.115
		c1.971,0.704,3.996,1.041,5.998,1.041c6.016,0,11.801-3.054,15.143-8.397l0.082-0.135l-0.021,0.106l20.637-29.056l7.416,18.483
		l0.009-0.016c2.324,5.719,7.446,9.897,13.618,10.924c6.886,1.141,13.802-1.83,17.72-7.618l34.229-50.581
		c5.547-8.191,3.418-19.343-4.749-24.904c-8.169-5.56-19.288-3.426-24.828,4.766l-12.455,18.396l-6.429-23.544
		c-1.875-6.86-7.616-11.96-14.631-12.999c-7.013-1.042-13.981,2.182-17.75,8.205l-0.243,0.389l2.994-24.027
		c1.058-8.491-4.012-16.55-12.111-19.243C73.558,0.299,71.664,0.002,69.797,0H69.765z"/>
	<path clip-path="url(#SVGID_2_)" d="M24.653,73.874c-0.322-0.805-0.938-0.927-1.276-0.927c-0.57,0-1.027,0.319-1.254,0.882
		l-5.973,14.84c-0.055,0.16-0.084,0.329-0.084,0.473c0,0.749,0.667,1.252,1.294,1.252c0.444,0,1.005-0.214,1.253-0.812l1.271-3.2
		h6.957l1.252,3.204c0.207,0.506,0.668,0.809,1.229,0.809c0.752,0,1.318-0.549,1.318-1.273c0-0.262-0.082-0.465-0.149-0.63
		L24.653,73.874z M25.901,84.018h-5.073l2.547-6.521L25.901,84.018z"/>
	<path clip-path="url(#SVGID_2_)" d="M60.604,87.915c-0.388,0-0.519-0.151-0.519-0.597v-6.888h0.494
		c0.782,0,1.248-0.601,1.248-1.181c0-0.593-0.466-1.205-1.248-1.205h-0.494v-3.802c0-0.786-0.687-1.274-1.319-1.274
		c-0.636,0-1.32,0.488-1.32,1.274v3.802H57c-0.783,0-1.248,0.612-1.248,1.205c0,0.58,0.465,1.181,1.248,1.181h0.446v6.982
		c0,1.755,1.24,2.934,3.086,2.934c0.873,0,1.345-0.621,1.345-1.205C61.877,88.453,61.316,87.915,60.604,87.915"/>
	<path clip-path="url(#SVGID_2_)" d="M51.048,83.146l-2.317-0.485c-1.341-0.279-1.603-0.651-1.603-1.2
		c0-0.627,0.655-1.261,2.118-1.261c0.947,0,1.828,0.275,2.484,0.773c0.288,0.224,0.682,0.379,0.955,0.379
		c0.727,0,1.319-0.57,1.319-1.273c0-0.444-0.224-0.812-0.706-1.151c-1.143-0.817-3.049-1.115-4.053-1.115
		c-3.51,0-4.756,2.042-4.756,3.786c0,1.671,1.271,2.952,3.317,3.347l2.433,0.483c1.496,0.318,1.701,0.817,1.701,1.268
		c0,0.687-0.73,1.38-2.359,1.38c-1.252,0-2.188-0.524-3.186-1.152c-0.232-0.159-0.554-0.233-0.755-0.233
		c-0.727,0-1.317,0.571-1.317,1.276c0,0.473,0.25,0.861,0.764,1.185c1.434,0.907,2.847,1.312,4.589,1.312
		c2.978,0,4.901-1.515,4.901-3.859C54.578,84.862,53.324,83.634,51.048,83.146"/>
	<path clip-path="url(#SVGID_2_)" d="M41.097,77.906c-0.647,0-1.319,0.478-1.319,1.273v5.674c0,0.971-0.283,3.223-2.906,3.223
		c-2.676,0-2.812-2.687-2.812-3.223V79.18c0-0.796-0.669-1.273-1.318-1.273c-0.647,0-1.318,0.478-1.318,1.273v5.697
		c0,2.074,1.142,5.587,5.424,5.587c1.197,0,2.232-0.304,3.025-0.881c0.205,0.5,0.723,0.787,1.226,0.787
		c0.649,0,1.317-0.478,1.317-1.274V79.18C42.414,78.384,41.746,77.906,41.097,77.906"/>
	<path clip-path="url(#SVGID_2_)" d="M88.656,87.298V74.243c0-0.795-0.672-1.274-1.319-1.274c-0.648,0-1.319,0.479-1.319,1.274
		v13.055c0,1.346,0.699,2.206,1.283,2.685c0.213,0.18,0.632,0.388,1.11,0.388c0.724,0,1.271-0.529,1.271-1.229
		c0-0.428-0.23-0.77-0.429-0.936C88.841,87.865,88.656,87.586,88.656,87.298"/>
	<path clip-path="url(#SVGID_2_)" d="M108.09,88.139c-0.43-0.264-0.52-0.64-0.52-0.91v-8.116c0-0.787-0.685-1.276-1.318-1.276
		c-0.549,0-1.133,0.363-1.286,0.97c-0.757-0.613-1.909-0.993-3.109-0.993c-4.404,0-5.566,3.775-5.566,5.771v1.13
		c0,2.664,1.457,5.772,5.566,5.772c1.455,0,2.677-0.448,3.645-1.33c0.379,0.808,1.089,1.309,1.894,1.309
		c0.829,0,1.322-0.648,1.322-1.274C108.717,88.939,108.583,88.438,108.09,88.139 M105.051,83.539v1.221
		c0,1.238-0.656,3.338-3.12,3.338c-2.711,0-3.004-2.317-3.004-3.314v-1.268c0-1.531,0.787-3.315,3.004-3.315
		C104.204,80.2,105.051,82.247,105.051,83.539"/>
	<path clip-path="url(#SVGID_2_)" d="M93.069,77.906c-0.627,0-1.295,0.511-1.295,1.273v9.916c0,0.797,0.67,1.274,1.319,1.274
		c0.646,0,1.317-0.478,1.317-1.274V79.18C94.411,78.384,93.729,77.906,93.069,77.906"/>
	<path clip-path="url(#SVGID_2_)" d="M93.094,72.947c-0.956,0-1.702,0.723-1.702,1.644c0,0.922,0.746,1.642,1.702,1.642
		c0.952,0,1.699-0.72,1.699-1.642C94.793,73.687,94.029,72.947,93.094,72.947"/>
	<path clip-path="url(#SVGID_2_)" d="M68.328,77.812c-0.866,0-1.561,0.188-2.105,0.567c-0.281-0.327-0.703-0.451-1.047-0.451
		c-0.714,0-1.293,0.571-1.293,1.271v9.895c0,0.798,0.67,1.275,1.317,1.275c0.649,0,1.319-0.478,1.319-1.275v-6.709
		c0-0.999,0.313-2.186,1.809-2.186c0.318,0,0.549,0.142,0.793,0.294c0.245,0.149,0.497,0.307,0.83,0.307
		c0.609,0,1.27-0.463,1.27-1.205C71.221,78.433,69.542,77.812,68.328,77.812"/>
	<path clip-path="url(#SVGID_2_)" d="M83.558,88.139c-0.431-0.264-0.517-0.64-0.517-0.91v-8.116c0-0.787-0.688-1.276-1.321-1.276
		c-0.548,0-1.134,0.363-1.284,0.97c-0.76-0.613-1.907-0.993-3.109-0.993c-4.406,0-5.57,3.775-5.57,5.771v1.13
		c0,2.664,1.459,5.772,5.57,5.772c1.455,0,2.678-0.448,3.645-1.33c0.378,0.808,1.089,1.309,1.895,1.309
		c0.826,0,1.317-0.648,1.317-1.274C84.183,88.939,84.052,88.438,83.558,88.139 M80.521,83.539v1.221
		c0,1.238-0.658,3.338-3.123,3.338c-2.71,0-3.002-2.317-3.002-3.314v-1.268c0-1.531,0.785-3.315,3.002-3.315
		C79.672,80.2,80.521,82.247,80.521,83.539"/>
	<path clip-path="url(#SVGID_2_)" d="M56.326,69.034c1.693,0,3.033-0.484,4.082-1.472c0.296-0.254,0.398-0.638,0.398-0.908
		c0-0.704-0.564-1.253-1.291-1.253c-0.32,0-0.646,0.131-0.918,0.368c-0.494,0.437-1.119,0.899-2.295,0.899
		c-1.918,0-2.85-1.617-3.057-2.803h7.27c0.726,0,1.291-0.55,1.291-1.25c0-3.094-1.723-6.214-5.578-6.214
		c-4.141,0-5.646,3.427-5.646,5.728v1.039C50.582,65.528,52.112,69.034,56.326,69.034 M53.24,61.525
		c0.188-1.415,1.156-2.756,2.988-2.756c1.68,0,2.686,1.343,2.875,2.756H53.24z"/>
	<path clip-path="url(#SVGID_2_)" d="M35.735,69.057c2.114,0,3.608-0.847,4.303-1.644c0.246-0.295,0.368-0.606,0.368-0.922
		c0-0.701-0.544-1.229-1.268-1.229c-0.457,0-0.735,0.214-0.928,0.398c-0.389,0.377-1.211,1.008-2.357,1.008
		c-2.284,0-3.112-1.996-3.112-3.34v-1.222c0-1.28,0.824-3.317,3.042-3.317c1.014,0,1.564,0.47,2.153,0.974
		c0.274,0.235,0.625,0.364,0.987,0.364c0.727,0,1.293-0.549,1.293-1.25c0-0.336-0.136-0.651-0.4-0.93
		c-0.669-0.748-2.081-1.545-4.033-1.545c-4.133,0-5.674,3.528-5.674,5.752v1.129C30.109,65.282,31.287,69.057,35.735,69.057"/>
	<path clip-path="url(#SVGID_2_)" d="M69.272,69.034c1.694,0,3.033-0.484,4.082-1.472c0.295-0.254,0.399-0.638,0.399-0.908
		c0-0.704-0.567-1.253-1.291-1.253c-0.32,0-0.647,0.131-0.918,0.368c-0.492,0.437-1.117,0.899-2.297,0.899
		c-1.914,0-2.847-1.617-3.054-2.803h7.269c0.725,0,1.291-0.55,1.291-1.25c0-3.094-1.724-6.214-5.576-6.214
		c-4.145,0-5.648,3.427-5.648,5.728v1.039C63.529,65.528,65.06,69.034,69.272,69.034 M66.187,61.525
		c0.188-1.415,1.158-2.756,2.991-2.756c1.677,0,2.683,1.343,2.873,2.756H66.187z"/>
	<path clip-path="url(#SVGID_2_)" d="M44.988,60.977c0-0.997,0.312-2.187,1.803-2.187c0.319,0,0.549,0.143,0.792,0.295
		c0.242,0.15,0.495,0.305,0.826,0.305c0.61,0,1.267-0.46,1.267-1.204c0-1.162-1.676-1.783-2.885-1.783
		c-0.863,0-1.554,0.187-2.101,0.566c-0.28-0.327-0.697-0.448-1.042-0.448c-0.711,0-1.291,0.568-1.291,1.271v9.898
		c0,0.799,0.667,1.275,1.316,1.275c0.646,0,1.314-0.477,1.314-1.275V60.977z"/>
	<path clip-path="url(#SVGID_2_)" d="M87.677,67.716v-5.861c0-2.625-1.747-5.453-5.577-5.453c-1.179,0-2.279,0.322-3.09,0.896
		c-0.211-0.523-0.732-0.805-1.221-0.805c-0.633,0-1.314,0.49-1.314,1.279v9.943c0,0.796,0.669,1.273,1.314,1.273
		c0.646,0,1.318-0.478,1.318-1.273v-5.84c0-1.424,0.789-3.086,3.016-3.086c2.307,0,2.922,1.939,2.922,3.086v5.84
		c0,0.796,0.669,1.273,1.315,1.273C87.008,68.989,87.677,68.512,87.677,67.716"/>
	<path clip-path="url(#SVGID_2_)" d="M22.72,66.623c-1.664,0-2.64-0.493-3.955-1.467c-0.246-0.187-0.592-0.308-0.878-0.308
		c-0.738,0-1.314,0.568-1.314,1.295c0,0.336,0.135,0.653,0.408,0.945c1.338,1.316,3.321,2.014,5.739,2.014
		c3.551,0,6.03-1.973,6.03-4.803c0-3.001-2.42-4.005-4.188-4.738l-2.804-1.151c-1.18-0.517-2.2-0.961-2.2-2.349
		c0-0.565,0.539-2.187,2.925-2.187c1.447,0,2.608,0.556,3.331,1.021c0.291,0.182,0.579,0.272,0.858,0.272
		c0.838,0,1.339-0.647,1.339-1.272c0-0.523-0.283-0.822-0.505-1.013c-0.707-0.551-2.561-1.485-5.023-1.485
		c-3.88,0-5.625,2.728-5.625,4.664c0,3.146,2.678,4.213,4.119,4.787l2.57,1.016c2.07,0.82,2.479,1.516,2.479,2.436
		C26.025,65.67,24.664,66.623,22.72,66.623"/>
</g>
</svg>
