<?xml version="1.0" encoding="UTF-8"?>
<svg id="Layer_4" data-name="Layer 4" xmlns="http://www.w3.org/2000/svg" viewBox="0 0 91.95 91.89">
  <defs>
    <style>
      .cls-1 {
        fill: #f26728;
      }

      .cls-2 {
        fill: #f1f2f2;
      }

      .cls-3 {
        fill: #231f20;
      }
    </style>
  </defs>
  <g>
    <circle class="cls-3" cx="45.97" cy="45.94" r="39.16"/>
    <g>
      <path class="cls-2" d="m89.37,45.99s-.09-.02-.13-.02c-.07,0-.14,0-.21.03-.31.13-.62.78-.83,1.06-.03.04-.05.08-.08.12-.76.98-1.56,1.92-2.38,2.03-.92.12-1.73-.77-2.49-1.64-.03-.06-.06-.12-.09-.16-.45-.53-1.25-1.75-2.04-1.4-.15.06-.27.16-.39.27-.04.04-.08.08-.11.13-.03.06-.05.13-.05.2,0,.11,0,.22.04.33.05.15.15.28.25.41.41.55.95.95,1.42,1.5.03.07.06.13.11.18.52.59.97,1.2,1.46,1.68.5.47,1.04.8,1.65.76.95-.06,1.87-.84,2.54-1.59.58-.64,1.65-1.68,1.61-2.78-.01-.31-.05-.61-.13-.89-.02-.07-.04-.14-.09-.18-.01-.01-.02-.02-.04-.02Z"/>
      <path class="cls-2" d="m88.9,52.02s-.09-.03-.13-.04c-.07-.01-.14-.02-.21,0-.32.08-.69.7-.94.94-.03.03-.06.07-.09.11-.43.44-.86.86-1.29,1.18-.46.31-.92.5-1.34.5-.95-.02-1.52-.99-2.23-1.96-.02-.06-.04-.12-.08-.17-.39-.59-1.07-1.91-1.88-1.67-.15.04-.29.13-.41.22-.05.03-.09.07-.12.11-.04.06-.06.12-.07.19-.02.11-.02.22,0,.33.04.16.12.3.21.45.36.61.85,1.08,1.19,1.68.02.07.04.13.07.19.75,1.27,1.54,2.75,2.75,2.85.95.07,1.9-.59,2.71-1.23.35-.28.84-.63,1.26-1.05.38-.43.7-.93.73-1.48.02-.31.01-.61-.03-.91-.01-.07-.02-.15-.07-.19-.01-.01-.02-.02-.04-.03Z"/>
      <path class="cls-2" d="m87.66,57.94s-.08-.04-.12-.06c-.07-.02-.14-.04-.21-.03-.33.04-.74.61-1.03.81-.04.03-.07.06-.11.09-1.02.73-2.06,1.4-2.89,1.28-.92-.14-1.44-1.22-1.92-2.25,0-.07-.02-.13-.04-.18-.23-.61-.81-2.05-1.63-1.92-.15.02-.29.09-.42.16-.05.03-.1.06-.13.1-.04.05-.07.11-.09.18-.02.11-.05.22-.05.33,0,.16.06.31.12.46.23.64.63,1.17.92,1.82,0,.07.02.14.05.2.3.69.63,1.44.97,2.03.34.59.76,1.05,1.37,1.18.47.1.98.03,1.48-.13.48-.17.94-.44,1.37-.71.74-.45,2.08-1.15,2.37-2.21.08-.29.08-.61.08-.91,0-.07,0-.15-.05-.2,0-.01-.02-.03-.03-.03Z"/>
      <path class="cls-2" d="m85.58,63.63s-.07-.05-.11-.07c-.06-.03-.13-.06-.2-.06-.33,0-.87.47-1.18.64-.04.02-.08.05-.12.08-1.08.59-2.16,1.14-2.97.89-.88-.26-1.26-1.41-1.63-2.52,0-.07,0-.13-.02-.18-.2-.67-.47-2.12-1.32-2.12-.16,0-.31.04-.46.09-.05.02-.11.04-.15.07-.06.04-.09.1-.12.16-.05.1-.08.21-.09.32-.01.16.03.32.07.48.16.68.5,1.27.7,1.96,0,.07,0,.14.01.2.36,1.42.69,3.05,1.83,3.49.9.34,2-.03,2.96-.42.87-.31,2.19-.86,2.61-1.88.11-.29.19-.58.23-.88.01-.07.02-.15,0-.2,0-.01-.02-.03-.03-.04Z"/>
      <path class="cls-2" d="m82.72,68.96s-.07-.06-.1-.09c-.06-.04-.12-.08-.19-.09-.32-.05-.9.36-1.22.49-.04.02-.08.04-.12.06-1.15.44-2.38.77-3.13.43-.85-.39-1.04-1.56-1.21-2.68.01-.06.02-.13.01-.18-.1-.68-.23-2.2-1.05-2.31-.15-.02-.31,0-.46.03-.05.01-.11.03-.16.06-.06.03-.1.09-.14.15-.06.09-.1.2-.12.31-.02.16,0,.33,0,.49.04.68.27,1.29.36,1.99-.01.07-.02.14,0,.21.09.75.18,1.54.38,2.22.2.69.45,1.22,1,1.52.87.48,1.96.23,2.95-.03.83-.23,2.36-.5,2.88-1.47.14-.27.25-.56.32-.85.02-.07.03-.15.01-.21,0-.02-.01-.03-.02-.04Z"/>
      <path class="cls-2" d="m79.18,73.87s-.05-.07-.09-.1c-.05-.05-.11-.09-.18-.12-.31-.1-.97.21-1.31.28-.04,0-.09.03-.13.04-1.2.27-2.41.48-3.11.03-.78-.5-.83-1.71-.87-2.87.02-.06.03-.13.03-.18,0-.69.15-2.16-.68-2.39-.15-.05-.31-.05-.47-.04-.06,0-.12,0-.17.03-.06.02-.12.07-.17.12-.08.08-.14.18-.18.28-.06.15-.06.32-.07.48-.03.69.12,1.35.13,2.07-.02.07-.03.14-.03.21-.04,1.47-.19,3.11.79,3.85.77.57,1.94.53,2.97.42.88-.09,2.34-.23,3.02-1.1.19-.24.35-.5.47-.77.03-.06.06-.13.05-.2,0-.02,0-.03-.01-.04Z"/>
      <path class="cls-2" d="m74.95,78.19s-.04-.08-.07-.11c-.05-.05-.09-.11-.16-.14-.29-.14-.97.1-1.31.13-.04,0-.09.02-.14.03-1.19.15-2.5.09-3.12-.44-.71-.61-.57-1.78-.42-2.9.03-.06.05-.12.05-.18.07-.7.39-2.18-.38-2.51-.14-.06-.3-.09-.45-.09-.06,0-.11,0-.17,0-.07.02-.12.06-.17.1-.08.07-.15.16-.2.26-.07.15-.1.32-.12.48-.13.68-.09,1.31-.2,2.02-.03.06-.05.13-.07.2-.23,1.47-.56,3.14.3,3.99.68.67,1.82.75,2.84.77.44,0,1.04.05,1.63,0,.6-.05,1.18-.21,1.54-.62.21-.22.4-.47.55-.72.04-.06.07-.13.07-.19,0-.02,0-.03,0-.05Z"/>
      <path class="cls-2" d="m70.21,81.95s-.03-.08-.06-.12c-.04-.06-.08-.12-.14-.16-.27-.18-1-.07-1.34-.1-.05,0-.09,0-.14,0-1.24-.08-2.46-.21-3.01-.84-.61-.7-.33-1.87-.04-2.99.04-.06.07-.11.08-.17.19-.66.74-2.02.01-2.48-.13-.09-.29-.13-.44-.17-.06-.01-.11-.02-.17-.02-.07,0-.13.03-.19.07-.1.06-.18.13-.25.22-.1.13-.15.28-.2.44-.22.65-.26,1.32-.45,2.02-.04.06-.07.12-.09.19-.41,1.45-1.04,2.94-.29,3.93.58.76,1.73,1.06,2.75,1.23.85.12,2.31.42,3.21-.23.25-.18.47-.38.67-.61.05-.05.09-.11.1-.17,0-.02,0-.03,0-.05Z"/>
      <path class="cls-2" d="m64.94,84.94s-.02-.09-.04-.13c-.03-.06-.06-.13-.12-.18-.24-.22-.96-.18-1.3-.25-.04,0-.09-.01-.14-.01-1.18-.18-2.41-.57-2.87-1.26-.52-.8-.04-1.83.39-2.92.04-.05.08-.11.1-.16.27-.65.98-1.97.33-2.51-.12-.1-.26-.17-.41-.22-.05-.02-.11-.04-.16-.04-.07,0-.13.02-.2.05-.1.05-.19.11-.27.19-.11.12-.18.27-.25.42-.29.66-.44,1.26-.74,1.9-.05.05-.09.11-.12.17-.63,1.34-1.42,2.84-.82,3.89.47.83,1.54,1.24,2.53,1.54.84.27,2.28.85,3.22.26.26-.15.51-.34.73-.54.05-.05.11-.1.12-.17,0-.02,0-.03,0-.05Z"/>
      <path class="cls-2" d="m59.34,87.22s0-.09-.02-.14c-.02-.07-.04-.14-.09-.19-.1-.12-.34-.19-.58-.25-.25-.07-.51-.13-.68-.19-.04-.02-.09-.03-.14-.04-1.17-.43-2.31-.91-2.67-1.66-.39-.84.2-1.88.79-2.86.05-.04.09-.09.12-.13.18-.29.5-.72.7-1.16.19-.47.26-.93-.01-1.24-.1-.11-.23-.19-.37-.26-.05-.03-.1-.04-.16-.06-.07-.02-.14,0-.2,0-.11.02-.21.07-.3.14-.13.09-.22.23-.32.36-.4.56-.61,1.18-1,1.79-.05.05-.1.1-.14.16-.79,1.34-1.81,2.55-1.36,3.72.35.89,1.37,1.54,2.29,1.91.79.36,2.11,1.07,3.15.7.29-.1.57-.22.81-.41.06-.04.12-.09.14-.15,0-.02,0-.03.01-.05Z"/>
      <path class="cls-2" d="m53.46,88.66s0-.09,0-.14c-.01-.07-.02-.14-.06-.2-.18-.28-.88-.45-1.18-.61-.04-.02-.09-.04-.13-.05-1.1-.55-2.15-1.14-2.4-1.98-.14-.45-.02-.9.22-1.34.24-.46.6-.94.96-1.41.06-.04.1-.08.14-.12.44-.54,1.49-1.59,1.02-2.29-.09-.13-.21-.23-.33-.33-.05-.03-.09-.07-.15-.08-.06-.02-.14-.02-.2-.01-.11.01-.22.05-.31.11-.14.08-.25.21-.36.33-.47.51-.77,1.16-1.23,1.67-.06.04-.11.08-.16.13-.98,1.09-2.15,2.29-1.87,3.47.22.93,1.14,1.64,2,2.21.74.54,1.94,1.37,3.02,1.12.3-.07.59-.17.86-.3.06-.03.13-.07.16-.12,0-.01.01-.03.02-.04Z"/>
      <path class="cls-2" d="m47.44,89.27s.02-.09.02-.14c0-.07,0-.14-.03-.21-.14-.29-.8-.54-1.08-.73-.04-.02-.08-.04-.12-.06-1.01-.71-1.97-1.54-2.1-2.36-.15-.92.71-1.73,1.55-2.5.06-.03.11-.06.16-.09.51-.46,1.7-1.43,1.33-2.17-.07-.14-.17-.25-.28-.36-.04-.04-.08-.08-.13-.1-.06-.03-.13-.03-.2-.03-.11,0-.22.03-.33.08-.15.07-.28.18-.41.27-.54.41-.92.95-1.45,1.41-.06.03-.12.06-.18.11-1.12.99-2.45,2.06-2.33,3.25.09.96.91,1.74,1.68,2.41.66.56,1.74,1.68,2.83,1.57.3-.04.6-.11.89-.21.07-.02.14-.05.18-.1.01-.01.02-.03.02-.04Z"/>
      <path class="cls-2" d="m41.4,89.1s.03-.09.03-.13c0-.07.02-.14,0-.21-.09-.32-.72-.69-.97-.94-.03-.03-.07-.06-.11-.09-.9-.85-1.75-1.74-1.77-2.57-.02-.92.95-1.64,1.89-2.31.06-.02.12-.04.17-.08.57-.39,1.86-1.07,1.6-1.89-.05-.15-.13-.29-.23-.41-.03-.05-.07-.09-.12-.13-.06-.04-.12-.06-.19-.07-.11-.02-.22-.02-.33,0-.16.04-.3.12-.44.21-.59.36-1.04.85-1.64,1.26-.07.02-.13.05-.19.09-1.25.86-2.68,1.58-2.75,2.83-.04.95.64,1.93,1.32,2.7.58.64,1.5,1.81,2.6,1.88.31.02.61,0,.9-.04.07-.01.14-.03.19-.07.01-.01.02-.02.03-.04Z"/>
      <path class="cls-2" d="m35.44,88.01s.04-.08.05-.13c.02-.07.04-.14.03-.21-.05-.32-.62-.76-.84-1.03-.03-.03-.06-.07-.1-.1-.79-.9-1.49-1.96-1.39-2.81.12-.95,1.14-1.41,2.18-2,.07-.01.13-.03.18-.06.62-.33,2.02-.87,1.86-1.7-.03-.15-.09-.3-.17-.43-.03-.05-.06-.1-.1-.14-.05-.05-.12-.07-.18-.09-.11-.03-.22-.04-.33-.02-.16.02-.32.09-.47.16-.65.31-1.15.71-1.79.99-.07,0-.14.03-.2.05-1.34.62-2.9,1.25-3.13,2.45-.17.94.39,1.94.94,2.81.24.38.54.9.91,1.36.38.46.85.8,1.39.9.3.05.61.07.91.06.07,0,.15,0,.2-.05.01,0,.02-.02.03-.03Z"/>
      <path class="cls-2" d="m29.68,86.15s.05-.08.07-.12c.03-.07.06-.13.06-.21,0-.32-.52-.81-.68-1.13-.02-.04-.05-.08-.08-.12-.62-1.08-1.18-2.19-.97-2.99.24-.9,1.36-1.31,2.45-1.68.07,0,.13,0,.18-.02.32-.11.84-.21,1.29-.44.45-.23.8-.54.79-.96,0-.15-.06-.3-.12-.44-.02-.05-.05-.1-.08-.14-.05-.05-.1-.09-.16-.12-.1-.05-.21-.08-.32-.09-.16-.01-.32.03-.47.07-.66.17-1.23.51-1.91.73-.07,0-.14.01-.21.03-1.46.51-3.03.8-3.43,1.98-.3.91.07,2.05.53,2.93.37.78.93,2.18,1.96,2.57.28.12.58.18.89.19.07,0,.15,0,.21-.02.01,0,.03-.02.04-.03Z"/>
      <path class="cls-2" d="m24.25,83.48s.06-.07.09-.11c.04-.06.07-.12.08-.2.04-.32-.38-.91-.51-1.23-.02-.04-.04-.08-.07-.12-.49-1.12-.91-2.26-.57-3.06.36-.86,1.5-1.07,2.67-1.34.07,0,.13,0,.19,0,.69-.13,2.17-.26,2.25-1.1.02-.16,0-.31-.04-.46-.01-.06-.03-.11-.06-.16-.04-.06-.09-.1-.15-.14-.09-.06-.2-.1-.31-.12-.16-.03-.33,0-.49.02-.68.08-1.33.4-2.01.48-.07-.01-.14-.01-.2,0-1.45.21-3.12.38-3.67,1.47-.43.86-.17,1.98.12,2.98.22.88.6,2.31,1.59,2.8.27.14.56.24.85.32.07.02.14.03.2.01.02,0,.03-.01.04-.02Z"/>
      <path class="cls-2" d="m19.24,80.09s.07-.06.1-.09c.04-.06.09-.11.11-.18.08-.31-.27-.93-.36-1.25-.01-.05-.03-.09-.04-.14-.29-1.22-.52-2.44-.1-3.16.48-.8,1.66-.88,2.8-.93.06.02.12.03.18.03.65.02,2.21,0,2.39-.79.04-.15.03-.3.01-.46,0-.06-.02-.11-.04-.16-.03-.06-.08-.11-.13-.15-.09-.07-.19-.11-.29-.16-.15-.06-.31-.06-.47-.07-.68-.02-1.32.14-2.03.16-.07-.02-.14-.03-.21-.03-.75.02-1.56.04-2.25.14-.67.1-1.26.32-1.61.82-.27.4-.4.89-.43,1.42-.02.5.06,1.04.15,1.54.14.86.28,2.36,1.16,3.03.26.17.53.3.82.41.07.03.14.05.21.03.02,0,.03,0,.04-.02Z"/>
      <path class="cls-2" d="m14.74,76.04s.08-.05.11-.08c.05-.05.11-.1.14-.17.13-.3-.11-.98-.15-1.33,0-.05-.02-.09-.03-.14-.15-1.22-.25-2.43.28-3.09.57-.72,1.78-.64,2.95-.57.06.02.12.04.18.05.69.06,2.14.36,2.46-.43.06-.14.08-.3.09-.46,0-.06,0-.12-.01-.17-.02-.07-.06-.12-.1-.18-.07-.08-.16-.15-.26-.2-.15-.07-.31-.09-.47-.12-.69-.1-1.36,0-2.08-.08-.06-.03-.13-.05-.19-.06-1.45-.2-3.09-.5-3.92.39-.65.71-.72,1.86-.72,2.9-.04.92-.02,2.35.77,3.12.22.21.47.39.72.54.06.04.13.07.19.07.02,0,.03,0,.05,0Z"/>
      <path class="cls-2" d="m10.87,71.39s.08-.04.12-.06c.06-.04.12-.08.16-.15.17-.28,0-.97,0-1.31,0-.04,0-.09-.01-.14.02-1.23.17-2.5.77-3.06.68-.64,1.84-.38,2.94-.12.06.04.11.06.16.08.67.16,2.13.61,2.54-.12.08-.13.11-.29.14-.44,0-.06.02-.11,0-.17-.01-.07-.04-.13-.08-.18-.06-.09-.15-.17-.24-.23-.14-.08-.31-.13-.45-.18-.64-.21-1.3-.23-1.98-.41-.06-.04-.12-.07-.19-.08-1.46-.36-3.06-.88-3.99-.12-.78.63-.95,1.73-1.07,2.75-.09.86-.42,2.38.29,3.23.2.23.43.44.67.62.06.04.12.09.19.09.02,0,.03,0,.05,0Z"/>
      <path class="cls-2" d="m7.64,66.28s.09-.02.13-.04c.06-.03.13-.07.18-.12.21-.25.17-.98.23-1.32,0-.05,0-.09.01-.14.2-1.22.46-2.42,1.13-2.9.75-.53,1.9-.13,2.99.27.05.04.1.08.16.1.64.25,1.94.94,2.47.27.1-.12.16-.27.21-.42.02-.05.04-.11.04-.17,0-.07-.02-.14-.05-.2-.05-.1-.11-.19-.19-.27-.12-.11-.27-.18-.42-.25-.63-.29-1.29-.39-1.97-.65-.06-.04-.12-.08-.18-.11-1.36-.58-2.81-1.34-3.87-.7-.82.5-1.21,1.6-1.51,2.6-.23.85-.66,2.26-.11,3.21.16.26.34.51.54.73.05.05.1.11.16.12.02,0,.03,0,.05,0Z"/>
      <path class="cls-2" d="m5.21,60.73s.09-.01.13-.03c.07-.02.14-.05.19-.1.24-.22.28-.94.37-1.26.01-.04.02-.09.03-.14.08-.29.17-.58.26-.86.11-.28.24-.55.37-.8.26-.49.57-.87.94-1.07.84-.43,1.85.15,2.85.7.05.05.1.09.15.12.62.33,1.87,1.18,2.47.59.11-.11.19-.24.26-.38.02-.05.05-.1.05-.16,0-.07,0-.14-.03-.2-.04-.1-.09-.2-.17-.29-.11-.12-.25-.21-.4-.3-.6-.37-1.19-.58-1.8-.94-.05-.05-.1-.1-.16-.13-1.27-.76-2.68-1.7-3.8-1.22-.87.38-1.39,1.4-1.79,2.35-.33.8-1.11,2.18-.6,3.18.13.28.28.54.46.78.04.06.09.12.15.14.02,0,.03,0,.05,0Z"/>
      <path class="cls-2" d="m3.51,54.92s.09,0,.14,0c.07-.01.14-.03.2-.07.24-.18.43-.89.58-1.2.02-.04.04-.09.05-.13.54-1.12,1.14-2.2,1.92-2.48.88-.3,1.85.4,2.77,1.09.04.05.08.1.12.14.52.43,1.6,1.44,2.3.94.13-.09.21-.21.31-.34.03-.05.07-.1.08-.15.02-.07.02-.14.01-.2-.01-.11-.05-.22-.1-.31-.08-.14-.21-.25-.33-.35-.51-.45-1.12-.73-1.69-1.18-.04-.06-.09-.11-.14-.15-.3-.23-.61-.47-.92-.71-.29-.23-.57-.45-.86-.63-.58-.36-1.18-.57-1.77-.4-.91.25-1.68,1.21-2.15,2.08-.43.75-1.28,1.99-1.02,3.06.07.3.17.58.31.85.04.06.08.13.14.16.01,0,.03.01.04.02Z"/>
      <path class="cls-2" d="m2.72,48.92s.09.01.14.01c.07,0,.14,0,.21-.04.29-.15.54-.82.73-1.11.02-.04.04-.08.06-.12.65-1.03,1.36-2.02,2.22-2.18.91-.18,1.72.65,2.6,1.46.03.06.07.11.11.15.5.49,1.43,1.65,2.18,1.25.14-.07.25-.18.36-.3.04-.04.08-.09.1-.14.03-.06.03-.13.03-.2,0-.11-.03-.22-.07-.32-.07-.15-.18-.27-.29-.4-.45-.52-1.08-.88-1.53-1.4-.03-.06-.06-.12-.11-.17-.99-1.08-2.06-2.37-3.26-2.22-.95.13-1.74.97-2.41,1.76-.61.68-1.58,1.79-1.43,2.88.04.3.11.6.21.88.02.07.05.14.1.18.01,0,.03.02.04.02Z"/>
      <path class="cls-2" d="m2.72,42.87s.09.03.13.03c.07,0,.14.01.21-.01.31-.1.62-.74.84-1,.03-.03.05-.07.08-.11.83-.93,1.74-1.8,2.57-1.85.93-.05,1.65.89,2.33,1.8.02.06.04.12.08.16.39.55,1.24,1.84,2.01,1.54.15-.05.27-.15.38-.25.04-.04.08-.08.11-.12.03-.06.05-.13.05-.19,0-.11,0-.22-.04-.33-.06-.16-.14-.29-.22-.43-.36-.58-.85-1.01-1.26-1.59-.02-.07-.05-.13-.09-.19-.88-1.22-1.79-2.65-2.98-2.66-1-.01-1.83.72-2.58,1.42-.63.6-1.84,1.56-1.86,2.66,0,.31.05.61.12.9.02.07.04.14.09.19.01.01.02.02.04.03Z"/>
      <path class="cls-2" d="m3.54,36.88s.08.04.13.05c.07.02.14.03.21.02.32-.06.76-.64,1.03-.86.04-.03.07-.07.1-.1.94-.81,1.91-1.56,2.74-1.49.92.08,1.54,1.12,2.11,2.12.01.07.03.13.06.17.33.61.88,1.97,1.72,1.79.15-.03.3-.1.43-.19.05-.03.1-.06.14-.1.05-.05.07-.12.09-.18.03-.11.04-.22.03-.33-.02-.16-.09-.31-.16-.46-.29-.63-.74-1.13-1.08-1.76-.02-.07-.04-.14-.07-.2-.69-1.32-1.29-2.84-2.51-3.03-.95-.14-1.96.44-2.83,1.02-.7.51-1.95,1.31-2.14,2.39-.05.3-.07.61-.06.9,0,.07.01.15.05.2,0,.01.02.02.03.03Z"/>
      <path class="cls-2" d="m5.24,31.07s.08.05.12.07c.07.03.14.05.21.05.33-.02.82-.54,1.1-.73.04-.02.07-.06.11-.09.97-.7,2.15-1.26,2.95-1.08.92.21,1.31,1.29,1.74,2.37,0,.07.02.13.04.18.26.66.67,2.1,1.51,2.04.16,0,.3-.06.44-.13.05-.02.1-.05.14-.09.05-.05.08-.11.11-.17.04-.1.06-.22.06-.33,0-.16-.06-.32-.11-.48-.25-.68-.54-1.21-.78-1.88,0-.07-.01-.14-.03-.2-.48-1.4-.96-3.03-2.12-3.38-.92-.27-1.96.18-2.88.65-.78.4-2.24.96-2.5,2.05-.08.3-.13.6-.15.9,0,.07,0,.15.03.2,0,.01.02.03.03.04Z"/>
      <path class="cls-2" d="m7.68,25.53s.07.06.11.08c.06.03.13.07.2.08.3.02.89-.41,1.22-.55.04-.02.08-.04.12-.07,1.14-.51,2.29-.96,3.07-.66.87.33,1.16,1.49,1.42,2.61,0,.07,0,.13,0,.18.07.33.14.87.3,1.32.16.46.45.85.86.88.15.01.3-.03.45-.07.06-.01.11-.03.16-.06.06-.04.1-.09.14-.15.06-.09.1-.2.12-.31.03-.16,0-.32-.02-.48-.1-.68-.38-1.28-.54-1.99,0-.07,0-.14-.01-.21-.08-.37-.16-.75-.24-1.13-.07-.36-.15-.71-.26-1.04-.22-.65-.54-1.19-1.1-1.45-.86-.39-2.05-.15-2.99.21-.81.29-2.25.7-2.74,1.69-.13.28-.25.55-.3.85-.01.07-.02.15,0,.21,0,.02.01.03.02.04Z"/>
      <path class="cls-2" d="m10.92,20.42s.06.07.1.1c.06.04.12.09.19.1.32.08.94-.29,1.27-.39.04-.01.09-.03.13-.05.58-.18,1.16-.36,1.7-.42.56-.05,1.05-.01,1.42.19.84.47.88,1.58,1.04,2.78-.01.07-.02.13-.01.19.07.7.04,2.19.87,2.36.15.03.31.02.46,0,.06,0,.11-.02.16-.04.06-.03.11-.08.15-.13.07-.09.12-.19.15-.3.04-.16.04-.33.03-.49-.04-.71-.23-1.35-.25-2.04.02-.07.03-.14.03-.2-.07-1.47-.07-3.16-1.09-3.81-.81-.51-1.95-.37-2.96-.18-.44.08-1.03.16-1.61.33-.55.19-1.06.49-1.35.95-.16.26-.3.53-.4.81-.02.07-.05.14-.03.2,0,.02,0,.03.02.04Z"/>
      <path class="cls-2" d="m14.81,15.78s.05.08.08.11c.05.05.1.1.17.13.3.12.94-.18,1.3-.21.05,0,.09-.02.14-.03,1.24-.17,2.47-.28,3.14.22.74.56.7,1.75.64,2.89-.02.06-.04.12-.05.18-.08.65-.27,2.17.52,2.45.14.05.3.06.45.06.06,0,.11,0,.16-.02.06-.02.11-.07.17-.11.08-.07.15-.16.2-.26.07-.14.09-.31.11-.47.09-.68-.01-1.33.04-2.05.02-.07.04-.13.05-.2.07-1.54.38-3.11-.55-3.93-.73-.62-1.93-.7-2.92-.6-.87.05-2.37.05-3.12.85-.21.22-.38.48-.51.75-.03.07-.06.14-.05.2,0,.02,0,.03.01.05Z"/>
      <path class="cls-2" d="m19.31,11.74s.04.08.07.12c.04.06.09.12.15.15.29.16.99-.01,1.33-.02.05,0,.09,0,.14-.02,1.22-.03,2.44,0,3.05.62.66.66.43,1.79.25,2.97-.03.06-.06.12-.07.17-.13.69-.57,2.1.18,2.5.14.08.29.11.45.13.06,0,.11.01.17,0,.07-.01.13-.04.18-.08.09-.06.17-.15.23-.24.08-.14.12-.3.16-.46.18-.67.13-1.39.3-2.05.04-.06.07-.12.08-.19.34-1.43.81-3.04,0-3.95-.64-.72-1.77-.9-2.81-1-.9-.12-2.37-.3-3.19.43-.23.2-.44.43-.61.67-.04.06-.08.12-.09.18,0,.02,0,.03,0,.05Z"/>
      <path class="cls-2" d="m24.33,8.36s.03.09.05.13c.03.06.07.13.13.17.26.2.96.1,1.3.13.05,0,.1,0,.14,0,1.24.19,2.46.43,2.97,1.09.56.74.19,1.87-.19,2.95-.04.05-.07.1-.09.16-.26.6-.83,2.05-.16,2.52.12.09.27.14.42.18.05.01.11.03.16.02.07,0,.13-.03.19-.07.1-.05.18-.14.25-.22.11-.12.17-.27.24-.41.28-.62.36-1.27.61-1.94.04-.06.08-.12.1-.18.26-.7.55-1.46.7-2.14.16-.66.18-1.28-.16-1.8-.27-.4-.68-.71-1.15-.93-.46-.2-.98-.33-1.48-.44-.85-.19-2.3-.62-3.25-.06-.25.18-.48.38-.68.61-.05.05-.1.11-.11.18,0,.02,0,.03,0,.05Z"/>
      <path class="cls-2" d="m29.76,5.7s.01.09.03.13c.03.07.05.13.1.19.23.23.96.27,1.29.36.04.01.09.02.14.02,1.19.32,2.35.69,2.76,1.42.45.8-.06,1.9-.58,2.95-.05.05-.09.1-.11.15-.32.62-1.14,1.85-.52,2.44.11.11.25.19.39.25.05.02.11.05.16.05.07,0,.14,0,.2-.03.1-.04.2-.09.29-.17.12-.11.2-.25.29-.39.35-.6.52-1.25.85-1.9.05-.06.09-.11.13-.16.73-1.26,1.63-2.66,1.11-3.77-.41-.87-1.46-1.37-2.43-1.76-.83-.36-2.17-.89-3.18-.45-.28.13-.54.29-.78.47-.06.04-.12.09-.14.15,0,.02,0,.03,0,.05Z"/>
      <path class="cls-2" d="m35.53,3.86s0,.09.01.14c.02.07.03.14.08.2.19.26.9.37,1.22.5.04.02.09.03.13.04,1.12.44,2.25,1.1,2.54,1.86.34.87-.34,1.84-1,2.75-.05.04-.1.08-.13.13-.4.59-1.37,1.74-.84,2.4.09.12.22.21.35.29.05.03.1.06.15.07.07.02.14,0,.2,0,.11-.03.21-.07.3-.14.13-.1.23-.23.34-.37.44-.52.7-1.11,1.13-1.68.06-.04.11-.09.15-.14.89-1.19,1.97-2.5,1.61-3.66-.29-.91-1.25-1.52-2.15-2.01-.76-.4-2.05-1.32-3.1-.94-.29.1-.57.23-.83.38-.06.04-.13.08-.15.14,0,.01-.01.03-.01.04Z"/>
      <path class="cls-2" d="m41.49,2.77s-.01.09,0,.14c0,.07.01.14.05.21.16.28.84.53,1.14.72.04.02.08.04.13.06,1.05.66,2.07,1.36,2.26,2.17.21.9-.59,1.8-1.37,2.65-.06.03-.11.07-.15.11-.48.49-1.61,1.43-1.18,2.17.08.13.19.25.31.36.04.04.09.08.14.1.06.03.13.04.2.03.11,0,.22-.03.32-.07.15-.07.27-.18.39-.29.51-.47.85-1.04,1.35-1.56.06-.04.12-.08.17-.13.26-.27.53-.55.8-.84.26-.26.51-.52.72-.79.42-.54.69-1.11.59-1.72-.16-.93-1.03-1.79-1.84-2.36-.7-.51-1.84-1.47-2.93-1.32-.3.04-.6.11-.87.22-.07.03-.14.05-.17.11,0,.01-.02.03-.02.04Z"/>
      <path class="cls-2" d="m47.53,2.62s-.02.09-.03.13c0,.07,0,.14.02.21.11.31.76.62,1.03.84.04.03.08.05.12.08.48.38.95.77,1.3,1.17.36.4.6.86.64,1.27.08.93-.82,1.64-1.72,2.43-.06.03-.12.06-.16.09-.54.44-1.79,1.26-1.47,2.04.06.15.15.27.26.39.04.04.08.08.13.11.06.03.13.05.2.05.11,0,.22,0,.33-.04.15-.05.29-.15.42-.25.57-.41.99-.98,1.55-1.37.07-.02.13-.05.18-.09,1.18-.87,2.57-1.81,2.55-3.02-.03-.96-.78-1.83-1.51-2.57-.31-.31-.71-.79-1.17-1.14-.47-.34-1-.6-1.55-.58-.31,0-.61.05-.9.12-.07.02-.14.04-.19.09-.01.01-.02.02-.03.04Z"/>
      <path class="cls-2" d="m53.55,3.24s-.04.08-.04.13c-.01.07-.03.14-.01.21.07.31.68.69.91.93.04.03.07.06.11.09.83.94,1.61,1.92,1.57,2.75-.04.93-1.06,1.55-2.04,2.13-.06.01-.12.03-.17.06-.58.3-1.95,1.04-1.74,1.83.04.15.12.28.2.41.03.05.07.09.11.12.05.04.12.06.19.07.11.02.22.02.33,0,.16-.02.3-.09.45-.16.61-.3,1.09-.74,1.71-1.09.07-.02.14-.04.19-.07.66-.37,1.36-.75,1.92-1.19.55-.41.96-.87,1.03-1.49.12-.99-.51-1.93-1.14-2.73-.53-.69-1.36-1.97-2.45-2.13-.31-.02-.61-.01-.91.03-.07.01-.15.02-.2.07-.01.01-.02.02-.03.04Z"/>
      <path class="cls-2" d="m59.43,4.69s-.05.08-.06.12c-.02.07-.05.14-.04.21.03.33.56.82.75,1.11.03.04.06.07.09.11.7,1.01,1.35,2.05,1.2,2.87-.17.91-1.27,1.41-2.34,1.88-.07,0-.13.02-.18.04-.64.27-2.05.68-1.97,1.53.01.16.07.31.14.45.02.05.05.1.09.15.05.05.11.08.17.11.1.04.21.06.32.06.16,0,.32-.06.47-.12.65-.23,1.2-.62,1.87-.9.07,0,.14-.02.21-.05,1.37-.5,2.96-.99,3.27-2.17.24-.93-.24-1.99-.72-2.91-.41-.79-1.09-2.08-2.15-2.39-.3-.08-.6-.13-.89-.15-.07,0-.15,0-.2.03-.01,0-.03.02-.04.03Z"/>
      <path class="cls-2" d="m65.03,6.99s-.06.07-.08.11c-.03.06-.07.13-.07.2-.02.32.45.86.61,1.17.02.04.05.08.08.12.58,1.05,1.02,2.28.76,3.06-.3.88-1.44,1.19-2.54,1.47-.07,0-.13,0-.19.02-.68.2-2.16.45-2.19,1.29,0,.15.03.31.08.45.02.05.04.11.07.15.04.05.1.09.16.12.1.05.21.08.32.09.16.01.33-.03.49-.06.68-.13,1.25-.4,1.94-.57.07,0,.14,0,.21-.01,1.45-.34,3.12-.65,3.59-1.77.36-.88.02-1.97-.35-2.92-.16-.41-.34-.98-.62-1.51-.27-.53-.63-1.02-1.15-1.2-.29-.11-.58-.19-.88-.24-.07-.01-.15-.02-.21,0-.01,0-.03.02-.04.02Z"/>
      <path class="cls-2" d="m70.29,9.99s-.07.06-.09.1c-.04.06-.08.12-.1.19-.07.32.31.95.41,1.28.01.04.03.09.06.13.39,1.18.72,2.36.35,3.1-.42.83-1.61,1-2.76,1.15-.07-.01-.13-.02-.18-.01-.69.08-2.15.07-2.3.91-.03.16-.02.32,0,.47,0,.06.02.11.05.17.03.06.08.11.13.15.09.07.19.12.29.15.16.04.32.03.48.02.69-.04,1.32-.26,2.04-.34.07.01.14.02.21,0,1.5-.16,3.12-.14,3.75-1.2.49-.83.33-1.99.11-3-.21-.83-.47-2.3-1.41-2.89-.26-.16-.53-.29-.81-.39-.07-.02-.14-.05-.2-.03-.02,0-.03.01-.04.02Z"/>
      <path class="cls-2" d="m75.02,13.75s-.07.05-.11.09c-.05.05-.1.11-.12.17-.11.31.19.96.26,1.3,0,.04.02.09.04.13.28,1.16.37,2.45-.1,3.13-.54.78-1.69.72-2.86.73-.06-.02-.13-.03-.19-.03-.7,0-2.19-.17-2.45.63-.05.15-.05.31-.05.46,0,.06,0,.11.03.17.02.06.07.12.12.16.08.08.18.14.28.18.15.06.32.07.49.08.72.03,1.33-.06,2.04-.03.07.02.13.04.2.05,1.48.08,3.16.25,3.92-.7.59-.75.57-1.89.48-2.92-.07-.87-.06-2.43-.96-3.08-.24-.19-.5-.35-.77-.48-.07-.03-.14-.06-.2-.05-.02,0-.03,0-.05.01Z"/>
      <path class="cls-2" d="m79.24,18.09s-.08.04-.12.07c-.06.04-.11.09-.15.16-.13.27.05.98.06,1.33,0,.05,0,.09.02.14.05,1.24.03,2.48-.53,3.09-.63.68-1.82.52-2.96.34-.06-.03-.12-.05-.17-.06-.33-.06-.86-.19-1.34-.22-.49-.02-.96.1-1.14.47-.07.14-.09.29-.1.44,0,.06-.01.12,0,.17.01.07.05.13.08.19.06.09.15.17.24.23.14.08.3.12.45.16.67.16,1.33.12,2.04.25.06.03.13.06.2.07.37.06.75.13,1.14.19.36.07.72.13,1.06.15.68.04,1.31-.05,1.75-.48.68-.65.9-1.85.92-2.85.03-.86.19-2.35-.54-3.18-.21-.23-.42-.44-.68-.6-.06-.04-.13-.08-.2-.07-.02,0-.03,0-.05,0Z"/>
      <path class="cls-2" d="m82.77,23s-.09.03-.12.05c-.06.04-.12.07-.17.13-.19.27-.08.98-.11,1.32,0,.05,0,.09,0,.14-.05.61-.1,1.21-.24,1.73-.16.54-.38.98-.71,1.25-.74.6-1.8.22-2.97-.07-.06-.04-.11-.07-.17-.08-.67-.2-2.05-.78-2.52-.07-.09.13-.14.28-.18.43-.01.06-.03.11-.02.17,0,.07.03.13.07.19.06.1.13.18.22.25.13.1.29.15.45.21.67.23,1.34.28,1.99.52.06.04.12.08.18.1,1.39.49,2.95,1.12,3.94.41.78-.56,1.07-1.67,1.28-2.68.09-.44.24-1.02.29-1.61.02-.58-.06-1.16-.38-1.61-.18-.25-.38-.48-.61-.68-.05-.05-.11-.1-.18-.11-.02,0-.03,0-.05,0Z"/>
      <path class="cls-2" d="m85.62,28.34s-.09.02-.13.04c-.07.03-.13.06-.18.11-.23.24-.17.94-.28,1.29-.01.04-.02.09-.02.14-.31,1.21-.67,2.4-1.39,2.83-.79.48-1.88,0-2.92-.49-.05-.05-.1-.08-.15-.11-.57-.32-1.92-1.05-2.47-.43-.1.11-.17.25-.22.4-.02.05-.04.11-.04.16,0,.07.02.13.05.19.04.1.09.2.16.28.11.12.25.2.39.28.59.34,1.24.49,1.88.8.05.05.11.09.17.12,1.4.65,2.76,1.52,3.85.96.87-.45,1.37-1.52,1.65-2.48.28-.82.85-2.22.38-3.22-.12-.28-.31-.53-.51-.75-.05-.05-.1-.11-.17-.13-.02,0-.03,0-.05,0Z"/>
      <path class="cls-2" d="m87.68,34.03s-.09,0-.13.02c-.07.02-.14.04-.2.08-.26.2-.36.92-.49,1.24-.02.04-.03.09-.04.14-.45,1.15-.91,2.26-1.71,2.6-.84.36-1.86-.27-2.86-.89-.04-.05-.09-.1-.14-.13-.58-.38-1.73-1.32-2.38-.77-.12.1-.21.23-.29.37-.03.05-.06.1-.07.16-.02.07,0,.14,0,.2.03.11.07.21.14.3.1.13.23.23.36.33.56.41,1.21.64,1.8,1.05.04.06.09.11.14.15,1.18.86,2.49,1.9,3.64,1.5.9-.32,1.51-1.31,2-2.23.47-.79,1.14-2.07.79-3.12-.1-.29-.23-.57-.39-.82-.04-.06-.08-.12-.14-.15-.01,0-.03-.01-.04-.01Z"/>
      <path class="cls-2" d="m88.92,39.96s-.09,0-.14,0c-.07,0-.14.02-.21.05-.28.17-.46.86-.62,1.16-.02.04-.04.08-.05.13-.59,1.07-1.33,2.12-2.13,2.34-.9.24-1.8-.53-2.64-1.28-.03-.06-.07-.11-.11-.15-.53-.46-1.59-1.54-2.3-1.09-.13.08-.24.2-.33.32-.03.04-.07.09-.08.14-.02.06-.02.13-.01.2.01.11.05.22.11.32.08.14.22.26.32.37.46.49,1.03.81,1.55,1.3.04.06.08.12.13.16,1.1,1.01,2.29,2.22,3.48,1.99.93-.19,1.64-1.08,2.22-1.92.49-.71,1.5-1.9,1.27-2.98-.07-.3-.17-.59-.3-.86-.03-.07-.07-.13-.12-.17-.01,0-.03-.01-.04-.02Z"/>
    </g>
  </g>
  <path class="cls-1" d="m86.95,45.94c-.07,16.96-10.84,32.71-26.89,38.49-8.11,2.93-17,3.27-25.3.92-7.99-2.26-15.09-6.98-20.4-13.34C3.32,58.8,2.04,39.37,10.93,24.7,19.77,10.12,37.33,2.34,54.07,5.76c16.72,3.42,29.73,17.09,32.42,33.93.33,2.06.45,4.16.46,6.25.01,3.22,5.01,3.22,5,0-.04-9.44-2.92-18.82-8.42-26.51-5.45-7.63-13.03-13.44-21.82-16.69C43.76-3.89,22.75,1.82,10.61,16.59,4.55,23.95.9,32.93.14,42.45c-.76,9.46,1.55,19.15,6.47,27.26,4.75,7.84,11.89,14.28,20.26,18.05,8.88,4,18.79,5.14,28.35,3.22,18.42-3.7,33.31-19.18,36.13-37.79.36-2.4.57-4.81.58-7.24.01-3.22-4.99-3.22-5,0Z"/>
  <path class="cls-2" d="m79.43,45.94c-.07,13.85-8.82,26.64-21.9,31.41-13.22,4.82-28.29.74-37.3-10.05-9.04-10.81-10.16-26.7-2.85-38.72,7.22-11.88,21.49-18.21,35.14-15.46,13.63,2.74,24.33,13.91,26.53,27.62.27,1.72.38,3.46.39,5.2,0,1.61,2.51,1.61,2.5,0-.07-14.96-9.53-28.57-23.58-33.77-14.12-5.22-30.56-.75-40.1,10.88-9.57,11.67-10.9,28.56-3.04,41.5,7.83,12.89,23.2,19.57,37.97,16.61,14.51-2.91,26.13-15.07,28.32-29.71.27-1.83.42-3.67.43-5.52,0-1.61-2.49-1.61-2.5,0Z"/>
  <path class="cls-2" d="m67.85,45.94c-.07,9.13-5.85,17.56-14.52,20.62-8.65,3.05-18.4.33-24.26-6.71-5.85-7.02-6.56-17.33-1.88-25.14,4.69-7.84,14.09-12.05,23.07-10.23,10.17,2.06,17.52,11.12,17.59,21.46.01,1.61,2.51,1.61,2.5,0-.08-10.18-6.47-19.38-16.05-22.91s-20.79-.44-27.21,7.49c-6.38,7.88-7.3,19.18-2.07,27.92,5.26,8.8,15.68,13.37,25.73,11.41,11.32-2.21,19.51-12.46,19.59-23.91.01-1.61-2.49-1.61-2.5,0Z"/>
  <path class="cls-2" d="m58.3,45.94c-.06,5.13-3.26,9.86-8.15,11.6s-10.48.19-13.77-3.85c-3.25-3.99-3.6-9.77-.94-14.16,2.65-4.36,7.92-6.71,12.93-5.68,5.75,1.18,9.85,6.25,9.92,12.09.02,1.61,2.52,1.61,2.5,0-.08-6.18-3.88-11.7-9.67-13.9-5.76-2.18-12.59-.37-16.51,4.38s-4.6,11.81-1.33,17.19c3.23,5.31,9.51,8.03,15.59,6.87,6.91-1.32,11.83-7.59,11.92-14.53.02-1.61-2.48-1.61-2.5,0Z"/>
  <g>
    <path class="cls-2" d="m71.51,43.25c3.22,0,3.22-5,0-5s-3.22,5,0,5h0Z"/>
    <path class="cls-2" d="m69.95,37.46c3.22,0,3.22-5,0-5s-3.22,5,0,5h0Z"/>
    <path class="cls-2" d="m66.91,32.52c3.22,0,3.22-5,0-5s-3.22,5,0,5h0Z"/>
    <path class="cls-2" d="m62.67,28.27c3.22,0,3.22-5,0-5s-3.22,5,0,5h0Z"/>
    <path class="cls-2" d="m58.01,24.75c3.22,0,3.22-5,0-5s-3.22,5,0,5h0Z"/>
    <path class="cls-2" d="m52.21,23.19c3.22,0,3.22-5,0-5s-3.22,5,0,5h0Z"/>
    <path class="cls-2" d="m46.42,21.62c3.22,0,3.22-5,0-5s-3.22,5,0,5h0Z"/>
    <path class="cls-2" d="m40.63,22.94c3.22,0,3.22-5,0-5s-3.22,5,0,5h0Z"/>
    <path class="cls-2" d="m34.84,24.51c3.22,0,3.22-5,0-5s-3.22,5,0,5h0Z"/>
    <path class="cls-2" d="m29.94,27.62c3.22,0,3.22-5,0-5s-3.22,5,0,5h0Z"/>
    <path class="cls-2" d="m25.69,31.86c3.22,0,3.22-5,0-5s-3.22,5,0,5h0Z"/>
    <path class="cls-2" d="m22.25,36.56c3.22,0,3.22-5,0-5s-3.22,5,0,5h0Z"/>
    <path class="cls-2" d="m20.68,42.35c3.22,0,3.22-5,0-5s-3.22,5,0,5h0Z"/>
    <path class="cls-2" d="m19.11,48.14c3.22,0,3.22-5,0-5s-3.22,5,0,5h0Z"/>
    <path class="cls-2" d="m20.52,53.93c3.22,0,3.22-5,0-5s-3.22,5,0,5h0Z"/>
    <path class="cls-2" d="m22.08,59.73c3.22,0,3.22-5,0-5s-3.22,5,0,5h0Z"/>
    <path class="cls-2" d="m25.26,64.59c3.22,0,3.22-5,0-5s-3.22,5,0,5h0Z"/>
    <path class="cls-2" d="m29.5,68.83c3.22,0,3.22-5,0-5s-3.22,5,0,5h0Z"/>
    <path class="cls-2" d="m34.24,72.21c3.22,0,3.22-5,0-5s-3.22,5,0,5h0Z"/>
    <path class="cls-2" d="m40.03,73.78c3.22,0,3.22-5,0-5s-3.22,5,0,5h0Z"/>
    <path class="cls-2" d="m45.82,75.35c3.22,0,3.22-5,0-5s-3.22,5,0,5h0Z"/>
    <path class="cls-2" d="m51.62,73.86c3.22,0,3.22-5,0-5s-3.22,5,0,5h0Z"/>
    <path class="cls-2" d="m57.41,72.29c3.22,0,3.22-5,0-5s-3.22,5,0,5h0Z"/>
    <path class="cls-2" d="m62.23,69.05c3.22,0,3.22-5,0-5s-3.22,5,0,5h0Z"/>
    <path class="cls-2" d="m66.47,64.81c3.22,0,3.22-5,0-5s-3.22,5,0,5h0Z"/>
    <path class="cls-2" d="m69.78,60.03c3.22,0,3.22-5,0-5s-3.22,5,0,5h0Z"/>
    <path class="cls-2" d="m71.35,54.23c3.22,0,3.22-5,0-5s-3.22,5,0,5h0Z"/>
    <path class="cls-2" d="m72.92,48.44c3.22,0,3.22-5,0-5s-3.22,5,0,5h0Z"/>
  </g>
</svg>