<svg width="1440" height="173" viewBox="0 0 1440 173" fill="none" xmlns="http://www.w3.org/2000/svg">
<g clip-path="url(#clip0_3769_28338)">
<path d="M0 136.961V3.96094C250.652 73.2965 358.165 94.7729 471 90.1964C583.835 85.6199 788.982 42.087 905 46.4609C1021.02 50.8349 1123.77 68.6427 1255.5 64.0255C1336.5 58.8771 1375.06 45.5302 1440 10.8255V136.961H0Z" fill="#66C5FF"/>
<path d="M1440 172.961V74.7893C1394.89 100.611 1354 112.406 1304 115.159C1222.5 117.453 1065.5 86.7167 947.5 74.7893C889.5 68.9267 852.5 71.5353 808 81.6277C763.5 91.7201 628.161 129.732 550 133.509C471.839 137.286 399.859 141.67 302 124.793C211.5 109.184 121.987 79.8138 0 33.9609V172.961H1440Z" fill="#1971ED"/>
</g>
<defs>
<clipPath id="clip0_3769_28338">
<rect width="1440" height="172" fill="white" transform="translate(0 0.960938)"/>
</clipPath>
</defs>
</svg>
