<svg width="240" height="65" viewBox="0 0 240 65" fill="none" xmlns="http://www.w3.org/2000/svg">
<g clip-path="url(#clip0_3122_37050)">
<path d="M68.1737 33.4733C68.1745 25.8054 65.4681 18.3796 60.5247 12.4863L60.2389 12.6698C68.3922 26.7168 62.8278 46.903 47.8829 53.8764C39.0908 57.9804 27.5417 56.5957 22.2126 47.9373C20.8151 45.8597 18.9054 44.1713 16.665 43.0326C14.446 41.8815 11.6217 41.9649 9.18415 41.3643C3.30032 40.1298 1.09809 34.5243 0.677816 29.1191L0.240733 29.0357C0.0564264 30.5075 -0.0222233 31.9905 0.00537936 33.4733C0.00537936 33.6402 0.00537936 33.807 0.00537936 33.9905C0.207111 40.6636 2.79599 44.2338 3.75422 45.2014C5.28529 46.8903 7.28571 48.0918 9.50355 48.6547C10.7964 48.865 12.0492 49.27 13.2188 49.8559C15.4159 51.2441 17.198 53.1912 18.3797 55.4947C21.0359 59.7988 27.9115 64.787 38.5528 64.787C43.0998 64.8754 47.5837 63.7211 51.5141 61.4504C61.1972 55.5614 68.1569 45.4016 68.1569 33.44" fill="white"/>
<path d="M56.86 8.716C54.0347 10.6165 52.0169 13.4863 51.1947 16.7738C50.2029 19.9602 49.749 23.3135 48.589 26.4498C47.1937 30.1868 43.8988 34.6078 39.343 34.5911C34.7873 34.5744 32.501 29.5862 29.5086 27.0004C26.5241 24.3648 22.6427 22.9517 18.6488 23.0465C16.0767 23.0465 12.496 23.7639 10.2433 22.0789C6.88112 19.5098 8.20918 14.7385 10.0416 11.7022C10.2265 11.3853 12.2774 8.24888 12.2774 8.24888L12.0084 7.91522C8.91483 10.2166 6.35751 13.1527 4.51078 16.5236C3.64782 18.2023 3.27994 20.0887 3.44945 21.9657C3.61897 23.8427 4.31899 25.6341 5.469 27.1338C6.64171 28.3466 8.18319 29.1437 9.85665 29.4027C10.6278 29.5492 11.4089 29.6384 12.1934 29.6696C15.1689 29.8031 18.094 29.3193 20.9014 30.4704C25.0033 32.1387 26.8525 36.1092 29.6935 39.1455C34.451 44.2337 44.2014 43.85 49.0429 37.9276C55.969 29.386 51.7831 17.975 57.1626 8.93288L56.86 8.716Z" fill="white"/>
<path d="M36.8213 0.808318C34.6152 0.776155 32.4135 1.01146 30.265 1.509L29.643 1.67583C27.777 2.20968 24.4316 3.92801 24.7006 6.24692C24.7557 6.63486 24.9097 7.00241 25.148 7.31478C25.3863 7.62715 25.701 7.874 26.0623 8.03198C26.9487 8.28543 27.8851 8.31411 28.7856 8.1154C34.8712 7.46477 33.7112 12.0525 37.292 11.9358C39.3261 11.9358 40.3684 10.3676 41.8141 9.24983C43.4684 7.95083 45.3737 7.00259 47.4121 6.4638C49.3653 5.80576 51.4594 5.67336 53.4809 6.08009L53.3968 6.38038C52.8589 6.38038 48.8579 6.38038 44.3525 12.4696C42.3184 15.2223 40.4524 17.9249 36.6531 17.8749C34.9189 17.8006 33.2605 17.1482 31.9461 16.0231C30.5844 14.972 29.6262 13.604 27.8946 13.1703C26.1631 12.7365 23.7423 13.6875 22.0108 13.5707C21.0045 13.511 20.0459 13.1241 19.2833 12.4697C18.5206 11.8154 17.9963 10.9301 17.7913 9.95051C17.6749 8.90359 17.8177 7.84431 18.2074 6.86458C18.597 5.88485 19.2216 5.01427 20.0271 4.32839C25.5243 -0.676454 34.9216 -0.0758718 36.8381 0.457979L36.7372 0.808318" fill="white"/>
<path d="M76.7139 10.0339H80.6308L84.6654 26.3831H84.7999L88.8345 10.0339H93.3231L97.3745 26.3831H97.509L101.493 10.0339H105.292L99.8121 30.7206H95.2227L91.104 14.0044H90.9695L86.8004 30.7206H82.1942L76.7139 10.0339Z" fill="white"/>
<path d="M112.201 15.0221C110.596 15.068 109.04 15.5822 107.728 16.5006C106.416 17.4189 105.405 18.7006 104.823 20.1856C104.241 21.6706 104.112 23.2929 104.453 24.85C104.795 26.4071 105.591 27.8298 106.742 28.9405C107.894 30.0512 109.349 30.8005 110.927 31.0949C112.505 31.3892 114.136 31.2156 115.615 30.5957C117.094 29.9757 118.357 28.937 119.245 27.6092C120.132 26.2814 120.606 24.7234 120.607 23.1299C120.636 22.0372 120.437 20.9503 120.022 19.9378C119.607 18.9253 118.985 18.0092 118.195 17.2473C117.405 16.4854 116.465 15.8943 115.433 15.5113C114.402 15.1283 113.301 14.9617 112.201 15.0221ZM112.201 28.3683C109.125 28.3183 107.595 26.0161 107.595 23.1967C107.595 20.3773 109.091 17.9916 112.168 17.9916C115.244 17.9916 116.724 20.2938 116.724 23.1967C116.724 26.0995 115.227 28.385 112.168 28.385" fill="white"/>
<path d="M130.071 15.0221C128.465 15.0517 126.903 15.5505 125.581 16.4563C124.259 17.3621 123.235 18.6345 122.638 20.1145C122.041 21.5946 121.897 23.2165 122.223 24.7774C122.55 26.3384 123.333 27.7691 124.475 28.8907C125.617 30.0123 127.066 30.7749 128.643 31.0833C130.219 31.3917 131.852 31.232 133.337 30.6244C134.822 30.0167 136.094 28.988 136.993 27.6669C137.892 26.3458 138.379 24.7909 138.393 23.1967C138.421 22.1114 138.225 21.0318 137.815 20.0252C137.405 19.0186 136.79 18.1066 136.01 17.346C135.229 16.5853 134.299 15.9924 133.277 15.6041C132.255 15.2157 131.164 15.0403 130.071 15.0888V15.0221ZM130.071 28.4351C126.995 28.4351 125.499 26.1329 125.499 23.2467C125.499 20.3606 126.995 18.0417 130.071 18.0417C133.148 18.0417 134.644 20.3439 134.644 23.2467C134.644 26.1495 133.148 28.4351 130.071 28.4351Z" fill="white"/>
<path d="M143.822 10.0339H140.124V30.7206H143.822V10.0339Z" fill="white"/>
<path d="M144.613 15.4892H148.513L151.808 26.5332H151.926L155.103 15.4892H158.936L162.113 26.5332H162.248L165.56 15.4892H169.342L164.383 30.7206H160.432L157.02 19.1761H156.902L153.54 30.7206H149.573L144.613 15.4892Z" fill="white"/>
<path d="M177.411 15.0221C175.806 15.068 174.25 15.5822 172.938 16.5006C171.626 17.4189 170.615 18.7006 170.033 20.1856C169.451 21.6706 169.322 23.2929 169.663 24.85C170.005 26.4071 170.801 27.8298 171.952 28.9405C173.104 30.0512 174.559 30.8005 176.137 31.0949C177.715 31.3892 179.346 31.2156 180.825 30.5957C182.304 29.9757 183.567 28.937 184.455 27.6092C185.342 26.2814 185.816 24.7234 185.817 23.1299C185.846 22.0372 185.647 20.9503 185.232 19.9378C184.817 18.9253 184.195 18.0092 183.405 17.2473C182.615 16.4854 181.675 15.8943 180.643 15.5113C179.612 15.1283 178.511 14.9617 177.411 15.0221ZM177.411 28.3683C174.352 28.3683 172.856 26.0661 172.856 23.18C172.856 20.2938 174.352 17.9749 177.411 17.9749C180.471 17.9749 181.984 20.2772 181.984 23.18C181.984 26.0828 180.488 28.3683 177.411 28.3683Z" fill="white"/>
<path d="M198.626 27.0337V18.3586H196.39C193.112 18.3586 191.162 20.5107 191.162 24.7815V30.7206H187.464V15.4892H191.162V20.2605H191.297C192.12 16.4568 193.617 15.4892 197.181 15.4892H198.626V11.5187H202.224V15.4892H206.78V18.3586H202.274V26.3998C202.246 26.6006 202.265 26.8054 202.33 26.9976C202.396 27.1898 202.505 27.3642 202.651 27.5068C202.796 27.6494 202.973 27.7564 203.167 27.819C203.362 27.8817 203.568 27.8984 203.77 27.8679H206.78V30.7206H202.409C201.907 30.7625 201.402 30.6965 200.929 30.527C200.455 30.3574 200.024 30.0885 199.665 29.7384C199.306 29.3884 199.027 28.9655 198.848 28.4987C198.669 28.0319 198.593 27.5322 198.626 27.0337Z" fill="white"/>
<path d="M218.228 15.0054C218.995 14.9685 219.761 15.0929 220.476 15.3704C221.191 15.648 221.839 16.0724 222.377 16.6159C222.915 17.1594 223.331 17.8096 223.598 18.524C223.865 19.2384 223.977 20.0007 223.927 20.761V30.7707H220.228V21.8454C220.3 21.3274 220.254 20.8 220.094 20.302C219.933 19.8039 219.663 19.3478 219.302 18.967C218.941 18.5863 218.498 18.2906 218.007 18.1016C217.516 17.9126 216.988 17.8351 216.463 17.8749C213.739 17.8749 212.344 20.077 212.344 22.8797V30.7874H208.646V10.0339H212.344V19.5098H212.529C212.79 18.2122 213.506 17.0483 214.549 16.2239C215.592 15.3996 216.895 14.9679 218.228 15.0054Z" fill="white"/>
<path d="M225.44 25.7825H229.021C229.441 27.5843 230.853 28.5018 233.139 28.5018C235.426 28.5018 236.501 27.7845 236.501 26.4832C236.501 25.4822 235.879 24.9984 234.4 24.8149L229.979 24.1143C228.858 24.0668 227.799 23.5902 227.025 22.7845C226.251 21.9788 225.821 20.9067 225.827 19.7934C225.827 16.8739 228.483 15.0555 232.551 15.0555C236.619 15.0555 239.376 16.974 239.645 20.3106H236.199C235.997 18.6423 234.837 17.7748 232.685 17.7748C230.534 17.7748 229.323 18.4087 229.323 19.5598C229.323 20.711 229.979 21.078 231.509 21.3282L236.115 22.079C237.179 22.1181 238.185 22.5733 238.912 23.3452C239.64 24.1171 240.03 25.1432 239.998 26.1996C239.998 29.336 237.191 31.2045 232.971 31.2045C228.752 31.2045 225.86 29.2025 225.406 25.7659" fill="white"/>
<path d="M94.6682 50.5732C94.2622 52.2069 93.2826 53.6435 91.9054 54.625C90.5281 55.6065 88.8434 56.0686 87.1537 55.9284C81.6733 55.9284 77.3361 51.374 77.3361 45.1012C77.2555 43.6534 77.484 42.2049 78.0068 40.8508C78.5296 39.4966 79.3347 38.2674 80.3696 37.2436C81.4044 36.2198 82.6456 35.4245 84.0117 34.9099C85.3778 34.3953 86.8381 34.1729 88.2968 34.2574C93.5082 34.2574 97.2907 37.1602 98.0472 41.8147H94.3488C94.1244 40.4225 93.3734 39.1675 92.2488 38.3058C91.1243 37.444 89.7109 37.0403 88.2968 37.1769C83.4553 37.1769 81.0681 40.7637 81.0681 45.1012C81.0681 49.8392 83.8588 53.0089 88.4481 53.0089C91.8103 53.0089 94.5169 50.9402 94.5169 48.0041V47.4035H87.6076V44.5841H98.2321V55.4446H94.8699V50.5732H94.6682Z" fill="white"/>
<path d="M104.435 45.0345C105.242 40.9973 106.469 40.0297 109.479 40.0297H110.252V43.0493H108.941C105.915 43.0493 104.234 45.218 104.234 49.5055V55.4446H100.535V40.1965H104.234V45.0345H104.435Z" fill="white"/>
<path d="M118.657 39.746C117.056 39.7952 115.505 40.3112 114.198 41.2296C112.891 42.1481 111.885 43.4282 111.306 44.9103C110.728 46.3924 110.602 48.0109 110.944 49.5636C111.287 51.1163 112.083 52.5345 113.232 53.6411C114.382 54.7478 115.835 55.4939 117.409 55.7864C118.983 56.0788 120.61 55.9047 122.085 55.2856C123.56 54.6665 124.819 53.63 125.704 52.3053C126.589 50.9807 127.062 49.4267 127.062 47.8372C127.09 46.7459 126.889 45.6608 126.473 44.6503C126.057 43.6398 125.434 42.7257 124.645 41.9656C123.855 41.2055 122.915 40.616 121.885 40.234C120.854 39.852 119.755 39.6858 118.657 39.746ZM118.657 53.0923C115.581 53.0923 114.084 50.7901 114.084 47.904C114.084 45.0178 115.581 42.6989 118.657 42.6989C121.733 42.6989 123.23 44.8844 123.23 47.8372C123.23 50.7901 121.733 53.0256 118.657 53.0256" fill="white"/>
<path d="M140.259 48.1208V40.1965H143.958V55.4446H140.259V51.3907H140.074C139.836 52.6802 139.144 53.8439 138.122 54.6748C137.1 55.5057 135.814 55.9499 134.493 55.9284C133.724 55.9653 132.956 55.8405 132.239 55.5621C131.522 55.2837 130.872 54.858 130.332 54.313C129.793 53.768 129.375 53.1159 129.107 52.3995C128.839 51.6831 128.727 50.9186 128.777 50.1561V40.1464H132.476V49.0384C132.396 49.5528 132.435 50.0783 132.588 50.5761C132.741 51.0738 133.004 51.5311 133.36 51.914C133.715 52.2968 134.152 52.5956 134.639 52.788C135.127 52.9804 135.651 53.0616 136.174 53.0256C138.881 53.0256 140.276 50.8234 140.276 48.1208" fill="white"/>
<path d="M155.927 39.7127C154.628 39.7187 153.364 40.1386 152.323 40.9104C151.282 41.6822 150.518 42.7653 150.144 44.0002H150.01V40.1965H146.261V60.8999H149.959V51.6743H150.094C150.474 52.9029 151.24 53.9787 152.281 54.7441C153.321 55.5095 154.581 55.9245 155.877 55.9284C160.147 55.9284 162.601 52.3916 162.601 47.8539C162.601 43.6331 160.348 39.7127 155.877 39.7127H155.927ZM154.481 53.2258C153.879 53.2428 153.28 53.1357 152.722 52.9113C152.164 52.6869 151.659 52.3501 151.239 51.922C150.818 51.494 150.492 50.9841 150.281 50.4246C150.069 49.8651 149.977 49.2681 150.01 48.6714V47.0031C149.977 46.4048 150.069 45.8064 150.281 45.2451C150.492 44.6839 150.817 44.1719 151.237 43.7413C151.657 43.3107 152.162 42.9707 152.72 42.7425C153.278 42.5143 153.878 42.4029 154.481 42.4153C157.558 42.4153 158.987 44.901 158.987 47.8873C158.987 50.8735 157.49 53.2258 154.481 53.2258Z" fill="white"/>
</g>
<defs>
<clipPath id="clip0_3122_37050">
<rect width="240" height="64.6809" fill="white" transform="translate(0 0.11084)"/>
</clipPath>
</defs>
</svg>
