<svg xmlns="http://www.w3.org/2000/svg" width="32" height="32" viewBox="0 0 32 32"><title id="title[Filename2]">Instagram</title><defs><radialGradient cx="29.515%" cy="110.173%" fx="29.515%" fy="110.173%" r="157.89%" gradientTransform="matrix(-.4 -.9 .95 -.43 -.63 1.84)" id="inst"><stop stop-color="#F9ED65" offset="0%"></stop><stop stop-color="#F8E462" offset="8.118%"></stop><stop stop-color="#F7CA59" offset="13.824%"></stop><stop stop-color="#F5A14C" offset="20.219%"></stop><stop stop-color="#F16839" offset="30.1%"></stop><stop stop-color="#F0524E" offset="38.409%"></stop><stop stop-color="#EE2A7B" offset="47.577%"></stop><stop stop-color="#002AFF" offset="100%"></stop></radialGradient></defs><g fill="none"><rect fill="url(#inst)" width="32" height="32" rx="2"></rect><path d="M12 16c0-2.21 1.79-4 4-4s4 1.79 4 4-1.79 4-4 4-4-1.79-4-4m-2.16 0a6.16 6.16 0 1 0 12.32 0 6.16 6.16 0 0 0-12.32 0M21 9.59a1.44 1.44 0 1 0 2.88 0 1.44 1.44 0 0 0-2.88 0m-9.85 16.18a6.637 6.637 0 0 1-2.23-.41 3.999 3.999 0 0 1-2.28-2.28 6.637 6.637 0 0 1-.41-2.23c-.06-1.27-.07-1.65-.07-4.85 0-3.2 0-3.58.07-4.85.008-.76.146-1.516.41-2.23a4.005 4.005 0 0 1 2.28-2.27 6.637 6.637 0 0 1 2.23-.41c1.27-.06 1.64-.07 4.85-.07s3.58 0 4.85.07c.76.008 1.516.146 2.23.41a3.999 3.999 0 0 1 2.28 2.28c.264.714.402 1.47.41 2.23.06 1.27.07 1.64.07 4.85s0 3.58-.07 4.85a6.637 6.637 0 0 1-.41 2.23 3.999 3.999 0 0 1-2.28 2.28 6.637 6.637 0 0 1-2.23.41c-1.27.06-1.64.07-4.85.07s-3.58 0-4.85-.07m-.1-21.7c-.995.02-1.98.21-2.91.56a6.14 6.14 0 0 0-3.51 3.5c-.35.93-.54 1.915-.56 2.91C4 12.33 4 12.74 4 16c0 3.26 0 3.67.07 4.95.02.995.21 1.98.56 2.91a6.14 6.14 0 0 0 3.51 3.51c.93.35 1.915.54 2.91.56 1.28.07 1.69.07 4.95.07 3.26 0 3.67 0 4.95-.07.995-.02 1.98-.21 2.91-.56a6.14 6.14 0 0 0 3.51-3.51c.35-.93.54-1.915.56-2.91.07-1.28.07-1.69.07-4.95 0-3.26 0-3.67-.07-4.95a8.766 8.766 0 0 0-.56-2.91 6.14 6.14 0 0 0-3.51-3.51 8.766 8.766 0 0 0-2.91-.56C19.67 4 19.26 4 16 4c-3.26 0-3.67 0-4.95.07" fill="#FFF"></path></g></svg>
