<svg xmlns="http://www.w3.org/2000/svg" width="32" height="32" viewBox="0 0 32 32"><title>LinkedIn</title><path fill="#0D7FB7" d="M30.2 32c1 0 1.8-.8 1.8-1.8V1.8c0-1-.8-1.8-1.8-1.8H1.8C.8 0 0 .8 0 1.8v28.5c0 1 .8 1.8 1.8 1.8h28.4z"></path><path fill-rule="evenodd" clip-rule="evenodd" fill="#FFF" d="M22.8 26.7v-7.6c0-1.9-.6-3.1-2.3-3.1-1.3 0-2.2.9-2.6 1.7-.1.3-.4.6-.4 1.1v8h-4.9v-15h4.9v2.8h.4c.6-1 2.1-2.7 4.6-2.7 3.1 0 5.1 2.4 5.1 6.7v8.1h-4.8zM5.5 11.8h4.9v14.9H5.5zM8 9.5C6.6 9.5 5.5 8.4 5.5 7S6.6 4.6 8 4.6s2.5 1.1 2.5 2.5S9.3 9.5 8 9.5"></path></svg>
