<svg xmlns="http://www.w3.org/2000/svg" width="32" height="32" viewBox="0 0 32 32" fill="none"><title id="title[Filename3]">Twitter</title><g clip-path="url(#clip0_1842_16)"><path d="M30 0H2a2 2 0 0 0-2 2v28a2 2 0 0 0 2 2h28a2 2 0 0 0 2-2V2a2 2 0 0 0-2-2z" fill="#000"></path><path d="M18.093 14.162L26.283 4h-1.94l-7.112 8.824L11.55 4H5l8.589 13.343L5 28h1.94l7.51-9.318L20.45 28H27l-8.907-13.838zm-2.658 3.299l-.87-1.329L7.64 5.56h2.981l5.588 8.532.87 1.329 7.264 11.09h-2.98l-5.928-9.05z" fill="#fff"></path></g><defs><clipPath id="clip0_1842_16"><path fill="#fff" d="M0 0h32v32H0z"></path></clipPath></defs></svg>
