<?xml version="1.0" encoding="UTF-8"?>
<svg xmlns="http://www.w3.org/2000/svg" width="171" height="48" viewBox="0 0 171 48" fill="none">
  <g clip-path="url(#clip0_4116_488)">
    <path d="M115 12H56V36H115V12Z" fill="#005EB8"></path>
    <path d="M61.7654 14.3159H68.183L72.1172 27.7139H72.1769L74.8753 14.3159H79.7228L75.6454 33.6359H69.2576L65.2339 20.2679H65.1802L62.5116 33.6359H57.6641L61.7654 14.3159Z" fill="white"></path>
    <path d="M81.6168 14.3159H86.7688L85.2525 21.7079H91.3417L92.8581 14.3159H98.0101L94.0162 33.6359H88.8344L90.5418 25.3619H84.4823L82.7749 33.6359H77.6289L81.6168 14.3159Z" fill="white"></path>
    <path d="M111.552 18.69C110.232 18.079 108.791 17.7754 107.338 17.802C105.302 17.802 103.648 18.108 103.648 19.656C103.648 22.398 111.111 21.372 111.111 27.24C111.111 32.58 106.179 33.966 101.72 33.966C99.6931 33.9186 97.6833 33.5833 95.75 32.97L96.944 29.04C97.9648 29.706 100.001 30.15 101.678 30.15C103.356 30.15 105.779 29.844 105.779 27.852C105.779 24.75 98.3171 25.914 98.3171 20.46C98.3171 15.48 102.669 13.98 106.884 13.98C109.272 13.98 111.481 14.232 112.776 14.838L111.552 18.69Z" fill="white"></path>
  </g>
  <defs>
    <clipPath id="clip0_4116_488">
      <rect width="59" height="24" fill="white" transform="translate(56 12)"></rect>
    </clipPath>
  </defs>
</svg>
