<?xml version="1.0" encoding="UTF-8"?>
<svg xmlns="http://www.w3.org/2000/svg" width="171" height="48" viewBox="0 0 171 48" fill="none">
  <g clip-path="url(#clip0_4116_485)">
    <path d="M54.6362 22.9941L53.6699 28.6759C53.471 29.6986 52.7889 29.9827 52.1921 29.9827H47.7017L49.5775 19.585C47.7017 18.7327 45.7692 18.1646 44.2345 18.1646C42.7851 18.1646 41.5915 18.5623 40.7958 19.4998C40.2842 20.1532 40 21.0055 40 21.9714C40 24.9259 42.3304 29.0452 46.3092 32.3975C49.8616 35.3521 53.7552 36.9998 56.5971 36.9998C58.0181 36.9998 59.1549 36.5736 59.9222 35.693C60.5191 35.0111 60.7464 34.1589 60.7464 33.1646C60.7464 30.2952 58.416 26.2611 54.6362 22.9941Z" fill="#F96449"></path>
    <path d="M46.5942 12C45.8837 12 45.2869 12.483 45.1448 13.2216L44.5195 16.6591H50.1466L47.731 29.983H52.2213C52.8181 29.983 53.5002 29.6989 53.6991 28.6761L55.7453 16.6591H59.8093C60.5198 16.6591 61.1167 16.1761 61.2588 15.4375L61.8556 12H46.5942Z" fill="#0D54FF"></path>
    <path d="M122.675 25.9773C121.51 25.9773 120.685 24.9262 120.685 23.5057C120.685 21.716 121.652 20.2671 123.186 20.2671C124.465 20.2671 125.289 21.3182 125.289 22.7387C125.289 24.6137 124.181 25.9773 122.675 25.9773ZM126.483 16.1478L126.199 17.5682C125.488 16.5171 124.21 15.8921 122.561 15.8921C118.554 15.8921 115.684 19.4432 115.684 24.1875C115.684 27.5966 117.9 30.2387 120.998 30.2387C122.447 30.2387 123.698 29.5569 124.579 28.4489L124.323 29.983H128.586L131.03 16.1762L126.483 16.1478Z" fill="#0D54FF"></path>
    <path d="M68.9605 21.602H64.8397C65.2376 20.352 66.0049 19.7554 67.1133 19.7554C68.7048 19.7554 68.9605 20.9486 68.9605 21.3463V21.602ZM67.4827 15.835C61.9124 15.835 59.582 20.3804 59.582 24.0168C59.582 26.2611 61.0599 30.2952 66.3743 30.2952C69.33 30.2952 71.1773 29.0452 72.1436 27.3691L68.6195 25.2384C68.0227 26.0338 67.369 26.3747 66.5449 26.3747C65.3797 26.3747 64.5271 25.7781 64.4702 24.3009H73.394C73.5077 23.7895 73.6498 23.0225 73.6498 21.8293C73.6782 18.5338 71.3762 15.835 67.4827 15.835Z" fill="#0D54FF"></path>
    <path d="M114.715 15.9487C113.862 15.9487 112.214 16.2896 111.333 17.7101L111.532 16.1476H107.354L104.91 29.9544H109.969L111.162 23.1078C111.475 21.7158 112.697 20.693 114.061 20.693C114.516 20.693 114.743 20.7215 114.971 20.8067L115.909 16.0908C115.624 16.0055 115.084 15.9487 114.715 15.9487Z" fill="#0D54FF"></path>
    <path d="M101.19 20.1534H104.231L104.942 16.1761H101.872L102.441 12.7954H97.4958L95.6201 23.6477C94.8812 27.9091 97.78 30.0681 101.077 30.0681C101.844 30.0681 102.299 29.9829 102.526 29.9545L103.265 25.7784C103.18 25.8068 102.924 25.8636 102.64 25.8636C101.389 25.8636 100.366 25.2102 100.65 23.5909L101.19 20.1534Z" fill="#0D54FF"></path>
    <path d="M77.4291 12L74.2461 29.983H79.2764L82.431 12H77.4291Z" fill="#0D54FF"></path>
    <path d="M88.5128 19.415C89.4223 19.415 89.9054 19.8695 90.2464 20.7218L94.5946 19.8127C94.2252 17.4264 92.2074 15.8354 88.9675 15.8354C84.9604 15.8354 82.7436 18.2218 82.7436 20.8639C82.7436 22.6536 83.852 23.8752 86.2108 24.415L88.2286 24.8695C89.1096 25.0684 89.2802 25.4377 89.2802 25.807C89.2802 26.3468 88.8539 26.7445 88.0297 26.7445C87.0634 26.7445 86.2961 26.29 86.0687 25.2389L81.7773 26.1764C82.0615 29.1025 85.0456 30.2957 87.7455 30.2957C91.6674 30.2957 93.9126 28.307 93.9126 25.4377C93.9126 23.5343 92.8326 22.2275 90.5022 21.7161L88.5128 21.29C87.5465 21.0911 87.2624 20.8923 87.2624 20.3525C87.2055 19.8695 87.6318 19.415 88.5128 19.415Z" fill="#0D54FF"></path>
  </g>
  <defs>
    <clipPath id="clip0_4116_485">
      <rect width="91" height="25" fill="white" transform="translate(40 12)"></rect>
    </clipPath>
  </defs>
</svg>
