<?xml version="1.0" encoding="UTF-8"?>
<svg xmlns="http://www.w3.org/2000/svg" width="171" height="48" viewBox="0 0 171 48" fill="none">
  <path fill-rule="evenodd" clip-rule="evenodd" d="M115.923 12.1305L106.397 12.1339L103.883 22.2006C103.879 21.8964 103.85 21.5936 103.774 21.1465C103.698 20.699 103.575 20.1069 103.443 19.6137C103.312 19.1207 103.171 18.7267 102.977 18.299C102.783 17.8718 102.535 17.4114 102.174 16.8899C101.814 16.3683 101.341 15.7858 100.941 15.349C100.54 14.9122 100.212 14.6215 99.7489 14.2813C99.2849 13.9406 98.6861 13.5504 98.0803 13.25C97.4746 12.9502 96.8622 12.7401 96.3757 12.5954C95.8892 12.4509 95.5283 12.3715 95.1141 12.3039C94.6995 12.2365 94.2313 12.1808 93.9457 12.1519C93.6606 12.1223 93.5576 12.1254 93.4542 12.1257L86.0501 12.1385L86.0532 24.1427C85.9059 23.789 85.736 23.4451 85.5446 23.1134C85.2308 22.6019 84.8499 22.1311 84.4338 21.7351C84.017 21.3391 83.5651 21.0176 82.9287 20.7024C82.2923 20.3877 81.4724 20.0791 80.6418 19.8513C79.8108 19.624 78.9684 19.4954 78.1226 19.4127L76.8556 19.2889C76.6371 19.2832 76.4225 19.2299 76.2265 19.1327C76.0242 19.0328 75.833 18.8847 75.7119 18.7473C75.5908 18.6097 75.5403 18.4833 75.5116 18.3528C75.4444 18.0645 75.5003 17.7479 75.674 17.5177C75.768 17.3919 75.8934 17.2939 76.028 17.2198C76.1624 17.1458 76.3057 17.0955 76.6279 17.0508C76.9505 17.0059 77.4517 16.9666 77.9632 16.9815C78.4747 16.9959 78.9957 17.065 79.5766 17.1867C80.1572 17.3083 80.7977 17.4831 81.2997 17.6418C81.8017 17.8001 82.1656 17.942 82.5181 18.1087L84.9463 13.5816C84.6575 13.4034 84.352 13.2536 83.8132 13.044C83.2744 12.8346 82.5019 12.565 81.6416 12.3674C80.7806 12.1693 79.8317 12.0439 78.8606 12.0216C77.8897 12 76.897 12.0819 76.1544 12.168C75.4114 12.2542 74.9193 12.3439 74.2495 12.5731C73.5798 12.802 72.7324 13.1705 72.062 13.5993C71.3918 14.0281 70.8986 14.5175 70.5855 14.8559C70.2724 15.1947 70.1395 15.3823 69.9685 15.6703C69.7978 15.9584 69.5894 16.3471 69.4232 16.7446C69.2613 17.1311 69.1362 17.5322 69.0496 17.9424C68.8829 18.7302 68.8825 19.4966 69.0457 20.3554C69.1277 20.7838 69.2513 21.2297 69.4472 21.6528C69.6426 22.0767 69.9105 22.4776 70.1792 22.806C70.4478 23.1345 70.7176 23.3901 71.0013 23.6294C71.2853 23.8685 71.5827 24.0921 72.1378 24.3597C72.693 24.6276 73.505 24.9406 74.1163 25.141C74.7272 25.3418 75.1371 25.4308 75.548 25.509C75.9593 25.5867 76.3721 25.6535 76.6427 25.6949C76.9133 25.7363 77.0415 25.7523 77.2047 25.7703C77.3683 25.7886 77.5667 25.8086 77.7602 25.8739C77.9537 25.939 78.1419 26.05 78.275 26.178C78.4082 26.3066 78.4865 26.4527 78.5411 26.6016C78.5962 26.7504 78.628 26.9012 78.6179 27.0977C78.6083 27.2942 78.5563 27.536 78.4805 27.7282C78.4045 27.92 78.304 28.0614 78.1461 28.198C77.9879 28.3345 77.7728 28.4666 77.583 28.5408C77.3932 28.615 77.229 28.6314 76.9254 28.604C76.6222 28.5763 76.1798 28.5048 75.8786 28.4434C75.5771 28.3818 75.4171 28.3302 75.2644 28.2602C74.6203 28.0052 73.9764 27.7497 73.3498 27.4564C72.7233 27.1625 72.1148 26.831 71.5061 26.4984L69.7924 29.3256L64.7621 12.1555L55.31 12.1501L49.6523 33.7678L56.2309 33.7564L57.3195 29.3578L63.4508 29.3562L64.6738 33.767L71.0265 33.7494L70.586 32.2431C70.7472 32.3373 70.9145 32.4204 71.3051 32.5923C71.6957 32.7641 72.3091 33.0247 73.0859 33.252C73.8627 33.4794 74.8025 33.6731 75.66 33.7599C76.5176 33.8462 77.2932 33.8247 77.9398 33.7633C78.5864 33.702 79.1036 33.6013 79.6136 33.4728C80.6165 33.2134 81.5807 32.8833 82.5892 32.3301C83.0848 32.0559 83.5933 31.7199 84.0407 31.3488C84.4881 30.9781 84.8739 30.5711 85.1402 30.2624C85.4063 29.9538 85.5521 29.7433 85.6893 29.5273C85.8266 29.3119 85.9544 29.0904 86.0723 28.8636L86.0858 33.7923C88.8231 33.7771 91.5601 33.7884 94.2975 33.7865C94.4459 33.7967 94.5947 33.7899 94.915 33.7447C95.3879 33.6781 95.8558 33.5799 96.3156 33.4505C96.9036 33.2853 97.5878 33.0391 98.2052 32.7564C98.778 32.4937 99.3277 32.1828 99.8484 31.827C100.323 31.5012 100.723 31.1696 101.123 30.7887C101.537 30.3924 101.926 29.9703 102.287 29.5249L101.273 33.7423L107.531 33.7494L108.724 29.3524L114.691 29.3606L116.088 33.7463L122.347 33.7498L115.923 12.1305ZM58.4897 24.7153L60.1024 17.94L62.0604 24.7255L58.4897 24.7153ZM97.496 23.0676C97.4863 23.6127 97.4074 24.2841 97.2209 24.8994C97.034 25.5153 96.7399 26.0759 96.4807 26.4553C96.2219 26.8342 95.9985 27.0319 95.7013 27.2166C95.4036 27.4018 95.0322 27.5729 94.7314 27.6675C94.4295 27.762 94.1986 27.7791 93.9333 27.7866C93.3944 27.7983 92.759 27.7842 92.1666 27.7775L92.165 17.9549C92.355 17.9446 92.5458 17.9415 92.8185 17.9381C93.0912 17.9347 93.4469 17.9313 93.8851 18.0178C94.3238 18.104 94.8456 18.2803 95.1988 18.4366C95.552 18.5929 95.737 18.7293 96.0109 19.065C96.2848 19.4003 96.6481 19.9344 96.8922 20.404C97.1358 20.8736 97.2605 21.2788 97.353 21.6907C97.4451 22.1032 97.5054 22.5224 97.496 23.0676ZM109.739 24.731L111.425 17.869L113.261 24.731H109.739Z" fill="#78BE20"></path>
</svg>
