<svg width="132" height="70" viewBox="0 0 132 70" fill="none" xmlns="http://www.w3.org/2000/svg">
<g clip-path="url(#clip0_5342_22924)">
<path d="M111.983 70H0.668063C0.487265 69.9958 0.315496 69.9196 0.190323 69.7882C0.0651508 69.6568 -0.00323667 69.4808 0.000117829 69.2987V21.0059C0.00368973 9.4079 8.96559 0 20.0242 0H131.334C131.514 0.00424519 131.686 0.0804662 131.811 0.211938C131.936 0.343411 132.004 0.519395 132 0.701277V49.0013C132 60.5975 123.034 70 111.983 70Z" fill="#FD6400"/>
<path d="M43.4538 17.3359C40.3896 17.3359 38.1963 19.7185 38.1963 22.6998C38.1963 25.6811 40.3896 27.981 43.5145 27.981C44.4069 27.9936 45.2913 27.8095 46.1057 27.4415C46.8192 27.1078 47.4438 26.6079 47.9278 25.9832C47.9604 25.9424 47.9836 25.8949 47.996 25.844C48.0084 25.7932 48.0096 25.7402 47.9996 25.6888C47.9896 25.6375 47.9685 25.5889 47.938 25.5466C47.9074 25.5043 47.868 25.4692 47.8226 25.4438L46.3538 24.5249C46.2686 24.4683 46.1647 24.4477 46.0646 24.4675C45.9644 24.4874 45.876 24.5461 45.8184 24.631C45.5636 24.9367 45.2543 25.1916 44.9065 25.3826C44.4882 25.5926 44.0263 25.6992 43.5591 25.6937C42.9086 25.7082 42.2769 25.4732 41.7919 25.0362C41.3068 24.5992 41.0046 23.9929 40.9464 23.3399H48.0706C48.4472 23.3399 48.5525 23.1296 48.5525 22.8778V22.3779C48.5453 19.6951 46.5412 17.3359 43.4538 17.3359ZM41.0124 21.6155C41.2783 20.3406 42.2724 19.5063 43.4752 19.5063C44.6138 19.5063 45.6685 20.2417 45.9166 21.6155H41.0124Z" fill="white"/>
<path d="M51.9363 27.6915C51.8081 27.6914 51.6835 27.6482 51.5823 27.5687C51.4811 27.4892 51.4091 27.378 51.3778 27.2527L48.21 18.2818C48.0851 17.9473 48.2707 17.6344 48.6027 17.6344H50.6121C50.9227 17.6344 51.0458 17.8142 51.1297 18.0516L53.3855 24.9583L55.4574 18.0516C55.4782 17.9304 55.5423 17.821 55.6377 17.7441C55.733 17.6673 55.853 17.6282 55.9749 17.6344H57.938C58.27 17.6344 58.4574 17.9473 58.3538 18.2818L55.1844 27.2527C55.1577 27.3761 55.0902 27.4868 54.9929 27.5665C54.8956 27.6462 54.7743 27.6903 54.649 27.6915H51.9363Z" fill="white"/>
<path d="M63.1203 17.3359C60.0597 17.3359 57.8628 19.7185 57.8628 22.6998C57.8628 25.6811 60.0597 27.981 63.1863 27.981C64.0764 27.9931 64.9584 27.809 65.7705 27.4415C66.4854 27.1102 67.1105 26.6099 67.5926 25.9832C67.6254 25.9428 67.6491 25.8957 67.662 25.8452C67.6749 25.7947 67.6768 25.7419 67.6674 25.6906C67.6581 25.6393 67.6378 25.5906 67.6079 25.548C67.578 25.5054 67.5393 25.4698 67.4944 25.4438L66.0185 24.5249C65.9333 24.4683 65.8294 24.4477 65.7293 24.4675C65.6291 24.4874 65.5407 24.5461 65.4831 24.631C65.2302 24.9378 64.9212 25.193 64.573 25.3826C64.1549 25.593 63.6929 25.6996 63.2256 25.6937C62.5753 25.7094 61.9436 25.4746 61.4591 25.0373C60.9747 24.6 60.6739 23.9929 60.6183 23.3399H67.7425C68.1119 23.3399 68.2172 23.1296 68.2172 22.8778V22.3779C68.2172 19.6951 66.2131 17.3359 63.1203 17.3359ZM60.6807 21.6155C60.952 20.3406 61.946 19.5063 63.1435 19.5063C63.736 19.4985 64.311 19.7083 64.7613 20.0964C65.2115 20.4845 65.5062 21.0245 65.5902 21.6155H60.6807Z" fill="white"/>
<path d="M108.072 30.6963C107.978 30.5953 107.923 30.4631 107.919 30.3246C107.915 30.186 107.962 30.0509 108.05 29.9446L108.693 29.0456C108.738 28.9785 108.798 28.9219 108.867 28.8797C108.936 28.8374 109.013 28.8105 109.093 28.8006C109.173 28.7908 109.255 28.7982 109.332 28.8225C109.409 28.8467 109.48 28.8872 109.54 28.9413C109.896 29.2395 110.341 29.4086 110.804 29.4214C111.446 29.4214 111.923 28.9826 112.151 28.3569L112.389 27.6862H111.457C111.337 27.6853 111.221 27.6437 111.127 27.568C111.033 27.4923 110.967 27.387 110.94 27.269L107.916 18.2783C107.833 17.9438 107.895 17.6309 108.35 17.6309H110.492C110.74 17.6309 110.884 17.8395 110.947 18.0679L113.122 25.2461L115.171 18.0679C115.195 17.9432 115.262 17.831 115.36 17.7511C115.458 17.6712 115.58 17.6286 115.706 17.6309H117.753C118.126 17.6309 118.249 17.9025 118.126 18.2783L114.78 28.7705C114.2 30.5686 112.958 31.7338 110.99 31.7338C109.81 31.7338 108.755 31.3382 108.072 30.6909V30.6963Z" fill="white"/>
<path d="M106.767 17.6308H104.939C104.828 17.6369 104.723 17.6861 104.647 17.7682C104.571 17.8503 104.529 17.959 104.531 18.0714V18.8608C104.033 17.9869 102.891 17.3359 101.481 17.3359C98.852 17.3359 96.4731 19.4056 96.4731 22.6387C96.4731 25.8717 98.852 27.981 101.47 27.981C102.878 27.981 104.017 27.33 104.536 26.4561V27.2689C104.534 27.3788 104.576 27.4849 104.651 27.5641C104.727 27.6433 104.83 27.6891 104.939 27.6915H106.767C106.877 27.691 106.982 27.6469 107.059 27.5687C107.137 27.4906 107.18 27.3848 107.181 27.2743V18.0714C107.183 18.015 107.174 17.9587 107.154 17.9059C107.134 17.8532 107.104 17.8049 107.065 17.7639C107.027 17.7229 106.981 17.69 106.929 17.6672C106.878 17.6444 106.823 17.632 106.767 17.6308ZM101.857 25.4941C100.323 25.4941 99.1626 24.2246 99.1626 22.6566C99.1626 21.0887 100.323 19.8408 101.857 19.8408C103.392 19.8408 104.534 21.0995 104.534 22.6566C104.534 24.2138 103.387 25.4941 101.857 25.4941Z" fill="white"/>
<path d="M95.3615 13.8457H93.534C93.4235 13.852 93.3194 13.9002 93.2426 13.9806C93.1658 14.0609 93.122 14.1675 93.12 14.2791L93.0968 18.7744C92.9786 18.583 92.8358 18.4083 92.672 18.2548C91.9315 17.606 90.976 17.2613 89.9951 17.2892C87.4002 17.2892 85.0249 19.3858 85.0249 22.6081C85.0249 25.8573 87.4002 27.9719 90.0397 27.9719C91.4531 27.9719 92.5382 27.321 93.1164 26.4417V27.2599C93.1169 27.3704 93.1606 27.4762 93.2382 27.5543C93.3157 27.6325 93.4208 27.6766 93.5304 27.677H95.3365C95.3925 27.6795 95.4484 27.6705 95.5009 27.6506C95.5534 27.6308 95.6014 27.6005 95.6421 27.5616C95.6827 27.5227 95.7152 27.4759 95.7375 27.424C95.7598 27.3722 95.7715 27.3164 95.7719 27.2599V14.2809C95.7703 14.1696 95.7272 14.063 95.6512 13.9824C95.5751 13.9017 95.4716 13.8529 95.3615 13.8457ZM90.4359 25.4869C88.894 25.4869 87.734 24.2066 87.734 22.6368C87.734 21.0671 88.894 19.8102 90.4359 19.8102C91.9778 19.8102 93.1128 21.0689 93.1128 22.6368C93.1128 24.2048 91.976 25.4887 90.4359 25.4887V25.4869Z" fill="white"/>
<path d="M75.9856 17.6309H73.7762C73.1782 17.6308 72.6044 17.869 72.1799 18.2934C71.7553 18.7177 71.5145 19.294 71.5098 19.8965V18.0696C71.5117 18.0133 71.5024 17.9571 71.4826 17.9044C71.4627 17.8518 71.4326 17.8036 71.3941 17.7628C71.3555 17.7219 71.3093 17.6892 71.2581 17.6666C71.2068 17.6439 71.1517 17.6318 71.0957 17.6309H69.2469C69.1909 17.6315 69.1356 17.6435 69.0842 17.6661C69.0329 17.6886 68.9866 17.7213 68.948 17.7622C68.9094 17.8031 68.8793 17.8514 68.8595 17.9042C68.8398 17.957 68.8307 18.0132 68.8328 18.0696V27.2707C68.8324 27.3258 68.8427 27.3804 68.8633 27.4315C68.8839 27.4825 68.9143 27.5289 68.9528 27.568C68.9913 27.6071 69.0371 27.6382 69.0876 27.6594C69.1381 27.6806 69.1922 27.6915 69.2469 27.6915H71.0904C71.2002 27.6915 71.3055 27.6475 71.3831 27.5693C71.4608 27.4911 71.5044 27.385 71.5044 27.2743V21.5778C71.5034 21.564 71.5034 21.5502 71.5044 21.5364C71.5896 20.9203 71.8657 20.3471 72.2932 19.8983C72.5963 19.5903 72.9581 19.3471 73.3567 19.1834C73.7554 19.0196 74.1828 18.9386 74.6132 18.9453C74.6428 18.9463 74.671 18.9584 74.6922 18.9791C74.7135 18.9999 74.7264 19.0278 74.7284 19.0576C74.7304 19.0873 74.7214 19.1168 74.7031 19.1402C74.6848 19.1637 74.6585 19.1794 74.6293 19.1845C74.6168 19.1845 73.38 19.384 72.6662 20.391C72.4234 20.7374 72.265 21.1366 72.204 21.5562H73.8423C74.4432 21.5557 75.0194 21.315 75.4444 20.8868C75.8693 20.4587 76.1083 19.8781 76.1087 19.2726V17.7657C76.1093 17.7316 76.0968 17.6986 76.0739 17.6735C76.051 17.6484 76.0194 17.6332 75.9856 17.6309Z" fill="white"/>
<path d="M82.2139 30.25C81.8236 30.9594 81.2549 31.5529 80.5649 31.9708C80.5848 32.2839 80.6945 32.5844 80.8808 32.8358C81.067 33.0872 81.3218 33.2786 81.614 33.3867C81.9063 33.4949 82.2234 33.5152 82.5269 33.445C82.8304 33.3749 83.1071 33.2174 83.3233 32.9917C83.5396 32.7661 83.6861 32.4819 83.745 32.1739C83.8039 31.8659 83.7727 31.5472 83.6552 31.2567C83.5376 30.9662 83.3388 30.7164 83.0829 30.5377C82.8271 30.359 82.5252 30.259 82.2139 30.25Z" fill="white"/>
<path d="M39.0974 51.0672V50.2652C39.0974 49.0191 39.9987 48.4815 40.882 48.4815C41.3878 48.4796 41.8792 48.6507 42.2758 48.967C42.3224 49.0139 42.3503 49.0764 42.3543 49.1427C42.3582 49.2089 42.3379 49.2744 42.2973 49.3266L41.8975 49.875C41.7833 50.0548 41.6048 49.9703 41.4995 49.8966C41.3557 49.7922 41.1842 49.7334 41.007 49.7276C40.7143 49.7276 40.4412 49.938 40.4412 50.3821V51.0672H41.4371C41.4954 51.0677 41.5513 51.0914 41.5924 51.1331C41.6335 51.1749 41.6566 51.2313 41.6566 51.2902V51.986C41.6548 52.0441 41.6311 52.0993 41.5903 52.1404C41.5495 52.1815 41.4947 52.2054 41.4371 52.2072H40.4412V55.9348C40.4418 55.9917 40.4203 56.0467 40.3813 56.088C40.3423 56.1292 40.2889 56.1536 40.2324 56.1559H39.3098C39.2523 56.1537 39.1977 56.1297 39.157 56.0887C39.1163 56.0477 39.0925 55.9927 39.0903 55.9348V52.2054H38.4086C38.3514 52.2036 38.2972 52.1795 38.2573 52.1383C38.2174 52.097 38.1948 52.0418 38.1944 51.9843V51.2884C38.1937 51.259 38.1988 51.2299 38.2096 51.2026C38.2203 51.1753 38.2365 51.1505 38.257 51.1297C38.2775 51.1089 38.3019 51.0925 38.3289 51.0814C38.3559 51.0703 38.3848 51.0649 38.4139 51.0654L39.0974 51.0672Z" fill="white"/>
<path d="M44.8083 51.0022C44.8422 51.0006 44.8761 51.0065 44.9075 51.0195C44.9389 51.0326 44.9671 51.0524 44.9901 51.0776C45.0131 51.1028 45.0303 51.1328 45.0405 51.1654C45.0507 51.1981 45.0537 51.2326 45.0492 51.2665V52.1746C45.0512 52.2089 45.0461 52.2433 45.0343 52.2755C45.0225 52.3078 45.0042 52.3372 44.9806 52.362C44.9569 52.3868 44.9285 52.4065 44.897 52.4197C44.8655 52.4329 44.8317 52.4395 44.7975 52.4389H44.5459C43.8749 52.4389 43.4876 52.786 43.4876 53.6635V55.9543C43.4827 56.0096 43.4571 56.061 43.416 56.098C43.3749 56.1351 43.3215 56.155 43.2663 56.1539H42.3455C42.3179 56.1541 42.2906 56.1489 42.265 56.1384C42.2395 56.1279 42.2163 56.1125 42.1967 56.0929C42.1771 56.0734 42.1616 56.0501 42.151 56.0244C42.1403 55.9988 42.1349 55.9713 42.1349 55.9435V51.2881C42.1339 51.2595 42.1387 51.2309 42.1488 51.2042C42.1589 51.1774 42.1742 51.1529 42.1938 51.1321C42.2134 51.1114 42.2369 51.0948 42.2629 51.0833C42.289 51.0718 42.317 51.0656 42.3455 51.0651H43.2146C43.2683 51.0663 43.3196 51.0876 43.3585 51.1249C43.3974 51.1621 43.4212 51.2126 43.4252 51.2665V51.752C43.5451 51.5268 43.7231 51.3382 43.9405 51.2063C44.1578 51.0743 44.4064 51.0038 44.6601 51.0022H44.8083Z" fill="white"/>
<path d="M47.8673 50.9182C48.395 50.9257 48.9089 51.0902 49.3441 51.391C49.7794 51.6919 50.1167 52.1157 50.3135 52.6092C50.5104 53.1026 50.5581 53.6437 50.4506 54.1644C50.3431 54.6851 50.0853 55.1622 49.7094 55.5356C49.3336 55.9091 48.8566 56.1622 48.3384 56.2633C47.8202 56.3643 47.2839 56.3087 46.7969 56.1035C46.3099 55.8983 45.894 55.5526 45.6015 55.1099C45.309 54.6672 45.1529 54.1473 45.1528 53.6155C45.1528 53.258 45.2233 52.9042 45.3601 52.5745C45.497 52.2447 45.6975 51.9457 45.9501 51.6948C46.2027 51.4438 46.5022 51.2459 46.8313 51.1126C47.1604 50.9793 47.5126 50.9132 47.8673 50.9182ZM47.8673 55.036C48.1495 55.0485 48.429 54.9757 48.6698 54.8269C48.9106 54.678 49.1017 54.46 49.2184 54.2008C49.3352 53.9416 49.3722 53.6531 49.3249 53.3725C49.2776 53.0918 49.1479 52.8319 48.9527 52.6262C48.7575 52.4204 48.5057 52.2782 48.2296 52.2179C47.9535 52.1576 47.6658 52.1819 47.4036 52.2877C47.1413 52.3936 46.9165 52.576 46.758 52.8117C46.5996 53.0474 46.5148 53.3254 46.5145 53.6101C46.5076 53.7939 46.5374 53.9773 46.6021 54.1493C46.6668 54.3213 46.7652 54.4785 46.8914 54.6115C47.0175 54.7445 47.1689 54.8506 47.3366 54.9235C47.5042 54.9964 47.6847 55.0347 47.8673 55.036Z" fill="white"/>
<path d="M52.5716 55.955C52.5667 56.0103 52.5411 56.0617 52.5 56.0987C52.4589 56.1358 52.4054 56.1558 52.3503 56.1546H51.4295C51.4019 56.1549 51.3745 56.1496 51.349 56.1391C51.3235 56.1287 51.3002 56.1132 51.2807 56.0936C51.2611 56.0741 51.2455 56.0508 51.2349 56.0252C51.2243 55.9995 51.2189 55.972 51.2189 55.9442V51.2888C51.2179 51.2602 51.2226 51.2317 51.2327 51.2049C51.2429 51.1781 51.2582 51.1536 51.2778 51.1329C51.2974 51.1121 51.3209 51.0955 51.3469 51.084C51.373 51.0725 51.401 51.0663 51.4295 51.0659H52.3503C52.4051 51.0668 52.4578 51.0877 52.4985 51.1247C52.5392 51.1618 52.5651 51.2124 52.5716 51.2673V51.6682C52.7576 51.4289 52.9963 51.2366 53.2689 51.1064C53.5415 50.9763 53.8405 50.9119 54.1421 50.9184C54.897 50.9184 55.4734 51.278 55.7572 51.8175C55.9614 51.5345 56.2301 51.3051 56.5406 51.1486C56.8512 50.9922 57.1946 50.9132 57.5418 50.9184C59.0177 50.9184 59.6994 51.9739 59.6994 53.0762V55.9532C59.6962 56.0089 59.6713 56.061 59.6303 56.0984C59.5892 56.1357 59.5352 56.1553 59.4799 56.1528H58.5751C58.5198 56.1553 58.4658 56.1357 58.4247 56.0984C58.3836 56.061 58.3588 56.0089 58.3556 55.9532V53.4053C58.3556 52.7184 58.0094 52.1807 57.2759 52.1807C56.5424 52.1807 56.1444 52.7202 56.1444 53.4053V55.9604C56.1395 56.0157 56.1139 56.0671 56.0728 56.1041C56.0317 56.1412 55.9782 56.1611 55.9231 56.16H55.013C54.9579 56.1611 54.9044 56.1412 54.8633 56.1041C54.8222 56.0671 54.7966 56.0157 54.7917 55.9604V53.4053C54.7917 52.7184 54.4473 52.1807 53.7209 52.1807C52.9946 52.1807 52.5788 52.7202 52.5788 53.4053L52.5716 55.955Z" fill="white"/>
<path d="M67.5177 50.8868L66.1971 55.9324C66.1795 55.995 66.1424 56.0503 66.0914 56.0901C66.0403 56.13 65.9779 56.1522 65.9133 56.1536H64.3946C64.3296 56.1537 64.2665 56.132 64.2151 56.092C64.1638 56.0519 64.1271 55.9958 64.1108 55.9324L62.3405 49.0995C62.2887 48.8783 62.4137 48.7614 62.5707 48.7614H63.6611C63.7184 48.7682 63.7719 48.7936 63.8134 48.8339C63.855 48.8741 63.8824 48.927 63.8913 48.9844L65.2012 54.4633L66.6289 48.9628C66.6353 48.9043 66.6639 48.8505 66.7089 48.8129C66.7539 48.7754 66.8116 48.7569 66.8699 48.7614H68.1191C68.1751 48.7653 68.2286 48.7868 68.2718 48.8229C68.3151 48.8591 68.3459 48.908 68.36 48.9628L69.7877 54.422L71.0976 48.9844C71.1039 48.9256 71.1306 48.8709 71.1731 48.8301C71.2156 48.7892 71.271 48.7649 71.3296 48.7614H72.3558C72.5236 48.7614 72.6395 48.8459 72.5753 49.0995L70.8157 55.9324C70.7933 55.9921 70.7549 56.0444 70.7048 56.0834C70.6547 56.1225 70.5949 56.1468 70.5319 56.1536H69.0864C69.0216 56.1539 68.9585 56.1323 68.9074 56.0922C68.8563 56.0521 68.82 55.9958 68.8044 55.9324L67.5177 50.8868Z" fill="white"/>
<path d="M74.7795 50.9182C75.3074 50.9253 75.8214 51.0895 76.2569 51.3902C76.6924 51.6908 77.0299 52.1145 77.2271 52.6079C77.4242 53.1014 77.4722 53.6425 77.3649 54.1633C77.2576 54.6841 76.9999 55.1614 76.6241 55.535C76.2484 55.9086 75.7714 56.162 75.2531 56.2631C74.7348 56.3643 74.1984 56.3089 73.7113 56.1037C73.2243 55.8985 72.8083 55.5529 72.5157 55.1101C72.2231 54.6674 72.0669 54.1473 72.0669 53.6154C72.0669 53.2582 72.1373 52.9045 72.274 52.5749C72.4108 52.2453 72.6112 51.9463 72.8635 51.6954C73.1159 51.4444 73.4152 51.2465 73.7441 51.1131C74.0731 50.9797 74.425 50.9134 74.7795 50.9182ZM74.7795 55.036C75.0618 55.0489 75.3415 54.9764 75.5825 54.8277C75.8235 54.6791 76.0149 54.4612 76.1319 54.2021C76.2489 53.9429 76.2863 53.6544 76.2392 53.3737C76.192 53.0929 76.0626 52.8328 75.8674 52.6269C75.6723 52.421 75.4205 52.2786 75.1444 52.2181C74.8682 52.1576 74.5804 52.1818 74.3181 52.2876C74.0557 52.3934 73.8308 52.5758 73.6723 52.8115C73.5137 53.0472 73.4289 53.3253 73.4286 53.61C73.4216 53.7937 73.4514 53.9769 73.516 54.1489C73.5806 54.3208 73.6788 54.4778 73.8048 54.6108C73.9308 54.7438 74.082 54.8499 74.2494 54.923C74.4168 54.996 74.5971 55.0344 74.7795 55.036Z" fill="white"/>
<path d="M80.5757 50.9182C81.1035 50.9257 81.6174 51.0902 82.0526 51.391C82.4879 51.6919 82.8251 52.1157 83.022 52.6092C83.2189 53.1026 83.2666 53.6437 83.1591 54.1644C83.0516 54.6851 82.7938 55.1622 82.4179 55.5356C82.0421 55.9091 81.5651 56.1622 81.0469 56.2633C80.5287 56.3643 79.9923 56.3087 79.5054 56.1035C79.0184 55.8983 78.6025 55.5526 78.31 55.1099C78.0175 54.6672 77.8614 54.1473 77.8613 53.6155C77.8613 53.258 77.9318 52.9042 78.0686 52.5745C78.2055 52.2447 78.406 51.9457 78.6586 51.6948C78.9111 51.4438 79.2107 51.2459 79.5398 51.1126C79.8689 50.9793 80.2211 50.9132 80.5757 50.9182ZM80.5757 55.036C80.858 55.0485 81.1375 54.9757 81.3783 54.8269C81.6191 54.678 81.8101 54.46 81.9269 54.2008C82.0436 53.9416 82.0807 53.6531 82.0334 53.3725C81.986 53.0918 81.8564 52.8319 81.6612 52.6262C81.466 52.4204 81.2142 52.2782 80.9381 52.2179C80.662 52.1576 80.3743 52.1819 80.112 52.2877C79.8498 52.3936 79.625 52.576 79.4665 52.8117C79.3081 53.0474 79.2233 53.3254 79.223 53.6101C79.2161 53.7939 79.2458 53.9773 79.3106 54.1493C79.3753 54.3213 79.4737 54.4785 79.5998 54.6115C79.726 54.7445 79.8774 54.8506 80.045 54.9235C80.2127 54.9964 80.3931 55.0347 80.5757 55.036Z" fill="white"/>
<path d="M83.9165 54.8882V48.9866C83.917 48.9277 83.9404 48.8712 83.9818 48.8295C84.0232 48.7878 84.0792 48.7641 84.1378 48.7637H85.048C85.1065 48.7641 85.1625 48.7878 85.2039 48.8295C85.2453 48.8712 85.2688 48.9277 85.2693 48.9866V54.6238C85.2631 54.6761 85.2685 54.7291 85.2849 54.7791C85.3014 54.8291 85.3285 54.8748 85.3645 54.913C85.4004 54.9513 85.4442 54.9811 85.4928 55.0004C85.5414 55.0197 85.5936 55.0281 85.6458 55.0248H85.9492C85.9767 55.0216 86.0046 55.0245 86.0308 55.0333C86.0571 55.0422 86.0811 55.0567 86.1012 55.0759C86.1213 55.0951 86.1369 55.1185 86.1471 55.1445C86.1572 55.1705 86.1615 55.1984 86.1598 55.2262V55.8915C86.1621 55.9277 86.1565 55.9639 86.1434 55.9977C86.1303 56.0315 86.11 56.0619 86.084 56.087C86.058 56.112 86.0269 56.131 85.9928 56.1425C85.9587 56.1541 85.9225 56.1581 85.8867 56.1541H85.2157C84.3145 56.1541 83.9165 55.6578 83.9165 54.8882Z" fill="white"/>
<path d="M88.9366 56.1545H87.7623C87.6991 56.1525 87.6383 56.1299 87.589 56.09C87.5398 56.05 87.5048 55.9951 87.4893 55.9333L86.033 51.3732C85.9706 51.1826 86.0651 51.0657 86.2329 51.0657H87.218C87.2797 51.0627 87.3404 51.0827 87.3884 51.1218C87.4365 51.1609 87.4686 51.2165 87.4786 51.2779L88.3709 54.529L89.2346 51.2779C89.2444 51.2151 89.2774 51.1584 89.3272 51.1194C89.3769 51.0803 89.4395 51.0617 89.5023 51.0675H90.591C90.6544 51.0629 90.7173 51.082 90.7677 51.1211C90.818 51.1603 90.8523 51.2167 90.864 51.2797L91.7331 54.529L92.6451 51.2779C92.6575 51.2173 92.6905 51.163 92.7384 51.1243C92.7862 51.0856 92.846 51.0649 92.9074 51.0657H93.7872C93.955 51.0657 94.0496 51.1826 93.9871 51.3732L92.5291 55.9333C92.5135 55.9967 92.4772 56.0529 92.4261 56.093C92.3749 56.1332 92.3119 56.1548 92.2471 56.1545H91.1049C91.0396 56.1562 90.9757 56.1351 90.924 56.0948C90.8723 56.0545 90.836 55.9975 90.8212 55.9333L90.0145 52.8765L89.2079 55.9333C89.1947 55.996 89.1606 56.0522 89.1112 56.0924C89.0618 56.1327 89.0002 56.1546 88.9366 56.1545Z" fill="white"/>
<path d="M96.7837 50.9182C97.3115 50.9257 97.8254 51.0902 98.2606 51.391C98.6959 51.6919 99.0332 52.1157 99.23 52.6092C99.4269 53.1026 99.4746 53.6437 99.3671 54.1644C99.2596 54.6851 99.0018 55.1622 98.6259 55.5356C98.2501 55.9091 97.7731 56.1622 97.2549 56.2633C96.7367 56.3643 96.2003 56.3087 95.7134 56.1035C95.2264 55.8983 94.8105 55.5526 94.518 55.1099C94.2255 54.6672 94.0694 54.1473 94.0693 53.6155C94.0693 53.258 94.1398 52.9042 94.2766 52.5745C94.4135 52.2447 94.614 51.9457 94.8666 51.6948C95.1191 51.4438 95.4187 51.2459 95.7478 51.1126C96.0769 50.9793 96.4291 50.9132 96.7837 50.9182ZM96.7837 55.036C97.066 55.0485 97.3455 54.9757 97.5863 54.8269C97.8271 54.678 98.0181 54.46 98.1349 54.2008C98.2517 53.9416 98.2887 53.6531 98.2414 53.3725C98.1941 53.0918 98.0644 52.8319 97.8692 52.6262C97.674 52.4204 97.4222 52.2782 97.1461 52.2179C96.87 52.1576 96.5823 52.1819 96.3201 52.2877C96.0578 52.3936 95.833 52.576 95.6745 52.8117C95.5161 53.0474 95.4313 53.3254 95.431 53.6101C95.4241 53.7939 95.4538 53.9773 95.5186 54.1493C95.5833 54.3213 95.6817 54.4785 95.8079 54.6115C95.934 54.7445 96.0854 54.8506 96.2531 54.9235C96.4207 54.9964 96.6012 55.0347 96.7837 55.036Z" fill="white"/>
<path d="M102.807 51.0023C102.841 51.0004 102.875 51.0061 102.907 51.019C102.938 51.0319 102.966 51.0517 102.99 51.077C103.013 51.1023 103.03 51.1324 103.04 51.1652C103.05 51.198 103.053 51.2327 103.048 51.2666V52.1747C103.05 52.209 103.045 52.2434 103.033 52.2756C103.021 52.3079 103.003 52.3373 102.979 52.3621C102.956 52.387 102.927 52.4066 102.896 52.4198C102.864 52.433 102.83 52.4396 102.796 52.439H102.546C101.875 52.439 101.488 52.7861 101.488 53.6636V55.9544C101.483 56.0097 101.458 56.0611 101.416 56.0981C101.375 56.1352 101.322 56.1551 101.267 56.154H100.346C100.318 56.1542 100.291 56.149 100.266 56.1385C100.24 56.128 100.217 56.1126 100.197 56.093C100.178 56.0735 100.162 56.0502 100.151 56.0246C100.141 55.9989 100.135 55.9714 100.135 55.9436V51.2882C100.134 51.2596 100.139 51.2311 100.149 51.2043C100.159 51.1775 100.175 51.153 100.194 51.1323C100.214 51.1115 100.237 51.0949 100.263 51.0834C100.289 51.0719 100.318 51.0657 100.346 51.0653H101.215C101.269 51.0665 101.32 51.0878 101.358 51.1251C101.397 51.1624 101.42 51.2129 101.424 51.2666V51.7521C101.544 51.527 101.723 51.3386 101.94 51.2067C102.158 51.0748 102.407 51.0042 102.661 51.0023H102.807Z" fill="white"/>
<path d="M107.549 55.404C107.588 55.4554 107.607 55.5198 107.601 55.5844C107.595 55.6489 107.566 55.7091 107.518 55.7528C107.126 56.1019 106.614 56.2837 106.091 56.2599C105.254 56.2599 104.415 55.796 104.415 54.6559V52.2051H103.722C103.666 52.2032 103.612 52.179 103.573 52.1377C103.533 52.0964 103.511 52.0412 103.512 51.9839V51.288C103.511 51.2595 103.515 51.231 103.525 51.2042C103.535 51.1774 103.55 51.1529 103.57 51.1322C103.589 51.1114 103.612 51.0947 103.638 51.0832C103.664 51.0717 103.692 51.0655 103.721 51.0651H104.413V49.6517C104.412 49.6224 104.418 49.5932 104.428 49.5659C104.439 49.5387 104.455 49.5139 104.476 49.4931C104.496 49.4722 104.521 49.4558 104.548 49.4447C104.575 49.4337 104.604 49.4282 104.633 49.4287H105.555C105.584 49.4292 105.612 49.4354 105.638 49.4469C105.664 49.4584 105.687 49.4751 105.706 49.4958C105.726 49.5166 105.741 49.5411 105.751 49.5679C105.761 49.5947 105.765 49.6232 105.764 49.6517V51.0668H107.231C107.29 51.0673 107.346 51.091 107.387 51.1327C107.428 51.1744 107.452 51.2308 107.452 51.2898V51.9857C107.45 52.0439 107.426 52.0992 107.385 52.1402C107.344 52.1813 107.289 52.2051 107.231 52.2069H105.764V54.3503C105.764 54.8681 106.1 55.0048 106.341 55.0048C106.513 54.999 106.68 54.9441 106.822 54.8466C106.979 54.7512 107.136 54.7513 107.231 54.8897L107.549 55.404Z" fill="white"/>
<path d="M111.877 53.4946C111.877 52.6927 111.427 52.1748 110.651 52.1748C109.874 52.1748 109.384 52.7142 109.384 53.4946V55.9545C109.379 56.0098 109.353 56.0612 109.312 56.0982C109.271 56.1353 109.217 56.1552 109.162 56.1541H108.241C108.214 56.1543 108.186 56.1491 108.161 56.1386C108.135 56.1281 108.112 56.1127 108.093 56.0931C108.073 56.0736 108.057 56.0503 108.047 56.0246C108.036 55.999 108.031 55.9715 108.031 55.9437V48.9759C108.031 48.9196 108.053 48.8657 108.092 48.8259C108.132 48.7861 108.185 48.7637 108.241 48.7637H109.162C109.218 48.7626 109.271 48.7828 109.312 48.8202C109.354 48.8577 109.379 48.9095 109.384 48.9651V51.6623C109.676 51.2505 110.253 50.9125 111.059 50.9125C112.401 50.9125 113.228 51.8637 113.228 53.1188V55.9491C113.224 56.0048 113.2 56.0569 113.158 56.0942C113.117 56.1316 113.063 56.1512 113.008 56.1487H112.096C112.041 56.1512 111.987 56.1316 111.946 56.0942C111.905 56.0569 111.88 56.0048 111.877 55.9491V53.4946Z" fill="white"/>
<path d="M117.994 51.5612C118.026 51.586 118.051 51.6176 118.069 51.6537C118.088 51.6898 118.097 51.7295 118.098 51.7699C118.099 51.8104 118.092 51.8505 118.075 51.8875C118.059 51.9245 118.035 51.9573 118.005 51.9838L117.669 52.3848C117.544 52.5322 117.387 52.5322 117.198 52.4171C116.853 52.1545 116.436 52.0034 116.004 51.9838C115.544 51.9838 115.249 52.196 115.249 52.4387C115.249 52.6815 115.428 52.8397 115.888 52.9242L116.716 53.0824C117.608 53.2515 118.256 53.683 118.256 54.6019C118.256 55.5837 117.335 56.3029 116.004 56.3029C115.314 56.3196 114.637 56.108 114.077 55.7005C113.688 55.4038 113.709 55.1611 113.918 54.9921L114.307 54.6756C114.339 54.6456 114.378 54.6226 114.419 54.6079C114.461 54.5933 114.505 54.5873 114.549 54.5903C114.593 54.5933 114.636 54.6053 114.676 54.6255C114.715 54.6458 114.75 54.6738 114.778 54.708C115.127 55.0397 115.587 55.2282 116.066 55.2366C116.602 55.2366 116.873 54.9921 116.873 54.7295C116.873 54.4328 116.591 54.3286 116.066 54.2225L115.26 54.0534C114.442 53.8844 113.898 53.3665 113.898 52.543C113.898 51.6241 114.735 50.9247 116.04 50.9247C116.745 50.9001 117.436 51.1254 117.994 51.5612Z" fill="white"/>
<path d="M30.1243 17.6221H19.0043C17.6046 17.6225 16.2623 18.1831 15.2727 19.1806C14.2831 20.178 13.7272 21.5306 13.7272 22.941V26.1633C13.7807 26.1057 13.8289 26.0446 13.8842 25.9834C16.1757 23.6081 19.372 22.2972 22.8912 22.2972C23.0081 22.2974 23.1207 22.342 23.2063 22.4222C23.292 22.5024 23.3445 22.6121 23.3533 22.7296C23.362 22.8471 23.3265 22.9635 23.2538 23.0557C23.181 23.1479 23.0764 23.209 22.9608 23.2269C22.9091 23.2269 18.0924 23.9947 15.3298 27.9021C14.5608 29.0042 14.015 30.2482 13.7236 31.5631V44.7543C13.7236 44.802 13.7424 44.8477 13.7759 44.8814C13.8094 44.9152 13.8548 44.9341 13.9021 44.9341H25.0221C26.4221 44.9341 27.7649 44.3737 28.7548 43.3762C29.7448 42.3787 30.301 41.0258 30.301 39.6152V17.8019C30.301 17.7545 30.2825 17.709 30.2494 17.6754C30.2163 17.6417 30.1713 17.6225 30.1243 17.6221Z" fill="white"/>
<path d="M41.3232 44.216C41.3137 44.3258 41.2634 44.428 41.1823 44.5021C41.1012 44.5761 40.9953 44.6165 40.8859 44.6152H39.0567C38.9465 44.6147 38.8411 44.5704 38.7632 44.492C38.6853 44.4135 38.6413 44.3072 38.6409 44.1962V34.9609C38.639 34.9044 38.6483 34.848 38.6682 34.7951C38.6882 34.7422 38.7184 34.6938 38.7571 34.6528C38.7958 34.6118 38.8422 34.579 38.8937 34.5562C38.9451 34.5335 39.0005 34.5213 39.0567 34.5204H40.8859C40.9942 34.5222 41.0981 34.5635 41.1785 34.6365C41.2588 34.7096 41.3102 34.8095 41.3232 34.9178V35.7144C41.9049 34.8764 43.0899 34.2273 44.4409 34.2273C45.9364 34.2273 47.0804 34.9466 47.6407 36.0075C48.0478 35.4448 48.5834 34.9893 49.2022 34.6794C49.821 34.3695 50.5048 34.2145 51.1957 34.2273C54.126 34.2273 55.4788 36.3221 55.4788 38.4997V44.216C55.4728 44.3271 55.4235 44.4314 55.3416 44.5062C55.2598 44.5809 55.1519 44.6201 55.0416 44.6152H53.232C53.1218 44.6201 53.0141 44.5808 52.9325 44.5061C52.851 44.4313 52.8021 44.327 52.7965 44.216V39.1488C52.7965 37.7876 52.1094 36.7195 50.655 36.7195C49.2005 36.7195 48.4099 37.7876 48.4099 39.1488V44.216C48.4009 44.3257 48.3509 44.4279 48.2701 44.5019C48.1893 44.576 48.0837 44.6165 47.9744 44.6152H46.1648C46.0556 44.6165 45.95 44.576 45.8692 44.5019C45.7884 44.4279 45.7384 44.3257 45.7294 44.216V39.1488C45.7294 37.7876 45.0423 36.7195 43.5878 36.7195C42.1334 36.7195 41.3232 37.7876 41.3232 39.1488V44.216Z" fill="white"/>
<path d="M62.1816 34.2275C65.1744 34.2275 67.564 36.5651 67.564 39.5878C67.564 42.6105 65.1744 44.9085 62.1816 44.9085C59.1888 44.9085 56.7974 42.5835 56.7974 39.5878C56.7974 36.5921 59.1888 34.2275 62.1816 34.2275ZM62.1816 42.3947C63.7199 42.3947 64.8585 41.136 64.8585 39.568C64.8585 38 63.7164 36.7413 62.1816 36.7413C60.6468 36.7413 59.5046 38 59.5046 39.568C59.5046 41.136 60.6432 42.3947 62.1816 42.3947Z" fill="white"/>
<path d="M74.5134 44.9087C73.1 44.9087 72.015 44.2596 71.4368 43.3803V44.1966C71.4363 44.3076 71.3923 44.4139 71.3144 44.4924C71.2366 44.5708 71.1311 44.6151 71.0209 44.6156H69.2131C69.157 44.6175 69.101 44.6082 69.0485 44.588C68.996 44.5679 68.948 44.5375 68.9073 44.4985C68.8666 44.4595 68.834 44.4127 68.8115 44.3609C68.7889 44.3091 68.7768 44.2532 68.7759 44.1966V30.3743C68.7768 30.3177 68.7889 30.2619 68.8115 30.21C68.834 30.1582 68.8666 30.1114 68.9073 30.0724C68.948 30.0334 68.996 30.003 69.0485 29.9829C69.101 29.9628 69.157 29.9534 69.2131 29.9553H71.0209C71.1334 29.9547 71.2417 29.998 71.3232 30.0761C71.4048 30.1542 71.4531 30.2611 71.4582 30.3743V35.7148C71.9561 34.8768 73.1197 34.2277 74.5545 34.2277C77.1529 34.2277 79.5211 36.3226 79.5211 39.5466C79.5211 42.7707 77.1529 44.9087 74.5134 44.9087ZM74.1173 36.7415C72.5789 36.7415 71.4403 38.0002 71.4403 39.5682C71.4403 41.1362 72.5825 42.4165 74.1173 42.4165C75.652 42.4165 76.821 41.138 76.821 39.5682C76.821 37.9984 75.6556 36.7415 74.1173 36.7415Z" fill="white"/>
<path d="M81.2469 44.6154C81.1313 44.6145 81.0206 44.5678 80.9388 44.4854C80.857 44.4029 80.8106 44.2914 80.8097 44.1749V34.9612C80.8082 34.9029 80.8185 34.845 80.84 34.7909C80.8615 34.7367 80.8936 34.6876 80.9345 34.6464C80.9754 34.6052 81.0242 34.5728 81.0779 34.5512C81.1316 34.5295 81.1891 34.5192 81.2469 34.5206H83.0548C83.1126 34.5192 83.1701 34.5295 83.2238 34.5512C83.2775 34.5728 83.3263 34.6052 83.3672 34.6464C83.4081 34.6876 83.4403 34.7367 83.4617 34.7909C83.4832 34.845 83.4935 34.9029 83.492 34.9612V44.1749C83.4911 44.2914 83.4447 44.4029 83.3629 44.4854C83.2811 44.5678 83.1704 44.6145 83.0548 44.6154H81.2469Z" fill="white"/>
<path d="M85.1465 42.0983V30.3888C85.1474 30.2722 85.1938 30.1607 85.2756 30.0783C85.3574 29.9959 85.468 29.9492 85.5837 29.9482H87.3915C87.507 29.9492 87.6175 29.996 87.699 30.0784C87.7806 30.1609 87.8265 30.2724 87.827 30.3888V41.5715C87.827 42.0534 88.0768 42.368 88.5765 42.368H89.1797C89.2339 42.3619 89.2887 42.3678 89.3404 42.3853C89.3921 42.4028 89.4393 42.4315 89.4788 42.4694C89.5183 42.5072 89.549 42.5534 89.5689 42.6045C89.5887 42.6557 89.5972 42.7106 89.5938 42.7654V44.0853C89.5988 44.1567 89.5883 44.2284 89.563 44.2953C89.5376 44.3622 89.498 44.4227 89.447 44.4725C89.396 44.5224 89.3348 44.5604 89.2676 44.5839C89.2005 44.6074 89.1291 44.6158 89.0584 44.6085H87.727C85.9371 44.6121 85.1465 43.6267 85.1465 42.0983Z" fill="white"/>
<path d="M100.11 39.2691V39.7726C100.11 40.0225 100.007 40.2329 99.6322 40.2329H92.4812C92.5373 40.8891 92.8394 41.4991 93.3261 41.9387C93.8128 42.3783 94.4475 42.6145 95.101 42.5993C95.5698 42.6043 96.0329 42.4964 96.452 42.2846C96.8021 42.0955 97.1124 41.8396 97.3657 41.5312C97.4238 41.4469 97.5123 41.3889 97.6123 41.3694C97.7123 41.3499 97.8159 41.3706 97.9011 41.4269L99.377 42.3475C99.4223 42.3731 99.4615 42.4083 99.4919 42.4507C99.5223 42.4931 99.5431 42.5417 99.553 42.5931C99.5628 42.6444 99.5615 42.6973 99.5489 42.7481C99.5364 42.7989 99.513 42.8463 99.4805 42.887C98.9961 43.5162 98.3687 44.0188 97.6512 44.3525C96.8351 44.7212 95.9488 44.9053 95.0546 44.8919C91.9154 44.8919 89.7114 42.5885 89.7114 39.5946C89.7114 36.6007 91.9154 34.2109 94.9921 34.2109C98.0688 34.2109 100.11 36.5881 100.11 39.2691ZM95.0171 36.4011C93.8125 36.4011 92.8149 37.239 92.5436 38.5157H97.4692C97.2211 37.1329 96.1611 36.4011 95.0171 36.4011Z" fill="white"/>
<path d="M78.1363 31.714C80.0993 31.714 81.3486 30.547 81.9268 28.7506L85.2712 18.253C85.3961 17.8772 85.2712 17.6075 84.8982 17.6075H82.8494C82.7234 17.6052 82.6007 17.6478 82.5027 17.7277C82.4048 17.8076 82.338 17.9198 82.3141 18.0445L80.2635 25.2227L78.0881 18.0445C78.0274 17.8143 77.8828 17.6075 77.633 17.6075H76.9584V19.2402C76.9586 20.0345 76.6572 20.7988 76.1161 21.3764L78.0791 27.2438C78.1068 27.3617 78.1731 27.4669 78.2673 27.5422C78.3615 27.6176 78.4782 27.6588 78.5985 27.6591H79.53L79.2909 28.3316C79.0625 28.9574 78.586 29.3944 77.9453 29.3944C77.4825 29.3821 77.0374 29.2129 76.6818 28.9142C76.5677 28.8248 76.4283 28.7744 76.2838 28.7704C76.1943 28.7721 76.1065 28.7956 76.0279 28.8388C75.9493 28.882 75.8822 28.9437 75.8323 29.0185L75.1898 29.9176C75.1024 30.0239 75.0564 30.1586 75.0603 30.2966C75.0642 30.4346 75.1179 30.5664 75.2113 30.6674C75.9001 31.3184 76.9548 31.714 78.1363 31.714Z" fill="white"/>
</g>
<defs>
<clipPath id="clip0_5342_22924">
<rect width="132" height="70" fill="white"/>
</clipPath>
</defs>
</svg>
