<svg width="144" height="69" viewBox="0 0 144 69" fill="none" xmlns="http://www.w3.org/2000/svg">
<g clip-path="url(#clip0_5342_22902)">
<path d="M123.126 69H0.695793C0.311517 69 0 68.6911 0 68.31V20.7C0 9.2677 9.3455 0 20.8738 0H143.304C143.688 0 144 0.308923 144 0.690001V48.3C144 59.7323 134.654 69 123.126 69Z" fill="#FD6400"/>
<path d="M49.9157 17.0596C46.8464 17.0596 44.6509 19.4035 44.6509 22.339C44.6509 25.2744 46.8464 27.5362 49.9766 27.5362C50.9941 27.5362 51.8458 27.3281 52.5703 26.9995C53.3169 26.649 53.9584 26.1396 54.3953 25.5646C54.5225 25.4003 54.5225 25.1703 54.2902 25.0279L52.8191 24.1243C52.5924 24.0039 52.4265 24.064 52.2827 24.2283C51.9896 24.557 51.7186 24.7815 51.3702 24.9677C50.9941 25.1538 50.5572 25.2744 50.0208 25.2744C48.6714 25.2744 47.5543 24.3488 47.405 22.9578H54.5391C54.9151 22.9578 55.0202 22.7497 55.0202 22.5033V22.0103C55.0202 19.3816 53.0072 17.0596 49.9157 17.0596ZM47.4713 21.2711C47.7368 20.0169 48.7322 19.1954 49.9378 19.1954C51.0771 19.1954 52.1334 19.9183 52.3822 21.2711H47.4713Z" fill="white"/>
<path d="M58.4096 27.2474C58.1194 27.2474 57.9325 27.0627 57.8498 26.8163L54.677 17.9862C54.5525 17.6574 54.739 17.3496 55.071 17.3496H57.0824C57.3934 17.3496 57.5182 17.5343 57.6009 17.7605L59.861 24.5574L61.9348 17.7605C61.9966 17.5343 62.1421 17.3496 62.4533 17.3496H64.4233C64.7553 17.3496 64.9418 17.6574 64.8381 17.9862L61.6649 26.8163C61.6028 27.0627 61.3957 27.2474 61.1261 27.2474H58.4096Z" fill="white"/>
<path d="M69.6081 17.0596C66.5443 17.0596 64.3433 19.4035 64.3433 22.339C64.3433 25.2744 66.5443 27.5362 69.6745 27.5362C70.6865 27.5362 71.5382 27.3281 72.2627 26.9995C73.0092 26.649 73.6563 26.1396 74.0877 25.5646C74.2148 25.4003 74.2148 25.1703 73.9881 25.0279L72.5115 24.1243C72.2848 24.0039 72.1189 24.064 71.9751 24.2283C71.6819 24.557 71.4165 24.7815 71.0626 24.9677C70.6865 25.1538 70.2552 25.2744 69.7132 25.2744C68.3638 25.2744 67.2467 24.3488 67.1029 22.9578H74.237C74.6075 22.9578 74.7126 22.7497 74.7126 22.5033V22.0103C74.7126 19.3816 72.6995 17.0596 69.6081 17.0596ZM67.1637 21.2711C67.4347 20.0169 68.4302 19.1954 69.6302 19.1954C70.7695 19.1954 71.8313 19.9183 72.0802 21.2711H67.1637Z" fill="white"/>
<path d="M114.62 30.2071C114.433 30.0224 114.412 29.7148 114.599 29.4684L115.242 28.585C115.49 28.2568 115.843 28.2978 116.092 28.4825C116.445 28.7495 116.859 28.9549 117.357 28.9549C117.999 28.9549 118.477 28.5238 118.705 27.9076L118.944 27.2472H118.011C117.741 27.2472 117.576 27.0829 117.492 26.8369L114.465 17.986C114.382 17.6572 114.444 17.3496 114.9 17.3496H117.036C117.285 17.3496 117.43 17.5545 117.492 17.7805L119.67 24.8446L121.723 17.7805C121.785 17.5545 121.951 17.3496 122.262 17.3496H124.315C124.688 17.3496 124.812 17.6162 124.688 17.986L121.338 28.318C120.758 30.0842 119.513 31.234 117.543 31.234C116.361 31.234 115.304 30.8445 114.62 30.2071Z" fill="white"/>
<path d="M113.314 17.3498H111.484C111.279 17.3498 111.075 17.536 111.075 17.7825V18.5601C110.577 17.7003 109.432 17.0596 108.022 17.0596C105.389 17.0596 103.006 19.0968 103.006 22.2787C103.006 25.4606 105.389 27.5362 108.005 27.5362C109.415 27.5362 110.555 26.8954 111.075 26.0356V26.8352C111.075 27.0597 111.257 27.2459 111.484 27.2459H113.314C113.541 27.2459 113.729 27.0597 113.729 26.8352V17.7825C113.729 17.536 113.541 17.3498 113.314 17.3498ZM108.398 25.0882C106.86 25.0882 105.699 23.8395 105.699 22.2951C105.699 20.7562 106.86 19.524 108.398 19.524C109.93 19.524 111.075 20.7562 111.075 22.2951C111.075 23.8395 109.93 25.0882 108.398 25.0882Z" fill="white"/>
<path d="M101.893 13.626H100.063C99.858 13.626 99.6534 13.8122 99.6478 14.0532L99.6257 18.4837C99.5149 18.3027 99.3704 18.1314 99.1999 17.973C98.5958 17.4119 97.6444 17.0214 96.5232 17.0214C93.924 17.0214 91.5459 19.0861 91.5459 22.257C91.5459 25.4553 93.924 27.5364 96.5674 27.5364C97.9832 27.5364 99.0616 26.8956 99.6478 26.0303V26.8354C99.6478 27.0599 99.8359 27.2461 100.063 27.2461H101.871C102.125 27.2461 102.308 27.0599 102.308 26.8354V23.1113V14.0586V14.0532C102.302 13.8122 102.098 13.626 101.893 13.626ZM96.9601 25.0829C95.4171 25.0829 94.2558 23.8233 94.2558 22.2789C94.2558 20.7345 95.4171 19.4968 96.9601 19.4968C98.503 19.4968 99.6478 20.7345 99.6478 22.2789C99.6478 23.8233 98.503 25.0829 96.9601 25.0829Z" fill="white"/>
<path d="M82.492 17.3498H80.2794C79.0317 17.3498 78.0198 18.3467 78.0095 19.5794V17.781C78.0095 17.534 77.8224 17.3496 77.5944 17.3496H75.7491C75.521 17.3496 75.334 17.534 75.334 17.781V26.8371C75.334 27.0628 75.5204 27.2474 75.7483 27.2474H77.5951C77.823 27.2474 78.0095 27.0628 78.0095 26.8371L78.0101 21.2302C78.0101 21.2166 78.0111 21.2028 78.0131 21.1893C78.1046 20.5752 78.3745 20.0159 78.8033 19.5775C79.3958 18.9728 80.2227 18.6399 81.1325 18.6399C81.1953 18.6399 81.2471 18.6877 81.252 18.7498C81.2564 18.8119 81.2122 18.8669 81.1502 18.8756C81.1373 18.8776 79.8917 19.0708 79.1774 20.0618C78.9385 20.394 78.7848 20.7775 78.716 21.2097H80.3551C81.609 21.2097 82.6255 20.203 82.6255 18.9613V17.482C82.6255 17.409 82.5657 17.3498 82.492 17.3498Z" fill="white"/>
<path d="M91.4187 17.3496H89.3665C89.0549 17.3496 88.8891 17.5545 88.827 17.7805L86.7738 24.8446L84.5965 17.7805C84.5341 17.5545 84.3894 17.3496 84.1406 17.3496H83.465V18.9613C83.465 19.7742 83.143 20.5125 82.6216 21.0634L84.5965 26.8369C84.6796 27.0829 84.8457 27.2472 85.1154 27.2472H86.0483L85.8087 27.9076C85.5808 28.5238 85.1037 28.9549 84.4613 28.9549C83.963 28.9549 83.5486 28.7494 83.1957 28.4824C82.9476 28.2978 82.5948 28.2568 82.3459 28.585L81.7027 29.4684C81.5158 29.7148 81.5372 30.0224 81.7237 30.2071C82.4079 30.8444 83.4653 31.234 84.6474 31.234C86.6178 31.234 87.8619 30.0842 88.4424 28.3179L91.7921 17.986C91.9164 17.6162 91.7921 17.3496 91.4187 17.3496Z" fill="white"/>
<path d="M45.5532 50.2557V49.4659C45.5532 48.24 46.4556 47.71 47.3474 47.71C47.8091 47.71 48.3966 47.8762 48.7429 48.188C48.8374 48.2711 48.8479 48.4166 48.7639 48.5412L48.3652 49.0816C48.2498 49.2582 48.0714 49.1751 47.9665 49.1023C47.7776 48.9775 47.5992 48.9361 47.4733 48.9361C47.1795 48.9361 46.9068 49.1438 46.9068 49.5804V50.2557H47.9035C48.0189 50.2557 48.1239 50.3492 48.1239 50.4738V51.1597C48.1239 51.2739 48.0189 51.3778 47.9035 51.3778H46.9068V55.0455C46.9068 55.16 46.8123 55.2638 46.6969 55.2638H45.7736C45.6582 55.2638 45.5532 55.16 45.5532 55.0455V51.3778H44.8712C44.7453 51.3778 44.6509 51.2739 44.6509 51.1597V50.4738C44.6509 50.3492 44.7453 50.2557 44.8712 50.2557H45.5532Z" fill="white"/>
<path d="M51.2712 50.1934C51.3762 50.1934 51.5126 50.2454 51.5126 50.4531V51.3467C51.5126 51.5544 51.3447 51.6065 51.2608 51.6065H51.009C50.3374 51.6065 49.9493 51.9493 49.9493 52.8116V55.0666C49.9493 55.1808 49.8338 55.2639 49.7289 55.2639H48.8056C48.6902 55.2639 48.5957 55.1704 48.5957 55.0562V50.4738C48.5957 50.3492 48.6902 50.2558 48.8056 50.2558H49.6764C49.7814 50.2558 49.8862 50.3492 49.8862 50.4531V50.9311C50.1486 50.4842 50.5893 50.1934 51.1244 50.1934H51.2712Z" fill="white"/>
<path d="M54.3347 50.1104C55.8456 50.1104 57.0522 51.2741 57.0522 52.7703C57.0522 54.2562 55.8456 55.4095 54.3347 55.4095C52.8238 55.4095 51.6172 54.2562 51.6172 52.7703C51.6172 51.2741 52.8238 50.1104 54.3347 50.1104ZM54.3347 54.1627C55.1111 54.1627 55.6883 53.5391 55.6883 52.7599C55.6883 51.9805 55.1111 51.3572 54.3347 51.3572C53.5583 51.3572 52.9812 51.9805 52.9812 52.7599C52.9812 53.5391 53.5583 54.1627 54.3347 54.1627Z" fill="white"/>
<path d="M59.0449 55.0667C59.0449 55.1809 58.9295 55.264 58.8246 55.264H57.9013C57.7858 55.264 57.6914 55.1705 57.6914 55.0563V50.4739C57.6914 50.3494 57.7858 50.2559 57.9013 50.2559H58.8246C58.9295 50.2559 59.0449 50.3494 59.0449 50.4532V50.8481C59.3387 50.4325 59.9368 50.1104 60.6188 50.1104C61.3743 50.1104 61.9513 50.4636 62.2346 50.9936C62.7068 50.3597 63.3783 50.1104 64.0288 50.1104C65.5082 50.1104 66.1903 51.1493 66.1903 52.2301V55.0667C66.1903 55.1809 66.0854 55.264 65.9699 55.264H65.0571C64.9417 55.264 64.8367 55.1809 64.8367 55.0667V52.552C64.8367 51.8767 64.4905 51.3468 63.756 51.3468C63.0216 51.3468 62.6229 51.8767 62.6229 52.552V55.0667C62.6229 55.1809 62.5075 55.264 62.4025 55.264H61.4897C61.3847 55.264 61.2693 55.1809 61.2693 55.0667V52.552C61.2693 51.8767 60.9231 51.3468 60.1886 51.3468C59.4541 51.3468 59.0449 51.8767 59.0449 52.552V55.0667Z" fill="white"/>
<path d="M74.0113 50.0789L72.6892 55.0454C72.6472 55.2012 72.5004 55.2636 72.4059 55.2636H70.8845C70.7796 55.2636 70.6432 55.2012 70.6012 55.0454L68.828 48.3227C68.7756 48.1047 68.9015 47.9902 69.0589 47.9902H70.1501C70.2655 47.9902 70.3494 48.0943 70.3809 48.2085L71.6925 53.6012L73.13 48.1878C73.1614 48.0736 73.2139 47.9902 73.3712 47.9902H74.6303C74.7457 47.9902 74.8402 48.0839 74.8716 48.1878L76.3091 53.5597L77.6207 48.2085C77.6416 48.0943 77.7256 47.9902 77.8515 47.9902H78.8798C79.0477 47.9902 79.1631 48.0736 79.1001 48.3227L77.3374 55.0454C77.2954 55.2012 77.1066 55.2636 77.0541 55.2636H75.6062C75.5012 55.2636 75.3648 55.2012 75.3228 55.0454L74.0113 50.0789Z" fill="white"/>
<path d="M81.2752 50.1104C82.7861 50.1104 83.9928 51.2741 83.9928 52.7703C83.9928 54.2562 82.7861 55.4095 81.2752 55.4095C79.7643 55.4095 78.5576 54.2562 78.5576 52.7703C78.5576 51.2741 79.7643 50.1104 81.2752 50.1104ZM81.2752 54.1627C82.0516 54.1627 82.6287 53.5391 82.6287 52.7599C82.6287 51.9805 82.0516 51.3572 81.2752 51.3572C80.4987 51.3572 79.9217 51.9805 79.9217 52.7599C79.9217 53.5391 80.4987 54.1627 81.2752 54.1627Z" fill="white"/>
<path d="M87.0872 50.1104C88.5981 50.1104 89.8048 51.2741 89.8048 52.7703C89.8048 54.2562 88.5981 55.4095 87.0872 55.4095C85.5763 55.4095 84.3696 54.2562 84.3696 52.7703C84.3696 51.2741 85.5763 50.1104 87.0872 50.1104ZM87.0872 54.1627C87.8636 54.1627 88.4407 53.5391 88.4407 52.7599C88.4407 51.9805 87.8636 51.3572 87.0872 51.3572C86.3108 51.3572 85.7337 51.9805 85.7337 52.7599C85.7337 53.5391 86.3108 54.1627 87.0872 54.1627Z" fill="white"/>
<path d="M90.4336 54.0168V48.2085C90.4336 48.0943 90.5281 47.9902 90.654 47.9902H91.5668C91.6927 47.9902 91.7872 48.0943 91.7872 48.2085V53.7571C91.7872 53.9961 91.9131 54.152 92.1649 54.152H92.4692C92.5741 54.152 92.679 54.2038 92.679 54.3493V55.0039C92.679 55.2222 92.5112 55.2636 92.4062 55.2636H91.7347C90.8324 55.2636 90.4336 54.7753 90.4336 54.0168Z" fill="white"/>
<path d="M95.4593 55.264H94.2841C94.1477 55.264 94.0532 55.1705 94.0112 55.0457L92.5528 50.557C92.4899 50.3701 92.5843 50.2559 92.7521 50.2559H93.7385C93.8959 50.2559 93.9693 50.3493 94.0008 50.4636L94.8926 53.6639L95.7635 50.4636C95.8055 50.318 95.8894 50.2559 96.0258 50.2559H97.117C97.2534 50.2559 97.3479 50.318 97.3899 50.4636L98.2607 53.6639L99.1735 50.4636C99.205 50.3597 99.2785 50.2559 99.4359 50.2559H100.317C100.485 50.2559 100.58 50.3701 100.517 50.557L99.0581 55.0457C99.0162 55.1705 98.9217 55.264 98.7749 55.264H97.6312C97.4843 55.264 97.3793 55.1705 97.3479 55.0457L96.5399 52.0429L95.732 55.0457C95.7005 55.1705 95.5956 55.264 95.4593 55.264Z" fill="white"/>
<path d="M103.317 50.1104C104.828 50.1104 106.035 51.2741 106.035 52.7703C106.035 54.2562 104.828 55.4095 103.317 55.4095C101.806 55.4095 100.6 54.2562 100.6 52.7703C100.6 51.2741 101.806 50.1104 103.317 50.1104ZM103.317 54.1627C104.094 54.1627 104.671 53.5391 104.671 52.7599C104.671 51.9805 104.094 51.3572 103.317 51.3572C102.541 51.3572 101.964 51.9805 101.964 52.7599C101.964 53.5391 102.541 54.1627 103.317 54.1627Z" fill="white"/>
<path d="M109.349 50.1934C109.454 50.1934 109.591 50.2454 109.591 50.4531V51.3467C109.591 51.5544 109.423 51.6065 109.339 51.6065H109.087C108.416 51.6065 108.027 51.9493 108.027 52.8116V55.0666C108.027 55.1808 107.912 55.2639 107.807 55.2639H106.884C106.768 55.2639 106.674 55.1704 106.674 55.0562V50.4738C106.674 50.3492 106.768 50.2558 106.884 50.2558H107.755C107.86 50.2558 107.964 50.3492 107.964 50.4531V50.9311C108.227 50.4842 108.667 50.1934 109.203 50.1934H109.349Z" fill="white"/>
<path d="M114.098 54.5265C114.182 54.6513 114.161 54.7759 114.066 54.8694C113.741 55.1915 113.216 55.3681 112.639 55.3681C111.8 55.3681 110.96 54.9111 110.96 53.7888V51.3782H110.268C110.153 51.3782 110.058 51.2744 110.058 51.1602V50.4742C110.058 50.3497 110.153 50.2562 110.268 50.2562H110.96V48.8638C110.96 48.7392 111.055 48.6455 111.181 48.6455H112.104C112.22 48.6455 112.314 48.7392 112.314 48.8638V50.2562H113.783C113.898 50.2562 114.003 50.3497 114.003 50.4742V51.1602C114.003 51.2744 113.898 51.3782 113.783 51.3782H112.314V53.4876C112.314 53.9967 112.65 54.1317 112.891 54.1317C113.017 54.1317 113.195 54.0902 113.374 53.9758C113.531 53.8823 113.688 53.8823 113.783 54.0174L114.098 54.5265Z" fill="white"/>
<path d="M118.43 52.6451C118.43 51.8556 117.979 51.3465 117.203 51.3465C116.437 51.3465 115.933 51.8763 115.933 52.6451V55.0663C115.933 55.1805 115.818 55.2636 115.713 55.2636H114.789C114.674 55.2636 114.58 55.1702 114.58 55.0559V48.1982C114.58 48.0839 114.674 47.9902 114.789 47.9902H115.713C115.818 47.9902 115.933 48.0736 115.933 48.1878V50.8477C116.227 50.4425 116.804 50.11 117.612 50.11C118.955 50.11 119.784 51.0451 119.784 52.2816V55.0663C119.784 55.1805 119.679 55.2636 119.563 55.2636H118.651C118.535 55.2636 118.43 55.1805 118.43 55.0663V52.6451Z" fill="white"/>
<path d="M124.557 50.7443C124.704 50.8688 124.683 51.0247 124.568 51.1599L124.232 51.5545C124.106 51.7001 123.949 51.7001 123.76 51.5858C123.435 51.3572 123.004 51.1599 122.564 51.1599C122.102 51.1599 121.808 51.3676 121.808 51.6066C121.808 51.8456 121.987 52.0015 122.448 52.0846L123.277 52.2405C124.169 52.4067 124.82 52.8327 124.82 53.7367C124.82 54.7029 123.896 55.4095 122.564 55.4095C121.682 55.4095 121.032 55.1185 120.633 54.8173C120.245 54.5263 120.266 54.2872 120.476 54.121L120.864 53.8092C121.063 53.6536 121.21 53.7367 121.336 53.8405C121.672 54.1314 122.091 54.36 122.627 54.36C123.172 54.36 123.435 54.121 123.435 53.8613C123.435 53.5704 123.151 53.4664 122.627 53.3625L121.819 53.1963C121 53.03 120.455 52.5209 120.455 51.7104C120.455 50.8064 121.294 50.1104 122.595 50.1104C123.56 50.1104 124.232 50.4636 124.557 50.7443Z" fill="white"/>
<path d="M44.3384 31.0009C44.3384 30.0938 45.0878 29.3311 46.0246 29.3311C46.9406 29.3311 47.6901 30.0938 47.6901 31.0009C47.6901 31.908 46.9406 32.6708 46.0246 32.6708C45.0878 32.6708 44.3384 31.908 44.3384 31.0009Z" fill="white"/>
<path d="M45.1086 43.9068C44.8587 43.9068 44.6714 43.7007 44.6714 43.4739V34.4027C44.6714 34.1552 44.8587 33.9697 45.1086 33.9697H46.9198C47.1697 33.9697 47.357 34.1552 47.357 34.4027V43.4739C47.357 43.7007 47.1697 43.9068 46.9198 43.9068H45.1086Z" fill="white"/>
<path d="M56.3713 38.7112C56.3713 37.1443 55.4761 36.1341 53.9356 36.1341C52.4159 36.1341 51.4165 37.1855 51.4165 38.7112V43.5146C51.4165 43.7415 51.1875 43.9064 50.9793 43.9064H49.1474C48.9183 43.9064 48.731 43.7209 48.731 43.494V34.4022C48.731 34.1548 48.9183 33.9693 49.1474 33.9693H50.9793C51.1875 33.9693 51.4165 34.1548 51.4165 34.3611V35.1444C51.9995 34.3405 53.1446 33.6807 54.7475 33.6807C57.4122 33.6807 59.0569 35.5362 59.0569 37.9896V43.5146C59.0569 43.7415 58.8488 43.9064 58.6199 43.9064H56.8085C56.5796 43.9064 56.3713 43.7415 56.3713 43.5146V38.7112Z" fill="white"/>
<path d="M68.1123 34.9383C68.4038 35.1858 68.3622 35.495 68.1331 35.7629L67.467 36.5464C67.2171 36.835 66.9049 36.835 66.5302 36.6082C65.8847 36.1546 65.0313 35.7629 64.1569 35.7629C63.2407 35.7629 62.658 36.1752 62.658 36.6494C62.658 37.1237 63.0118 37.4329 63.9278 37.5978L65.5725 37.907C67.3421 38.2369 68.6329 39.0822 68.6329 40.8757C68.6329 42.793 66.8007 44.195 64.1569 44.195C62.4081 44.195 61.1173 43.6178 60.3262 43.0199C59.556 42.4426 59.5976 41.9685 60.014 41.6387L60.7842 41.0201C61.1798 40.7108 61.4711 40.8757 61.721 41.082C62.3873 41.6593 63.2199 42.1128 64.2817 42.1128C65.3644 42.1128 65.8847 41.6387 65.8847 41.1232C65.8847 40.5459 65.3228 40.3398 64.2817 40.1336L62.6788 39.8037C61.0549 39.4739 59.9722 38.4637 59.9722 36.8556C59.9722 35.0621 61.6378 33.6807 64.2193 33.6807C66.1346 33.6807 67.467 34.3817 68.1123 34.9383Z" fill="white"/>
<path d="M72.0055 39.5155C72.0055 40.9587 72.7342 41.9276 74.2539 41.9276C75.732 41.9276 76.5648 40.9381 76.5648 39.5567V34.3615C76.5648 34.1552 76.7729 33.9697 76.9812 33.9697H78.8132C79.0631 33.9697 79.2504 34.1552 79.2504 34.4027V43.4945C79.2504 43.7213 79.0631 43.9068 78.8132 43.9068H76.9812C76.7729 43.9068 76.5648 43.7419 76.5648 43.5151V42.7317C75.9403 43.577 75.0243 44.1954 73.442 44.1954C70.8814 44.1954 69.3198 42.4842 69.3198 39.9691V34.3615C69.3198 34.1552 69.5279 33.9697 69.757 33.9697H71.5683C71.7974 33.9697 72.0055 34.1552 72.0055 34.3615V39.5155Z" fill="white"/>
<path d="M85.9333 33.8457C86.1414 33.8457 86.4121 33.9488 86.4121 34.3612V36.1342C86.4121 36.5465 86.079 36.6495 85.9123 36.6495H85.4128C84.0803 36.6495 83.3101 37.3299 83.3101 39.0411V43.5147C83.3101 43.7416 83.081 43.9065 82.8729 43.9065H81.0409C80.8118 43.9065 80.6245 43.721 80.6245 43.4942V34.4024C80.6245 34.1549 80.8118 33.9694 81.0409 33.9694H82.7687C82.977 33.9694 83.1852 34.1549 83.1852 34.3612V35.3095C83.7057 34.423 84.5799 33.8457 85.6418 33.8457H85.9333Z" fill="white"/>
<path d="M91.2622 33.6807C92.678 33.6807 93.8231 34.3199 94.3226 35.1858V34.4022C94.3226 34.1548 94.5308 33.9693 94.7391 33.9693H96.571C96.8001 33.9693 96.9874 34.1548 96.9874 34.4022V43.494C96.9874 43.7209 96.8001 43.9064 96.571 43.9064H94.7391C94.51 43.9064 94.3226 43.7209 94.3226 43.494V42.6901C93.8023 43.556 92.6572 44.195 91.2414 44.195C88.6184 44.195 86.2241 42.1128 86.2241 38.9173C86.2241 35.7217 88.6184 33.6807 91.2622 33.6807ZM91.6371 41.7416C93.1776 41.7416 94.3226 40.4841 94.3226 38.9378C94.3226 37.3917 93.1776 36.1546 91.6371 36.1546C90.0965 36.1546 88.9307 37.3917 88.9307 38.9378C88.9307 40.4841 90.0965 41.7416 91.6371 41.7416Z" fill="white"/>
<path d="M106.002 38.7112C106.002 37.1443 105.106 36.1341 103.566 36.1341C102.046 36.1341 101.047 37.1855 101.047 38.7112V43.5146C101.047 43.7415 100.818 43.9064 100.61 43.9064H98.7777C98.5487 43.9064 98.3613 43.7209 98.3613 43.494V34.4022C98.3613 34.1548 98.5487 33.9693 98.7777 33.9693H100.61C100.818 33.9693 101.047 34.1548 101.047 34.3611V35.1444C101.63 34.3405 102.775 33.6807 104.378 33.6807C107.043 33.6807 108.687 35.5362 108.687 37.9896V43.5146C108.687 43.7415 108.479 43.9064 108.25 43.9064H106.439C106.21 43.9064 106.002 43.7415 106.002 43.5146V38.7112Z" fill="white"/>
<path d="M114.808 33.6807C116.868 33.6807 118.492 34.6703 119.325 36.0309C119.492 36.299 119.367 36.6082 119.138 36.7731L118.118 37.5566C117.764 37.8247 117.451 37.7009 117.243 37.4329C116.577 36.6288 115.932 36.1546 114.849 36.1546C113.288 36.1546 112.164 37.3917 112.164 38.9378C112.164 40.4841 113.288 41.721 114.849 41.721C115.932 41.721 116.577 41.2469 117.243 40.4428C117.451 40.1749 117.764 40.0512 118.118 40.3192L119.138 41.1026C119.367 41.2675 119.492 41.5767 119.325 41.8448C118.492 43.2054 116.868 44.195 114.808 44.195C111.789 44.195 109.457 41.9065 109.457 38.9378C109.457 35.9691 111.789 33.6807 114.808 33.6807Z" fill="white"/>
<path d="M129.943 38.6492V39.1441C129.943 39.3914 129.839 39.5977 129.464 39.5977H122.302C122.448 40.9995 123.572 41.9271 124.925 41.9271C125.467 41.9271 125.904 41.8036 126.279 41.6179C126.632 41.4324 126.903 41.2057 127.195 40.8757C127.34 40.7108 127.507 40.6491 127.736 40.7728L129.214 41.6799C129.443 41.8242 129.443 42.0509 129.318 42.2158C128.881 42.793 128.235 43.3085 127.486 43.6589C126.757 43.9889 125.904 44.195 124.884 44.195C121.74 44.195 119.533 41.9271 119.533 38.979C119.533 36.0309 121.74 33.6807 124.821 33.6807C127.923 33.6807 129.943 36.0103 129.943 38.6492ZM124.842 35.8248C123.635 35.8248 122.635 36.6494 122.365 37.907H127.299C127.049 36.5464 125.987 35.8248 124.842 35.8248Z" fill="white"/>
<path d="M20.4422 17.3467C16.7543 17.3467 13.7617 20.3017 13.751 23.9537L13.751 29.8924C13.7443 32.6618 14.4511 35.1673 15.8675 37.3543C16.4668 36.2819 17.204 35.2867 18.0772 34.3942C21.0017 31.41 25.0831 29.7651 29.5738 29.7651C29.8852 29.7651 30.1403 30.003 30.164 30.3085C30.1878 30.6139 29.9683 30.8871 29.6628 30.9312C29.5975 30.94 23.4488 31.8946 19.9221 36.7852C19.2321 37.7455 18.6861 38.7938 18.284 39.9261C18.2434 40.0405 18.2764 40.1691 18.3671 40.2505C18.4263 40.3037 18.4861 40.3566 18.5466 40.4091C20.4038 42.0227 22.4895 43.2876 24.7239 44.3189L24.8399 44.3721C25.104 44.4933 25.4086 44.4933 25.6727 44.3722L25.7888 44.3189C28.0232 43.2876 30.1088 42.0227 31.966 40.4091C34.8837 37.8742 36.7444 34.6622 36.7444 31.0375L36.7444 18.654C36.7487 17.9332 36.1598 17.3467 35.432 17.3467L20.4596 17.3467" fill="white"/>
</g>
<defs>
<clipPath id="clip0_5342_22902">
<rect width="144" height="69" fill="white"/>
</clipPath>
</defs>
</svg>
