<svg width="139" height="70" viewBox="0 0 139 70" fill="none" xmlns="http://www.w3.org/2000/svg">
<g clip-path="url(#clip0_332_13080)">
<path d="M118.07 70H0.661217C0.471347 70 0.289308 69.9245 0.15505 69.79C0.020792 69.6556 -0.0546875 69.4732 -0.0546875 69.2831V20.977C-0.0546875 15.4136 2.15227 10.078 6.08066 6.14402C10.0091 2.21006 15.3371 -3.05176e-05 20.8927 -3.05176e-05H138.301C138.492 0.00372404 138.674 0.0824609 138.808 0.219193C138.942 0.355926 139.017 0.539759 139.017 0.731241V49.0229C139.017 54.5864 136.81 59.922 132.882 63.8559C128.953 67.7899 123.625 70 118.07 70Z" fill="#FB6300"/>
<path d="M36.33 28.562H21.2817C20.4287 28.5601 19.5839 28.7267 18.7953 29.0523C18.0067 29.3778 17.2898 29.856 16.686 30.4593C16.0822 31.0627 15.6033 31.7794 15.2764 32.5683C14.9496 33.3573 14.7812 34.2031 14.7813 35.0573V41.9111C14.7813 41.9111 14.7813 41.9827 14.8816 41.9111C15.5779 39.8661 16.717 38.0005 18.2176 36.4481C19.7642 34.891 21.6091 33.6629 23.6414 32.8375C25.6738 32.012 27.8516 31.6063 30.0444 31.6447C30.198 31.6479 30.3449 31.7085 30.4562 31.8147C30.5674 31.9208 30.6351 32.0648 30.6458 32.2183C30.6545 32.369 30.6063 32.5175 30.5109 32.6343C30.4154 32.7512 30.2796 32.8279 30.1304 32.8492C26.1643 33.5927 22.6027 35.7531 20.1077 38.9286C18.934 40.5912 18.1508 42.4979 17.8167 44.5063C17.8104 44.5436 17.8123 44.5819 17.8224 44.6183C17.8325 44.6548 17.8506 44.6886 17.8752 44.7173C17.8998 44.746 17.9305 44.7689 17.9649 44.7845C17.9993 44.8001 18.0367 44.8079 18.0745 44.8073H36.2727C36.4639 44.8074 36.6476 44.7323 36.7841 44.5983C36.9207 44.4642 36.9992 44.2819 37.003 44.0904V29.2789C37.003 29.1836 36.9841 29.0891 36.9472 29.0012C36.9103 28.9132 36.8563 28.8336 36.7883 28.7668C36.7203 28.7 36.6397 28.6475 36.5511 28.6123C36.4626 28.5772 36.3679 28.5601 36.2727 28.562" fill="white"/>
<path d="M37.7301 23.4433C37.6941 23.3771 37.6455 23.3186 37.5869 23.2712L32.2463 17.9946C32.1125 17.8617 31.9537 17.7566 31.7793 17.6853C31.6048 17.6139 31.418 17.5777 31.2296 17.5788H20.6487C20.273 17.5804 19.913 17.7297 19.6463 17.9946L14.2913 23.2712C14.2367 23.3224 14.1886 23.3802 14.1482 23.4433C13.8711 23.8673 13.745 24.3724 13.7902 24.8771C13.843 25.4165 14.0847 25.9197 14.4726 26.2976C14.8605 26.6756 15.3695 26.9038 15.9093 26.9418H16.0238C16.2143 26.5785 16.5006 26.2741 16.8514 26.0618C17.2022 25.8495 17.6041 25.7373 18.014 25.7373C18.4239 25.7373 18.8261 25.8495 19.1768 26.0618C19.5276 26.2741 19.8137 26.5785 20.0043 26.9418C20.4138 26.9403 20.8152 26.8274 21.1657 26.6152C21.5162 26.4031 21.8027 26.0997 21.9945 25.7374C22.9977 25.3911 24.0753 25.3201 25.1152 25.5319C26.1551 25.7437 27.1194 26.2306 27.9079 26.9418C28.0984 26.5785 28.3845 26.2741 28.7353 26.0618C29.0861 25.8495 29.4882 25.7373 29.8981 25.7373C30.308 25.7373 30.71 25.8495 31.0607 26.0618C31.4115 26.2741 31.6978 26.5785 31.8883 26.9418C32.0789 26.5785 32.365 26.2741 32.7157 26.0618C33.0665 25.8495 33.4687 25.7373 33.8786 25.7373C34.2884 25.7373 34.6904 25.8495 35.0412 26.0618C35.392 26.2741 35.6781 26.5785 35.8686 26.9418H36.0548C36.5816 26.8937 37.0749 26.6623 37.449 26.2877C37.8231 25.9131 38.0543 25.419 38.1023 24.8915C38.1505 24.3846 38.0187 23.8769 37.7301 23.4576" fill="white"/>
<path d="M45.9346 51.1308V50.2991C45.9218 50.0598 45.9601 49.8205 46.0466 49.5971C46.1332 49.3737 46.2662 49.1712 46.4367 49.0031C46.6073 48.835 46.8116 48.7052 47.0361 48.6221C47.2605 48.539 47.4999 48.5046 47.7387 48.5212C48.2573 48.5167 48.7621 48.6885 49.1705 49.0086C49.2138 49.0583 49.2376 49.122 49.2376 49.1879C49.2376 49.2538 49.2138 49.3175 49.1705 49.3671L48.7695 49.912C48.655 50.084 48.4833 49.998 48.3688 49.912C48.2237 49.8162 48.0554 49.7617 47.8818 49.7543C47.8002 49.7536 47.7194 49.7705 47.6448 49.8037C47.5702 49.8369 47.5037 49.8857 47.4494 49.9468C47.3952 50.0079 47.3546 50.0799 47.3304 50.158C47.3062 50.236 47.299 50.3184 47.3092 50.3995V51.0877H48.3114C48.3684 51.0877 48.423 51.1104 48.4633 51.1507C48.5036 51.1911 48.5262 51.2458 48.5262 51.3028V52.0054C48.5262 52.0624 48.5036 52.1172 48.4633 52.1575C48.423 52.1978 48.3684 52.2205 48.3114 52.2205H47.3092V56.0345C47.3094 56.0929 47.2871 56.1492 47.2472 56.1918C47.2073 56.2345 47.1527 56.2602 47.0944 56.2639H46.1781C46.1184 56.2604 46.0621 56.2352 46.0199 56.1929C45.9776 56.1506 45.9523 56.0942 45.9489 56.0345V52.3208H45.276C45.2177 52.3209 45.1615 52.2987 45.1189 52.2587C45.0763 52.2188 45.0505 52.1641 45.0469 52.1058V51.4032C45.0468 51.3737 45.0529 51.3445 45.0645 51.3174C45.0762 51.2904 45.0934 51.2659 45.1149 51.2458C45.1364 51.2256 45.1616 51.2101 45.1893 51.2002C45.2171 51.1902 45.2466 51.1861 45.276 51.1881L45.9346 51.1308Z" fill="white"/>
<path d="M51.6786 51.059C51.7132 51.0588 51.7474 51.0659 51.779 51.0799C51.8105 51.0939 51.8388 51.1145 51.8618 51.1403C51.8848 51.166 51.9021 51.1964 51.9125 51.2293C51.9229 51.2623 51.9262 51.2971 51.9221 51.3314V52.2347C51.9242 52.2692 51.919 52.3037 51.9067 52.336C51.8945 52.3682 51.8755 52.3975 51.8512 52.4219C51.8268 52.4463 51.7976 52.4652 51.7653 52.4775C51.7331 52.4897 51.6987 52.495 51.6643 52.4929H51.3494C50.6764 52.4929 50.2898 52.8513 50.2898 53.7116V56.0344C50.2862 56.0889 50.2619 56.14 50.222 56.1773C50.1821 56.2146 50.1296 56.2353 50.075 56.2352H49.1443C49.1161 56.2352 49.0882 56.2296 49.0622 56.2188C49.0361 56.208 49.0124 56.1921 48.9924 56.1722C48.9725 56.1522 48.9567 56.1285 48.9459 56.1024C48.9351 56.0763 48.9297 56.0483 48.9297 56.0201V51.3744C48.9297 51.3462 48.9351 51.3183 48.9459 51.2922C48.9567 51.2661 48.9725 51.2423 48.9924 51.2223C49.0124 51.2024 49.0361 51.1865 49.0622 51.1757C49.0882 51.1649 49.1161 51.1593 49.1443 51.1593H50.0177C50.0723 51.1592 50.125 51.1799 50.1649 51.2172C50.2048 51.2545 50.2289 51.3056 50.2325 51.3601V51.8476C50.3519 51.6229 50.5289 51.434 50.7453 51.3005C50.9617 51.1669 51.2097 51.0935 51.4638 51.0877L51.6786 51.059Z" fill="white"/>
<path d="M54.7439 55.0881C55.0298 55.1024 55.3132 55.0306 55.5579 54.882C55.8026 54.7334 55.9973 54.5148 56.1167 54.2544C56.2361 53.994 56.2749 53.7037 56.228 53.421C56.1811 53.1383 56.0507 52.8762 55.8536 52.6685C55.6565 52.4607 55.4017 52.3168 55.1222 52.2554C54.8427 52.194 54.5513 52.2179 54.2855 52.324C54.0197 52.4301 53.7917 52.6136 53.6309 52.8507C53.4702 53.0878 53.3842 53.3677 53.3838 53.6542C53.3833 54.0224 53.5242 54.3767 53.7774 54.6436C54.0306 54.9105 54.3768 55.0697 54.7439 55.0881ZM54.7439 50.9872C55.271 50.9957 55.7837 51.1598 56.2181 51.4589C56.6524 51.758 56.989 52.1788 57.1855 52.6686C57.382 53.1584 57.4296 53.6954 57.3227 54.2122C57.2157 54.7291 56.9589 55.2029 56.5842 55.5741C56.2095 55.9454 55.7338 56.1976 55.2166 56.2993C54.6993 56.4009 54.1636 56.3474 53.6766 56.1454C53.1896 55.9435 52.7728 55.6021 52.4788 55.164C52.1847 54.726 52.0264 54.2107 52.0235 53.6828C52.0215 53.3259 52.0909 52.9721 52.2273 52.6423C52.3637 52.3125 52.5643 52.0133 52.8177 51.7623C53.0711 51.5112 53.372 51.3133 53.7028 51.1802C54.0335 51.0471 54.3875 50.9815 54.7439 50.9872Z" fill="white"/>
<path d="M59.4619 56.0344C59.4601 56.0627 59.4525 56.0903 59.44 56.1157C59.4275 56.1411 59.4103 56.1638 59.389 56.1825C59.3677 56.2011 59.3429 56.2153 59.3161 56.2244C59.2893 56.2334 59.261 56.2371 59.2327 56.2351H58.3164C58.2594 56.2351 58.2048 56.2125 58.1645 56.1721C58.1242 56.1318 58.1016 56.0771 58.1016 56.02V51.3744C58.1016 51.3174 58.1242 51.2626 58.1645 51.2223C58.2048 51.182 58.2594 51.1593 58.3164 51.1593H59.2327C59.261 51.1574 59.2893 51.161 59.3161 51.1701C59.3429 51.1791 59.3677 51.1934 59.389 51.2121C59.4103 51.2307 59.4275 51.2534 59.44 51.2788C59.4525 51.3042 59.4601 51.3318 59.4619 51.3601V51.7329C59.6462 51.4921 59.8853 51.2988 60.1593 51.1691C60.4332 51.0394 60.734 50.9771 61.0368 50.9872C61.3622 50.971 61.6858 51.0456 61.9714 51.2025C62.257 51.3595 62.4936 51.5927 62.6548 51.8762C62.8589 51.5939 63.1283 51.3655 63.4401 51.2107C63.7519 51.0558 64.0966 50.9791 64.4446 50.9872C64.732 50.9665 65.0205 51.0073 65.291 51.1067C65.5616 51.2061 65.8079 51.362 66.0137 51.5641C66.2195 51.7661 66.3801 52.0096 66.4848 52.2785C66.5895 52.5474 66.6359 52.8354 66.6209 53.1237V55.9913C66.6191 56.0196 66.6116 56.0472 66.5991 56.0726C66.5866 56.098 66.5693 56.1208 66.548 56.1394C66.5268 56.1581 66.502 56.1723 66.4752 56.1813C66.4484 56.1904 66.42 56.194 66.3918 56.1921H65.4754C65.4208 56.1922 65.3683 56.1715 65.3284 56.1342C65.2885 56.097 65.2642 56.0458 65.2606 55.9913V53.4535C65.2606 52.7653 64.917 52.2347 64.1724 52.2347C64.0151 52.2297 63.8585 52.2586 63.7133 52.3193C63.568 52.38 63.4375 52.4711 63.3303 52.5866C63.2232 52.702 63.1419 52.8392 63.0921 52.9887C63.0423 53.1382 63.025 53.2967 63.0414 53.4535V56.0344C63.0378 56.0889 63.0135 56.14 62.9736 56.1773C62.9337 56.2146 62.8812 56.2353 62.8266 56.2351H61.9102C61.882 56.2371 61.8537 56.2334 61.8269 56.2244C61.8 56.2153 61.7753 56.2011 61.754 56.1825C61.7327 56.1638 61.7153 56.1411 61.7028 56.1157C61.6902 56.0903 61.6829 56.0627 61.6811 56.0344V53.4535C61.6811 52.7653 61.3375 52.2347 60.6072 52.2347C60.4487 52.2276 60.2906 52.2549 60.1435 52.3147C59.9965 52.3744 59.8641 52.4653 59.7553 52.581C59.6466 52.6967 59.5641 52.8345 59.5134 52.9851C59.4628 53.1357 59.4452 53.2955 59.4619 53.4535V56.0344Z" fill="white"/>
<path d="M74.3616 50.9443L73.0302 55.9771C73.0123 56.0405 72.9751 56.0966 72.9237 56.1378C72.8724 56.1789 72.8094 56.203 72.7437 56.2065H71.2261C71.1597 56.2052 71.0957 56.1821 71.0439 56.1406C70.9921 56.0991 70.9555 56.0416 70.9398 55.9771L69.1642 49.1664C69.146 49.1296 69.1382 49.0886 69.1413 49.0477C69.1443 49.0068 69.1582 48.9674 69.1816 48.9338C69.205 48.9001 69.237 48.8733 69.2743 48.8562C69.3115 48.8391 69.3526 48.8323 69.3933 48.8365H70.4815C70.538 48.8421 70.5911 48.8663 70.6325 48.9051C70.6739 48.944 70.7014 48.9955 70.7106 49.0516L72.0278 54.5146L73.4596 49.0373C73.4668 48.979 73.4961 48.9257 73.5414 48.8883C73.5867 48.851 73.6445 48.8324 73.7031 48.8365H74.9631C75.0201 48.8383 75.0749 48.859 75.119 48.8953C75.163 48.9317 75.1939 48.9816 75.2065 49.0373L76.6383 54.4715L77.9555 49.0516C77.9622 48.9945 77.9889 48.9415 78.0308 48.9022C78.0728 48.8628 78.1272 48.8395 78.1846 48.8365H79.2155C79.3873 48.8365 79.5019 48.9226 79.4446 49.1664L77.6692 55.9771C77.6466 56.0377 77.6079 56.0909 77.5575 56.1313C77.5071 56.1717 77.4469 56.1977 77.3829 56.2065H75.9511C75.8854 56.203 75.8224 56.1789 75.7711 56.1378C75.7197 56.0966 75.6825 56.0405 75.6646 55.9771L74.3616 50.9443Z" fill="white"/>
<path d="M81.6346 55.0881C81.9178 55.0881 82.1945 55.0039 82.43 54.8464C82.6655 54.6888 82.8489 54.4649 82.9573 54.2029C83.0657 53.9409 83.094 53.6526 83.0388 53.3744C82.9835 53.0963 82.8472 52.8408 82.6469 52.6403C82.4467 52.4398 82.1916 52.3032 81.9139 52.2479C81.6361 52.1925 81.3483 52.221 81.0866 52.3295C80.825 52.438 80.6013 52.6218 80.444 52.8576C80.2866 53.0934 80.2028 53.3706 80.2028 53.6542C80.2028 54.0345 80.3535 54.3992 80.6221 54.6681C80.8906 54.937 81.2548 55.0881 81.6346 55.0881ZM81.6346 50.9872C82.1616 50.9957 82.6744 51.1598 83.1087 51.4589C83.543 51.758 83.8796 52.1788 84.0761 52.6686C84.2726 53.1584 84.3203 53.6954 84.2133 54.2122C84.1063 54.7291 83.8495 55.2029 83.4748 55.5741C83.1002 55.9454 82.6242 56.1976 82.107 56.2993C81.5898 56.4009 81.0542 56.3474 80.5672 56.1454C80.0802 55.9435 79.6635 55.6021 79.3694 55.164C79.0753 54.726 78.917 54.2107 78.9141 53.6828C78.9122 53.3259 78.9813 52.9721 79.1177 52.6423C79.2541 52.3125 79.4549 52.0133 79.7083 51.7623C79.9617 51.5112 80.2626 51.3133 80.5934 51.1802C80.9242 51.0471 81.2782 50.9815 81.6346 50.9872Z" fill="white"/>
<path d="M87.4612 55.0881C87.7444 55.0881 88.0212 55.0039 88.2566 54.8463C88.4921 54.6888 88.6757 54.4649 88.7841 54.2029C88.8925 53.9409 88.9208 53.6526 88.8656 53.3744C88.8103 53.0963 88.6739 52.8408 88.4737 52.6403C88.2735 52.4398 88.0182 52.3032 87.7405 52.2479C87.4627 52.1925 87.1749 52.221 86.9133 52.3295C86.6516 52.438 86.4281 52.6218 86.2708 52.8576C86.1134 53.0934 86.0294 53.3706 86.0294 53.6542C86.0294 54.0345 86.1803 54.3992 86.4489 54.6681C86.7174 54.937 87.0815 55.0881 87.4612 55.0881ZM87.4612 50.9872C87.9876 50.9985 88.4989 51.165 88.9313 51.4658C89.3637 51.7665 89.6981 52.1883 89.8924 52.6783C90.0867 53.1683 90.1324 53.7047 90.0238 54.2206C89.9153 54.7365 89.6573 55.209 89.2821 55.5788C88.9069 55.9487 88.4312 56.1995 87.9144 56.3001C87.3976 56.4006 86.8625 56.3463 86.3763 56.1439C85.8902 55.9416 85.4745 55.6002 85.181 55.1625C84.8875 54.7247 84.7295 54.2101 84.7266 53.6828C84.7265 53.3252 84.7975 52.9711 84.9354 52.6412C85.0734 52.3114 85.2755 52.0123 85.53 51.7614C85.7846 51.5105 86.0864 51.3128 86.4179 51.1799C86.7495 51.047 87.1041 50.9815 87.4612 50.9872Z" fill="white"/>
<path d="M90.8117 54.9447V49.0516C90.8117 48.9946 90.8342 48.9399 90.8745 48.8995C90.9147 48.8592 90.9694 48.8365 91.0263 48.8365H91.9427C92.0011 48.8364 92.0573 48.8586 92.0998 48.8986C92.1424 48.9386 92.1682 48.9933 92.1719 49.0516V54.6723C92.1719 54.916 92.2864 55.0738 92.5441 55.0738H92.8448C92.8727 55.0693 92.9014 55.0713 92.9285 55.0796C92.9556 55.0878 92.9805 55.1022 93.0012 55.1216C93.0219 55.1409 93.0379 55.1647 93.048 55.1912C93.0582 55.2177 93.0621 55.2462 93.0596 55.2745V55.9341C93.0616 55.9704 93.0561 56.0067 93.0431 56.0407C93.0302 56.0747 93.0101 56.1056 92.9844 56.1313C92.9587 56.157 92.928 56.1771 92.8941 56.19C92.8601 56.203 92.8237 56.2086 92.7874 56.2065H92.1145C91.9413 56.2317 91.7648 56.2167 91.5982 56.1629C91.4317 56.1091 91.2796 56.0177 91.1538 55.8959C91.0279 55.7741 90.9317 55.625 90.8724 55.4601C90.813 55.2952 90.7924 55.1189 90.8117 54.9447Z" fill="white"/>
<path d="M95.853 56.2065H94.6647C94.6009 56.2022 94.5401 56.1776 94.4911 56.1364C94.4422 56.0951 94.4078 56.0393 94.3927 55.9771L92.9609 51.4318C92.9609 51.2454 92.9608 51.1307 93.1612 51.1307H94.1493C94.2108 51.1299 94.2705 51.151 94.3178 51.1905C94.365 51.2299 94.3967 51.285 94.4069 51.3457L95.309 54.5862L96.1825 51.3457C96.1897 51.2836 96.2204 51.2267 96.2683 51.1866C96.3163 51.1466 96.3778 51.1266 96.4401 51.1307H97.5427C97.6066 51.1263 97.6699 51.1458 97.7202 51.1856C97.7705 51.2254 97.8041 51.2824 97.8146 51.3457L98.6022 54.6006L99.5042 51.3601C99.5175 51.2982 99.5519 51.2428 99.6016 51.2035C99.6512 51.1643 99.7129 51.1437 99.7762 51.1451H100.664C100.821 51.1451 100.922 51.2597 100.85 51.4461L99.4182 55.9914C99.4054 56.0547 99.3715 56.1119 99.3221 56.1535C99.2727 56.1952 99.2108 56.2189 99.1463 56.2208H98.0008C97.9338 56.2222 97.8685 56.2 97.8162 56.1581C97.7639 56.1162 97.7279 56.0571 97.7145 55.9914L96.8984 52.9516L96.0965 55.9914C96.0814 56.0536 96.0469 56.1095 95.9979 56.1507C95.949 56.192 95.8884 56.2165 95.8246 56.2208" fill="white"/>
<path d="M103.705 55.0881C103.991 55.1054 104.276 55.0361 104.522 54.8894C104.769 54.7427 104.966 54.5253 105.087 54.2652C105.209 54.0052 105.25 53.7146 105.205 53.4311C105.159 53.1475 105.03 52.8841 104.834 52.6748C104.638 52.4656 104.383 52.3202 104.103 52.2576C103.823 52.1949 103.531 52.2179 103.264 52.3234C102.998 52.4289 102.769 52.6121 102.607 52.8494C102.446 53.0867 102.359 53.3672 102.359 53.6543C102.358 54.0201 102.497 54.3724 102.747 54.6389C102.998 54.9055 103.34 55.0662 103.705 55.0881ZM103.705 50.9873C104.232 50.9958 104.745 51.1599 105.179 51.459C105.613 51.7581 105.95 52.1789 106.146 52.6687C106.343 53.1585 106.391 53.6954 106.284 54.2123C106.177 54.7292 105.92 55.2029 105.545 55.5742C105.17 55.9455 104.695 56.1977 104.177 56.2994C103.66 56.401 103.124 56.3475 102.637 56.1455C102.15 55.9435 101.734 55.6022 101.44 55.1641C101.146 54.726 100.987 54.2108 100.984 53.6829C100.984 53.3265 101.055 52.9737 101.192 52.6447C101.329 52.3158 101.53 52.0173 101.783 51.7666C102.036 51.5159 102.336 51.318 102.666 51.1842C102.996 51.0504 103.349 50.9835 103.705 50.9873Z" fill="white"/>
<path d="M109.77 51.059C109.87 51.059 109.999 51.059 109.999 51.3314V52.2347C110.003 52.2684 110 52.3027 109.99 52.335C109.979 52.3673 109.962 52.3969 109.938 52.4216C109.915 52.4462 109.886 52.4654 109.855 52.4777C109.823 52.4901 109.789 52.4953 109.756 52.4929H109.498C108.825 52.4929 108.438 52.8513 108.438 53.7116V56.0344C108.435 56.0889 108.41 56.14 108.37 56.1773C108.331 56.2146 108.278 56.2353 108.223 56.2352H107.293C107.236 56.2352 107.181 56.2125 107.141 56.1722C107.101 56.1318 107.078 56.0771 107.078 56.0201V51.3744C107.078 51.3174 107.101 51.2627 107.141 51.2223C107.181 51.182 107.236 51.1593 107.293 51.1593H108.166C108.221 51.1592 108.273 51.1799 108.313 51.2172C108.353 51.2545 108.377 51.3056 108.381 51.3601V51.8476C108.5 51.6229 108.677 51.434 108.894 51.3005C109.11 51.1669 109.358 51.0935 109.612 51.0877L109.77 51.059Z" fill="white"/>
<path d="M114.523 55.4608C114.566 55.5082 114.589 55.5694 114.589 55.6329C114.589 55.6964 114.566 55.7577 114.523 55.805C114.129 56.151 113.616 56.3308 113.091 56.3068C112.873 56.3273 112.653 56.3009 112.445 56.2296C112.238 56.1582 112.048 56.0435 111.888 55.893C111.728 55.7424 111.602 55.5596 111.518 55.3565C111.435 55.1535 111.395 54.9349 111.402 54.7153V52.2634H110.715C110.658 52.2634 110.603 52.2407 110.563 52.2004C110.522 52.1601 110.5 52.1053 110.5 52.0483V51.3457C110.5 51.2887 110.522 51.234 110.563 51.1937C110.603 51.1534 110.658 51.1307 110.715 51.1307H111.402V49.6969C111.406 49.6385 111.431 49.5838 111.474 49.5438C111.516 49.5038 111.573 49.4816 111.631 49.4818H112.547C112.604 49.4818 112.659 49.5044 112.699 49.5448C112.74 49.5851 112.762 49.6398 112.762 49.6969V51.1307H114.194C114.251 51.1307 114.306 51.1534 114.346 51.1937C114.386 51.234 114.409 51.2887 114.409 51.3457V52.0483C114.409 52.1053 114.386 52.1601 114.346 52.2004C114.306 52.2407 114.251 52.2634 114.194 52.2634H112.762V54.3998C112.75 54.482 112.755 54.566 112.778 54.6458C112.802 54.7257 112.842 54.7995 112.896 54.8622C112.951 54.925 113.018 54.9751 113.094 55.0092C113.17 55.0432 113.252 55.0603 113.335 55.0594C113.509 55.0542 113.678 54.9995 113.822 54.9017C113.848 54.8735 113.881 54.851 113.916 54.8356C113.952 54.8203 113.991 54.8124 114.029 54.8124C114.068 54.8124 114.107 54.8203 114.142 54.8356C114.178 54.851 114.21 54.8735 114.237 54.9017L114.523 55.4608Z" fill="white"/>
<path d="M118.859 53.554C118.881 53.383 118.864 53.2094 118.811 53.0456C118.758 52.8818 118.669 52.7316 118.552 52.6058C118.435 52.4799 118.291 52.3815 118.131 52.3174C117.972 52.2533 117.8 52.2251 117.628 52.2348C117.455 52.2283 117.283 52.2584 117.123 52.323C116.962 52.3876 116.817 52.4853 116.697 52.6097C116.577 52.7341 116.484 52.8826 116.425 53.0453C116.366 53.2079 116.342 53.3813 116.354 53.554V56.0345C116.35 56.089 116.326 56.1401 116.286 56.1774C116.246 56.2147 116.194 56.2354 116.139 56.2352H115.208C115.154 56.2316 115.103 56.2073 115.066 56.1673C115.028 56.1274 115.008 56.0748 115.008 56.0201V49.0661C115.008 49.0128 115.029 48.9618 115.067 48.9241C115.104 48.8865 115.155 48.8653 115.208 48.8653H116.139C116.194 48.8652 116.246 48.8859 116.286 48.9231C116.326 48.9604 116.35 49.0115 116.354 49.0661V51.733C116.556 51.4831 116.815 51.2851 117.109 51.1555C117.402 51.0258 117.723 50.9681 118.043 50.9873C118.334 50.9728 118.625 51.0197 118.896 51.125C119.168 51.2303 119.415 51.3917 119.62 51.5986C119.825 51.8054 119.984 52.0533 120.088 52.326C120.191 52.5986 120.236 52.89 120.22 53.1812V56.0488C120.218 56.0771 120.21 56.1047 120.198 56.1301C120.185 56.1555 120.168 56.1782 120.147 56.1968C120.125 56.2155 120.101 56.2298 120.074 56.2388C120.047 56.2479 120.019 56.2515 119.99 56.2496H119.089C119.06 56.2515 119.032 56.2479 119.005 56.2388C118.978 56.2298 118.954 56.2155 118.932 56.1968C118.911 56.1782 118.894 56.1555 118.881 56.1301C118.869 56.1047 118.861 56.0771 118.859 56.0488V53.554Z" fill="white"/>
<path d="M125.003 51.6181C125.034 51.645 125.058 51.6782 125.075 51.7153C125.092 51.7524 125.1 51.7926 125.1 51.8332C125.1 51.8739 125.092 51.9141 125.075 51.9512C125.058 51.9883 125.034 52.0214 125.003 52.0483L124.66 52.4498C124.629 52.4814 124.592 52.5066 124.552 52.5238C124.511 52.541 124.468 52.5498 124.424 52.5498C124.379 52.5498 124.336 52.541 124.295 52.5238C124.255 52.5066 124.218 52.4814 124.187 52.4498C123.838 52.19 123.419 52.0402 122.985 52.0196C122.526 52.0196 122.226 52.2204 122.226 52.4641C122.226 52.7079 122.412 52.8656 122.87 52.9516L123.7 53.1094C124.603 53.2814 125.247 53.7116 125.247 54.6292C125.247 55.5469 124.33 56.3212 122.985 56.3212C122.291 56.341 121.611 56.1292 121.052 55.719C120.665 55.4322 120.694 55.1884 120.894 55.0163L121.281 54.7009C121.311 54.6693 121.348 54.6441 121.389 54.6269C121.429 54.6097 121.473 54.6009 121.517 54.6009C121.561 54.6009 121.605 54.6097 121.645 54.6269C121.686 54.6441 121.723 54.6693 121.753 54.7009C122.106 55.0353 122.571 55.2247 123.056 55.2314C123.6 55.2314 123.858 54.9877 123.858 54.7296C123.858 54.4715 123.572 54.3281 123.056 54.2134L122.24 54.0557C121.867 54.0351 121.515 53.8774 121.25 53.6129C120.986 53.3483 120.829 52.9954 120.808 52.6218C120.808 51.7042 121.639 51.0016 122.956 51.0016C123.662 50.9824 124.354 51.2049 124.917 51.6325" fill="white"/>
<path d="M47.7233 44.1622C47.716 44.2713 47.6676 44.3735 47.5878 44.448C47.5081 44.5226 47.403 44.564 47.2939 44.5637H45.4468C45.3367 44.5637 45.231 44.5199 45.1531 44.4419C45.0753 44.3639 45.0315 44.2582 45.0315 44.1479V34.9426C45.0296 34.8861 45.0389 34.8299 45.0588 34.777C45.0786 34.7241 45.1086 34.6755 45.1472 34.6342C45.1858 34.593 45.2319 34.5597 45.2834 34.5363C45.3348 34.513 45.3904 34.5 45.4468 34.4982H47.2939C47.402 34.5011 47.5053 34.5436 47.5844 34.6175C47.6635 34.6915 47.7129 34.7918 47.7233 34.8997V35.6883C48.0988 35.2254 48.5757 34.8554 49.117 34.6068C49.6583 34.3581 50.2495 34.2375 50.8447 34.2544C51.492 34.2217 52.1356 34.3691 52.7042 34.6804C53.2729 34.9918 53.7444 35.4547 54.0663 36.018C54.4746 35.4581 55.0121 35.0053 55.6329 34.6982C56.2536 34.3911 56.9393 34.2389 57.6315 34.2544C58.206 34.214 58.7823 34.2976 59.3218 34.4995C59.8612 34.7013 60.3511 35.0168 60.7583 35.4246C61.1655 35.8324 61.4806 36.323 61.6822 36.8632C61.8838 37.4034 61.9673 37.9807 61.9269 38.5559V44.2913C61.9251 44.3459 61.9124 44.3996 61.8899 44.4493C61.8673 44.4991 61.8352 44.5439 61.7953 44.5812C61.7554 44.6185 61.7085 44.6475 61.6574 44.6666C61.6063 44.6858 61.5518 44.6947 61.4973 44.6928H59.6789C59.6243 44.6947 59.5701 44.6858 59.5189 44.6666C59.4678 44.6475 59.4209 44.6185 59.381 44.5812C59.3412 44.5439 59.3091 44.4991 59.2865 44.4493C59.2639 44.3996 59.2513 44.3459 59.2494 44.2913V39.1152C59.2494 37.6813 58.5622 36.692 57.1017 36.692C56.7889 36.682 56.4777 36.7393 56.1888 36.86C55.9 36.9807 55.6403 37.1619 55.4273 37.3915C55.2143 37.6211 55.0529 37.8938 54.954 38.1911C54.8551 38.4884 54.8208 38.8035 54.8537 39.1152V44.1622C54.843 44.2725 54.7916 44.3748 54.7095 44.4491C54.6274 44.5234 54.5206 44.5642 54.4099 44.5637H52.5915C52.4824 44.564 52.3773 44.5226 52.2975 44.448C52.2177 44.3735 52.1691 44.2713 52.1619 44.1622V39.1152C52.1619 37.6813 51.4746 36.692 50.0142 36.692C49.7003 36.6826 49.388 36.7399 49.098 36.8603C48.8079 36.9808 48.5465 37.1615 48.3314 37.3905C48.1162 37.6195 47.952 37.8917 47.8497 38.189C47.7473 38.4863 47.7091 38.802 47.7376 39.1152L47.7233 44.1622Z" fill="white"/>
<path d="M68.0948 42.3699C68.6668 42.4015 69.2352 42.2605 69.7263 41.9652C70.2175 41.6698 70.6089 41.2338 70.85 40.7134C71.0911 40.1929 71.1709 39.6121 71.0788 39.0459C70.9867 38.4796 70.7272 37.954 70.3337 37.537C69.9402 37.12 69.4308 36.8308 68.8715 36.7068C68.3121 36.5827 67.7285 36.6296 67.196 36.8412C66.6635 37.0528 66.2067 37.4195 65.8845 37.8939C65.5623 38.3683 65.3897 38.9285 65.3888 39.5022C65.3714 39.8702 65.4284 40.2379 65.5562 40.5833C65.6841 40.9287 65.8802 41.2447 66.1328 41.5124C66.3855 41.7802 66.6894 41.9941 67.0265 42.1414C67.3636 42.2888 67.7269 42.3665 68.0948 42.3699ZM67.7225 34.2115C68.3207 34.1792 68.9171 34.3022 69.4539 34.5684C69.9907 34.8347 70.4497 35.2353 70.7866 35.7313V34.9426C70.7847 34.8861 70.794 34.8299 70.8138 34.777C70.8337 34.7241 70.8637 34.6755 70.9023 34.6342C70.9408 34.593 70.9872 34.5597 71.0386 34.5363C71.09 34.513 71.1454 34.5 71.2018 34.4982H73.0346C73.091 34.5 73.1464 34.513 73.1979 34.5363C73.2493 34.5597 73.2956 34.593 73.3342 34.6342C73.3727 34.6755 73.4028 34.7241 73.4226 34.777C73.4425 34.8299 73.4516 34.8861 73.4497 34.9426V44.148C73.4497 44.2582 73.4061 44.3639 73.3282 44.4419C73.2504 44.5199 73.1447 44.5637 73.0346 44.5637H71.2018C71.0917 44.5637 70.9861 44.5199 70.9082 44.4419C70.8303 44.3639 70.7866 44.2582 70.7866 44.148V43.3307C70.4413 43.825 69.9765 44.2237 69.4357 44.4895C68.8949 44.7553 68.2957 44.8795 67.694 44.8505C66.3525 44.7518 65.0981 44.1485 64.1825 43.1617C63.2669 42.175 62.7578 40.8779 62.7578 39.5309C62.7578 38.184 63.2669 36.8869 64.1825 35.9001C65.0981 34.9134 66.3525 34.3102 67.694 34.2115" fill="white"/>
<path d="M95.0989 36.3765C94.5023 36.378 93.9253 36.5902 93.4696 36.9758C93.0139 37.3613 92.7085 37.8955 92.6074 38.4843H97.5473C97.4668 37.894 97.1734 37.3537 96.7223 36.9654C96.2712 36.577 95.6937 36.3675 95.0989 36.3765ZM100.196 39.2442V39.7461C100.196 40.0042 100.096 40.2049 99.7236 40.2049H92.5646C92.6191 40.859 92.9203 41.4676 93.407 41.9072C93.8938 42.3467 94.5295 42.5839 95.1847 42.5707C95.6198 42.5786 96.051 42.4873 96.4454 42.3034C96.8399 42.1196 97.1872 41.8481 97.4613 41.5097C97.5195 41.4238 97.6089 41.3639 97.7103 41.3425C97.8118 41.3211 97.9174 41.3399 98.0054 41.3949L99.4372 42.3126C99.4827 42.3387 99.5223 42.3742 99.5532 42.4167C99.5841 42.4593 99.6057 42.5079 99.6165 42.5593C99.6273 42.6108 99.6271 42.664 99.616 42.7153C99.6048 42.7667 99.583 42.8152 99.5518 42.8575C99.058 43.4749 98.4249 43.9663 97.7047 44.2913C96.8908 44.6599 96.0063 44.8459 95.1131 44.8362C94.4091 44.8637 93.707 44.7468 93.0498 44.4927C92.3926 44.2385 91.7941 43.8526 91.2913 43.3584C90.7885 42.8643 90.3918 42.2723 90.1257 41.6191C89.8596 40.9658 89.7296 40.265 89.7438 39.5597C89.7264 38.8555 89.8511 38.1551 90.1105 37.5004C90.3698 36.8456 90.7585 36.2501 91.2532 35.7494C91.7479 35.2486 92.3383 34.8531 92.9893 34.5864C93.6403 34.3197 94.3383 34.1873 95.0416 34.1971C95.7108 34.1758 96.3774 34.2902 97.0014 34.5334C97.6254 34.7766 98.1937 35.1436 98.6725 35.6123C99.1513 36.081 99.5305 36.6419 99.7874 37.2611C100.044 37.8803 100.174 38.5451 100.167 39.2156" fill="white"/>
<path d="M80.1403 34.3692C80.3551 34.3692 80.6128 34.4839 80.6128 34.8997V36.692C80.6168 36.7596 80.6068 36.8273 80.5832 36.8908C80.5596 36.9543 80.5231 37.0121 80.4759 37.0607C80.4288 37.1092 80.3721 37.1475 80.3093 37.1729C80.2466 37.1983 80.1793 37.2103 80.1117 37.2081H79.6249C78.279 37.2081 77.5202 37.8964 77.5202 39.6313V44.1622C77.5095 44.2725 77.4579 44.3748 77.3758 44.4491C77.2937 44.5234 77.1869 44.5643 77.0762 44.5637H75.2435C75.1334 44.5637 75.0279 44.5199 74.95 44.4419C74.8722 44.3639 74.8284 44.2582 74.8284 44.148V34.9427C74.8265 34.8862 74.8356 34.8299 74.8555 34.777C74.8753 34.7241 74.9053 34.6755 74.9439 34.6343C74.9825 34.593 75.0288 34.5597 75.0802 34.5363C75.1316 34.513 75.1871 34.5 75.2435 34.4982H76.9761C77.0827 34.5015 77.1842 34.5445 77.261 34.6187C77.3377 34.6929 77.3841 34.7931 77.3912 34.8997V35.8603C77.6411 35.4269 78 35.0665 78.432 34.815C78.8641 34.5634 79.3543 34.4295 79.854 34.4265L80.1403 34.3692Z" fill="white"/>
<path d="M107.922 43.1298C108.01 43.2229 108.058 43.346 108.058 43.4739C108.058 43.6018 108.01 43.7249 107.922 43.818C107.534 44.166 107.082 44.4339 106.59 44.6061C106.099 44.7783 105.578 44.8516 105.058 44.8217C104.625 44.8631 104.187 44.8109 103.775 44.6687C103.363 44.5265 102.987 44.2975 102.671 43.9973C102.354 43.697 102.106 43.3325 101.943 42.9281C101.779 42.5237 101.704 42.0888 101.722 41.6529V36.8066H100.291C100.179 36.8029 100.073 36.7559 99.9958 36.6756C99.9184 36.5953 99.8752 36.488 99.8752 36.3764V34.9426C99.8733 34.8861 99.8825 34.8298 99.9023 34.7769C99.9222 34.724 99.9522 34.6754 99.9908 34.6342C100.029 34.5929 100.076 34.5596 100.127 34.5362C100.179 34.5129 100.234 34.4999 100.291 34.4981H101.722V31.4297C101.722 31.3118 101.769 31.1987 101.852 31.1154C101.935 31.032 102.048 30.9852 102.166 30.9852H103.999C104.055 30.9871 104.111 31.0001 104.162 31.0234C104.214 31.0467 104.26 31.08 104.298 31.1212C104.337 31.1625 104.367 31.2111 104.387 31.264C104.407 31.3169 104.416 31.3732 104.414 31.4297V34.5268H107.278C107.335 34.5268 107.392 34.5383 107.445 34.5608C107.498 34.5833 107.547 34.6163 107.587 34.6578C107.627 34.6993 107.658 34.7484 107.679 34.8023C107.699 34.8561 107.709 34.9136 107.707 34.9713V36.4051C107.704 36.5181 107.657 36.6254 107.578 36.7053C107.498 36.7852 107.391 36.8317 107.278 36.8352H104.414V41.1368C104.391 41.2994 104.404 41.4651 104.451 41.6223C104.499 41.7795 104.58 41.9246 104.689 42.0473C104.798 42.1701 104.932 42.2677 105.082 42.3333C105.233 42.3989 105.396 42.4309 105.559 42.4272C105.902 42.4119 106.234 42.3027 106.519 42.1118C106.578 42.0628 106.646 42.0261 106.719 42.0039C106.792 41.9816 106.869 41.9743 106.945 41.9823C107.021 41.9903 107.095 42.0136 107.162 42.0506C107.229 42.0876 107.288 42.1376 107.335 42.1978L107.922 43.1298Z" fill="white"/>
<path d="M81.3281 31.3293V44.2339C81.3281 44.2897 81.3394 44.345 81.3612 44.3964C81.3829 44.4478 81.4148 44.4943 81.4548 44.5331C81.4949 44.5719 81.5425 44.6022 81.5945 44.6222C81.6465 44.6422 81.702 44.6516 81.7577 44.6497H83.5762C83.6319 44.6516 83.6874 44.6422 83.7394 44.6222C83.7915 44.6022 83.839 44.5719 83.8791 44.5331C83.9191 44.4943 83.951 44.4478 83.9727 44.3964C83.9945 44.345 84.0058 44.2897 84.0058 44.2339V40.2621H84.8362L87.6998 44.2482C87.7646 44.3577 87.8567 44.4484 87.9672 44.5112C88.0777 44.5741 88.2026 44.607 88.3297 44.6067H90.4346C90.5167 44.6175 90.6 44.6026 90.6733 44.564C90.7466 44.5254 90.8063 44.4651 90.8439 44.3912C90.8816 44.3174 90.8955 44.2336 90.8838 44.1515C90.872 44.0695 90.8351 43.993 90.7782 43.9328L87.1557 38.9716L90.2628 35.2006C90.4919 34.8852 90.3915 34.5555 89.9906 34.5555H87.9574C87.8433 34.5563 87.7313 34.5856 87.6313 34.6406C87.5313 34.6957 87.4466 34.7748 87.3848 34.8709L84.8505 38.183H84.0773V32.6054C83.103 32.4574 82.1927 32.029 81.4571 31.3723" fill="white"/>
<path d="M47.6774 21.6223C47.7758 21.0361 48.0788 20.5038 48.5324 20.1204C48.9861 19.737 49.561 19.5274 50.1546 19.5288C50.7464 19.5225 51.3205 19.731 51.7706 20.1159C52.2207 20.5007 52.5164 21.0359 52.6029 21.6223H47.6774ZM50.1259 17.3208C48.7209 17.3208 47.3733 17.8797 46.3798 18.8746C45.3863 19.8695 44.8281 21.2189 44.8281 22.626C44.8281 24.033 45.3863 25.3824 46.3798 26.3773C47.3733 27.3722 48.7209 27.9312 50.1259 27.9312C51.0401 27.9361 51.9442 27.7403 52.7747 27.3576C53.4846 27.0288 54.1074 26.5376 54.5932 25.9238C54.6273 25.8833 54.6519 25.8358 54.6655 25.7845C54.6791 25.7333 54.6812 25.6797 54.6716 25.6276C54.6621 25.5755 54.641 25.5261 54.6101 25.4831C54.5792 25.4401 54.5391 25.4046 54.4928 25.3789L53.061 24.4612C52.9771 24.4056 52.8747 24.385 52.7758 24.4037C52.6768 24.4225 52.5891 24.4791 52.5313 24.5616C52.2681 24.8621 51.9588 25.1187 51.6149 25.3216C51.1695 25.5379 50.6778 25.6413 50.1831 25.6226C49.5301 25.6361 48.8965 25.4009 48.4101 24.9644C47.9237 24.5278 47.6208 23.9227 47.5629 23.2712H54.722C55.0942 23.2712 55.1944 23.0705 55.1944 22.8124V22.3248C55.2025 21.655 55.0752 20.9906 54.8199 20.3714C54.5645 19.7523 54.1866 19.1913 53.7089 18.7224C53.2313 18.2534 52.6638 17.8862 52.0407 17.6429C51.4175 17.3995 50.7515 17.2851 50.0829 17.3064" fill="white"/>
<path d="M58.6285 27.6157C58.4996 27.6133 58.3752 27.5685 58.2743 27.4881C58.1733 27.4078 58.1015 27.2965 58.0701 27.1713L54.8915 18.2241C54.8571 18.156 54.8408 18.0801 54.8442 18.0038C54.8475 17.9275 54.8705 17.8534 54.9108 17.7886C54.9511 17.7237 55.0073 17.6703 55.0742 17.6336C55.1411 17.5968 55.2162 17.578 55.2925 17.5789H57.2971C57.4198 17.576 57.5397 17.6158 57.6363 17.6917C57.7329 17.7675 57.8003 17.8746 57.8268 17.9947L60.089 24.8771L62.1652 17.9947C62.186 17.8744 62.2497 17.7659 62.3446 17.6894C62.4394 17.6129 62.559 17.5736 62.6807 17.5789H64.6566C64.7326 17.5794 64.8072 17.599 64.8738 17.6357C64.9405 17.6724 64.9969 17.7251 65.0381 17.7892C65.0793 17.8532 65.1041 17.9264 65.11 18.0024C65.1158 18.0783 65.1026 18.1545 65.0717 18.2241L61.8931 27.1713C61.8669 27.2965 61.7986 27.409 61.6996 27.4899C61.6006 27.5708 61.4768 27.6152 61.349 27.6157H58.6285Z" fill="white"/>
<path d="M67.4118 21.6223C67.5155 21.0386 67.8199 20.5096 68.2724 20.1272C68.7249 19.7449 69.2967 19.5331 69.8888 19.5289C70.4806 19.5225 71.0549 19.7311 71.505 20.116C71.9551 20.5008 72.2508 21.036 72.3373 21.6223H67.4118ZM69.8603 17.3208C68.4553 17.3208 67.1077 17.8797 66.1142 18.8747C65.1207 19.8696 64.5625 21.219 64.5625 22.6261C64.5625 24.0331 65.1207 25.3824 66.1142 26.3774C67.1077 27.3723 68.4553 27.9313 69.8603 27.9313C70.7533 27.9391 71.6373 27.7532 72.4518 27.3864C73.1633 27.0537 73.79 26.5634 74.2845 25.9526C74.3187 25.9121 74.3433 25.8645 74.3569 25.8132C74.3705 25.762 74.3726 25.7085 74.363 25.6564C74.3534 25.6043 74.3324 25.5549 74.3015 25.5119C74.2706 25.4689 74.2305 25.4334 74.1842 25.4077L72.7524 24.49C72.6684 24.4344 72.5661 24.4137 72.4672 24.4324C72.3682 24.4512 72.2805 24.5079 72.2226 24.5904C71.9628 24.8943 71.6529 25.1513 71.3063 25.3503C70.8614 25.5683 70.3693 25.6718 69.8745 25.6514C69.222 25.6681 68.5882 25.4335 68.1034 24.996C67.6186 24.5585 67.3198 23.9515 67.2686 23.2999H74.4277C74.8 23.2999 74.9001 23.0992 74.9001 22.8411V22.3536C74.9082 21.6838 74.7809 21.0193 74.5256 20.4002C74.2703 19.7811 73.8923 19.2201 73.4146 18.7512C72.937 18.2822 72.3696 17.915 71.7464 17.6717C71.1232 17.4283 70.4572 17.3138 69.7886 17.3352" fill="white"/>
<path d="M114.962 30.6124C114.871 30.5099 114.82 30.3772 114.82 30.2396C114.82 30.1021 114.871 29.9693 114.962 29.8668L115.606 28.9635C115.653 28.8979 115.712 28.8428 115.781 28.8018C115.85 28.7607 115.927 28.7347 116.006 28.7252C116.086 28.7157 116.167 28.7231 116.243 28.7469C116.32 28.7707 116.391 28.8102 116.451 28.8631C116.811 29.1595 117.26 29.3262 117.725 29.3363C118.034 29.3284 118.332 29.2208 118.574 29.0296C118.817 28.8384 118.991 28.5738 119.071 28.2753L119.315 27.6157H118.37C118.25 27.6128 118.135 27.5704 118.042 27.4953C117.948 27.4201 117.883 27.3163 117.854 27.1999L114.819 18.2241C114.733 17.8943 114.819 17.5788 115.263 17.5788H117.396C117.654 17.5788 117.797 17.7939 117.854 18.0233L120.045 25.1925L122.093 18.0233C122.119 17.898 122.187 17.7856 122.286 17.7047C122.385 17.6239 122.509 17.5794 122.637 17.5788H124.698C125.071 17.5788 125.185 17.8513 125.071 18.2241L121.706 28.6911C121.509 29.545 121.024 30.3049 120.333 30.8429C119.642 31.3808 118.787 31.664 117.912 31.6448C116.863 31.6622 115.845 31.295 115.048 30.6124" fill="white"/>
<path d="M108.738 25.422C108.166 25.4593 107.595 25.3234 107.1 25.0318C106.605 24.7403 106.21 24.3066 105.964 23.787C105.718 23.2674 105.635 22.6858 105.723 22.1179C105.812 21.5499 106.069 21.0217 106.461 20.6018C106.853 20.1819 107.362 19.8897 107.922 19.7631C108.482 19.6365 109.067 19.6813 109.601 19.8918C110.135 20.1022 110.594 20.4687 110.917 20.9434C111.241 21.4182 111.415 21.9794 111.416 22.5543C111.433 22.9199 111.377 23.2852 111.251 23.6287C111.125 23.9722 110.931 24.2869 110.682 24.5543C110.432 24.8216 110.132 25.0361 109.798 25.1852C109.464 25.3342 109.104 25.4147 108.738 25.422ZM113.664 17.5788H111.831C111.775 17.5807 111.719 17.5936 111.668 17.617C111.617 17.6403 111.57 17.6736 111.532 17.7149C111.493 17.7562 111.463 17.8046 111.443 17.8576C111.423 17.9105 111.414 17.9668 111.416 18.0233V18.7546C111.079 18.2585 110.62 17.858 110.083 17.5917C109.546 17.3254 108.95 17.2025 108.352 17.2347C107.014 17.3333 105.763 17.935 104.85 18.919C103.937 19.9031 103.43 21.1967 103.43 22.5399C103.43 23.8832 103.937 25.1767 104.85 26.1608C105.763 27.1448 107.014 27.7466 108.352 27.8452C108.952 27.8757 109.55 27.7521 110.089 27.4861C110.627 27.2201 111.089 26.8205 111.43 26.3253V27.1283C111.43 27.2399 111.474 27.3471 111.551 27.4274C111.629 27.5076 111.734 27.5547 111.846 27.5584H113.678C113.79 27.5547 113.895 27.5076 113.973 27.4274C114.05 27.3471 114.094 27.2399 114.093 27.1283V17.966C114.095 17.9095 114.086 17.8532 114.066 17.8002C114.047 17.7473 114.016 17.6988 113.978 17.6575C113.939 17.6162 113.893 17.583 113.842 17.5597C113.79 17.5363 113.735 17.5234 113.678 17.5215" fill="white"/>
<path d="M97.2701 25.4219C96.9029 25.4165 96.5405 25.3374 96.2043 25.1894C95.8681 25.0414 95.565 24.8274 95.3127 24.5601C95.0605 24.2928 94.8642 23.9776 94.7356 23.633C94.607 23.2885 94.5488 22.9217 94.5641 22.5543C94.5949 22.0261 94.7794 21.5184 95.0948 21.094C95.4102 20.6696 95.8427 20.3469 96.339 20.1658C96.8354 19.9847 97.374 19.953 97.8881 20.0747C98.4023 20.1964 98.8695 20.4661 99.2324 20.8506C99.5952 21.2351 99.8378 21.7177 99.9301 22.2386C100.022 22.7595 99.9605 23.2961 99.7518 23.7822C99.5432 24.2682 99.1969 24.6825 98.7559 24.9739C98.3149 25.2652 97.7984 25.421 97.2701 25.4219ZM102.21 13.8078H100.377C100.267 13.8149 100.163 13.8629 100.087 13.9425C100.01 14.022 99.9652 14.1273 99.9619 14.2379V18.7545C99.8434 18.5633 99.6989 18.3896 99.5325 18.2384C98.7893 17.5977 97.8354 17.2554 96.855 17.2776C95.492 17.3485 94.208 17.9407 93.2683 18.9319C92.3286 19.923 91.8047 21.2376 91.8047 22.6044C91.8047 23.9712 92.3286 25.2858 93.2683 26.2769C94.208 27.2681 95.492 27.8603 96.855 27.9311C97.4538 27.9537 98.0488 27.8266 98.5862 27.5612C99.1236 27.2959 99.5867 26.9007 99.9334 26.4113V27.2142C99.9334 27.3245 99.977 27.4302 100.055 27.5082C100.133 27.5862 100.238 27.63 100.349 27.63H102.167C102.223 27.6319 102.278 27.6226 102.33 27.6025C102.382 27.5825 102.43 27.5522 102.47 27.5134C102.51 27.4746 102.542 27.4282 102.564 27.3767C102.585 27.3253 102.597 27.2701 102.597 27.2142V14.3097C102.597 14.198 102.553 14.0907 102.476 14.0105C102.398 13.9302 102.293 13.8832 102.181 13.8795" fill="white"/>
<path d="M82.8455 17.5788H80.6261C80.026 17.5825 79.4512 17.8219 79.0255 18.2456C78.5997 18.6692 78.3571 19.2433 78.3496 19.8443V18.0233C78.3515 17.9668 78.3423 17.9105 78.3225 17.8575C78.3027 17.8046 78.2726 17.7562 78.2341 17.7149C78.1955 17.6736 78.1491 17.6403 78.0977 17.617C78.0463 17.5936 77.9907 17.5807 77.9343 17.5788H76.0874C76.031 17.5807 75.9754 17.5936 75.924 17.617C75.8726 17.6403 75.8264 17.6736 75.7878 17.7149C75.7493 17.7562 75.7191 17.8046 75.6992 17.8575C75.6794 17.9105 75.6702 17.9668 75.6721 18.0233V27.1999C75.6721 27.3102 75.7159 27.4159 75.7938 27.4939C75.8716 27.5718 75.9773 27.6157 76.0874 27.6157H77.9343C78.0444 27.6157 78.1501 27.5718 78.228 27.4939C78.3058 27.4159 78.3496 27.3102 78.3496 27.1999V21.4645C78.4439 20.8547 78.724 20.2888 79.1515 19.8443C79.4544 19.5331 79.8177 19.2874 80.2191 19.1221C80.6204 18.9569 81.0515 18.8758 81.4854 18.8837C81.5147 18.8868 81.5419 18.8998 81.5628 18.9207C81.5836 18.9415 81.5967 18.9689 81.5998 18.9983C81.5982 19.0275 81.5879 19.0555 81.5699 19.0785C81.552 19.1016 81.5275 19.1187 81.4997 19.1274C80.7163 19.2739 80.0135 19.7022 79.5238 20.3318C79.2735 20.6728 79.1156 21.0729 79.0655 21.4932H80.6978C81.3016 21.4932 81.8806 21.253 82.3075 20.8254C82.7345 20.3979 82.9743 19.8181 82.9743 19.2134V17.7796C82.9763 17.7615 82.9746 17.7431 82.9691 17.7257C82.9635 17.7084 82.9543 17.6925 82.9422 17.6789C82.93 17.6654 82.9149 17.6545 82.8983 17.6472C82.8816 17.6398 82.8637 17.636 82.8455 17.6361" fill="white"/>
<path d="M91.7051 17.5789H89.6578C89.5292 17.5767 89.4041 17.6201 89.3045 17.7015C89.2049 17.7829 89.1373 17.8969 89.1137 18.0234L87.0518 25.1926L84.8756 18.0234C84.8756 17.794 84.675 17.5789 84.4173 17.5789H83.7444V19.2135C83.7396 20.0064 83.4382 20.7687 82.8997 21.3499L84.8756 27.2C84.9016 27.3176 84.9668 27.4228 85.0605 27.4984C85.1542 27.574 85.2707 27.6154 85.391 27.6158H86.3359L86.0926 28.2754C86.0124 28.5739 85.838 28.8384 85.5955 29.0296C85.3529 29.2209 85.0551 29.3284 84.7466 29.3364C84.2808 29.3263 83.832 29.1596 83.4722 28.8632C83.4119 28.8103 83.3412 28.7707 83.2646 28.747C83.188 28.7232 83.1072 28.7158 83.0276 28.7253C82.948 28.7347 82.8712 28.7608 82.8023 28.8018C82.7334 28.8429 82.6738 28.898 82.6275 28.9636L81.9833 29.8669C81.8887 29.9679 81.8359 30.1012 81.8359 30.2397C81.8359 30.3782 81.8887 30.5115 81.9833 30.6125C82.78 31.2951 83.7985 31.6623 84.8469 31.6448C85.7213 31.6614 86.575 31.3772 87.2655 30.8397C87.956 30.3022 88.4416 29.5438 88.6412 28.6911L92.0059 18.2241C92.1205 17.8513 92.0059 17.5789 91.6193 17.5789" fill="white"/>
</g>
<defs>
<clipPath id="clip0_332_13080">
<rect width="139" height="70" fill="white"/>
</clipPath>
</defs>
</svg>
