<svg width="155" height="70" viewBox="0 0 155 70" fill="none" xmlns="http://www.w3.org/2000/svg">
<path d="M133.831 70H0.705958C0.315825 70 0 69.6866 0 69.3003V20.9998C0 9.40154 9.47777 0 21.1702 0H154.295C154.684 0 155 0.313385 155 0.699739V49.0002C155 60.5977 145.522 70 133.831 70Z" fill="#FD6400"/>
<path d="M36.8357 20.7643H30.3811C26.7418 20.7643 23.7897 23.7153 23.7599 27.3638V22.0409C23.7599 21.3096 23.2141 20.7635 22.5491 20.7635H17.1662C16.5004 20.7635 15.9546 21.3096 15.9546 22.0409V48.8475C15.9546 49.515 16.4988 50.0619 17.1631 50.0619H22.5514C23.2156 50.0619 23.7599 49.515 23.7599 48.8475L23.7622 32.2504C23.7622 32.2105 23.7645 32.1698 23.7698 32.1291C24.0374 30.3118 24.8247 28.6565 26.0753 27.3584C27.8036 25.5687 30.216 24.5825 32.87 24.5825C33.0527 24.5825 33.2041 24.7246 33.2186 24.9089C33.2316 25.0925 33.1024 25.2554 32.9212 25.2815C32.8845 25.2868 29.2506 25.8583 27.1661 28.7917C26.4697 29.7756 26.021 30.9101 25.8215 32.1898H30.602C34.2605 32.1898 37.2256 29.2103 37.2256 25.5342V21.156C37.2256 20.9402 37.0505 20.7643 36.8357 20.7643Z" fill="white"/>
<path d="M49.287 25.2875C49.5882 23.8412 50.7203 22.8934 52.0901 22.8934C53.3857 22.8934 54.5851 23.7275 54.8687 25.2875H49.287ZM52.0649 20.4308C48.5769 20.4308 46.0819 23.1338 46.0819 26.5196C46.0819 29.9046 48.5769 32.5131 52.1344 32.5131C53.291 32.5131 54.2587 32.2726 55.082 31.894C55.9312 31.4899 56.6597 30.9023 57.1565 30.2395C57.301 30.0498 57.301 29.784 57.0373 29.6204L55.3648 28.5781C55.1072 28.439 54.9184 28.5082 54.7548 28.6979C54.4223 29.0773 54.1142 29.3354 53.7183 29.5505C53.291 29.7656 52.7941 29.9046 52.1849 29.9046C50.6507 29.9046 49.3811 28.8369 49.2114 27.2324H57.3201C57.7474 27.2324 57.8667 26.9927 57.8667 26.7085V26.1401C57.8667 23.1084 55.5788 20.4308 52.0649 20.4308Z" fill="white"/>
<path d="M61.7192 32.179C61.389 32.179 61.1765 31.9662 61.0825 31.682L57.4768 21.4986C57.3354 21.1191 57.5479 20.7643 57.9247 20.7643H60.2111C60.5642 20.7643 60.7056 20.977 60.8004 21.2389L63.3688 29.0766L65.7254 21.2389C65.7958 20.977 65.9609 20.7643 66.3148 20.7643H68.5537C68.9313 20.7643 69.1431 21.1191 69.0254 21.4986L65.4189 31.682C65.3486 31.9662 65.1132 32.179 64.8066 32.179H61.7192Z" fill="white"/>
<path d="M71.6686 25.2875C71.9767 23.8412 73.108 22.8934 74.4717 22.8934C75.7673 22.8934 76.9736 23.7275 77.2564 25.2875H71.6686ZM74.4464 20.4308C70.9646 20.4308 68.4635 23.1338 68.4635 26.5196C68.4635 29.9046 70.9646 32.5131 74.5221 32.5131C75.6726 32.5131 76.6403 32.2726 77.4635 31.894C78.3128 31.4899 79.0481 30.9023 79.5381 30.2395C79.6826 30.0498 79.6826 29.784 79.4242 29.6204L77.7464 28.5781C77.4888 28.439 77.3 28.5082 77.1364 28.6979C76.8039 29.0773 76.5019 29.3354 76.0998 29.5505C75.6726 29.7656 75.1826 29.9046 74.5665 29.9046C73.0323 29.9046 71.7626 28.8369 71.5998 27.2324H79.7078C80.129 27.2324 80.2483 26.9927 80.2483 26.7085V26.1401C80.2483 23.1084 77.9604 20.4308 74.4464 20.4308Z" fill="white"/>
<path d="M125.604 35.5935C125.392 35.3808 125.368 35.0259 125.58 34.7417L126.311 33.7232C126.594 33.3445 126.994 33.3914 127.277 33.6042C127.679 33.9122 128.149 34.1495 128.714 34.1495C129.445 34.1495 129.988 33.6525 130.247 32.9421L130.518 32.1801H129.459C129.152 32.1801 128.964 31.9904 128.869 31.7069L125.428 21.4989C125.333 21.1202 125.405 20.7661 125.922 20.7661H128.351C128.633 20.7661 128.798 21.0019 128.869 21.2631L131.344 29.4088L133.676 21.2631C133.747 21.0019 133.936 20.7661 134.289 20.7661H136.623C137.047 20.7661 137.189 21.0734 137.047 21.4989L133.24 33.4152C132.58 35.4514 131.167 36.7779 128.927 36.7779C127.584 36.7779 126.381 36.3286 125.604 35.5935Z" fill="white"/>
<path d="M118.533 29.6895C116.785 29.6895 115.465 28.2493 115.465 26.4681C115.465 24.6938 116.785 23.2728 118.533 23.2728C120.274 23.2728 121.575 24.6938 121.575 26.4681C121.575 28.2493 120.274 29.6895 118.533 29.6895ZM124.12 20.765H122.04C121.807 20.765 121.575 20.9793 121.575 21.2642V22.1614C121.009 21.169 119.708 20.4308 118.105 20.4308C115.113 20.4308 112.404 22.7797 112.404 26.4497C112.404 30.1189 115.113 32.5131 118.086 32.5131C119.689 32.5131 120.984 31.7741 121.575 30.7818V31.7042C121.575 31.9631 121.782 32.1782 122.04 32.1782H124.12C124.378 32.1782 124.592 31.9631 124.592 31.7042V21.2642C124.592 20.9793 124.378 20.765 124.12 20.765Z" fill="white"/>
<path d="M105.533 29.6836C103.78 29.6836 102.46 28.2311 102.46 26.4499C102.46 24.6686 103.78 23.2415 105.533 23.2415C107.287 23.2415 108.588 24.6686 108.588 26.4499C108.588 28.2311 107.287 29.6836 105.533 29.6836ZM111.14 16.4707H109.059C108.827 16.4707 108.595 16.6858 108.588 16.9638L108.562 22.0732C108.437 21.8643 108.273 21.6669 108.079 21.4841C107.392 20.8366 106.311 20.3865 105.036 20.3865C102.083 20.3865 99.3797 22.7676 99.3797 26.4245C99.3797 30.1129 102.083 32.5132 105.087 32.5132C106.696 32.5132 107.922 31.7743 108.588 30.7758V31.7044C108.588 31.9633 108.802 32.1783 109.059 32.1783H111.115C111.404 32.1783 111.611 31.9633 111.611 31.7044V16.9638C111.605 16.6858 111.372 16.4707 111.14 16.4707Z" fill="white"/>
<path d="M89.0894 20.765H86.5745C85.1565 20.765 84.0061 21.9149 83.9947 23.3366V21.262C83.9947 20.977 83.7822 20.765 83.523 20.765H81.4255C81.1664 20.765 80.9539 20.977 80.9539 21.262V31.7058C80.9539 31.967 81.1664 32.1797 81.4247 32.1797H83.5238C83.7829 32.1797 83.9947 31.967 83.9947 31.7058L83.9954 25.2407C83.9954 25.2246 83.9969 25.2085 83.9992 25.1931C84.1032 24.4849 84.4097 23.8397 84.8974 23.3343C85.5701 22.6369 86.5095 22.2528 87.5445 22.2528C87.6156 22.2528 87.6745 22.3081 87.6798 22.3796C87.6852 22.451 87.6347 22.5147 87.5644 22.5247C87.5499 22.527 86.1334 22.7498 85.3216 23.8927C85.0503 24.276 84.876 24.7184 84.798 25.2161H86.6609C88.0857 25.2161 89.2407 24.0555 89.2407 22.6238V20.9179C89.2407 20.8334 89.1735 20.765 89.0894 20.765Z" fill="white"/>
<path d="M99.2353 20.765H96.9031C96.5484 20.765 96.3604 21.0016 96.2901 21.262L93.9563 29.4092L91.4812 21.262C91.4109 21.0016 91.2465 20.765 90.9637 20.765H90.1955V22.6238C90.1955 23.5609 89.8301 24.4119 89.2369 25.0479L91.4812 31.7058C91.576 31.99 91.7648 32.1797 92.0713 32.1797H93.1316L92.8594 32.9409C92.6003 33.6514 92.0583 34.1484 91.3283 34.1484C90.7619 34.1484 90.291 33.9118 89.8897 33.6046C89.6077 33.391 89.2064 33.3434 88.9235 33.7221L88.1928 34.7406C87.9803 35.0255 88.0047 35.3796 88.2165 35.5932C88.9939 36.3282 90.1955 36.7776 91.5393 36.7776C93.779 36.7776 95.1924 35.4511 95.8528 33.4141L99.6595 21.4993C99.801 21.0722 99.6595 20.765 99.2353 20.765Z" fill="white"/>
<path d="M82.3902 38.5727H80.4111C80.058 38.5727 79.8921 38.8093 79.8218 39.0458L77.7724 46.3366L75.8163 39.0458C75.7231 38.714 75.5106 38.5727 75.2048 38.5727H72.7541C72.4484 38.5727 72.2596 38.714 72.1648 39.0458L70.2102 46.3366L68.2075 39.0458C68.1364 38.7855 67.972 38.5727 67.6189 38.5727H65.4044C65.0268 38.5727 64.8151 38.8331 64.9557 39.2594L68.2312 49.4851C68.326 49.7693 68.5377 49.982 68.8442 49.982H71.4822C71.7887 49.982 72.0241 49.7693 72.0952 49.4851L73.9084 42.6436L75.7231 49.4851C75.7934 49.7693 76.0296 49.982 76.359 49.982H78.9267C79.2569 49.982 79.4686 49.7693 79.5626 49.4851L82.8373 39.2594C82.9795 38.8331 82.7662 38.5727 82.3902 38.5727Z" fill="white"/>
<path d="M94.2919 38.5722H92.2188C91.9826 38.5722 91.7472 38.785 91.7472 39.0692V39.9686C91.1815 38.9739 89.8859 38.2404 88.2844 38.2404C85.2926 38.2404 82.5835 40.5846 82.5835 44.2531C82.5835 47.9223 85.2926 50.3126 88.2607 50.3126C89.8629 50.3126 91.1586 49.5791 91.7472 48.5852V49.5092C91.7472 49.7688 91.9597 49.9816 92.2188 49.9816H94.2919C94.551 49.9816 94.7627 49.7688 94.7627 49.5092V39.0692C94.7627 38.785 94.551 38.5722 94.2919 38.5722ZM88.7087 47.4968C86.9651 47.4968 85.6457 46.0527 85.6457 44.2761C85.6457 42.5011 86.9651 41.0816 88.7087 41.0816C90.4523 41.0816 91.7472 42.5011 91.7472 44.2761C91.7472 46.0527 90.4523 47.4968 88.7087 47.4968Z" fill="white"/>
<path d="M122.552 43.0931L120.693 42.7383C119.657 42.5493 119.257 42.1952 119.257 41.6506C119.257 41.1068 119.917 40.6344 120.952 40.6344C121.94 40.6344 122.906 41.0838 123.635 41.6038C124.058 41.8642 124.412 41.8642 124.694 41.5331L125.447 40.6344C125.706 40.3272 125.753 39.9716 125.424 39.6881C124.694 39.0499 123.188 38.2457 121.022 38.2457C118.104 38.2457 116.221 39.8302 116.221 41.8872C116.221 43.7322 117.445 44.8913 119.281 45.2684L121.093 45.6478C122.27 45.8844 122.906 46.1202 122.906 46.7823C122.906 47.3737 122.317 47.9176 121.093 47.9176C119.893 47.9176 118.951 47.3983 118.198 46.7355C117.916 46.4989 117.586 46.3099 117.139 46.6648L116.268 47.3738C115.798 47.7524 115.751 48.2955 116.622 48.9583C117.515 49.6435 118.975 50.3056 120.952 50.3056C123.941 50.3056 126.011 48.698 126.011 46.4989C126.011 44.4411 124.552 43.4718 122.552 43.0931Z" fill="white"/>
<path d="M65.2684 43.9455V44.5139C65.2684 44.7981 65.1506 45.0347 64.7264 45.0347H56.6207C56.7858 46.6446 58.0585 47.7099 59.5896 47.7099C60.2027 47.7099 60.6972 47.5678 61.1215 47.3551C61.522 47.1416 61.8285 46.8819 62.158 46.5025C62.3231 46.3128 62.5119 46.2421 62.7711 46.3842L64.4436 47.4257C64.7035 47.5917 64.7035 47.852 64.562 48.041C64.0667 48.7039 63.3367 49.2961 62.4882 49.6986C61.6634 50.0772 60.6972 50.3146 59.543 50.3146C55.9847 50.3146 53.4874 47.7099 53.4874 44.3242C53.4874 40.9384 55.9847 38.2393 59.4719 38.2393C62.9828 38.2393 65.2684 40.9153 65.2684 43.9455ZM59.4956 40.7018C58.1288 40.7018 56.9975 41.6489 56.6918 43.0929H62.2765C61.9929 41.5306 60.7913 40.7018 59.4956 40.7018Z" fill="white"/>
<path d="M52.944 38.4291C53.1794 38.4291 53.4859 38.5473 53.4859 39.0213V41.0575C53.4859 41.5306 53.1091 41.6489 52.9203 41.6489H52.3546C50.8472 41.6489 49.975 42.4301 49.975 44.3956V49.5335C49.975 49.7939 49.7159 49.9828 49.4805 49.9828H47.4067C47.1475 49.9828 46.9358 49.77 46.9358 49.5097V39.0689C46.9358 38.7847 47.1475 38.5711 47.4067 38.5711H49.3628C49.5982 38.5711 49.8336 38.7847 49.8336 39.0213V40.1104C50.423 39.0919 51.4129 38.4291 52.6138 38.4291H52.944Z" fill="white"/>
<path d="M108.848 47.4956C107.098 47.4956 105.773 46.0462 105.773 44.2626C105.773 42.4799 107.098 41.0551 108.848 41.0551C110.598 41.0551 111.899 42.4799 111.899 44.2626C111.899 46.0462 110.598 47.4956 108.848 47.4956ZM112.372 34.2896C112.138 34.2896 111.893 34.4993 111.888 34.7805V39.8899C111.32 38.9389 109.984 38.2023 108.352 38.2023C105.396 38.2023 102.699 40.5796 102.699 44.2388C102.699 47.9234 105.396 50.323 108.4 50.323C110.008 50.323 111.236 49.5863 111.899 48.5886V49.5157C111.899 49.7768 112.112 49.9911 112.373 49.9911H114.43C114.714 49.9911 114.926 49.7768 114.926 49.5157V34.7812C114.922 34.5001 114.689 34.2904 114.455 34.2904L112.372 34.2896Z" fill="white"/>
<path d="M102.149 38.4283C102.385 38.4283 102.691 38.5466 102.691 39.0205V41.0567C102.691 41.5299 102.314 41.6482 102.125 41.6482H101.56C100.052 41.6482 99.1802 42.4293 99.1802 44.3949V49.5327C99.1802 49.7931 98.9211 49.9821 98.6856 49.9821H96.6118C96.3527 49.9821 96.1409 49.7693 96.1409 49.5089V39.0681C96.1409 38.7839 96.3527 38.5704 96.6118 38.5704H98.5671C98.8033 38.5704 99.0388 38.7839 99.0388 39.0205V40.1097C99.6281 39.0912 100.618 38.4283 101.819 38.4283H102.149Z" fill="white"/>
</svg>
