<svg width="22" height="20" viewBox="0 0 22 20" fill="none" xmlns="http://www.w3.org/2000/svg">
<path d="M13.3125 16.081C12.5257 16.081 11.886 15.4413 11.886 14.6545C11.886 13.8678 12.5257 13.228 13.3125 13.228C14.0992 13.228 14.7389 13.8678 14.7389 14.6545C14.7389 15.4413 14.0992 16.081 13.3125 16.081ZM11.761 8.43391C11.761 8.43391 11.9595 8.22803 12.0478 8.13244L13.011 7.06626C13.6654 6.32361 14.6581 5.20596 15.0257 5.0589C15.5845 4.83831 17.1434 4.70596 19.1948 4.70596C19.2978 4.70596 19.3934 4.70596 19.4816 4.70596V14.1692H15.4154C15.1948 13.206 14.3345 12.4927 13.3125 12.4927C12.2904 12.4927 11.4301 13.2133 11.2095 14.1692H9.12128C8.78304 14.1692 8.46686 14.1692 8.46686 13.2795V13.228H7.73157V13.2795C7.73157 14.3751 8.18745 14.9045 9.12128 14.9045H11.1728C11.2978 15.9781 12.2022 16.8163 13.3125 16.8163C14.4228 16.8163 15.3272 15.9781 15.4522 14.9045H19.7831C20.0257 14.9045 20.2169 14.7133 20.2169 14.4781V4.40449C20.2169 4.16919 20.0257 3.97066 19.7904 3.97066C19.6213 3.97066 19.4228 3.97066 19.2022 3.97066C17.9228 3.97066 15.6507 4.02213 14.761 4.38243C14.2684 4.58096 13.5331 5.38243 12.4742 6.58096L12.0625 7.02949C11.6213 6.00008 10.761 4.02213 10.3639 3.58095C9.87128 3.02948 9.23157 2.86036 8.61392 3.11772L7.95951 3.38242C7.76833 3.45595 7.6801 3.67654 7.75363 3.86037C7.82716 4.05154 8.04039 4.13978 8.23157 4.06625L8.88598 3.80154C9.22422 3.66184 9.52569 3.75007 9.8051 4.06625C10.0992 4.39713 10.9669 6.33832 11.511 7.62508C11.4595 7.67656 11.2978 7.83832 11.2316 7.89714L11.7536 8.42656" fill="#3A474E"/>
<path d="M18.1287 9.35311H13.9081C13.6434 9.35311 13.4081 9.1987 13.2978 8.95605C13.1875 8.72076 13.2242 8.4487 13.3934 8.25017L15.0184 6.00751C15.2757 5.7134 15.6434 5.55163 16.0184 5.55163H17.9816C18.4375 5.55163 18.8052 5.91928 18.8052 6.37516V8.68399C18.8052 9.059 18.5037 9.36047 18.1287 9.36047V9.35311ZM14.0331 8.61782H18.0699V6.36781C18.0699 6.32369 18.0331 6.27957 17.9816 6.27957H16.0184C15.8566 6.27957 15.6875 6.3531 15.5919 6.4634L14.0331 8.61782Z" fill="#3A474E"/>
<path d="M4.81986 9.71344L3.74632 8.64726C3.58456 8.48549 3.58456 8.22814 3.74632 8.06637L4.40074 7.41196C4.5625 7.25019 4.81986 7.25019 4.98162 7.41196L7.29045 9.72079C7.45222 9.88256 7.45222 10.1399 7.29045 10.3017L4.98162 12.6105C4.81986 12.7723 4.5625 12.7723 4.40074 12.6105L3.74632 11.9561C3.58456 11.7943 3.58456 11.537 3.74632 11.3752L4.8125 10.309C4.97427 10.1473 4.97427 9.88991 4.8125 9.72814L4.81986 9.71344Z" fill="#3A474E"/>
<path d="M9.09946 9.71344L8.03328 8.64726C7.87151 8.48549 7.87151 8.22814 8.03328 8.06637L8.68769 7.41196C8.84946 7.25019 9.10681 7.25019 9.26857 7.41196L11.5774 9.72079C11.7392 9.88256 11.7392 10.1399 11.5774 10.3017L9.26857 12.6105C9.10681 12.7723 8.84946 12.7723 8.68769 12.6105L8.03328 11.9561C7.87151 11.7943 7.87151 11.537 8.03328 11.3752L9.09946 10.309C9.26122 10.1473 9.26122 9.88991 9.09946 9.72814V9.71344Z" fill="#3A474E"/>
</svg>
