<svg width="24" height="13" viewBox="0 0 24 13" fill="none" xmlns="http://www.w3.org/2000/svg">
<path fill="#3A474E" d="M7.64277 5.66291C7.64277 5.66291 7.34277 3.99041 7.18527 3.48041L7.17777 3.46541C7.07277 3.06041 6.99027 2.79041 6.78027 2.67041C6.57027 2.55791 6.21777 2.58041 5.72277 2.74541C5.56527 2.79791 5.40777 2.71541 5.35527 2.56541C5.30277 2.41541 5.38527 2.25041 5.54277 2.19791C6.21027 1.98041 6.70527 1.97291 7.06527 2.16791C7.51527 2.41541 7.64277 2.91041 7.74777 3.31541C7.89777 3.78791 8.05527 4.56041 8.16777 5.21291C8.42277 4.92041 9.78027 3.31541 10.1553 2.91041C10.3428 2.70791 10.5603 2.54291 10.7703 2.46041C11.4303 2.18291 13.5678 2.17541 14.2053 2.17541C16.0653 2.16041 17.2278 2.25791 17.6553 2.46041C17.9628 2.61791 18.1203 2.76791 18.2028 2.85041C18.2178 2.86541 19.0278 3.78041 19.4328 4.29791C19.8453 4.82291 20.2803 5.36291 20.6478 5.72291C20.6853 5.76041 20.8878 5.76041 21.1428 5.75291C21.2853 5.75291 21.4578 5.74541 21.6528 5.74541C22.4403 5.74541 23.0403 5.94791 23.4378 6.34541C23.8053 6.71291 24.0003 7.24541 24.0003 7.92041C24.0003 7.99541 23.9928 9.33041 23.9928 9.43541C23.9928 9.81791 23.9403 10.3579 23.4978 10.6204C23.2053 10.7929 22.8228 10.7929 22.3878 10.7929H21.3603C21.2853 11.9104 20.3553 12.7954 19.2153 12.7954C18.0828 12.7954 17.1528 11.9104 17.0703 10.8004H11.3703C11.2878 11.9179 10.3578 12.7954 9.22527 12.7954C8.08527 12.7954 7.15527 11.9104 7.08027 10.7929H6.01527C5.57277 10.7929 5.19777 10.7929 4.90527 10.6204C4.46277 10.3579 4.41027 9.81791 4.41027 9.43541C4.41027 9.33041 4.40277 7.99541 4.40277 7.92041C4.40277 7.24541 4.59027 6.71291 4.95777 6.34541C5.35527 5.94791 5.95527 5.75291 6.74277 5.75291H6.75027H7.41027C7.47777 5.76041 7.66527 5.76041 7.64277 5.66291ZM10.7928 10.6579C10.7928 9.79541 10.0878 9.09041 9.22527 9.09041C8.36277 9.09041 7.65777 9.79541 7.65777 10.6579C7.65777 11.5204 8.36277 12.2254 9.22527 12.2254C10.0878 12.2254 10.7928 11.5204 10.7928 10.6579ZM20.7828 10.6579C20.7828 9.79541 20.0778 9.09041 19.2153 9.09041C18.3528 9.09041 17.6478 9.79541 17.6478 10.6579C17.6478 11.5204 18.3528 12.2254 19.2153 12.2254C20.0778 12.2254 20.7828 11.5204 20.7828 10.6579ZM23.4153 7.92791C23.4153 7.41041 23.2878 7.02041 23.0253 6.76541C22.7403 6.48041 22.2753 6.33791 21.6453 6.33791H21.6378C21.4428 6.33791 21.2853 6.34541 21.1503 6.34541C20.6928 6.35291 20.4453 6.36041 20.2278 6.15041C19.8378 5.77541 19.3953 5.21291 18.9678 4.67291C18.5703 4.17791 17.7978 3.30041 17.7828 3.27791C17.7153 3.21041 17.6103 3.10541 17.3928 3.00041C17.0703 2.84291 15.8778 2.76041 14.1978 2.76791C12.6378 2.75291 11.3478 2.85041 10.9878 3.00041C10.8603 3.05291 10.7028 3.16541 10.5828 3.30041C10.2228 3.69791 8.64777 5.55041 8.31027 5.93291C7.98777 6.29291 7.68777 6.34541 7.41027 6.34541H6.74277H6.73527C6.10527 6.34541 5.64777 6.48791 5.36277 6.77291C5.10777 7.02791 4.98027 7.41791 4.98027 7.93541C4.98027 8.01041 4.98777 9.34541 4.98777 9.45041C4.98777 10.0129 5.13777 10.1029 5.19777 10.1329C5.35527 10.2229 5.66277 10.2229 6.01527 10.2229H7.11777C7.32027 9.24791 8.19027 8.50541 9.22527 8.50541C10.2678 8.50541 11.1378 9.24791 11.3328 10.2304H17.1078C17.3103 9.24791 18.1803 8.50541 19.2153 8.50541C20.2503 8.50541 21.1203 9.24041 21.3228 10.2229H22.3878C22.7403 10.2229 23.0478 10.2229 23.2053 10.1329C23.2653 10.1029 23.4153 10.0129 23.4153 9.45041C23.4153 9.33791 23.4153 7.99541 23.4153 7.92791ZM18.7278 5.87291C18.8778 6.03041 18.9153 6.25541 18.8328 6.45791C18.7428 6.67541 18.5253 6.81041 18.2853 6.81041H14.1228C13.7928 6.81041 13.5303 6.55541 13.5303 6.24791V4.18541C13.5303 3.80291 13.8603 3.48791 14.2728 3.48791H16.2078C16.6128 3.48791 16.8678 3.59291 17.1303 3.87041L17.1453 3.89291L18.7278 5.87291ZM18.2553 6.22541L16.6878 4.26791C16.5453 4.11791 16.4553 4.07291 16.1928 4.07291H14.2578C14.1753 4.07291 14.1003 4.12541 14.1003 4.18541V6.22541H14.1078H18.2553ZM2.57277 1.95791C3.09027 1.84541 3.42777 1.32791 3.32277 0.795412C3.21027 0.255412 2.70777 -0.0895884 2.19027 0.0229116C1.67277 0.135412 1.33527 0.652912 1.44027 1.18541C1.54527 1.71791 2.05527 2.06291 2.57277 1.95791ZM5.28027 4.74041L3.81777 4.26791L2.80527 2.62541C2.69277 2.46041 2.49777 2.34041 2.14527 2.34041C1.77027 2.34041 1.44777 2.59541 1.38777 2.97791L0.742774 6.89291C0.727774 6.94541 0.720274 6.99791 0.727774 7.05041L0.915274 9.90791L0.0377739 12.1279C-0.0672261 12.3979 0.0602739 12.7054 0.330274 12.8104C0.390274 12.8329 0.457774 12.8479 0.525274 12.8479C0.735274 12.8479 0.930274 12.7204 1.01277 12.5179L1.93527 10.1929C1.96527 10.1179 1.97277 10.0429 1.97277 9.96791L1.92777 9.30041L2.22027 9.92291L2.71527 12.4129C2.76777 12.6604 2.98527 12.8329 3.23277 12.8329C3.27027 12.8329 3.30027 12.8329 3.33777 12.8254C3.62277 12.7654 3.81027 12.4954 3.75027 12.2104L3.24777 9.66041C3.24027 9.61541 3.22527 9.57791 3.21027 9.54041L2.19777 7.40291C2.21277 7.32791 2.71527 4.25291 2.71527 4.25291L3.12027 4.90541C3.18027 5.00291 3.27027 5.07041 3.37527 5.10791L5.00277 5.63291C5.04777 5.64791 5.10027 5.65541 5.14527 5.65541C5.34027 5.65541 5.52777 5.52791 5.58777 5.33291C5.66277 5.08541 5.52777 4.82291 5.28027 4.74041Z"/>
</svg>