<svg width="54" height="49" viewBox="0 0 54 49" fill="none" xmlns="http://www.w3.org/2000/svg">
<path d="M42.4925 7.09813C42.4925 7.09813 36.73 4.50011 31.4389 7.61771C27.5624 9.852 27.1433 13.3333 27.1433 13.3333C27.1433 13.3333 24.9431 11.2549 24.7859 8.39713C24.6812 6.31871 25.5193 3.14916 28.8196 1.38252C36.5728 -2.72233 43.2782 3.25308 42.4925 7.09813Z" fill="#178841"/>
<path fill-rule="evenodd" clip-rule="evenodd" d="M53.6663 26.0377C53.6663 15.2363 45.5757 11.1111 39.7739 11.1111C34.6641 11.1111 32.1624 14.1507 32.1624 14.1507C37.4851 14.6935 43.9789 18.493 43.9789 26.4175C43.9789 31.8997 41.4772 35.265 38.5497 37.1647C36.7932 38.2503 35.1963 38.4675 35.1963 38.4675C36.8464 35.3736 37.698 32.2797 37.698 29.2402C37.698 23.0605 34.2028 17.5193 27.2122 17.4091L27.0001 17.4074L26.7872 17.4091C19.7966 17.5193 16.3013 23.0605 16.3013 29.2402C16.3013 32.2797 17.153 35.3736 18.803 38.4675C18.803 38.4675 17.2062 38.2503 15.4497 37.1647C12.5221 35.265 10.0204 31.8997 10.0204 26.4175C10.0204 18.493 16.5142 14.6935 21.837 14.1507C21.837 14.1507 19.3353 11.1111 14.2254 11.1111C8.42361 11.1111 0.333008 15.2363 0.333008 26.0377C0.333008 26.6347 0.333008 27.2862 0.439463 27.9374C1.29111 37.5448 8.63652 48.8889 19.2821 48.8889C21.987 48.8889 24.5903 48.1632 26.8434 46.9143L26.9994 46.8264C29.2882 48.1291 31.9495 48.8889 34.7173 48.8889C45.3628 48.8889 52.7082 37.5448 53.5599 27.9374C53.6663 27.2862 53.6663 26.6347 53.6663 26.0377ZM19.1757 23.4771C19.1757 23.4771 20.9854 21.3603 23.6468 21.3603C25.8983 21.3603 27.2013 22.5034 27.6722 22.9694L27.7211 23.0183L27.7985 23.0972C28.9695 24.2913 29.8744 26.1369 29.8744 28.7421C29.8744 31.4019 28.863 34.2243 27.0533 36.6126C25.2435 34.2786 24.2322 31.2933 24.2322 28.6335C24.2322 26.5167 24.8178 24.8884 25.5097 23.9114C25.1904 23.64 24.179 22.8801 22.7951 22.7172C20.3998 22.4459 19.1757 23.4771 19.1757 23.4771Z" fill="#178841"/>
</svg>
