<?xml version="1.0" encoding="UTF-8"?>
<svg xmlns="http://www.w3.org/2000/svg" width="171" height="48" viewBox="0 0 171 48" fill="none">
  <g clip-path="url(#clip0_4116_483)">
    <path d="M54.1937 24.6328C54.1937 32.0179 50.0004 38.3179 44.1479 41.9501C41.7798 43.3518 39.0647 44.0601 36.3195 43.9848C29.8636 43.9848 25.7156 40.8951 24.1016 38.2425C23.3324 36.9765 22.548 35.6653 20.9793 34.761C20.2704 34.3992 19.5162 34.143 18.7318 34.0224C17.3894 33.6758 16.1827 32.9373 15.2626 31.8974C14.6743 31.2945 13.1207 29.079 13 24.9644C13 24.8589 13 24.7534 13 24.6479C13 23.7436 13.0453 22.8544 13.1659 21.9652L13.4374 22.0104C13.6939 25.3563 15.0212 28.8228 18.581 29.5914C20.0441 29.9079 21.7486 29.8627 23.1061 30.5711C24.4636 31.2794 25.61 32.3344 26.4547 33.6155C29.6826 38.981 36.6513 39.825 41.9608 37.293C50.9658 32.9373 54.3294 20.458 49.3971 11.7617C49.3971 11.7617 49.563 11.6411 49.5781 11.6411C52.5647 15.3186 54.1937 19.9154 54.1937 24.6328ZM47.3608 9.32011C45.5809 10.3751 44.5552 12.3344 43.9368 14.3088C43.3183 16.2832 43.0619 18.348 42.353 20.2922C41.5083 22.5982 39.5172 25.3412 36.772 25.3261C33.9966 25.3111 32.639 22.2817 30.829 20.6389C29.034 19.0111 26.696 18.137 24.2676 18.1973C22.7139 18.1973 20.557 18.6494 19.2296 17.6095C17.2385 15.9968 18.0229 13.0428 19.124 11.1739C19.2447 10.978 20.4815 9.03375 20.4815 9.04882L20.3156 8.82275C18.4301 10.2395 16.8765 12.033 15.7452 14.0978C14.7195 16.0119 14.8553 18.981 16.3335 20.669C17.0424 21.4226 17.9626 21.9049 18.9882 22.0707C19.4558 22.1611 19.9234 22.2214 20.391 22.2365C22.186 22.3118 23.9659 22.0255 25.6553 22.7338C28.129 23.7738 29.2452 26.2154 30.9647 28.0993C33.8306 31.2493 39.7284 31.0081 42.6546 27.3457C46.8328 22.1008 44.3138 15.0473 47.5267 9.45576L47.3608 9.32011ZM35.2636 4.43692L35.3239 4.22591C34.1172 3.89434 28.4458 3.51755 25.1273 6.6223C24.1318 7.49645 23.634 8.79261 23.7849 10.1038C24.0262 11.3397 25.0821 12.2591 26.334 12.3495C27.3748 12.4098 28.8681 11.8371 29.8787 12.0933C30.9195 12.3646 31.5078 13.2086 32.3223 13.8567C33.1066 14.5349 34.1022 14.9267 35.158 14.972C37.4507 15.0021 38.582 13.3292 39.8038 11.6261C42.5189 7.8431 44.9474 7.85817 45.2641 7.85817L45.3094 7.67731C44.2384 7.28545 42.715 7.63209 41.644 7.91845C40.4072 8.25003 39.2608 8.83782 38.2653 9.63662C37.3904 10.3299 36.7569 11.2493 35.5351 11.2945C33.3781 11.3698 34.072 8.52132 30.4066 8.92825C29.8636 9.04882 29.2904 9.03375 28.7625 8.88304C28.31 8.68711 28.0083 8.2651 27.9329 7.76774C27.767 6.33594 29.7882 5.26585 30.9044 4.93428C31.0251 4.88906 31.1608 4.85892 31.2966 4.82878H31.3117C32.6089 4.52735 33.9362 4.3917 35.2636 4.43692ZM62.6557 22.9448H65.4311L67.9652 12.5906H68.0406L70.5294 22.9298H73.3048L76.6232 10.134H74.3305L71.9171 20.247H71.8266L69.383 10.134H66.6679L64.2244 20.247H64.149L61.7205 10.134H59.3523L62.6557 22.9448ZM80.7863 13.2237C83.5467 13.2387 85.779 15.4844 85.779 18.2425C85.779 21.0006 83.5165 23.2312 80.7562 23.2312C77.9958 23.2161 75.7634 20.9855 75.7634 18.2274C75.6729 15.5598 77.7696 13.3141 80.4545 13.2237C80.5601 13.2237 80.6657 13.2237 80.7863 13.2237ZM80.7863 21.4527C82.6416 21.4527 83.5467 20.0209 83.5467 18.2425C83.5467 16.464 82.6416 15.0322 80.7863 15.0322C78.931 15.0322 78.026 16.464 78.026 18.2425C78.026 20.0209 78.931 21.4527 80.7863 21.4527ZM91.5712 13.2237C94.3315 13.2387 96.5639 15.4844 96.5639 18.2425C96.5639 21.0006 94.3014 23.2312 91.541 23.2312C88.7807 23.2161 86.5483 20.9855 86.5483 18.2274C86.4578 15.5598 88.5545 13.3141 91.2394 13.2237C91.345 13.2237 91.4656 13.2237 91.5712 13.2237ZM91.5712 21.4527C93.4265 21.4527 94.3315 20.0209 94.3315 18.2425C94.3315 16.464 93.4265 15.0322 91.5712 15.0322C89.7159 15.0322 88.8109 16.464 88.8109 18.2425C88.8109 20.0209 89.7159 21.4527 91.5712 21.4527ZM99.8823 10.134H97.65V22.9298H99.8823V10.134ZM103.352 22.9448H105.75L107.786 15.8009H107.862L109.928 22.9448H112.311L115.313 13.5251H113.005L111.014 20.3525H110.939L109.023 13.5251H106.715L104.8 20.3525H104.724L102.748 13.5251H100.38L103.352 22.9448ZM120.17 13.2237C122.93 13.2387 125.163 15.4844 125.163 18.2425C125.163 21.0006 122.9 23.2312 120.14 23.2312C117.379 23.2161 115.147 20.9855 115.147 18.2274C115.057 15.5598 117.153 13.3141 119.838 13.2237C119.944 13.2237 120.064 13.2237 120.17 13.2237ZM120.17 21.4527C122.025 21.4527 122.93 20.0209 122.93 18.2425C122.93 16.464 122.025 15.0322 120.17 15.0322C118.315 15.0322 117.41 16.464 117.41 18.2425C117.41 20.0209 118.315 21.4527 120.17 21.4527ZM132.976 20.6539C132.886 21.8295 133.776 22.8544 134.937 22.9298C135.043 22.9448 135.148 22.9448 135.254 22.9298H137.863V21.1513H136.038C135.601 21.2116 135.193 20.9102 135.133 20.4731C135.118 20.3977 135.118 20.3224 135.133 20.247V15.2734H137.863V13.51H135.133V11.0533H132.961V13.51H132.086C129.929 13.51 129.024 14.1129 128.541 16.449H128.466V13.51H126.234V22.9298H128.466V19.2523C128.466 16.5997 129.643 15.2734 131.619 15.2734H132.961L132.976 20.6539ZM144.817 13.2086C143.143 13.1784 141.694 14.354 141.378 15.9968H141.272V10.134H139.04V22.9298H141.272V18.0466C141.272 16.3585 142.117 14.987 143.761 14.987C144.968 14.987 146.024 15.6502 146.024 17.4437V22.9448H148.256V16.7806C148.256 14.7459 146.974 13.2086 144.817 13.2086ZM149.176 19.8853C149.448 22.0104 151.122 23.2463 153.746 23.2463C156.296 23.2463 158 22.0556 158 20.1114C158 18.7549 157.201 17.8205 155.647 17.5643L152.856 17.1121C151.936 16.9463 151.544 16.6148 151.544 16.0119C151.544 15.3035 152.223 14.8966 153.55 14.8966C154.847 14.8966 155.541 15.4693 155.677 16.464H157.834C157.683 14.3992 156.16 13.2237 153.55 13.2237C151.046 13.2237 149.448 14.354 149.448 16.1475C149.448 17.504 150.307 18.559 151.951 18.8303L154.636 19.2523C155.526 19.3879 155.903 19.6894 155.903 20.3073C155.903 21.1212 155.104 21.5582 153.822 21.5582C152.449 21.5582 151.589 20.9855 151.333 19.8853H149.176ZM70.273 35.2131V38.2274H72.3545V31.5055H65.9288V33.299H70.092V33.6607C70.092 35.4392 68.4629 36.7203 66.4266 36.7203C63.6512 36.7203 61.9769 34.761 61.9769 31.822C61.9769 29.1393 63.4249 26.9237 66.3361 26.9237C68.478 26.9237 69.7149 28.1295 70.0015 29.7873H72.2339C71.7813 26.9087 69.4886 25.1151 66.3361 25.1151C62.2182 25.1151 59.7294 27.9787 59.7294 31.822C59.7294 35.6954 62.3389 38.5289 65.6573 38.5289C68.0255 38.5289 69.6093 37.3533 70.1975 35.2131H70.273ZM76.0199 31.7919V28.7926H73.7875V38.2124H76.0199V34.5349C76.0199 31.8974 77.0305 30.5409 78.8556 30.5409H79.655V28.672H79.1724C77.3322 28.672 76.593 29.2749 76.0953 31.7768L76.0199 31.7919ZM84.693 28.5062C87.4533 28.5213 89.6857 30.767 89.6857 33.5251C89.6707 36.2832 87.4232 38.5138 84.6629 38.5138C81.9025 38.4987 79.6701 36.2681 79.6701 33.51C79.5796 30.8423 81.6763 28.5967 84.3612 28.5062C84.4668 28.5062 84.5723 28.5062 84.693 28.5062ZM84.693 36.7353C86.5483 36.7353 87.4533 35.3035 87.4533 33.5251C87.4533 31.7316 86.5483 30.3148 84.693 30.3148C82.8377 30.3148 81.9327 31.7316 81.9327 33.51C81.9327 35.3035 82.8377 36.7353 84.693 36.7353ZM97.7254 33.6909C97.7254 35.3638 96.8807 36.7353 95.2516 36.7353C93.7433 36.7353 92.9891 35.8009 92.9891 34.2937V28.7926H90.7567V34.9569C90.6209 36.7956 92.0086 38.3781 93.8488 38.5138C93.9695 38.5289 94.0902 38.5289 94.2109 38.5138C95.8852 38.559 97.3332 37.3683 97.6198 35.7105H97.7254V38.2124H99.9578V28.7926H97.7254V33.6909ZM107.198 28.4912C109.943 28.4912 111.301 30.9177 111.301 33.5251C111.301 36.3284 109.777 38.5138 107.198 38.5138C105.584 38.4987 104.166 37.4286 103.714 35.8913H103.638V41.5884H101.391V28.7926H103.623V31.1438H103.699C104.166 29.5914 105.584 28.5213 107.198 28.4912ZM106.323 36.871C108.148 36.871 109.053 35.3638 109.053 33.5251C109.053 31.6713 108.178 30.134 106.323 30.134C104.845 30.1189 103.638 31.3096 103.623 32.7866C103.623 32.8469 103.623 32.9072 103.623 32.9674V34.0375C103.533 35.4995 104.649 36.7655 106.112 36.8559C106.187 36.871 106.248 36.871 106.323 36.871Z" fill="#1B79FF"></path>
  </g>
  <defs>
    <clipPath id="clip0_4116_483">
      <rect width="145" height="40" fill="white" transform="translate(13 4)"></rect>
    </clipPath>
  </defs>
</svg>
