<?xml version="1.0" encoding="UTF-8"?>
<svg xmlns="http://www.w3.org/2000/svg" width="171" height="48" viewBox="0 0 171 48" fill="none">
  <g clip-path="url(#clip0_4116_486)">
    <path d="M141.284 21.0815L141.51 22.8261C141.51 22.8261 139.99 22.083 138.167 22.1799C137.088 22.2446 136.398 22.6215 135.804 23.0846V31.9261H133.345V21.0061L135.815 20.6938V21.7492C136.301 21.4369 137.12 20.8876 138.264 20.8122C139.655 20.7153 141.047 21.0384 141.284 21.0815ZM76.3596 30.9784C77.3088 30.903 78.9592 30.6984 78.9592 29.1476C78.9592 28.6199 78.6032 28.1999 77.9992 27.8553C77.1794 27.3922 76.1763 27.0261 75.7772 26.843C74.1592 26.1861 72.4225 25.3999 72.4225 23.7953C72.4225 21.943 73.7924 20.6507 77.1147 20.6507C78.5924 20.6507 80.3614 21.0707 80.3614 21.0707V22.7722C80.3614 22.7722 78.4522 21.8138 76.8342 21.8138C75.6585 21.8138 74.6877 22.1692 74.6877 23.1492C74.6877 23.6661 75.0437 24.0538 75.6369 24.3769C76.4675 24.8292 77.4599 25.163 77.859 25.3246C79.4877 25.9707 81.2244 26.8107 81.2244 28.7061C81.2244 31.1184 78.9808 32.1307 76.1115 32.1307C73.7816 32.1307 72.3578 31.6999 72.3578 31.6999V30.7738C72.3578 30.7846 74.774 31.0969 76.3596 30.9784ZM92.8954 22.7722C92.8954 22.7722 91.0401 21.8138 89.4437 21.8138C86.4558 21.8138 85.8518 24.0215 85.8518 25.2707C85.8518 26.6815 85.9273 28.0707 86.8657 29.1584C87.7718 30.1922 89.6595 30.9784 91.4608 30.9784C92.2051 30.9784 93.1435 30.8169 93.1435 30.8169V31.743C93.1435 31.743 91.8707 32.1522 90.0046 32.1522C85.0212 32.1522 83.1767 29.6322 83.1767 26.0784C83.1767 23.1384 84.6868 20.6722 88.8181 20.6722C91.3098 20.6722 92.917 21.0922 92.917 21.0922V22.783H92.8954V22.7722ZM128.286 24.4953C128.286 23.1169 127.358 21.8138 125.838 21.8138C123.594 21.8138 123.076 23.623 122.958 24.4953H128.286ZM130.692 31.6784C130.692 31.6784 129.365 32.1307 127.089 32.1307C122.904 32.1307 120.455 29.9553 120.455 26.0569C120.455 22.6969 122.019 20.6507 126.204 20.6507C128.912 20.6507 131.037 22.2446 131.037 25.0553V25.5399H122.914C122.914 26.703 123.109 28.2322 124.079 29.2876C125.018 30.3107 126.722 30.9676 128.577 30.9676C129.483 30.9676 130.713 30.6553 130.713 30.6553V31.6784H130.692ZM107.651 21.2215L110.122 20.8984L114.113 29.1153L117.877 20.8984H119.722L114.447 32.1199H112.958L107.651 21.2215ZM100.791 30.9676C103.779 30.9676 104.027 28.243 104.027 26.4446C104.027 24.5169 103.563 21.8138 100.737 21.8138C97.6415 21.8138 97.4797 24.5169 97.4797 26.4446C97.4797 28.2215 97.9975 30.9676 100.791 30.9676ZM94.8046 26.4446C94.8046 23.0199 96.5413 20.6507 100.726 20.6507C104.48 20.6507 106.724 22.923 106.724 26.423C106.724 29.9446 104.793 32.1307 100.78 32.1307C96.9296 32.1307 94.8046 29.7938 94.8046 26.4446ZM66.3929 17.2799C66.3929 16.4938 67.1587 15.8584 68.1403 15.8584C69.0679 15.8584 69.8553 16.4938 69.8553 17.2799C69.8553 18.1092 69.0571 18.7015 68.1403 18.7015C67.1587 18.7015 66.3929 18.0661 66.3929 17.2799ZM66.9969 20.963L69.467 20.6399V31.8938H66.9969V20.963ZM55.0778 16.1061C57.6234 16.1061 60.0611 16.7092 61.7762 18.0553C63.6207 19.4984 64.6346 21.7384 64.6346 23.9892C64.6346 26.2615 63.6639 28.5122 61.7978 29.9446C60.0935 31.2692 57.591 31.8615 55.0562 31.8615H50.418V16.1061H55.0778ZM53.1901 17.3015V30.7199C54.9807 30.7199 56.6634 30.5799 57.8175 30.0738C60.3632 28.9322 61.6252 26.5522 61.6252 24.0107C61.6252 21.4584 60.3632 19.0892 57.8175 17.9476C56.6634 17.4199 54.9807 17.3015 53.1901 17.3015ZM142.913 20.9415L145.275 20.6399L148.5 28.7169L152.168 20.6399H153.99L148.802 32.0661C147.939 33.8861 146.408 36.2984 143.657 36.2984H143.236V34.6076C146.008 34.7799 147.141 32.723 147.141 31.9046C147.141 31.2692 146.828 30.5907 146.828 30.5907L142.913 20.9415Z" fill="#184785"></path>
    <path d="M26.4167 17.8292C25.7263 18.5077 25.036 19.2077 24.378 19.94C26.5245 22.2769 28.7358 24.5385 31.0009 26.7569C33.2661 24.5385 35.4882 22.2769 37.6239 19.94C36.9659 19.2185 36.2864 18.54 35.5852 17.8615C34.0428 19.3154 32.5111 20.7908 30.9902 22.2877C29.5016 20.78 27.9699 19.2938 26.4167 17.8292ZM28.5416 15.9446C29.3937 16.6338 30.2135 17.3554 31.0225 18.0877C31.8315 17.3554 32.6513 16.6338 33.4926 15.9446C32.6944 15.2769 31.8639 14.6308 31.0117 14.0277C30.1596 14.6308 29.3398 15.2769 28.5416 15.9446ZM22.5443 22.0185C22.0157 22.6754 21.5088 23.3431 21.0234 24.0431C23.7632 27.8446 27.1717 31.2154 31.0009 33.9185C34.8194 31.2154 38.2171 27.8446 40.9354 24.0323C40.4715 23.3538 39.9754 22.6862 39.4576 22.04C36.9336 25.1954 34.0751 28.0923 31.0225 30.7523C27.9591 28.06 25.1007 25.1738 22.5443 22.0185ZM18.6719 24C18.6611 17.3554 24.2593 11.68 30.9254 11.6692C37.6023 11.6692 43.2005 17.3662 43.1897 24C43.1897 30.6446 37.5915 36.3092 30.9254 36.3092C24.2809 36.3092 18.6935 30.6446 18.6719 24ZM17 24C17 16.2569 23.2454 10 30.947 10C38.6486 10 44.894 16.2569 44.894 24C44.894 31.7215 38.6486 38 30.947 38C23.2454 37.9892 17 31.7215 17 24ZM17.9384 24C17.9384 31.2046 23.7524 37.0415 30.9362 37.0415C38.1201 37.0415 43.9448 31.1938 43.9448 24C43.9448 16.7954 38.1309 10.9585 30.947 10.9585C23.7632 10.9477 17.9384 16.7954 17.9384 24Z" fill="#BA8C60"></path>
  </g>
  <defs>
    <clipPath id="clip0_4116_486">
      <rect width="137" height="28" fill="white" transform="translate(17 10)"></rect>
    </clipPath>
  </defs>
</svg>
