<?xml version="1.0" encoding="utf-8"?>
<!-- Generator: Adobe Illustrator 22.0.1, SVG Export Plug-In . SVG Version: 6.00 Build 0)  -->
<svg version="1.1" id="Layer_1" xmlns="http://www.w3.org/2000/svg" xmlns:xlink="http://www.w3.org/1999/xlink" x="0px" y="0px"
	 viewBox="0 0 152.3 39.6" style="enable-background:new 0 0 152.3 39.6;" xml:space="preserve">
<style type="text/css">
	.st0{fill:#FFFFFF;}
</style>
<g>
	<g>
		<g>
			<path class="st0" d="M55.5,13.5l0.3-0.9c0-0.1,0.1-0.1,0.2-0.1h2.2c0.1,0,0.1,0.1,0.1,0.1v18.2c0,0.1-0.1,0.1-0.1,0.1h-2.5
				c-0.1,0-0.1-0.1-0.1-0.1v-6.1c0-0.1-0.1-0.2-0.2-0.1C55.3,24.7,54,26,51.8,26c-3.6,0-6.1-2.8-6.1-6.9s2.4-6.9,6.1-6.9
				c1.3,0,2.9,0.7,3.5,1.4C55.3,13.6,55.4,13.6,55.5,13.5z M52,23.4c2.2,0,3.4-1.7,3.4-4.3c0-2.5-1.2-4.4-3.4-4.4
				c-2.4,0-3.7,1.8-3.7,4.4S49.7,23.4,52,23.4z"/>
			<path class="st0" d="M66,25.9c-4,0-5.6-2.9-5.6-6.2v-7.2c0-0.1,0.1-0.1,0.1-0.1H63c0.1,0,0.1,0.1,0.1,0.1v7.2
				c0,1.8,0.9,3.6,3.2,3.6c2.1,0,3.2-1.7,3.2-3.5v-7.3c0-0.1,0.1-0.1,0.1-0.1h2.5c0.1,0,0.1,0.1,0.1,0.1v13c0,0.1-0.1,0.1-0.1,0.1
				H70c-0.1,0-0.2-0.1-0.2-0.1l-0.3-1c-0.1-0.2-0.2-0.1-0.3,0C68.7,25.2,67.4,25.9,66,25.9z"/>
			<path class="st0" d="M79.5,25.9c-3.5,0-5.2-1.8-5.2-4.2c0-2.3,1.9-4.1,5.7-4.1h2.7c0.6,0,0.8-0.4,0.8-0.7c0-0.8-0.2-2.2-3.1-2.2
				c-2.1,0-2.9,0.9-3,2c0,0.1-0.1,0.1-0.1,0.1h-2.5c-0.1,0-0.1-0.1-0.1-0.1c0-3.1,2.7-4.6,5.8-4.6c3.6,0,5.9,1.6,5.9,4.9v5.4
				c0,0.5,0.4,0.9,0.9,0.9h0.6c0.1,0,0.1,0.1,0.1,0.1v2.2c0,0.1-0.1,0.1-0.1,0.1h-1c-1.4,0-2.2-0.4-2.7-1.2c-0.1-0.1-0.2-0.1-0.2,0
				C83.3,25.1,81.8,25.9,79.5,25.9z M83.6,20.2V20c0-0.1-0.1-0.1-0.1-0.1h-3.3c-2.6,0-3,1-3,1.8c0,0.7,0.6,1.7,2.4,1.7
				C82.5,23.4,83.6,21.7,83.6,20.2z"/>
			<path class="st0" d="M96.4,12.1c4,0,5.6,2.9,5.6,6.2v7.2c0,0.1-0.1,0.1-0.1,0.1h-2.6c-0.1,0-0.1-0.1-0.1-0.1v-7.2
				c0-1.8-0.9-3.6-3.2-3.6c-2.1,0-3.2,1.7-3.2,3.5v7.3c0,0.1-0.1,0.1-0.1,0.1h-2.5c-0.1,0-0.1-0.1-0.1-0.1v-13
				c0-0.1,0.1-0.1,0.1-0.1h2.2c0.1,0,0.2,0.1,0.2,0.1l0.3,1c0.1,0.2,0.2,0.1,0.3,0C93.6,12.8,94.9,12.1,96.4,12.1z"/>
			<path class="st0" d="M103,14.8c-0.1,0-0.1-0.1-0.1-0.1v-2.1c0-0.1,0.1-0.1,0.1-0.1h2.2c0.1,0,0.1-0.1,0.1-0.1V8.7
				c0-0.1,0.1-0.1,0.1-0.1h2.6c0.1,0,0.1,0.1,0.1,0.1v3.5c0,0.1,0.1,0.1,0.1,0.1h2.8c0.1,0,0.1,0.1,0.1,0.1v2.1
				c0,0.1-0.1,0.1-0.1,0.1h-2.8c-0.1,0-0.1,0.1-0.1,0.1v7.2c0,0.7,0.4,1.1,1.2,1.1h1.7c0.1,0,0.1,0.1,0.1,0.1v2.3
				c0,0.1-0.1,0.1-0.1,0.1h-2c-2.7,0-3.7-1.1-3.7-3.7v-7.1c0-0.1-0.1-0.1-0.1-0.1H103V14.8z"/>
			<path class="st0" d="M124,25.9c-4,0-5.6-2.9-5.6-6.2v-7.2c0-0.1,0.1-0.1,0.1-0.1h2.6c0.1,0,0.1,0.1,0.1,0.1v7.2
				c0,1.8,0.9,3.6,3.2,3.6c2.1,0,3.2-1.7,3.2-3.5v-7.3c0-0.1,0.1-0.1,0.1-0.1h2.5c0.1,0,0.1,0.1,0.1,0.1v13c0,0.1-0.1,0.1-0.1,0.1
				H128c-0.1,0-0.2-0.1-0.2-0.1l-0.3-1c-0.1-0.2-0.2-0.1-0.3,0C126.8,25.2,125.4,25.9,124,25.9z"/>
			<path class="st0" d="M149.3,25.7c-0.1,0-0.1-0.1-0.1-0.1v-7.2c0-1.8-0.5-3.6-2.7-3.6c-2.1,0-2.6,1.7-2.6,3.6v7.2
				c0,0.1-0.1,0.1-0.1,0.1h-2.6c-0.1,0-0.1,0-0.1-0.1v-7.2c0-1.8-0.5-3.6-2.7-3.6c-2,0-2.7,1.7-2.7,3.6v7.2c0,0.1-0.1,0.1-0.1,0.1
				h-2.5c-0.1,0-0.1-0.1-0.1-0.1v-13c0-0.1,0.1-0.1,0.1-0.1h2.2c0.1,0,0.2,0.1,0.2,0.2l0.3,1c0.1,0.1,0.2,0.1,0.3,0
				c0.6-0.7,1.9-1.4,3.1-1.4c1.7,0,2.7,0.5,3.6,1.6c0.1,0.1,0.2,0.1,0.3,0c0.9-0.9,2.3-1.6,3.7-1.6c3.4,0,5.2,2.1,5.2,6.1v7.3
				c0,0.1-0.1,0.1-0.1,0.1h-2.6V25.7z"/>
			<g>
				<path class="st0" d="M113.6,25.7c-0.1,0-0.1-0.1-0.1-0.1v-13c0-0.1,0.1-0.1,0.1-0.1h2.5c0.1,0,0.1,0.1,0.1,0.1v13
					c0,0.1-0.1,0.1-0.1,0.1H113.6z"/>
				<circle class="st0" cx="114.9" cy="9" r="1.7"/>
			</g>
		</g>
		<path class="st0" d="M19.1,0C8.6,0,0,8.6,0,19.1s8.6,19.1,19.1,19.1s19.1-8.6,19.1-19.1S29.7,0,19.1,0z M14.1,24.2
			c-2.8-2.8-2.8-7.4,0-10.2s7.4-2.8,10.2,0s2.8,7.4,0,10.2C21.4,27,16.9,27,14.1,24.2z M28.5,32c-2,0-3.6-1.6-3.6-3.6
			s1.6-3.6,3.6-3.6s3.6,1.6,3.6,3.6C32,30.4,30.4,32,28.5,32z"/>
		<path class="st0" d="M36.1,33.7c-1.3,0-2.4,1.1-2.4,2.4c0,1.3,1.1,2.4,2.4,2.4c1.3,0,2.4-1.1,2.4-2.4S37.4,33.7,36.1,33.7z"/>
	</g>
</g>
</svg>
